<svg xmlns="http://www.w3.org/2000/svg" width="24.395" height="25.512" viewBox="0 0 24.395 25.512"><g><path d="M22.847 18.504c-.946-.538-1.59-.786-2.364-1.018-.914-.27-1.86-.56-3.052-1.465-1.305-.994-2.09-2.737-2.246-3.27.533-.09 1.494.523 2.155.606 1.324.166 1.524 1.28 2.16 2.135.67.904 2.568.792 3.56 1.02.4-1.384 1.49-2.345 1.316-3.907-.173-.194-.347-.42-.56-.574-.393-.087-2.408-2.06-2.563-2.5-.41-1.17-1.527-1.746-1.965-2.944l-.018.022-.04-.274c-.925-.847-4.225-3.56-5.213-4.073l-.038.01-.247-.084c-.258-.084-.508-.138-.78-.156l-.634-.04C11.11.22 10.733 1.047 9.065 0c.16.375.455.886.68 1.286-2.853-.15-4.562 1.95-6.187 1.956.253.146.573.23.864.194-.824.824-2.092 2.758-3.332 2.768.754.606 1.712.297 1.712.297-.646 1.993-.37 3.423-2.806 4.34 1.29.302 1.707.214 2.58-.203.367 1.773.326 3.763-1.535 4.722.56-.05 1.68-.13 2.375-.9.11 2.32-1.133 3.097-2.727 3.946 4.472.88 7.21 1.33 11.116 2.66 3.91-1.33 6.57-1.683 11.04-2.562z" fill="#FFCE34"/><path d="M15.566 14.783c-.496 0-.963-.13-1.304-.256-.345-.128-.563-.256-.563-.256l-.02.027c.886.888 1.937 1.066 2.274 1.103.07.1.17.25.313.424.147.178.343.382.604.584.348.27.578.435.824.584.23.14.467.266.826.458-1.098-.168-1.38-.212-1.7-.236-2.263-.174-3.116-.298-4.053-.543-.243-.086-.65-.21-1.103-.38-.453-.17-.95-.384-1.373-.642-.92-.56-1.737-1.118-2.474-1.626.727.922 1.528 1.572 2.142 1.998.612.426 1.044.63 1.048.632.834.387 1.5.607 2.066.743.566.137 1.033.19 1.47.246 1.14.115 2.81.227 3.958.398.38.057.56.076.85.106.28.028.656.067 1.404.16-3.293.717-5.695 1.27-8.95 2.375-3.32-1.13-5.793-1.74-9.21-2.494 2.113-1.564 2.064-3.237 1.85-4.912-.02-.236-.123-.63-.252-1.123-.133-.495-.29-1.095-.422-1.747-.26-1.304-.407-2.822.005-4.142.07-.225.155-.52.316-.86.16-.337.392-.714.752-1.1.688-.733 1.844-1.496 3.863-2.06-.227.095-.56.253-.932.48-.677.42-1.484 1.078-1.99 2.038-1.277 2.435-.55 5.617.262 7.046l.03-.014S5.28 9.02 5.72 6.906c.354-1.71 1.41-3.027 3.038-3.903.627-.338 1.07-.576 1.69-.414.288.074.424.272.528.56.11.312-.05.955-.05.957-.08.332-.134.43-.202.647l-.015.056.044-.037c.21-.178.34-.42.45-.684.11-.26.197-.542.314-.8l-.957-1.752c.353.416.703.61 1.004.746.167.075.32.132.448.197.127.065.23.14.303.247.52.554 1.22.88 1.89 1.125.335.124.663.228.962.33.265.093.506.184.705.288-.33-.01-1.39.083-1.482.1l-.477.015.057.03c.275.148.62.222.937.26.316.035.606.035.77.035.564.02 1.01.258 1.456.617.45.36.902.84 1.487 1.33.004.005.103.078.103.107 0 .017-.007.03-.015.04l-.08.094c.02.05.33.304.42.372.933.664 1.345 1.164 1.58 1.603.237.442.3.824.528 1.25l.14.27c.08.147.137.23.255.4.04.054.078.118.114.187.086.158.168.352.247.558.082.206.162.428.243.64.167.428.346.832.577 1.043.004.005.037.006.076.01h.03l-.015-.024c-.112-.236-.106-.604-.106-.604-.004-.01-.258-.665-.19-.836.056-.146.183.005.196.02.098.2.378.4.633.55.256.15.49.254.49.254.122.055.03.105.002.118-.928 0-.634.52-.39.746.028.028.09.05.138.067l.063.024.03.002c.05.065.064.145.036.24-.003.01-.68 1.806-.876 1.885-.135.055-.98.025-.982.025-.002 0-1.34-.04-2.018-.64-.025-.045-.053-.093-.077-.142.174-.447-.973-1.66-1.215-1.79l-.336-.196c-.153-.1-.29-.21-.394-.34.108-.38.104-.83.023-1.276-.012-.073-.026-.147-.045-.223-.042-.185-.096-.366-.158-.537l-.032.006c0 .175.002.365-.002.558s-.017.387-.05.57c-.063.363-.208.68-.52.848-2.376-.186-4.335-2.508-5.676-4.52-.048-.078-.1-.156-.144-.232l-.06-.076-.028.016c.643 1.646 1.927 3.298 3.327 4.517l.108.226c.102.268.213.536.337.807l-.067-.002c-.99 0-2.486-1.127-2.488-1.128.697.77 1.43 1.222 1.98 1.486.518.246.876.33.924.34l.113.207.196.41z" fill="#650038"/><path fill="#FFCE34" d="M16.918 7.303l-.19.056-1.31-1.028 1.496.424.178.495-.174.053z"/><g fill="#FFCE34"><path d="M.693 22.002c0-.032-.014-.057-.14-.064v-.043H2.45c.535 0 .93.144.93.497 0 .216-.2.35-.48.392v.007c.336.065.58.194.58.46 0 .286-.3.53-1.006.53H.554v-.044c.125-.007.14-.03.14-.064v-1.67zm.745.602h.677c.43 0 .54-.02.54-.164 0-.144-.11-.165-.54-.165h-.677v.33zm0 .795h.847c.348 0 .487-.058.487-.217 0-.157-.14-.214-.487-.214h-.847v.43zM4.622 23.67c0 .034.017.06.142.065v.043H3.738v-.043c.123-.007.14-.03.14-.064v-1.668c0-.032-.017-.057-.14-.064v-.043h1.82c.738 0 1.05.187 1.05.594 0 .33-.3.505-.71.588l.586.594c.045.047.09.064.145.064v.043H5.593v-.044c.07-.004.11-.02.11-.064 0-.03-.528-.526-.593-.602h-.488v.6zm0-.98h.837c.294 0 .382-.094.382-.198 0-.103-.088-.196-.383-.196H4.62v.393zM9.847 22.836c0 .627-.706.965-1.552.965s-1.552-.337-1.552-.964c0-.626.706-.964 1.552-.964s1.552.338 1.552.964zm-2.368 0c0 .338.384.526.815.526.434 0 .816-.188.816-.526 0-.336-.382-.526-.815-.526-.432 0-.816.19-.816.526zM10.205 22.002c0-.032-.014-.057-.14-.064v-.043h1.2v.043c-.114.004-.14.024-.14.047 0 .04.86.698 1.208.974v-.957c0-.043-.037-.06-.104-.064v-.044h.91v.043c-.126.007-.14.03-.14.063v1.67c0 .032.014.057.14.063v.043h-.946v-.044c.092 0 .114-.015.114-.04 0-.046-.125-.092-1.438-1.15v1.126c0 .033.017.058.14.064v.043h-.945v-.044c.125-.007.14-.03.14-.064v-1.67zM15.943 22.59l-.05-.025c.004-.014.008-.03.008-.054 0-.07-.382-.164-.804-.164-.403 0-.925.126-.925.49 0 .366.522.49.926.49.175 0 .835-.096.835-.2 0-.02-.02-.034-.03-.053l.057-.025.512.563-.06.026c-.016-.025-.035-.028-.068-.028-.103 0-.563.193-1.305.193-.795 0-1.643-.322-1.643-.964 0-.64.848-.964 1.643-.964.397 0 .682.037.88.077.194.037.294.066.343.066.03 0 .057-.01.075-.03l.056.012-.447.59zM19.618 22.836c0 .627-.706.965-1.552.965-.845 0-1.55-.337-1.55-.964 0-.626.705-.964 1.55-.964.846 0 1.552.338 1.552.964zm-2.368 0c0 .338.385.526.816.526.434 0 .816-.188.816-.526 0-.336-.383-.526-.816-.526-.43 0-.816.19-.816.526zM20.008 23.033l.05.02c-.01.017-.01.042-.01.073 0 .097.532.26 1.05.26.496 0 .72-.087.72-.245 0-.264-2.05.03-2.05-.66 0-.36.48-.607 1.21-.607.68 0 1.174.15 1.31.15.063 0 .098-.024.133-.053l.056.015-.342.497-.06-.02v-.04c0-.09-.57-.19-1.036-.19-.434 0-.584.085-.584.168 0 .318 2.063-.072 2.063.752 0 .31-.324.65-1.404.65-.83 0-1.2-.166-1.313-.166-.04 0-.07.024-.1.047l-.06-.012.368-.637zM3.717 24.463c0-.02-.01-.033-.078-.037v-.023h1.07c.304 0 .526.08.526.28 0 .123-.113.197-.272.222v.004c.19.035.327.11.327.258 0 .163-.167.3-.565.3H3.64v-.023c.067-.004.077-.02.077-.037v-.945zm.422.34h.382c.242 0 .305-.012.305-.093s-.063-.094-.305-.094H4.14v.187zm0 .45h.478c.196 0 .275-.032.275-.122 0-.088-.08-.12-.275-.12h-.48v.243zM6.322 25.406c0 .02.008.033.078.037v.024h-.58v-.024c.07-.004.08-.02.08-.037v-.943c0-.02-.01-.033-.08-.037v-.023h1.03c.417 0 .593.104.593.336 0 .186-.168.284-.402.33l.335.337c.023.027.05.037.08.037v.024H6.87v-.024c.04-.002.063-.013.063-.037 0-.02-.3-.297-.337-.34h-.274v.34zm0-.553h.473c.165 0 .217-.054.217-.112 0-.06-.052-.11-.217-.11h-.473v.223zM8.023 25.468v-.024c.07-.004.078-.02.078-.037v-.943c0-.02-.007-.033-.077-.037v-.023h.58v.023c-.07.004-.078.02-.078.037v.943c0 .02.008.033.078.037v.024h-.58zM9.322 25.046l.03.01c-.006.01-.006.025-.006.043 0 .054.3.145.592.145.283 0 .408-.048.408-.137 0-.15-1.158.016-1.158-.375 0-.202.27-.342.683-.342.388 0 .667.086.743.086.034 0 .057-.015.074-.03l.033.007-.195.282-.033-.013V24.7c0-.05-.32-.107-.587-.107-.243 0-.327.05-.327.095 0 .18 1.162-.04 1.162.427 0 .174-.182.366-.793.366-.47 0-.676-.093-.742-.093-.02 0-.04.015-.057.026l-.034-.006.208-.36zM11.313 24.463c0-.02-.008-.033-.078-.037v-.023h1.07c.305 0 .526.08.526.28 0 .123-.11.197-.268.222v.004c.188.035.326.11.326.258 0 .163-.17.3-.57.3h-1.084v-.023c.07-.004.078-.02.078-.037v-.945zm.42.34h.384c.242 0 .305-.012.305-.093s-.063-.094-.305-.094h-.383v.187zm0 .45h.48c.196 0 .275-.032.275-.122 0-.088-.08-.12-.275-.12h-.48v.243zM13.842 25.236c-.073.148-.09.174-.09.187s.012.02.05.02v.025h-.497v-.024c.04-.006.057-.015.072-.048.025-.045.502-.937.502-.95 0-.014-.033-.017-.058-.02v-.023h.733v.023c-.03.003-.05.006-.05.026 0 .017.346.622.52.93.03.05.047.062.08.062v.024h-.555v-.024c.04-.002.053-.013.053-.024 0-.01-.085-.156-.096-.183h-.665zm.07-.162h.522l-.272-.482-.25.482zM15.666 24.463c0-.02-.008-.033-.077-.037v-.023h.678v.023c-.064.003-.08.015-.08.026 0 .023.488.396.685.552v-.54c0-.025-.022-.035-.06-.038v-.023h.516v.023c-.073.004-.08.02-.08.037v.943c0 .02.007.033.08.037v.024h-.536v-.024c.05 0 .066-.008.066-.022 0-.025-.072-.052-.814-.65v.637c0 .02.008.033.078.037v.024h-.534v-.024c.07-.004.077-.02.077-.037v-.944zM19.06 25.078h-.033c-.01-.026-.028-.047-.083-.047h-.524v.19h.902c.03 0 .04-.01.05-.062h.033v.353h-.032c-.01-.034-.02-.043-.05-.043h-1.405v-.024c.07-.004.08-.02.08-.037v-.943c0-.02-.01-.033-.08-.037v-.023h1.404c.03 0 .04-.01.05-.058h.033v.353h-.032c-.01-.046-.02-.057-.05-.057h-.903v.17h.523c.055 0 .074-.02.083-.047h.033v.315z"/></g></g></svg>