<svg xmlns="http://www.w3.org/2000/svg" width="19.672" height="25.796" viewBox="0 0 19.672 25.796"><path d="M9.215 25.508c-.56-.25-1.43-.665-2.524-1.37-1.14-.733-2.32-1.643-3.606-2.78-1.033-.916-1.822-2.185-2.344-3.77C.246 16.09 0 14.31 0 12.3V0h19.673v12.3c0 2.045-.244 3.83-.725 5.306-.512 1.568-1.3 2.832-2.345 3.756-1.294 1.136-2.475 2.044-3.607 2.775-.714.463-1.42.858-2.154 1.21-.11.053-.983.45-.983.45l-.646-.29zM18.842.83H.816v11.615c0 1.856.23 3.5.686 4.882.475 1.45 1.195 2.61 2.14 3.446 1.194 1.056 2.288 1.9 3.347 2.58 1.016.655 1.816 1.036 2.332 1.266l.533.237h.002l.533-.243c.507-.228 1.295-.608 2.306-1.263 1.053-.68 2.145-1.52 3.346-2.573.954-.846 1.674-2 2.14-3.435.446-1.36.67-3.01.663-4.898V.83h-.003zm-2.936 19.794c-1.194 1.047-2.28 1.883-3.32 2.556-1 .646-1.78 1.022-2.28 1.248l-.45.205-.452-.2c-.507-.23-1.3-.605-2.306-1.252-1.05-.672-2.135-1.51-3.32-2.56-.57-.505-1.06-1.133-1.455-1.877H17.37c-.397.74-.886 1.37-1.464 1.882z" fill="#fff"/><path d="M.273.276V12.3c0 1.98.244 3.73.726 5.2.505 1.538 1.267 2.765 2.263 3.65 1.276 1.127 2.445 2.03 3.576 2.755 1.085.7 1.94 1.104 2.49 1.35l.526.237v-.635h-.002l-.533-.24c-.515-.228-1.315-.61-2.333-1.265-1.06-.68-2.152-1.524-3.348-2.58-.944-.837-1.665-1.996-2.14-3.446-.455-1.383-.686-3.025-.686-4.882V.83H18.84v11.615c.01 1.89-.216 3.537-.66 4.898-.468 1.435-1.188 2.59-2.14 3.435-1.203 1.053-2.295 1.895-3.348 2.574-1.01.654-1.8 1.035-2.305 1.263l-.533.243v.635l.53-.24c.1-.045.212-.098.335-.155.525-.25 1.246-.625 2.122-1.193 1.123-.724 2.29-1.625 3.574-2.75 1.008-.894 1.77-2.115 2.265-3.635.473-1.45.713-3.207.713-5.22V.277H.273z" fill="#878A8F"/><path d="M1.024 1.035H18.64v3.943H1.024z"/><path fill="#00468B" d="M9.855 24.633l.002-.003-.004-.003zm8.785-19.45L9.86 18.53 1.022 5.184v6.19l4.772 7.164h8.1l4.744-7.164z"/><path d="M2.322 18.742c.398.743.885 1.372 1.455 1.88 1.188 1.047 2.27 1.885 3.322 2.56 1.004.646 1.795 1.022 2.302 1.25l.438.195.01.003.006.003.45-.205c.5-.226 1.28-.602 2.28-1.248 1.04-.673 2.126-1.51 3.32-2.556.578-.512 1.066-1.14 1.46-1.882H2.323z"/><path d="M11.043 20.37c.014-.004.02.027.018.07l-.014.117c-.006.044-.01.115-.01.16v.167c0 .043-.028.057-.063.03l-.03-.022c-.035-.027-.09-.07-.123-.1l-.034-.027c-.033-.027-.093-.07-.13-.09l-.084-.05c-.04-.022-.104-.054-.145-.07l-.05-.02c-.04-.016-.11-.033-.153-.04l-.04-.004-.16-.014-.106-.006c-.044-.003-.115 0-.158.003l-.05.007c-.042.005-.11.024-.15.04l-.07.034c-.04.018-.102.054-.138.08l-.062.048c-.034.027-.085.078-.11.114l-.024.034c-.028.035-.065.098-.082.14l-.02.04c-.02.042-.038.11-.047.153l-.015.093c-.008.043-.015.114-.018.158l-.018.33c-.004.045-.004.116-.004.163l.008.475c0 .044.004.115.01.16l.014.108c.006.042.02.113.035.155l.027.09c.013.04.04.106.063.145l.028.048c.02.04.06.098.09.132l.023.025c.03.033.086.08.12.105l.066.048c.036.025.1.06.14.075l.085.033c.04.018.11.034.155.038l.056.006c.046.002.117.006.16.002l.117-.002c.043-.002.115-.012.158-.023l.102-.027c.043-.013.11-.036.15-.054l.088-.04c.04-.016.1-.05.138-.076l.075-.048c.036-.025.07-.01.074.037l.026.233c.005.044-.014.072-.042.062-.028-.01-.074-.018-.1-.018-.026 0-.07.003-.1.005-.028.003-.073.02-.103.034-.028.018-.085.04-.122.052-.04.01-.11.03-.15.044l-.02.005c-.042.013-.11.028-.144.035-.04.01-.106.016-.15.018h-.004c-.045.003-.12.003-.16 0H9.86c-.044-.002-.114-.015-.16-.024-.042-.015-.11-.037-.15-.055l-.05-.022c-.04-.018-.104-.05-.142-.07l-.06-.034c-.038-.02-.1-.062-.134-.09l-.03-.02c-.032-.028-.087-.074-.114-.107l-.015-.012c-.028-.032-.07-.09-.092-.128l-.027-.05c-.02-.037-.05-.103-.068-.145l-.018-.05c-.018-.04-.037-.108-.044-.152l-.005-.03c-.006-.046-.02-.11-.02-.148-.007-.04-.015-.103-.02-.143-.005-.04-.017-.108-.03-.15v-.003c-.01-.04-.03-.102-.047-.132-.014-.03-.043-.08-.06-.107-.02-.027-.046-.065-.062-.085-.013-.02-.045-.052-.067-.073-.023-.022-.02-.052.004-.07.025-.015.066-.048.086-.067.02-.02.05-.063.064-.09.014-.03.037-.08.05-.112l.04-.14.006-.022c.008-.043.02-.115.03-.157v-.013c.007-.046.022-.117.033-.16l.003-.007c.01-.042.03-.112.04-.155.014-.042.04-.108.06-.146.02-.04.06-.1.09-.135.024-.036.07-.09.1-.12s.087-.078.12-.103l.025-.02c.037-.026.1-.062.14-.08l.018-.01c.04-.02.104-.042.142-.052s.1-.023.138-.03c.04-.008.1-.016.142-.018s.11-.002.154 0h.003c.043.002.115.01.158.016l.014.003c.046.008.112.023.153.035.04.013.098.03.13.038.03.01.083.03.116.045l.115.048c.032.012.074.022.096.026.02 0 .062.004.092.01.027 0 .07-.006.098-.016.025-.01.063-.03.08-.046.02-.02.046-.037.06-.042zm-.078 1.935c-.008-.03-.025-.084-.037-.118-.013-.033-.037-.085-.055-.113-.016-.028-.045-.067-.063-.087-.02-.02-.05-.05-.072-.066-.02-.015-.052-.035-.068-.042-.02-.01-.038-.025-.04-.04-.003-.012.013-.033.034-.05s.055-.056.08-.09c.023-.034.055-.095.07-.137v-.013c.018-.043.03-.112.03-.156v-.003c0-.045-.01-.11-.022-.144-.012-.035-.036-.088-.055-.117-.02-.028-.05-.066-.068-.086-.018-.022-.06-.058-.094-.083-.035-.026-.094-.06-.135-.076l-.13-.046c-.033-.01-.086-.017-.117-.017s-.086 0-.122.002c-.036 0-.096.005-.132.01l-.147.02-.134.02c-.03.007-.066.014-.084.016-.02.003-.068.008-.11.01l-.01.002c-.045 0-.075.038-.067.083l.006.045c.01.044.018.115.024.158l.008.055c.006.043.014.113.016.158l.004.066.01.16.002.066.006.16.003.1c.003.045.004.115.004.16v.06c0 .046-.002.117-.006.16l-.003.073c-.002.045-.01.115-.013.16l-.013.137-.02.158-.01.063c0 .045.02.09.048.1.03.015.087.032.124.045.037.01.096.025.13.03.036.008.093.017.126.023.033.006.092.01.127.01.037.003.103.003.146 0h.015c.045 0 .107-.004.138-.007.032-.007.09-.02.13-.033s.102-.04.137-.06c.034-.02.09-.05.12-.07.032-.02.072-.053.095-.075.02-.02.052-.06.072-.085.015-.026.046-.08.065-.12.02-.037.043-.094.05-.126.01-.03.017-.086.02-.123.003-.035-.002-.09-.01-.12zm-1.268-1.182c.008-.01.03-.03.05-.04.022-.01.064-.022.09-.027.026-.006.083-.012.124-.015.044 0 .103-.003.128-.003.03 0 .087.006.126.012.04.005.094.02.12.03l.093.042c.023.014.06.04.077.057.02.02.042.053.052.08.01.022.02.07.025.1.003.03 0 .07-.007.09-.008.024-.027.057-.04.076-.017.02-.046.05-.064.063-.02.015-.06.04-.08.054-.026.014-.067.032-.095.043-.025.008-.07.02-.102.028-.028.006-.08.012-.11.014l-.114.002s-.07 0-.09-.002c-.02-.002-.048-.004-.06-.008-.018-.003-.035-.006-.043-.01-.008 0-.024-.012-.032-.02-.007-.01-.018-.025-.02-.038-.003-.012-.007-.047-.01-.077-.003-.028-.005-.078-.005-.107 0-.03-.003-.076-.007-.102l-.012-.103-.006-.087c.003-.016.006-.04.014-.053zm.996 1.312c-.002.036-.016.097-.033.137l-.008.02c-.016.04-.05.096-.072.125-.025.026-.074.068-.114.093l-.01.008c-.04.02-.1.05-.128.062-.033.013-.094.026-.13.032-.037.006-.096.012-.126.01-.033-.002-.088-.006-.12-.01s-.08-.01-.1-.014c-.02-.003-.052-.012-.07-.016-.02-.006-.042-.017-.052-.02-.012-.01-.025-.018-.033-.023-.006-.006-.01-.018-.01-.026s.002-.054.006-.097v-.02l.016-.16c0-.045.01-.116.01-.16v-.01c.002-.044.007-.116.007-.16V22.2c0-.043.003-.106.005-.14 0-.035.008-.074.016-.092.008-.014.025-.027.042-.03l.082-.002c.03 0 .082 0 .115.003s.095 0 .134 0c.04 0 .106.01.146.02.038.006.1.023.13.034.035.012.078.036.097.053l.077.066c.022.02.05.055.064.082.016.026.035.076.045.11.005.036.01.093.01.13z" fill="#fff"/><path d="M11.703 21.66c-.02-.025-.04-.05-.054-.064.13-.097.22-.176.264-.237.03-.04.044-.083.044-.128 0-.048-.017-.088-.053-.123-.032-.035-.07-.053-.112-.053-.09 0-.172.056-.244.168l-.068-.04c.035-.075.068-.133.104-.17.033-.04.082-.072.145-.1.05-.02.107-.03.178-.03.098 0 .17.023.223.07.05.048.077.108.077.18 0 .057-.02.11-.055.164-.034.05-.1.11-.19.17h.023c.098 0 .178.037.238.113.062.075.094.158.094.247 0 .077-.018.156-.053.24-.035.08-.098.15-.19.205-.093.056-.208.085-.343.085-.13 0-.23-.023-.3-.07-.043-.028-.064-.062-.064-.102 0-.027.01-.05.03-.07s.05-.032.082-.032c.03 0 .053.008.076.022s.057.048.097.1c.02.025.04.042.06.05.033.014.06.02.073.02.04 0 .078-.013.12-.038.044-.027.077-.072.102-.133s.035-.132.035-.214c0-.088-.02-.156-.063-.207-.045-.05-.094-.075-.145-.075-.038 0-.084.02-.134.05zm1.497-.77l.04-.002.04.002c-.03.146-.054.23-.067.255-.008.014-.018.02-.025.022l-.14.006h-.03l-.068.004-.053-.004-.133-.004h-.037l-.004.043-.006.145-.004.103c.03-.015.064-.026.1-.034s.07-.012.107-.012c.055 0 .107.01.16.03.052.022.098.053.137.092.028.03.058.067.086.117.02.035.03.06.033.078l.012.103c0 .057-.004.108-.016.155-.014.046-.04.097-.083.154-.04.058-.077.096-.11.117-.05.035-.105.06-.16.07-.06.015-.13.02-.215.02-.098 0-.182-.02-.247-.07-.042-.025-.06-.06-.06-.102 0-.03.01-.06.034-.08.02-.023.05-.034.084-.034.053 0 .104.032.158.098.03.04.054.064.072.074.023.013.05.02.082.02.043 0 .084-.013.12-.038.042-.025.075-.063.1-.115.026-.052.038-.1.038-.145 0-.077-.025-.143-.08-.2-.05-.055-.11-.082-.186-.082-.037 0-.068.004-.097.014-.013.004-.04.02-.077.046l-.045.03c-.01.004-.02.006-.026.006-.013 0-.02-.003-.03-.01-.005-.005-.007-.012-.007-.02l.015-.35c0-.015 0-.028.002-.04s.002-.042.003-.092c0-.05.003-.086.004-.105.004-.032.005-.06.005-.078 0-.017.003-.03.003-.044l.002-.02v-.04c0-.02.01-.03.036-.038.012-.004.068-.006.173-.006l.25.003c.04 0 .07-.003.08-.008.01-.008.02-.02.03-.038zM6.694 20.88h.177l.005.05-.002.035-.002.117v.27l-.007.743v.063c0 .02.004.037.016.047.01.01.036.018.08.024.02.003.056.008.106.018.002.007.002.014.002.02 0 .008 0 .025-.003.052H7.02c-.032 0-.08 0-.142-.005l-.076-.004-.195.008h-.083l-.03.002-.057-.002c-.005 0-.02 0-.044.003-.002-.015-.002-.027-.002-.036 0-.008 0-.02.003-.036.03-.008.064-.015.103-.023.053-.01.086-.022.098-.033s.02-.024.02-.04l-.002-.077.002-.082v-.21l.002-.064c0-.02.004-.04.004-.055 0-.01-.003-.04-.004-.09l.004-.063c-.004-.048-.004-.076-.004-.085v-.032l.004-.028-.004-.074v-.035c.002-.016.004-.037.004-.063v-.092c-.053.04-.11.078-.18.117-.007.004-.04.02-.1.046-.02-.034-.037-.062-.043-.08.077-.04.132-.07.16-.09.043-.03.093-.07.147-.12.024-.022.053-.055.087-.1zm.634 1.48c-.012-.014-.018-.027-.018-.04s.004-.022.012-.03c.004-.005.025-.015.063-.03.076-.028.143-.063.197-.105.055-.04.102-.09.138-.15.037-.06.063-.122.08-.19.016-.07.024-.123.026-.162 0-.013.004-.046.01-.096.004-.037.005-.083.005-.136 0-.185-.02-.312-.065-.382-.033-.052-.076-.078-.127-.078-.047 0-.087.02-.12.065-.044.062-.067.148-.067.26 0 .07.007.136.015.197.006.04.02.077.04.11.012.02.024.037.036.043.03.014.06.02.09.02.016 0 .036-.002.056-.008l.016-.003c.01 0 .02.004.026.012.008.01.01.02.01.037 0 .028-.01.046-.033.054-.046.02-.098.026-.15.026-.036 0-.058 0-.065-.004-.07-.027-.112-.045-.13-.058-.04-.03-.074-.062-.096-.095-.02-.03-.04-.067-.05-.11-.015-.054-.02-.107-.02-.164 0-.087.017-.168.057-.242s.095-.13.16-.166c.07-.038.144-.057.22-.057.14 0 .257.053.35.16.09.105.138.26.138.46 0 .1-.02.205-.058.317-.01.026-.038.08-.08.156-.044.077-.105.147-.178.21-.075.062-.153.107-.237.138-.082.03-.15.043-.203.043-.01.003-.024.003-.044 0z" fill="#878A8F"/><path fill="#00468B" d="M15.727 5.184H3.982l5.877 8.95 5.866-8.95"/><path d="M11.318 20.155l-.016-.002.016.002zm6.314-3.222l-.004-.006-.005-.005c-.05-.06-.104-.147-.11-.18v-.017l.003-.13c0-.307-.04-.508-.123-.63l.01.02c-.062-.122-.102-.233-.102-.27v-.05c0-.01-.01-.978-.287-1.37l-.008-.012-.01-.012c-.004-.002-.08-.082-.08-.25 0-.002-.036-.577-.19-.763l-.004-.003s0-.002-.003-.004c-.022-.032-.092-.177-.097-.35v-.01l-.01-.083c-.028-.27-.092-.91-.45-1.61-.12-.244-.318-.702-.338-.884l-.003-.005-.01-.047c-.087-.582-.296-1.08-.62-1.474l-.005-.004c-.022-.025-.565-.64-1.134-1.36-.245-.307-.604-.51-1.067-.605-.15-.876-.703-1.475-.71-1.48l.008.01c-.437-.537-1.045-.634-1.382-.417l.007-.006c-.004 0-.008.003-.01.005-.333-.206-.823-.29-1.26-.22l-.01.004-.1.04c-.006.005-.013.01-.024.014l-.004-.002-.05-.01c-.546-.13-.983-.125-1.296.015l-.015.007-.016.01c-.02.015-.045.027-.066.034-.24-.164-.774-.337-1.815.164-.905.438-.984.61-.968 1.293v.24c0 .152 0 .623.336.69.107.022.204-.012.286-.066-.03.27-.048.564-.052.77-.132.22-.217.387-.254.5-.422.384-.594.912-.625 1.172l-.003.008c-.028.32-.24.486-.33.542l-.005.003-.004.003c-.594.418-.6 1.173-.6 1.205 0 .025-.03.1-.063.147l-.006.008-.003.01c-.063.12-.102.355-.102.58 0 .15.02.368.107.552.047.095.07.206.07.33 0 .16-.04.29-.048.314l.005-.01c-.09.233-.143.562-.143.9 0 .304.044.863.333 1.197l.007.008c.076.104.18.756.18.903 0 .176.03.495.05.67-.17.19-.285.34-.345.45-.293.14-.71.384-.812.68-.142.136-.437.45-.437.756 0 .057.012.11.03.162l.042.11.114.026c.01.003.07.014.16.012v.005l.073.143.158-.022c.036-.004.19-.027.33-.08.21.09.452.1.644.027.03.023.066.043.107.06l.13.045.196-.17c.133.043.283.053.443.023.13-.024.304-.09.424-.188l.26-.023.037-.02c.275-.143.357-.534.38-.708.04-.07.06-.156.06-.257 0-.18-.06-.355-.074-.39 0 0-.002-.006-.002-.02 0-.056.033-.134.05-.162.04-.07.065-.162.065-.265 0-.19-.077-.376-.106-.436-.016-.05-.04-.163-.04-.408 0-.4.064-.89.08-1.03.083-.14.136-.36.162-.504.05-.028.157-.076.32-.1.2-.032.583-.036.878.282.31.403 1.096.67 1.29.68.423.024.77.117.862.23l.047.057.072.017c.027.01.18.04.33-.072l.018-.014.017-.02.01-.003c-.03.106-.043.157-.06.213-.628.25-.854.753-.854 1.123 0 .065.01.127.022.183l.01.043.027.04.003.002c.04.05.25.298.503.298h.095l.02-.018c.013.007.024.016.034.022l.005.003c.184.14.666.12.926.076l.124-.03c-.063.187-.094.38-.105.467-.02.12-.18.263-.255.314l-.014.01-.01.013c-.173.166-.29.475-.29.764 0 .108.016.21.047.304.06.168.23.45.688.503h-.003l.014.002c.134.024.244-.068.316-.156.134.02.383.055.402.06.06.05.123.07.168.074.104.013.188-.023.254-.064.177.016.46-.003.71-.028.092.053.214.042.356-.032.213-.022.427-.148.47-.175l.007-.003.06-.038.025-.074c.03-.087.045-.185.045-.293 0-.247-.078-.496-.164-.64-.017-.134-.075-.456-.23-.677-.008-.016-.033-.075-.033-.163.005-.072.084-.525.18-.736l.004-.01.004-.01c.01-.023.214-.64.216-.98.014-.21.04-.6.068-.76.03-.077.075-.236.08-.422v-.135c0-.234.014-.546.056-.69.016-.04.08-.218.116-.44.048.04.1.07.15.086.038.01.138.053.173.13.167.35.395.784.584.986.017.144.044.37.088.487l.007.013.005.015c.067.123.117.25.124.305v.007c.003.02.03.197.087.405.02.073.04.15.04.23 0 .094-.03.177-.097.26-.322.412-.37.914-.37 1.176 0 .133.01.214.012.218l.015.108.096.055c.314.18.585.15.748.1.216.147.5.13.66.103.077.058.17.09.267.09.117 0 .23-.04.315-.11.212-.045.37-.165.46-.36.05-.11.07-.24.07-.382 0-.302-.11-.602-.215-.745zm-6.33 3.22l.017.002c-.01 0-.014 0-.018-.002z" fill="#fff"/><path d="M10.55 7.743c-.378-.298-.952-.16-1.405-.252l-.24.056c-.296.26-.794.342-.946.745-.08.213-.096.544-.05.773.07.346.19.38.394.306-.008.02-.016.034-.027.047v.087c.364.084.604.465.985.518.23.03.563.014.78-.056.27-.087.65-.354.485-.664.12.018.22-.022.29-.178.157-.366.037-1.138-.27-1.38z" fill="#878A8F"/><path d="M8.75 7.977c-.057 0-.104.047-.104.104s.047.106.103.106c.056 0 .102-.047.102-.104s-.046-.103-.104-.103zm-.344.217c-.045 0-.084.036-.084.083 0 .046.04.085.084.085s.084-.04.084-.085c0-.047-.04-.083-.084-.083zm.276.18c-.047 0-.087.036-.087.082 0 .047.04.085.087.085.046 0 .084-.036.084-.083 0-.046-.038-.083-.084-.083zm.332.1c.046 0 .08-.036.08-.083 0-.044-.034-.08-.08-.08-.048 0-.086.036-.086.082 0 .048.038.085.086.085zm1.44-.182c-.048 0-.085.038-.085.084 0 .047.035.084.082.084.046 0 .082-.037.082-.084 0-.046-.036-.084-.082-.084zm-.36-.07c-.047 0-.084.04-.084.086s.037.083.084.083c.045 0 .084-.035.084-.08s-.04-.086-.084-.086zm.367-.143c0-.048-.037-.086-.084-.086-.045 0-.082.038-.082.084s.037.083.082.083c.047 0 .086-.037.086-.083zm.158.066c-.027 0-.052.023-.052.053 0 .027.024.05.052.05.03 0 .053-.022.053-.05 0-.03-.023-.054-.052-.054zm.07-.77c.34.264.454 1.12.47 1.65.008.155-.028 1.144.217.717.12-.21-.033-1.103-.084-1.35-.09-.417-.3-.982-.602-1.018zM16.17 17.67l.082.01c0-.07.063-.435.192-.558.072-.192-.313.03-.274.55zm.59.09l.072-.008c-.02-.062.018-.496.018-.496-.06-.03-.193.18-.09.505zm-3.826 1.432c.05.092.14.042.14.042.042-.306-.162-.417-.17-.355.07.1.03.31.03.31zm4.52-2.126s-.164-.19-.164-.32c0-.05.024-.5-.083-.654 0 0-.14-.263-.13-.387.01-.122-.034-.976-.245-1.28 0 0-.14-.13-.14-.402 0-.08-.058-.523-.14-.622-.05-.047-.15-.252-.156-.49-.025-.205-.06-.87-.436-1.607 0 0-.33-.672-.36-.96-.017-.073-.082-.804-.582-1.41 0 0-.556-.628-1.142-1.368-.283-.357-.717-.502-1.09-.556-.098-.9-.676-1.518-.676-1.518-.338-.415-.83-.54-1.092-.372 0 0-.126.076-.21.017-.272-.178-.73-.27-1.136-.203-.03.007-.143.1-.228.05-.06-.01-.745-.212-1.202-.01 0 0-.213.145-.297.043-.168-.128-.643-.297-1.608.17-.966.466-.838.542-.838 1.33 0 .787.38.382.42.28.11-.22.34-.306.265-.01-.076.297-.12.864-.12 1.186 0 0-.276.458-.276.557-.428.354-.58.87-.605 1.082-.036.37-.268.602-.437.71-.506.355-.506 1.02-.506 1.02 0 .114-.098.267-.098.267-.063.123-.14.62.01.93.15.312.078.666.034.81-.177.46-.204 1.463.15 1.872.144.15.24.933.24 1.057 0 .222.064.744.064.744s-.4.427-.41.543c0 0-.762.337-.78.63 0 0-.505.443-.4.72 0 0 .153.034.33-.045 0 0-.036.14-.02.177 0 0 .26-.037.364-.107.223.144.568.135.693-.018 0 0 .02.1.133.144l.205-.18c.264.188.717.02.806-.115l.295-.026c.22-.116.266-.586.266-.586.122-.143-.01-.487-.01-.487-.062-.163.063-.375.063-.375.105-.178-.054-.507-.054-.507-.143-.407.034-1.598.034-1.598.1-.115.172-.54.172-.54.062-.135.975-.498 1.57.15.258.346.976.596 1.135.604.16.01.81.055 1.022.31 0 0 .07.02.14-.033.107-.133.486-.143.486-.143l-.185.665c-.745.24-.86.834-.8 1.082 0 0 .17.214.33.214.1-.098.283.053.283.053.144.105 1.058.105 1.27-.214 0 0 .01.168-.017.267-.15.15-.22.673-.22.673-.046.26-.35.462-.35.462-.257.25-.435 1.118.338 1.188.06.015.18-.178.18-.178l.614.09c.09.157.253-.016.253-.016.126.057.855-.025.855-.025 0 .107.205-.017.205-.017.18 0 .418-.146.418-.146.09-.255-.024-.656-.12-.78 0 0-.044-.417-.208-.64 0 0-.064-.105-.064-.278 0-.074.082-.574.196-.828 0 0 .205-.614.205-.918 0 0 .032-.59.072-.803 0 0 .065-.166.073-.38 0 0-.016-.613.066-.884 0 0 .163-.426.122-.778-.008-.132.09-.1.09-.1s.19.337.328.377c0 0 .22.057.312.246.09.188.408.844.6.983 0 0 .032.378.08.51 0 0 .132.237.147.387 0 0 .024.172.08.376.06.205.1.443-.097.69-.41.522-.312 1.22-.312 1.22.387.22.68.034.68.034.19.26.684.12.684.12.123.174.344.107.408.02.61-.06.422-.92.25-1.15zM5.99 6.186c-.287.88-.33.432-.313.008.017-.424.06-.56.338-.694.28-.137.975-.426 1.313-.467.34-.043.457.143.16.143 0 0-1.21.127-1.498 1.01zm.13 2.517l.003-.043v-.02c.042-.232.11-.663.105-.926-.072-1.97 2.34-2.838 3.122-2.596 0 0 .18.06.28.03.112-.04.79-.05 1.07.132 0 0 .163.182.324.09.927-.432 1.49 1.058 1.578 1.587.06.273-.016.243-.118.023-.19-.326-.158-.335-.43-.315-.15 0-.19-.02.082 1.1.193 1.022 0 1.324-.01 1.082 0-.08.01-.466-.132-.455.02.51-.015.827-.06.983v.004c-.037.122-.078.152-.092.09v-.003c-.016-.178-.17-.617-.258-.318-.04.132.06.387.14.55v.007c.002.456-.083.92-.333 1.11-.076.038-.205.07-.34.13-.09-.252-.09-.553-.09-.844 0-.442.004-.898-.322-1.19-.125-.113-.283-.142-.436-.17-.21-.04-.41-.078-.49-.347-.065-.22.043-.435.143-.514.036-.03.07-.04.092-.028.015.008.048.04.036.174l-.002.017.02.005c.127.034.186-.014.21-.063.08-.15-.045-.487-.16-.592-.164-.146-.375-.164-.645-.053-.16-.056-.29-.056-.378.005-.075.052-.114.147-.11.28 0 .16.15.354.272.354.04 0 .107-.024.117-.172.026.01.048.025.063.058.032.063.047.16.047.268 0 .207-.05.445-.11.53-.114.163-.3.21-.48.254-.156.038-.318.08-.435.195-.175.173-.23.432-.283.683-.04.164-.07.32-.136.448-.213.42-.413.53-.745.56-.03-.01-.064-.02-.1-.034-.197-.092-.376-.268-.564-.39-.048-.03-.1-.053-.144-.08.01-.714.075-1.466.45-2.068-.342.353-.384.792-.53 1.24-.05.15-.104.274-.137.382l-.027-.125c-.086-.34-.057-.675-.056-1.028zm6.228-1.724c-.09 0-.16.003-.21.01-.006-.14.075-.264.126-.153.03.05.055.096.084.14zm-1.082 10.38s-.48.043-.55-.01c-.07-.054-.18-.135-.18.053l-.087.01c-.03-.045.052-.498.283-.614 0 0 .39-.205.213-.275 0 0-.516.106-.64.772l-.23-.01c-.018-.09.142-.506.576-.78l-.053-.036c-.08 0-.48.196-.665.746-.304-.274.15-.674.354-.745.106-.034.374-.15.435-.39.062-.24.178-.61.178-.61s.363-.02.435-.08c.07-.065.23-.26.47-.25-.062 0-.177 1.92-.177 1.92s-.116.272-.366.3zm5.82.723c-.098.146-.215.105-.27-.157-.042.042-.025.14-.025.14s-.245.083-.286.024c-.032-.057-.065-.057-.08.026-.066-.018-.19-.04-.182-.27 0 0-.09-.025-.212.122-.172.04-.164-.222-.13-.385 0 0-.15-.025-.173.336-.067.013-.117-.02-.117-.02s-.03-.59.296-.917c.387-.32.224-1.27.092-1.46-.132-.19-.313-.83-.313-.83-.024 0-.41-.45-.44-.664-.02-.066-.23-.54-.363-.59-.13-.05-.614-.387-.606-.697.23-.247.033-.805.033-.805.58-.402.72-1.157.5-1.707-.058-.122-.165-.23-.165-.4-.01-.41-.154-.722-.154-.722s-.035.696.016.778c.517.666.155 1.527-.346 1.896 0 0-.346-.532-.647-.688-.305-.155-.345-.427-.395-.698-.05-.27-.12-.573-.36-.686 0 0 .222.34.204.568 0 .06-.086.56.188.82 1.158 1.034.98 1.466.828 1.694-.05.084-.135.372-.067.56.07.185.097.438.01.643 0 0-.11.263-.12.55 0 0 .045.542-.057.787 0 0-.094.29-.085.594 0 0-.017.83-.263 1.37 0 0-.254.897-.135 1.05.202.254.245.627.245.627.117.067.195.372.125.482-.066.11-.246.06-.246.06-.008.066-.136.15-.143.066-.006-.083-.1-.21-.186-.06-.082.154-.44.197-.592.11 0 0-.083-.065-.143.02-.06.084-.104.016-.104.016.018-.278-.05-.253-.05-.253-.11.237-.466.245-.594.117-.058-.06-.202-.058-.185.17-.287-.102-.162-.56.06-.72.16-.11.143-.313.143-.313l-.075-.01c0 .11-.076.145-.076.145-.18.085-.367.237-.356.796-.137-.04-.16-.65.213-.846.092-.042.557-.947.557-1.675 0 0 .008-1.263.162-1.66 0 0 .186-.526-.05-.593l-.347.09s-.315.045-.37.145c0 0-.1.3-.443.287-.342-.01-.693.163-.693.163s-.2-.217-.64-.235c-.37-.054-.948-.18-1.58-.72-.137-.11-.36-.453-.677-.453-1.416-.08-2.156-.278-2.3-1.17 0 1.26.478 1.468.478 1.468-.035.362.037 1.535.233 1.725-.378-2.3.75-1.543.38-.976-.064.107-.117 1.164-.01 1.687.12.072.1.243.1.243s-.225.307-.1.56c.126.252.055.775-.18.965-.01-.334-.164-.208-.164-.208-.28.515-.758.506-.883.334l-.227.19c-.09-.045.026-.39.026-.39s-.1.01-.145.164-.127.18-.127.18c-.18.118-.46.045-.56-.08-.188.162-.25.108-.25.108-.01-.09.073-.225.073-.225l-.287.162-.1.01c-.027-.37.414-.533.414-.533.092-.37.787-.505.787-.505.025-.082.468-.66.468-.66v-.106s.02-1.19-.228-1.665c-.365-.495-.334-1.707-.112-2.142.04-.11.08-.242-.1-.728-.185-.575.028-1.637.522-2.04.152-.103.436-.415.436-.8 0-.317.432-.845.578-1.015-.034.108-.032.274-.04.368-.03.364.092.664.148 1.007.03.178.046.254.193.352.13.092.27.183.39.294.107.102.153.188.3.224.103.026.17.06.28.065h.016c.23.078.465.145.643.048.126-.07.214-.21.27-.43l.063-.29c.118-.534.202-.92.777-1.105l.22-.077c.408-.15.795-.29 1.184.09.243.235.23.554.218.894l-.008.267c.005.417.088.536.297.68-.1.073-.192.176-.247.32-.153.41-.857.478-.915.063h-.002c-.063-.337-.178-.837-.07-1.146-.172.24-.07.69-.212.938-.082.144-.295.24-.447.34-.202-.08-.207-.262-.207-.262-.258-.098-.584.12-.855.033-.085-.03-.187-.155-.284-.126-.13.04.013.188.073.24.136.122.3.204.482.17.094-.016.15-.04.25-.044h.01c.103.228.525.294.834.277.455.363.98.11 1.134-.06.15-.17.49-.49.558-.483.525 0 .71-.617.83-1.102.117-.482.187-.635.447-1.243.22-.51-.013-1.502-.09-1.81l.284.003c.206.296.36.36.34.02v-.013c.663.05 1.156.77 1.156.77s1.396 1.457 1.412 2.186c0 0 .07.59.28.924 0 0 .526 1 .526 1.706 0 0 0 .393.14.606 0 0 .164.147.156.442 0 0-.033.426.1.607 0 0 .32.41.312.885 0 0-.05.535.056.666 0 0 .198.272.198.625 0 0-.033.295.105.427.272.27.387 1.09-.154 1.084zM11.156 5.59c.126.095.566.628.693.83s.15.12.16.086c.007-.035-.035-.17.135-.085s.287.17.152-.143c-.135-.314-.416-.754-.805-.865-.31-.067-.507.05-.337.18zm.803 13.217s-.084.13-.024.243c0 0 .082.103.082.244 0 0 .06.103.092.04 0 0 .04-.09 0-.293 0 0-.072-.222.07-.425.05-.132-.102-.07-.223.194zM7.555 7.102c.043.15.108.207.205.22-.067-.052-.11-.137-.096-.23.013-.09.067-.162.142-.198-.025.113-.034.323.058.357.133.05.188-.153.235-.292.044.052.067.12.06.194-.008.048-.026.088-.05.124.17-.058.22-.17.4-.078.07-.046.116-.11.134-.185-.077-.053-.163-.115-.247-.16-.02-.005-.04-.01-.066-.02-.03-.013-.06-.028-.086-.043-.07-.04-.134-.083-.224-.097-.155-.022-.375-.01-.53.052-.092.002-.058.063-.117.1-.008.007-.14.068-.15.08-.08.1-.043.216-.018.344.223.11.176-.185.352-.165zm-.018-.8c.12-.097.327-.206.487-.26.342-.114.692-.166.876-.522l-.054.028c-.383.024-.89.305-1.23.48-.298.156-.34.253-.434.52.148.028.25-.16.355-.246zm3.962 10.14s-.04.203-.143.203c-.104 0-.345.132-.376.284-.04.1.01.15.06.07 0 0 .125-.113.205-.113.082 0 .293-.02.324-.426-.01-.09-.07-.02-.07-.02zm-4.22-6.21c.246.02.183-.313.183-.444 0-.378.03-.73.146-1.096.083-.27.225-.57.416-.803.033-.017.057-.056.082-.09.04-.044.084-.084.13-.118l.034-.02c.093-.046.19-.08.285-.12.193-.083.28-.272.46-.362.06-.03.12-.06.183-.085.064-.023.133-.02.193-.038.018-.006.03-.012.035-.018.08-.006.152-.007.218-.01.148-.007.285-.02.428.015.21.054.32.154.502.255.006-.052-.013-.094-.043-.132.122-.03.182.06.326.106-.025-.036-.043-.076-.05-.123-.01-.07.017-.14.06-.192.047.14.103.34.234.294.092-.033.082-.243.06-.356.073.036.13.108.142.198.012.093-.03.178-.098.23.097-.014.16-.07.204-.22.176-.02.13.273.35.163.03-.128.066-.243-.016-.344-.01-.01-.14-.072-.15-.078-.06-.038-.025-.1-.115-.1-.153-.064-.376-.075-.532-.053-.09.013-.154.055-.223.095h-.002c-.027.016-.055.03-.086.043-.024.01-.046.016-.067.02-.082.045-.17.106-.24.16-.08-.057-.145-.122-.145-.22.002-.174.07-.354.13-.524.12-.328.123-.644.122-.983-.076.32-.256.624-.34.946-.057.222-.078.47-.117.687-.154-.07-.33-.07-.51-.047-.088.012-.133.038-.216.005-.18-.08-.3-.333-.407-.476.006.143.095.335.1.5-.055.062-.087.177-.136.236-.124.147-.366.24-.543.326-.24.113-.504.25-.616.48-.34.383-.57.897-.616 1.395-.017.21-.088.872.244.897z"/><path d="M12.572 8.84c.08-.192.08-.42.066-.633-.012-.162-.12-.343-.033-.48.048-.074.248-.23.344-.266.213-.077.484.21.65.377-.202.224-.496.31-.625.6-.077.165-.05.387-.295.384l-.108.02zm2.643 1.95c-.258.094-.018.955.004 1.11.036.28.095.547.225.787.182.335.342.886.615 1.145-.24-.518-.253-1.012-.307-1.56-.025-.267-.092-.52-.23-.747-.127-.214-.312-.467-.29-.734h-.018zm-9.55-.596c.27.056.27.436.333.65.195.647.766 1.254 1.39 1.513-.312-.008-.62 0-.92-.11-.152-.056-.294-.184-.444-.18-.06.304.43.49.634.61.417.243.945.48 1.407.614-.396-.03-.764-.084-1.15-.203-.2-.064-.426-.203-.643-.167.16.26.51.486.72.702-.558-.11-1.298-.012-1.556-.602-.066-.15-.086-.25-.223-.354-.076-.06-.18-.083-.248-.154-.37-.402.023-.846.12-1.237.05-.19.043-.256.17-.398.177-.196.343-.4.37-.682h.04zm7.333 1.373c.04.29.13.574.167.88.048.403.07.818.083 1.227.016.563-.072 1.18-.016 1.732.182-.388.127-1.02.164-1.468.035-.425.152-.862.162-1.286.01-.415-.346-.772-.543-1.06l-.017-.025zm-.933 2.693c.073-.478.208-.924.134-1.44-.05-.35-.104-.733-.28-1.043-.08-.144-.183-.227-.29-.346-.07.19-.112.44-.2.617-.156.31-.605.162-.865.304.122.064.253.07.388.084.188.017.258-.027.232.156-.02.144-.205.354-.314.4-.213.09-.5-.015-.722.058.23.1.445.147.703.158-.154.215-.432.37-.676.464-.207.08-.448.022-.63.087.02.014.036.023.036.023.19.102.408.188.63.26-.07.063-.143.128-.218.182-.238.17-.453.338-.75.354-.238.014-.482-.04-.715-.015.214.213.656.356.956.413.358.07.814-.05 1.167-.136.262-.065 1.36-.262 1.412-.575z" fill="#878A8F"/><path d="M2.032 1.63h1.044c.494 0 .725.265.725.662 0 .28-.12.534-.414.594v.006c.35.034.49.332.49.606 0 .46-.223.783-.8.783H2.033V1.63zm.69 1.04h.17c.14 0 .218-.126.218-.268 0-.148-.077-.274-.22-.274h-.167v.542zm0 1.114h.194c.127 0 .245-.112.245-.327 0-.204-.116-.32-.243-.32h-.193v.647zm2.08-2.154v1.913c0 .256.08.322.21.322s.207-.066.207-.322V1.63h.69v1.738c0 .742-.32.965-.9.965-.58 0-.897-.223-.897-.965V1.63h.69zm1.405 0h.69v2.087h.85v.564h-1.54V1.63zm1.72 0h.69v2.087h.85v.564h-1.54V1.63zm1.72 0h1c.8 0 .84.63.84 1.326 0 .694-.04 1.325-.84 1.325h-1V1.63zm.69 2.154h.14c.264 0 .297-.112.297-.828 0-.717-.033-.828-.3-.828h-.138v1.656zm2.31-2.206c.702 0 .946.387.946 1.378s-.244 1.377-.947 1.377c-.707 0-.95-.386-.95-1.377s.243-1.378.95-1.378zm0 2.287c.21 0 .23-.193.23-.91 0-.716-.022-.908-.23-.908-.214 0-.236.192-.236.91 0 .715.025.908.237.908zM14.73 2.84h.89v1.44h-.466l-.016-.232h-.01c-.09.227-.336.285-.57.285-.7 0-.764-.5-.764-1.377 0-.89.17-1.378.988-1.378.488 0 .838.248.838.892h-.668c0-.134-.012-.238-.035-.31-.03-.073-.08-.113-.164-.113-.227 0-.248.192-.248.91 0 .715.02.908.233.908.146 0 .23-.093.234-.557h-.245V2.84zm2.208-.445v-.063c0-.156-.066-.285-.198-.285-.148 0-.217.113-.217.233 0 .523 1.13.268 1.13 1.236 0 .564-.33.816-.94.816-.57 0-.89-.196-.89-.746v-.092h.67v.063c0 .228.09.31.224.31.14 0 .223-.112.223-.257 0-.524-1.086-.264-1.086-1.204 0-.533.287-.827.87-.827.603 0 .856.246.856.814h-.645z" fill="#fff"/></svg>