<svg xmlns="http://www.w3.org/2000/svg" width="26.877" height="25.563" viewBox="0 0 26.877 25.563"><path d="M9.56 8.792l-9.562.972L7.16 16.17c-.047.23-2.028 9.393-2.028 9.393l8.306-4.833 8.307 4.833-2.03-9.393 7.163-6.406-9.56-.972L13.438 0l-3.88 8.792z" fill="#fff"/><path d="M9.72 9.19l.12-.012 3.598-8.156c.342.77 3.6 8.156 3.6 8.156l8.867.902c-.627.563-6.645 5.942-6.645 5.942l1.883 8.714-7.705-4.483-7.705 4.483 1.883-8.714L.97 10.08l8.75-.89z" fill="#FFDF00"/><path d="M8.197 9.794l-.087.134c-.01.01-.018.023-.026.035h-3.58c-.19 0-1.024-.437-1.256-1.187-.43-1.39.063-2.4.357-3.003l-.187-.135C2.416 6.6.986 7.975.986 9.912c0 .372.053.768.172 1.184.352 1.22 1.95 2.153 4.624 2.702l.028.005c-.002.01-.004.02-.004.03 0 .086.094.202.61.566.32.223.69.46.86.563.732.45 1.566.807 2.344 1.005l.217.055-.077-.21c-.012-.028-.033-.07-.068-.132.9.487 1.875.736 1.922.748l.236.06-.104-.224-.066-.157c.418.252 1.743 1.044 1.743 1.044s1.325-.79 1.745-1.044l-.068.156-.104.224.238-.06c.047-.012 1.02-.26 1.922-.747-.035.06-.06.103-.068.132l-.078.21.217-.057c.777-.2 1.61-.556 2.344-1.006.17-.105.54-.34.86-.566.52-.365.61-.48.61-.567 0-.01 0-.02-.004-.03.01 0 .027-.005.027-.005 2.676-.55 4.273-1.483 4.625-2.702.12-.416.173-.812.173-1.184 0-1.938-1.43-3.313-2.432-4.274l-.186.136c.294.604.786 1.612.356 3.003-.23.75-1.064 1.187-1.254 1.188H18.76l-.023-.035-.087-.135H8.197z" fill-rule="evenodd" clip-rule="evenodd" fill="#fff"/><path d="M18.532 10.02c.012.02.07.177.07.177h3.74c.268 0 1.206-.47 1.478-1.35.128-.413.178-.795.178-1.146 0-.577-.138-1.07-.29-1.46.538.54 1.056 1.125 1.42 1.79.333.615.5 1.236.5 1.875 0 .367-.056.742-.165 1.125-.32 1.113-1.898 2.015-4.445 2.537-.082.017-.13.026-.164.04l.002-.002c-.004 0-.004.002-.007.002-.024.01-.04.02-.05.034-.008.013-.015.025-.018.04l-.002.026c0 .028.01.065.018.104-.122.145-.868.656-1.35.953-.632.387-1.338.703-2.015.904.05-.087.102-.18.136-.253l.165-.363-.336.22c-.707.453-1.58.746-1.99.87.05-.13.095-.262.1-.28l.05-.258-2.138 1.283L11.29 15.6l.048.258c.004.02.05.15.1.28-.41-.123-1.285-.416-1.99-.868l-.338-.216.167.363c.033.074.086.166.135.253-.677-.2-1.383-.518-2.014-.904-.48-.297-1.23-.808-1.35-.954.01-.04.018-.076.018-.104 0-.01-.002-.017-.004-.024h.002s-.002 0-.002-.002c-.002-.015-.008-.027-.018-.038-.01-.015-.025-.024-.05-.034 0 0 0-.002-.003-.002-.03-.012-.08-.02-.16-.038-2.55-.522-4.127-1.424-4.445-2.538-.11-.383-.166-.758-.166-1.125 0-.64.165-1.26.5-1.874.364-.666.88-1.25 1.42-1.792-.154.39-.29.884-.29 1.463 0 .35.05.732.177 1.145.27.88 1.21 1.35 1.477 1.35h3.742s.06-.156.07-.175h10.217z" fill-rule="evenodd" clip-rule="evenodd" fill="#001641"/><path d="M24.19 7.156c.6.705 1.004 1.534 1.004 2.24 0 .775-.404 1.502-1.376 1.968-.158.075-.455.19-.547.19h-4.047c-.193-.286-.455-.883-.54-1.105h3.862c.3 0 .873-.413 1.162-.838.325-.48.454-1.066.494-1.604 0 0 .03-.568-.01-.854zm-21.536 0c-.597.705-1.002 1.534-1.002 2.24 0 .775.402 1.502 1.377 1.968.154.075.453.19.545.19h4.047c.194-.286.455-.883.538-1.105H4.3c-.298 0-.872-.413-1.16-.838-.326-.478-.456-1.065-.495-1.602 0 0-.028-.568.01-.854zm5.866 4.316c-.452.724-.866 1.576-1.603 2.32h-.585c1.018-1.134 1.73-2.31 2.182-3.464h9.82c.452 1.155 1.162 2.33 2.18 3.464h-.586c-.734-.744-1.15-1.597-1.602-2.32H8.52z" fill="#fff"/><path d="M13.423 16.25c-.185.003-3.284-2.173-3.554-2.364.04.19.22.798.342 1.127v.027c-.794-.397-1.55-.88-2.43-1.592l.264 1s-1.14-.656-1.13-.656H6.33c.72.53 1.657 1.142 2.446 1.453-.008-.037-.195-.696-.215-.746.766.53 1.68 1 2.354 1.322-.042-.154-.282-.746-.333-.93.294.205 2.75 1.825 2.84 1.822.095.003 2.55-1.617 2.845-1.822-.053.184-.292.775-.334.93.677-.323 1.59-.79 2.353-1.324-.02.05-.206.708-.214.745.79-.312 1.724-.924 2.443-1.453h-.586c.012 0-1.127.656-1.127.656l.265-1c-.883.71-1.64 1.194-2.432 1.592v-.027c.123-.33.303-.936.345-1.126-.27.19-3.37 2.367-3.555 2.365z" fill="#FFDF00"/><path d="M25.186 9.036v.182c.006.06.01.12.01.18 0 .774-.405 1.5-1.377 1.967-.16.075-.457.19-.55.19h-4.04c.27.483.638.99 1.03 1.45.088.105.305.366.373.366s1.988-.59 3.098-1.11c1.22-.57 1.69-1.374 1.69-2.235 0-.32-.093-.69-.233-.988z" fill="#001641"/><path d="M.893 18.09c-.162.327-.238.962-.238 1.94 0 1.014.092 1.645.28 1.933.2.294.637.437 1.335.437 1.02 0 1.54-.504 1.54-1.497 0-.248-.02-.5-.06-.743l-.008-.052h-1.18v.422c0 .41-.17.46-.298.46-.215 0-.322-.296-.322-.877 0-.56.018-.903.053-1.02.02-.06.072-.142.27-.142.14 0 .324.053.324.5v.146h1.094V17.65H2.588v.165c-.173-.157-.408-.238-.703-.238-.492 0-.826.173-.992.513zm11.123-.44h-1.434v1.288h.246c-.02.11-.197.993-.275 1.386l-.283-1.386h.254V17.65h-1.69v1.288h.258c-.022.114-.22 1.046-.303 1.44-.08-.395-.264-1.328-.285-1.44h.236V17.65H6.97v1.288h.39c.02.094.774 3.388.774 3.388h1.083l.35-1.646.32 1.646h1.066l.748-3.388h.376V17.65h-.06zm10.656 0h-1.628v1.288h.308c-.078.127-.295.474-.37.598-.07-.128-.254-.475-.317-.598h.254V17.65h-1.85v1.288h.324l.924 1.324v.724h-.415v1.34h2.002v-1.34h-.38v-.725l.84-1.32h.37v-1.29h-.065zm-.027 1.226c0 .55.3.95.89 1.188l.567.23c.26.103.387.248.387.44 0 .117-.037.254-.315.254-.23 0-.34-.124-.34-.39v-.128H22.74v1.854h1.095v-.235c.227.203.516.31.857.31.75 0 1.13-.437 1.13-1.295 0-.462-.085-.78-.256-.968-.163-.188-.532-.386-1.125-.604-.34-.123-.51-.26-.51-.412 0-.08.03-.173.256-.173.096 0 .21.027.234.254l.026.177h1.146V17.65H24.5v.22c-.2-.196-.452-.298-.756-.298-.73 0-1.1.44-1.1 1.304zM4.043 17.97c-.21.26-.315.768-.315 1.554v1.014c0 .735.104 1.22.315 1.477.217.256.635.385 1.246.385.6 0 1.014-.136 1.236-.403.225-.267.333-.745.333-1.46V19.53c0-.773-.1-1.278-.31-1.545-.21-.27-.62-.408-1.224-.408-.65 0-1.07.13-1.284.394zm.95 2.417v-.847c0-.588.226-.588.3-.588.186 0 .273.07.285.23l.006.133.012.198v.866c0 .607-.22.607-.29.607-.078 0-.312 0-.312-.6zm7.22-2.737h-.062v1.288h.38v2.048h-.38v1.34h1.64c.718 0 1.184-.088 1.424-.27.246-.182.37-.547.37-1.086 0-.416-.063-.684-.193-.817-.092-.098-.273-.178-.547-.244.22-.054.377-.125.47-.22.136-.144.203-.4.203-.78 0-.513-.126-.855-.374-1.02-.237-.16-.717-.24-1.462-.24h-1.465zm1.64 1.288c.372 0 .415.188.415.328 0 .23-.123.34-.387.34h-.14v-.668h.114zm-.005 1.29c.438 0 .488.193.488.34 0 .284-.154.418-.483.418h-.114v-.757h.107zm2.292-2.258c-.21.258-.313.767-.313 1.554v1.014c0 .735.104 1.22.314 1.477.22.257.638.387 1.246.387.6 0 1.018-.136 1.24-.403.224-.27.332-.747.332-1.46v-1.01c0-.774-.1-1.28-.307-1.546-.21-.27-.62-.408-1.224-.408-.65 0-1.07.13-1.285.394zm.95 2.417v-.847c0-.588.228-.588.3-.588.187 0 .274.07.286.23l.006.133.012.198v.866c0 .607-.22.607-.29.607-.078 0-.314 0-.314-.6z" fill="#E82C2A"/><path d="M1.04 21.893c-.175-.26-.263-.888-.263-1.86 0-.948.075-1.583.226-1.89.146-.297.435-.44.882-.44.326 0 .56.1.717.308l.11.15v-.383h.847v1.696H2.71v-.02c0-.515-.244-.623-.45-.623-.257 0-.352.124-.386.228-.04.13-.06.475-.06 1.056 0 .673.146 1 .446 1 .19 0 .42-.102.42-.583v-.296h.95c.03.222.05.447.05.67 0 .925-.463 1.374-1.414 1.374-.645 0-1.06-.13-1.23-.384zm10.915-4.118v1.04h-.352l-.748 3.387H9.99l-.36-1.843-.12-.003s-.37 1.75-.393 1.844h-.882c-.02-.092-.776-3.387-.776-3.387h-.365v-1.04H8.62v1.04h-.265l.37 1.888h.123l.396-1.887h-.287v-1.04H10.4v1.04h-.28l.372 1.835h.12l.368-1.836h-.275v-1.04h1.25zm10.655 0v1.04h-.313l-.896 1.41v.884h.38v1.09h-1.753v-1.09h.415v-.886l-.982-1.41h-.266v-1.04h1.602v1.04h-.336l.512.97.604-.97h-.406v-1.04h1.442zm2.003 2.96c0-.246-.156-.433-.465-.556l-.566-.23c-.547-.223-.814-.573-.814-1.075 0-.792.32-1.18.977-1.18.328 0 .578.123.77.374l.11.145v-.44h.846v1.48h-.913l-.01-.068c-.034-.3-.213-.362-.357-.362-.33 0-.38.187-.38.298 0 .21.193.384.59.528.566.21.928.4 1.075.57.15.164.224.463.224.887 0 .786-.33 1.17-1.006 1.17-.367 0-.654-.124-.874-.377l-.105-.124v.427h-.848v-1.606h.848v.005c0 .423.252.513.463.513.36-.002.435-.21.435-.38zm-20.473 1.2c-.19-.23-.288-.702-.288-1.397v-1.014c0-.747.097-1.242.287-1.475.186-.233.586-.35 1.187-.35.564 0 .943.12 1.127.36.186.24.28.734.28 1.47v1.006c0 .676-.1 1.14-.302 1.38-.198.24-.584.36-1.145.36-.57 0-.958-.116-1.15-.342zm.73-2.395v.847c0 .482.145.727.437.727.273 0 .412-.247.413-.733v-.87l-.01-.2-.008-.134c-.013-.16-.093-.346-.408-.346-.282-.002-.425.238-.425.71zm8.808-1.765c.71 0 1.18.073 1.395.22.213.14.318.447.318.915 0 .344-.055.577-.17.694-.11.114-.353.195-.727.237l-.002.125c.537.088.737.198.81.275.107.106.16.352.16.73 0 .496-.107.828-.32.986-.216.162-.67.244-1.35.244h-1.514v-1.093h.38v-2.295h-.38v-1.04c.114.003 1.403.003 1.403.003zm0 1.04h-.063v.913h.266c.424 0 .51-.25.51-.462 0-.206-.09-.452-.536-.452h-.175zm0 1.29h-.063v1.004h.237c.503 0 .608-.297.608-.544 0-.21-.108-.462-.613-.462h-.17zm2.557 1.83c-.188-.23-.286-.702-.286-1.397v-1.014c0-.747.096-1.243.285-1.475.187-.233.587-.35 1.19-.35.562 0 .94.12 1.124.36.187.24.282.734.282 1.47v1.006c0 .676-.102 1.14-.303 1.38-.2.24-.585.36-1.147.36-.57 0-.958-.116-1.15-.342zm.732-2.395v.847c0 .482.146.727.436.727.275 0 .414-.247.415-.733v-.87l-.013-.2-.006-.133c-.014-.16-.096-.347-.41-.347-.28-.002-.424.238-.424.71z" fill="#fff"/></svg>