<svg xmlns="http://www.w3.org/2000/svg" width="17.996" height="25.795" viewBox="0 0 17.996 25.795"><path d="M8.7 25.486c-.198-.256-1.45-.783-1.937-.994l-.534-.232c-1.604-.73-2.975-1.64-4.193-2.787-.64-.604-1.14-1.303-1.49-2.08-.365-.805-.55-1.65-.55-2.51V0h18v16.883c0 .86-.187 1.705-.55 2.51-.355.78-.855 1.48-1.49 2.08-1.217 1.146-2.588 2.06-4.19 2.785l-.522.23c-.502.216-1.723.735-1.947 1l-.3.308-.3-.31z" fill="#E82C2A"/><path d="M17.574.42v16.463c0 .8-.172 1.586-.512 2.336-.33.727-.8 1.383-1.396 1.943-1.18 1.113-2.513 1.998-4.072 2.71l-.52.226c-.796.345-1.775.765-2.077 1.09-.304-.325-1.282-.745-2.08-1.09L6.4 23.87c-1.56-.71-2.896-1.596-4.075-2.71-.596-.56-1.064-1.216-1.395-1.944-.34-.75-.51-1.538-.51-2.337V.42h17.154z" fill="#fff"/><path d="M8.998 21.348c.15-.23.523-.436 1.705-.955 1.152-.508 2.266-1.2 3.38-2.248.774-.732 1.214-1.71 1.214-2.684V5.36h-12.6v10.1c0 .976.44 1.952 1.215 2.685 1.113 1.05 2.227 1.74 3.38 2.248 1.18.52 1.553.726 1.706.955z" fill="#E82C2A"/><path d="M3.97 10.586c-.157-.164-.28-.31-.355-.396-.076-.09-.123-.16-.188-.174-.062-.012-.177-.016-.26.027-.085.04-.13.14-.177.266-.047.123-.156.316-.252.46.066.343.055.546.004.827.117.102.143.195.1.324.043.036.082.06.102.14.02.08-.02.174-.068.27-.044.1-.137.28-.197.376-.06.098-.11.168-.203.174-.094.005-.12-.063-.166-.157-.044-.092-.112-.234-.16-.357-.095-.012-.11-.072-.13-.127-.02-.057-.037-.1-.03-.166.01-.063.08-.168.097-.215.023-.046-.028-.11-.066-.14-.067-.055-.112-.137-.14-.203-.02-.066-.02-.22-.014-.346.007-.126.04-.163.146-.31.105-.14.37-.643.523-.934.15-.29.176-.463.193-.564s.054-.12.102-.13c.044-.015.1-.02.172-.048.07-.027.165-.08.267-.076.15.005.182.075.26.126.08.05.28.17.494.3.215.13.383.237.535.386.067-.037.16-.076.26-.12.103-.048.183-.103.237-.17.055-.067.064-.16.09-.353.022-.196.064-.448.14-.622.077-.172.26-.307.527-.547.266-.24.306-.456.325-.712-.17-.01-.578.028-.69.032-.115.006-.54.013-.646.017-.11.006-.2.025-.238-.033-.038-.06-.016-.13.017-.242.035-.108.043-.213.02-.342-.102.057-.16.057-.272.074-.114.016-.165-.025-.21-.074-.047-.053-.084-.158-.1-.23s.01-.11.032-.14c.034.048.068.064.12.064.048 0 .056-.068.07-.125.013-.062.042-.056.097-.056s.06-.044.033-.077c-.026-.027-.063-.07-.122-.092-.06-.02-.11 0-.13.03-.022.035-.07.098-.1.135-.035.04-.078.086-.115.088-.04.006-.116-.04-.17-.06-.054-.014-.09-.01-.11-.01s-.038.003-.044-.026c-.01-.03-.024-.064-.03-.135-.004-.07.006-.186.01-.244 0-.056-.02-.09-.03-.108-.03-.047-.028-.067.002-.112.048-.064.187-.148.346-.244.16-.098.376-.23.51-.324s.245-.16.325-.203c.08-.042.16-.052.195-.054.03-.006.02-.035.03-.093.02-.084.142-.14.28-.193.14-.055.328-.13.51-.227.084-.043.077-.117.072-.15-.005-.052-.003-.104.01-.134.013-.032.06-.077.11-.116.02.02.05.043.1.084.053.035.09.074.146.17.19-.084.26-.248.342-.393.23.214.2.42.196.55.107-.054.24-.1.34-.105.103-.01.267.042.343.042-.027.07-.095.1-.16.146.23.006.48.064.582.182.102.123.214.203.314.248.103.043.247.076.312.1.062.025.1.066.156.115.058.05.098.12.123.152.022.03.073.088.092.164-.025-.032-.093-.063-.146-.046.028.025.04.064.054.11-.16-.077-.28-.07-.33-.065s-.058.023-.033.042c.025.022.097.098.154.164.055.072.125.177.196.253.067.076.138.045.183.04.043-.007.118-.02.182-.04-.04.102-.146.186-.248.285l.033.053-.025.01c-.025-.025-.05-.042-.096-.085-.044-.045-.077-.02-.077.023 0 .133.082.348.197.36.113.013.328-.157.512-.298-.007-.042-.015-.11-.007-.18.076-.044.22-.128.334-.147.114-.02.202.013.26.02.055.005.105 0 .105-.044 0-.048-.076-.11-.195-.17-.205-.095-.26-.163-.405-.364.043-.133.15-.33.238-.455l.07.02c.107-.083.063-.185.178-.31.086-.094.223-.19.45-.195l.024-.146c-.422.044-.396-.265-.396-.388 0-.12.068-.33.254-.33.202 0 .327.153.51.14.147-.01.26-.055.426-.037.165.02.304.125.42.252.11.127.294.393.49.582.198.19.49.19.62.21.133.02.33.02.443.08s.29.246.37.38c.087.13.07.266.034.38.217.1.28.36.285.48.005.12-.058.35-.07.374-.013.025-.126.12-.24.2-.113.083-.23.145-.29.16-.064.01-.19-.02-.285-.046-.096-.023-.195-.068-.24-.074-.045-.008-.107.03-.14.014-.032-.02-.082-.13-.12-.236-.014-.036-.043-.075-.063-.087-.02-.014-.044-.03-.044-.057 0-.027.037-.053.127-.053s.107-.037.133-.105c.025-.07-.02-.127-.09-.166-.068-.04-.1-.082-.125-.14-.026-.054-.095-.1-.145-.126s-.164.007-.285-.032c-.12-.04-.195-.125-.215-.227s.046-.187.133-.23c0-.08-.036-.133-.075-.146-.037-.014-.12.02-.214.02s-.176-.097-.215-.19c-.037-.096-.014-.246-.158-.455s-.41-.26-.727-.26l-.014.28c.373.035.53.324.563.584.034.28-.09.426-.208.564-.022.145-.015.227.062.31.076.084.203.06.297.053 0 .023-.02.043-.043.064.096.072.164.162.2.207s.026.083 0 .12c.18.195.337.436.488.71.056.005.108.01.133.05.024.037.114.19.158.283.044.096.018.166-.024.254-.042.09-.145.215-.196.248-.05.03-.082-.008-.12-.033-.095.122-.272.267-.304.3-.03.03-.006.088-.006.127 0 .036-.02.062-.05.08-.032.02-.382.23-.615.36 0 .17-.106.24-.222.32.082.262.012.357-.068.477.27.037.562.143.694.234.133.096.127.17.113.254.178.102.316.145.488.207.12-.062.088-.165.055-.247-.045-.107-.176-.213-.275-.293.232-.034.43.073.58.15.152.073.31.175.52.216.207.035.448-.027.697-.123.246-.094.27-.145.342-.195-.064.15-.197.365-.3.486-.274.326-.616.563-.975.69.323.323.624.76.735 1.12.207-.102.314-.242.365-.29.052-.052.177-.173.323-.173.145 0 .176.047.24.178-.178.008-.27.053-.41.186-.14.133-.186.348-.192.574.515.14.897.463 1.218.86.322.4.398.843.398 1.108s-.05.557-.107.752-.096.322-.09.54c.007.212.064.353.146.472-.494-.075-.277-.804-.24-1.032.04-.23.09-.523.09-.69 0-.163-.045-.313-.096-.378.024.203.02.424-.02.65-.038.23-.166.69-.202.963-.04.27 0 .645.19.89.188.25.372.23.536.224-.19.316-.494.17-.746.037.008.102.063.242.114.348-.272-.105-.772-.354-.917-.795-.184-.557-.133-1.127.006-1.76-.137-.28-.29-.354-.41-.354s-.29.074-.29.322c0 .246.07.322.097.38.023.058.182.202.252.392.067.19.042.31-.058.486.025.096.094.28.138.398.047.123.047.168.014.26-.03.098-.133.48-.126.945.006.47.17 1.088.21 1.297s-.072.28-.178.394c.08.24.025.348-.04.424-.062.076-.177.145-.296.178 0 .068-.033.176-.058.246-.026.07-.08.195-.133.322-.125.045-.334.107-.54.127-.212.02-.337 0-.396-.075-.057-.076-.02-.223.072-.43.084-.21.22-.348.357-.4.076-.2.183-.354.418-.568-.14-.342-.032-.576.067-.777-.03-.47-.095-.97-.214-1.336-.12-.367-.21-.398-.354-.467-.077.195-.214.27-.334.314-.122.048-.286.07-.42.1-.196.048-.272.105-.37.18-.085.065-.128.17-.205.222-.075.053-.14.053-.2.09-.065.04-.052.107-.11.17-.052.057-.088.053-.156.064-.07.012-.065.068-.065.15s-.006.14-.05.178c-.046.04-.196.07-.278.082-.032.045-.045.094-.04.178.008.082.058.127.173.21-.234.1-.35-.01-.412-.07-.063-.064-.095-.23-.102-.4-.164.083-.182.196-.202.298-.02.102-.063.096-.183.096s-.223-.04-.29-.045-.14-.044-.21.026c-.09.09-.013.16-.075.237s-.184.064-.39.076c-.394.023-.628-.133-.675-.234-.042-.103.026-.17.145-.272.12-.102.23-.19.318-.215.057-.22.41-.22.574-.197.166.025.266.008.348-.068.083-.076.096-.19.096-.266s.02-.11.06-.133c-.128-.02-.255-.113-.317-.234-.063.006-.133 0-.266.064-.134.06-.102.187-.102.32-.057-.007-.19-.05-.23-.14-.048-.117-.01-.277.128-.418.14-.14.406-.145.633-.13.05-.052.133-.09.234-.09.24 0 .194.09.442.09.246 0 .398-.147.493-.288-.138-.006-.335.12-.544.102-.094-.006-.143-.068-.176-.12-.03-.05-.05-.132-.088-.183s-.088-.102-.088-.215.117-.348.244-.53c-.147-.144-.352-.01-.44.05-.113.076-.158.057-.215.023-.057-.03-.102-.016-.15.02-.053.04-.166.086-.234.086-.07 0-.188-.02-.267-.04-.074-.02-.12.04-.126.09.207.185.248.36.248.487s-.02.22-.116.348c-.024-.126-.075-.26-.15-.34s-.156-.11-.22-.115c-.064-.008-.158-.02-.166.006-.006.026.05.058.126.09.077.03.063.09.04.17.29.228.246.43.213.67-.088-.124-.19-.23-.245-.284s-.096-.063-.12-.074c-.025-.013-.07-.038-.158-.07s-.082.046-.057.103.043.088.02.133c.112.227.2.283.348.354-.076.04-.196.063-.286.063-.195 0-.31-.105-.416-.22h-.065c.02.05.064.087.11.124-.11.007-.24.026-.388-.044-.145-.068-.21-.207-.254-.39-.1-.09-.028-.337.012-.425.037-.09.16-.324.268-.463-.037-.082-.043-.215-.018-.322-.29-.248-.254-.297-.254-.412-.062-.057-.163-.113-.19-.158-.024-.045-.037-.145-.05-.24-.045.008-.09 0-.12-.012-.025.164-.09.227-.184.252-.03.09-.088.186-.195.266-.15.116-.26.103-.392.11.05-.064.21-.254.252-.316.045-.064.027-.133-.012-.19-.21.17-.454.12-.614.08.014.046.027.09.06.116-.222.03-.323-.054-.456-.18-.02.216-.082.374-.135.466.118.11.058.346-.01.475.05.06.067.13.058.236.06.02.128.06.147.135.028.128-.01.187-.153.397-.142.21-.243.295-.312.348-.066.046-.15.046-.185.013-.033-.033-.107-.252-.142-.395-.033-.146.035-.195.085-.254s.01-.144-.034-.228c-.04-.085-.16-.103-.186-.27-.034-.23-.01-.395.15-.467-.142-.33.106-.58.195-.8.086-.224.07-.37.06-.548-.04.043-.124.11-.157.102-.033-.008-.086-.06-.086-.17 0-.29.3-.18.3-.58 0-.223-.046-.315-.15-.46-.08-.113-.272-.21-.342-.227-.067-.018-.263-.074-.32-.11-.062-.03-.14-.093-.302-.093.01-.07.104-.16.18-.185.076-.023.24-.012.398.014.16.023.337-.117.337-.387s-.16-.428-.227-.47c-.068-.042-.217-.155-.24-.24-.025-.085-.135-.17-.244-.253.18-.188.422-.108.523.034.1.145.218.182.376.15l-.426-.448zm.737-3.82c.076.21.108.326.025.59.203.008.462-.033.642-.06.175-.026.582-.083.835-.093.014-.068.03-.158.04-.236-.33.084-.634.168-.877.185-.246.018-.372.026-.456-.017s-.077-.06-.043-.115c.035-.06.043-.145.035-.206-.01-.056-.028-.117-.054-.148-.056.04-.108.074-.15.1zm.262-.16c.05.16.074.284.064.327-.008.044-.015.15.068.143.085-.008.305-.084.413-.11.11-.022.55-.126.752-.16.025-.16.043-.317.007-.362-.032-.04-.1-.066-.177 0-.077.068-.186.12-.31.083-.128-.033-.24-.074-.407-.074-.168 0-.335.092-.41.152zm3.836 1.537c.074.11.138.143.226.18.05-.223.19-.405.362-.54-.07-.215-.113-.52-.113-.785-.1.082-.26.14-.392.147.05.466-.01.802-.083.998zm1.82-.31c.038.058.064.18.076.315.152-.125.254-.303.367-.47.063.034.106.05.17.05V7.67c.11-.064.153-.178.157-.234.008-.057-.037-.076-.08-.096-.045-.018-.146-.096-.254-.21-.15.25-.308.548-.437.704z"/><path d="M5.238 13.47c.102.038.195.12.246.216.158-.146.316-.26.537-.305.225-.04.445-.02.637.027-.06.12-.076.254-.06.348-.05.045-.086.146-.086.21l-.094-.02c-.03-.106-.063-.19-.284-.163-.114-.126-.222-.19-.335-.177-.113.012-.26.145-.336.22-.12.007-.21.015-.283.077-.077.063-.12.133-.21.164.026-.195.038-.294.272-.593zm3.86-.22c.188 0 .43.006.543.113-.11.096-.244.152-.54.107-.015-.09-.01-.165 0-.22zm4.787 1.01c-.1-.164-.348-.19-.436-.436s-.008-.398.022-.455c.032-.06.095-.135.24-.135.13.227.185.38.172 1.024z" fill="#E82C2A"/><path d="M5.216 10.69c.11.097.08.216.106.368.025.15.135.633.564 1.012.432.38.87.506 1.258.625.033-.035.084-.092.117-.13-.85-.233-1.144-.84-1.22-1.27-.075-.432.05-.752.16-.98.11-.228.42-.548.58-.69.16-.146.2-.31.175-.412-.1.137-.29.266-.434.334-.142.068-.31.144-.44.246-.123.102-.157.203-.233.287s-.236.26-.49.303c-.253.043-.328-.145-.414-.32-.066.135-.04.246.01.33s.084.176.043.354c-.043.178-.295.287-.48.328-.186.043-.262.035-.373-.008-.11-.043-.172-.164-.248-.22-.066-.046-.206-.07-.28.003.032.033.087.084.114.115.055.064.05.127.13.195.074.066.142.107.233.2.187.187.194.364.16.575-.03.186-.156.277-.252.307-.11.035-.262.01-.36-.008-.105-.016-.204.002-.226.074.076 0 .164.092.24.125.075.033.246.066.438.15.195.086.297.28.347.424.05.143.032.38.01.455-.03.076-.078.107-.178.2-.104.093-.068.153-.045.212.035-.016.086-.05.12-.102.065.127.144-.025.21-.1.068-.076.26-.254.465-.297.2-.04.328.027.488.186.092-.09.262-.166.43-.225s.48-.068.775-.035c.02-.034.053-.077.068-.11-.302-.094-.757-.17-1.02-.2-.29-.036-.556-.07-.77-.108-.25-.045-.41-.115-.488-.146-.07-.03-.17-.105-.222-.14-.05-.034-.143-.058-.19-.08-.075-.034.067-.015.15.02.087.034.23.16.49.233.218.062.558.11.862.14.3.036.773.11 1.22.24.026-.028.054-.06.106-.085-.007-.05-.007-.104.01-.154-.317-.07-.61-.157-.927-.284-.385-.152-.625-.258-1.06-.574-.296-.217-.532-.506-.59-.58-.06-.078-.144-.186-.136-.213.008-.026.094.11.32.345.23.236.707.62 1.19.836.556.25 1.044.374 1.242.415.03-.04.076-.078.127-.113-.16-.04-.426-.125-.67-.234-.24-.11-.494-.287-.68-.465-.187-.178-.337-.48-.404-.658-.06-.154-.092-.338-.102-.43-.007-.094.003-.184-.024-.258-.002-.007 0-.01.003-.01zm3.417-1.307c-.05.152-.12.28-.278.363-.02.01-.012.02 0 .027.057.037.094.145.1.19.113-.01.238-.02.338-.015.04-.105.08-.205.122-.283-.108-.003-.21-.05-.222-.13-.014-.08-.03-.14-.036-.16-.004-.02-.016-.012-.024.008zm.072.657c-.11-.04-.22-.04-.32.005-.103.047-.17.107-.21.182-.044.078-.106.19-.205.21-.096.022-.142-.02-.17-.036-.073.04-.095.057-.233.068-.14.014-.414.236-.376.396.07-.012.15-.033.208-.016.06.016.178.105.186.137.01.035.025.094.02.158-.003.063-.008.118-.008.15l.056.007c.052.104.136.24.267.27-.02-.114-.06-.26-.035-.405l.063-.004c-.03.027-.035.065-.035.098.1-.047.28-.096.396-.113l-.036-.072c-.087-.004-.175.025-.267.06-.01-.073-.005-.097.037-.128.042-.03.13-.04.19-.012s.09.08.126.127c.033.046.117.185.113.235s-.014.154-.03.215c.05-.008.088-.055.14-.14.05-.083.078-.118.05-.216-.03-.096-.076-.176-.072-.27.005-.092.065-.193.183-.244.12-.053.148-.033.228.018.08.05.157.123.225.215.066.092.1.217.23.244.058.014.095-.03.112-.066-.08-.074-.117-.123-.102-.205.018-.084.113-.135.22-.12-.02-.062-.097-.147-.17-.214-.07-.065-.15-.1-.116-.163.034-.064.106-.06.16-.064-.015-.086-.056-.158.112-.295-.017-.1-.08-.22.112-.404-.066-.08-.125-.127-.118-.23.005-.058 0-.112-.004-.15-.006-.04-.048-.01-.07.003-.02.014-.09.033-.18.033-.095 0-.177-.034-.215-.026-.038.01-.013.03.01.06.02.03.058.108.053.17-.004.058-.013.21-.06.272-.046.064-.16.178-.31.25-.152.07-.22.102-.272.117-.05.018-.133.02-.19.105-.052.084-.052.19-.19.217-.02.004-.004-.02.016-.05.023-.028.047-.09.08-.15s.05-.104.16-.138c.106-.035.155-.04.243-.086zm-2.318.534c.125-.014.26.03.357.146.096.113.08.182.19.332.108.152.155.21.23.28-.075.036-.14.024-.187.036-.045.014-.158.064-.158.156s.07.205.283.223c.122.012.41-.13.588-.28.02.022.06.063.075.09-.16.12-.303.21-.43.257-.16.057-.225.074-.35.037-.182-.053-.3-.19-.305-.39.002-.2.01-.36-.004-.465-.01-.105-.035-.176-.084-.223-.012-.01-.016.003-.005.026.03.06.048.15.052.193v.258c-.006.088-.037.303.024.414-.052.07-.103.153-.116.202-.07-.11-.118-.248-.118-.408s.088-.44.08-.574c-.01-.134-.084-.245-.125-.306zm1.263.846c-.012-.02-.033-.063-.033-.063l-.02-.004c-.125.11-.258.22-.354.27-.07.04-.125.06-.197.05-.036-.003-.026.013.005.022.05.012.13.008.238-.04.09-.04.16-.083.21-.122.048-.033.116-.08.153-.113zm.268-.096c0 .043.015.11.02.145.095-.047.212-.113.465-.12.003-.044-.015-.11-.054-.15-.12.002-.31.065-.433.123zm.822-.537c.05-.045.145-.072.233-.002.048.037.12.12.14.14-.044.046-.11.085-.152.1-.035-.084-.127-.224-.22-.238zm-.095.343c.01.038.03.095.035.126.05-.027.13-.084.135-.113s-.053-.034-.17-.014z" fill="#fff"/><path d="M7.797 11.076c-.03-.03-.048-.063-.025-.152.023-.088.13-.156.18-.176-.01-.043-.04-.074-.11-.09.02-.012.04-.023.058-.025-.037-.043-.076-.082-.104-.104.068-.01.164-.004.195.033s.057.068.057.123c.045.018.094.05.09.08-.004.027-.025.033-.07.05-.043.022-.115.06-.158.09-.044.034-.1.093-.11.17zm-.482-.308c-.005-.037.004-.06.046-.094.04-.035.084-.045.165-.03-.027.05-.047.105-.05.132-.056-.008-.115-.008-.16-.008zm.868-.218c.033.042.132.017.19.032l.002.027c.023-.014.066-.033.11-.047.046-.018.14-.06.185-.076.045-.014.117-.03.174-.063.04-.02.04-.035.04-.094 0-.03.022-.07.042-.097.02-.023.057-.033.064-.018.012.02.02.014.033 0l.064-.096s.088-.094.127-.12c.037-.024.107-.06.126-.062.02-.005.02-.015.003-.015s-.045.01-.078.02c-.037.01-.092.04-.13.076-.038.035-.08.06-.14.102-.055.037-.148.047-.21.05-.06.01-.16.026-.21.044-.05.016-.092.055-.104.068-.006.018-.03.076-.07.135-.04.056-.147.116-.2.114-.013-.004-.023.004-.016.014z"/><path d="M8.525 10.318c.004-.027.04-.055.072-.04.034.013.068.036.074.077.006.045.016.113-.057.133 0-.05 0-.08-.006-.098-.012-.03-.033-.037-.047-.05-.01-.01-.027-.016-.035-.022zm-.01.137c-.013-.014-.026-.06-.028-.068-.01.004-.018.018-.03.03-.017.01-.028.034-.012.056.02.018.058.045.084.04.022-.003.03-.01.036-.017-.014-.008-.032-.012-.053-.04z" fill="#fff"/><path d="M9.262 9.723c.015-.043.068-.164.092-.215.025-.05.06-.092.094-.12.035-.026.064-.034.08-.015.014.02.002.064-.008.092-.012.023-.063.1-.105.146l-.116.133c-.02.016-.035.037-.045.047-.007.01-.018.007-.014-.007l.02-.06zm.136.04c.016-.02.063-.07.084-.095.02-.02.06-.06.08-.063s.057.004.057.03-.037.043-.06.056c-.024.018-.087.05-.11.06l-.044.02c-.01.006-.014 0-.01-.007zm-.17.423c.05.004.104.004.126 0 .023 0 .06 0 .062.025.005.025.01.07-.005.078-.014.01-.023.027-.05 0-.026-.023-.06-.04-.077-.05-.02-.01-.044-.024-.055-.05z"/><path d="M8.398 11.42c-.11-.006-.24.053-.297.105-.055.053-.122.17-.11.246.058-.02.124-.053.22.08.05-.045.158-.154.27-.064.046-.068.08-.19.317-.168.03-.12.055-.28.325-.25.004-.082.053-.184.145-.215-.025-.06-.068-.113-.096-.15-.15.082-.24.152-.292.186-.05.032-.132.097-.18.124-.042.102-.067.193-.155.27-.023.02-.087.08-.178.045.023-.065.027-.13.034-.21zm.084.492c-.02-.064-.104-.11-.195-.016.076.004.145.01.195.016zm1.1-1.72c.176.005.686.21.686.778 0 .576-.205.943-.484 1.28-.234.288-.81.575-.78 1.212-.284-.06-.45-.105-.726-.047-.072.018-.195.072-.25.117-.035.03-.043.055.018.014.057-.04.19-.086.34-.102.068-.006.168.01.264.018.094.012.303.06.395.074s.223.05.39-.004.306-.117.362-.197c.058-.084.046-.115.025-.197-.018-.082-.027-.2.006-.26.043-.07.135-.127.302-.127.17 0 .753-.002 1.157-.033.405-.03.533-.04.87-.14.34-.103.753-.257.97-.4.113-.075.244-.167.328-.226.08-.054.2-.185.268-.233.066-.05.145-.094.22-.086.075.007.114.044.128.075-.107.023-.256.06-.357.18-.102.123-.172.217-.193.453-.022.238-.007.357.005.418s.03.107.11.148c.08.04.083.025.16.025.082 0 .18.067.202.132-.184.022-.367.054-.497.175s-.196.264-.148.494c.048.238.116.307.242.377.128.076.294.16.288.4-.143-.107-.334-.248-.445-.244s-.26.07-.322.154c-.063.086-.088.188-.084.31.01.126.08.233.148.35.07.118.19.308.223.39s.08.146-.06.395c-.04-.163-.08-.317-.2-.417 0-.063-.024-.117-.13-.236-.17-.194-.455-.415-.895-.653-.652-.35-1.088-.46-1.234-.527-.144-.07-.282-.178-.31-.234-.023-.043-.038-.02-.023.006.05.098.102.182.334.29.235.103.63.235.833.327.203.09.56.284.775.44.22.152.445.307.514.467-.222-.023-.42-.033-.573.05-.155.083-.3.22-.364.356-.063.14-.082.28-.107.39-.026.105-.036.217-.163.305 0-.123-.047-.184-.047-.242 0-.06.04-.13.05-.193.01-.064-.003-.244-.067-.383-.065-.14-.14-.203-.272-.28s-.31-.12-.43-.128c-.05-.003-.27.05-.32.073.02-.137.05-.318-.04-.473-.09-.154-.295-.193-.447-.19-.156.005-.29.07-.357.15-.07.08-.123.218-.135.32-.01.106.007.187.04.26-.102-.01-.184-.042-.207-.136-.02-.092-.03-.242-.058-.348-.03-.104-.112-.266-.226-.342-.115-.076-.194-.1-.35-.096-.155.008-.27.07-.312.154-.043.082-.064.164-.046.242-.057-.01-.168-.06-.16-.158.01-.098.07-.193.093-.23.022-.04.038-.154-.03-.285-.065-.13-.217-.222-.365-.208.064-.098.158-.188.373-.184.19.005.353.067.505.233.06.07.172.166.236.24.09-.193.208-.34.333-.414.13-.08.434-.155.775-.065-.096-.123-.164-.215-.134-.287.032-.074.132-.12.38-.055-.012-.113-.027-.23.115-.28.142-.052.46-.007.904.04.45.05.952.057 1.173.04s.473-.062.584-.104c.06-.02.013-.02-.015-.02-.18.03-.548.064-.856.07-.312 0-.637-.038-.937-.08-.302-.046-.665-.085-.824-.036-.158.052-.203.144-.21.26-.15-.022-.267-.02-.342.075-.05.067-.074.13-.05.237-.262.012-.444.04-.604.12-.157.083-.264.216-.31.372-.15-.165-.36-.44-.724-.43-.364.01-.458.202-.5.325.16 0 .33.028.396.142.063.113.076.18.068.217-.006.036-.043.136-.066.183-.02.047-.066.17 0 .27-.053.058-.166.128-.192.157-.1-.02-.24-.037-.284-.02-.06.02-.146.12-.2.2-.054.08-.05.118.007.132s.12-.008.12.06c0 .067-.03.08-.1.128.13 0 .267.02.325.047.057.024.08.077.088.1.006.02.02.044-.025.065-.045.022-.104.097-.116.147-.012.05-.012.133-.006.188-.137-.005-.256-.017-.266.06-.01.073.044.112.093.155.046.04.08.076.106.094-.073.032-.128.083-.155.173-.01.03-.037.018-.063.01-.028-.01-.106-.05-.153-.004s-.026.17-.017.214c-.108.024-.218.08-.26.128-.087-.033-.196-.14-.19-.283 0-.144.05-.296.064-.38.016-.08.02-.156-.004-.225-.033.064-.074.146-.088.216-.012.07-.002.22-.01.27-.006.053-.028.104-.033.13-.103-.005-.183 0-.226.077-.055-.066-.098-.127-.035-.266.064-.14.237-.42.33-.55-.045-.13-.076-.19-.014-.32-.035-.103-.06-.154 0-.322.06-.174.063-.264.082-.342.02-.08.15-.364.322-.604.016-.023.01-.035-.012-.072-.017-.03-.026-.1.085-.184-.178 0-.334.027-.436.053-.1.024-.256.04-.495.233-.026-.104-.063-.28.04-.44.06-.085.236-.167.338-.208s.26-.09.348-.08c.088.01.21.065.277.187.016.02.032.086.032.133s.02.047.017 0c-.012-.182-.017-.29.008-.418.027-.13.067-.303.145-.42.076-.117.178-.227.885-.646.31-.18.494-.276.674-.425s.402-.377.402-.547c0-.11-.098-.188-.152-.23.02-.014.043-.035.047-.055-.076-.033-.154-.05-.152-.156.006-.098.143-.148.21-.074.02-.027.02-.096.005-.13-.016-.036-.06-.1-.137-.15-.076-.054-.115-.118-.098-.16.02-.04.07-.044.087-.028.02.016.02-.012.01-.027s-.05-.047-.025-.2z" fill="#fff"/><path d="M13 15.406c0 .057.03.088.082.107.053.018.17.12.154.385-.168.008-.527-.285-.564-.498.106-.02.24-.013.327.006z" fill="#E82C2A"/><path d="M9.84 15.25c.134-.143.283-.28.346-.338.063-.057.158-.14.227-.2-.13-.04-.39-.042-.494.104-.08.11-.128.313-.08.434zm-.434-.432c.092.217.023.377.137.492-.063.004-.202.06-.24.078-.037.023-.12.076-.176.072s-.072-.025-.095-.047c.136-.122.28-.34.374-.595zm-.486-.322c.13 0 .336.02.393.2.02.07.02.185-.018.255-.098.184-.158.26-.324.428-.074.076-.162.176-.34.186-.084.004-.145-.012-.197-.033.192-.206.315-.354.39-.556.076-.203.098-.368.098-.477zm-.955.928c.105.02.2.06.242.16.148-.09.232-.152.313-.25.08-.098.21-.314.234-.39.027-.077.086-.25.082-.437-.094.012-.174.064-.193.152-.02.086-.01.13-.004.162.017.008.04.01.055.014-.05.04-.093.045-.146.045-.056 0-.097-.015-.118-.03-.16.11-.227.16-.258.217-.048.084-.144.233-.21.356zm.185-.414c-.06-.012-.174-.037-.234-.012-.06.025-.126.117-.15.154-.027.04-.04.082.02.09s.08-.006.097.033c.018.04.028.066.028.098.076-.068.117-.152.147-.21.03-.06.06-.1.094-.153zm.024.713c.104.074.154.145.2.246.054.115.075.232.025.365-.07-.145-.14-.236-.19-.275-.025-.017-.076-.048-.1-.052-.043-.008-.058-.01-.06-.057-.006-.07.014-.19.123-.226zm-.2.664c-.056.023-.12.086-.133.158.158.096.263.19.347.29.013-.157-.03-.302-.213-.448zm-.408.393c.074.155.148.282.277.382-.133.016-.32-.037-.375-.092-.057-.057-.105-.152-.12-.193.05-.05.122-.084.218-.096zm-.746.02c-.025-.046-.025-.085 0-.122.024-.037.06-.06.204-.053.036.16.08.316.17.43-.095.015-.266-.076-.374-.256zm-1.966-2.368c.004.137.033.396.27.48-.03-.126-.04-.22-.04-.294 0-.072.003-.18.01-.266-.084-.012-.155.003-.24.08zm.216-.142c-.072 0-.16.024-.217.07-.005-.09.008-.224.2-.24-.008.056.01.126.017.17zm.123.097c-.003-.063-.006-.068.045-.096.052-.023.182-.04.254.066-.063.098-.096.184-.11.28-.01.093-.033.183-.05.183-.02 0-.083-.11-.105-.226-.024-.114-.034-.177-.034-.206zm.45-.012c-.01-.014-.127.012-.165.12-.037.11-.06.257-.067.296-.012.06-.002.06.04.01.018-.02.106-.09.147-.162.035-.063.103-.18.047-.262zm.06-.015c.027.093.02.183-.047.294-.055.086-.133.156-.17.188.074.012.123.006.248-.096.127-.102.16-.158.22-.27-.067-.08-.09-.126-.25-.117zm.22.46c.013.064-.017.152-.05.197-.03.043-.1.154-.146.2.086 0 .156-.01.232-.085.074-.076.14-.16.16-.266-.06-.032-.12-.048-.197-.046zm-.036-.074c0-.072.008-.162.092-.203.08-.04.13-.04.156-.09s-.006-.13.01-.168c.016-.035.06-.037.072-.12.005-.054-.026-.08-.044-.108-.018.107-.052.223-.173.36-.084-.085-.174-.17-.34-.157.003-.063.05-.137.09-.19.043-.048.08-.07.084-.126.002-.037-.008-.033-.043.004-.024.025-.144.148-.17.188-.032.043-.056.105-.062.133-.083-.057-.148-.076-.215-.076s-.14.03-.178.055c-.04-.028-.07-.11-.03-.18.045-.077.187-.177.335-.183.057-.08.14-.15.21-.18.075-.03.155-.053.25-.01.08.04.15.11.145.145.078 0 .203.018.238.055.035.04.05.072.053.137.055.006.092.018.137.023 0 .055.008.13.025.186.02.055.02.102.02.135 0 .036-.016.08-.035.114-.017.035-.043.11-.113.098-.02-.002-.018 0-.016-.074.002-.055.01-.086-.027-.086-.034 0-.054.006-.08.05-.023.046-.052.114-.062.167-.01.054-.01.126-.045.16-.01.01-.018.003-.057-.017-.038-.02-.113-.04-.23-.047zm1.083.594c.01-.102.04-.2.062-.283.02-.088.066-.258.114-.396-.1.027-.156.045-.223.127s-.117.166-.117.283.04.2.163.27zm-.23-.383c.04-.11.108-.21.164-.256.062-.05.186-.125.273-.135.07-.13.152-.254.21-.332-.017-.05-.024-.098-.007-.148-.175-.01-.286.006-.44.066-.155.06-.26.18-.314.27-.055.093-.072.187-.057.274.013.09.066.21.17.264zm-.047-1.267c.14-.093.43-.23.637-.228.127.004.21.05.27.105.007-.098.044-.225.04-.258-.008-.033-.043-.133-.142-.2s-.278-.067-.43-.017-.225.105-.263.166c-.037.06-.084.167-.098.212-.01.052-.024.158-.014.216zm.3-.64c.14-.038.326-.07.454-.028.125.045.174.092.23.178.054-.117.113-.234.136-.273.023-.037.05-.06.018-.14-.03-.077-.072-.14-.15-.175-.074-.04-.22-.027-.3.006-.083.03-.208.115-.25.168-.047.048-.143.157-.137.265zm.374-.505c.103-.025.326-.04.43.045.105.086.125.12.13.2.104-.085.247-.206.395-.284-.016-.055-.078-.127-.2-.193s-.273-.05-.362-.037c-.09.012-.258.063-.3.113-.046.05-.087.097-.093.154zm.46-.395c.194.012.48.06.63.275.113-.06.29-.158.352-.2.004-.08-.018-.142-.06-.185-.045-.043-.123-.064-.245-.076-.125-.014-.21-.037-.352-.02-.143.013-.19.054-.232.093-.046.04-.077.074-.095.113zm.723-.228c.12.02.27.02.397.21.114-.065.32-.188.408-.27-.015-.085-.082-.167-.195-.216-.153-.07-.195-.074-.26-.082-.02.03-.03.076-.027.102-.107 0-.188-.004-.24.045-.055.053-.08.098-.082.123-.002.025 0 .064 0 .09zm.4-.418c.177.04.243.064.327.113.055.03.127.11.152.17.047-.016.102-.063.155-.14s.124-.16.124-.235-.02-.127-.14-.197c-.063.037-.12.092-.27-.01-.066.03-.12.09-.096.215-.13.004-.23.03-.254.084zm3.67.82c-.25-.29-.563-.607-1.176-.607-.313 0-.935.21-.935.67 0 .094.012.197.047.252.025.002.078.016.11.014-.038-.084-.082-.172-.004-.33-.026-.004-.058-.002-.07 0 .024-.05.062-.068.1-.088.038-.02.097-.047.143-.047-.09.083-.13.167-.15.224-.02.057-.03.174.046.232.037.006.086.008.123.006-.03-.063-.086-.12-.064-.21.024-.09.055-.15.204-.228.07-.035.107-.04.134-.043.024-.003.02.013 0 .02-.023.007-.092.052-.14.09-.048.04-.097.108-.112.18-.016.067-.008.13.05.194.062 0 .105 0 .153-.008-.025-.105-.03-.146-.02-.176.013-.046.042-.07.087-.106s.186-.137.22-.137c.03 0 .103.047.128.08l-.006.008c-.036-.027-.08-.04-.1-.04s-.06.026-.133.08-.132.095-.132.147c0 .055.01.113.018.145.068-.002.127-.008.176-.014.005-.057.02-.11.065-.13.02-.01.02 0 .01.02-.02.024-.027.067-.017.106.1 0 .203-.004.29-.023-.038-.057-.095-.105-.172-.11.007-.02.024-.038.083-.034.057.008.117.018.177.12.117-.007.308-.05.556-.144-.152-.185-.3-.317-.45-.403s-.444-.182-.73-.168c.03-.028.07-.04.117-.054.045-.012.193-.035.295-.006.102.028.324.126.416.175.094.047.25.174.32.236.074.066.138.13.174.17.07-.022.113-.04.166-.065zm.982-2.396c-.228.113-.412.18-.728.197-.237.012-.476-.13-.6-.193-.128-.063-.317-.17-.47-.182.077.068.175.158.196.24.023.082.043.172-.043.266.138.05.313.09.45.098.142.01.342-.002.412-.008.067-.008.073-.002.01.018-.05.016-.245.063-.472.04-.23-.026-.435-.08-.647-.163-.21-.08-.353-.135-.39-.152-.032-.02-.062-.016-.166.02-.05.02-.246.105-.32.21-.072.108-.113.27-.037.42s.183.208.25.24c.065.032.226.07.435.063-.164-.06-.303-.11-.383-.206-.08-.094-.144-.19-.128-.305.016-.12.076-.21.35-.19.27.016.604.127.62.32.01.11-.126.18-.206.225-.07.04-.095.045-.033.074.048.02.122.044.288.032.17-.01.39-.07.62-.18.23-.106.463-.28.643-.448s.27-.278.345-.434zm-2.687.215c-.16.123-.237.252-.245.418-.008.166.158.348.246.418.09.072.213.123.496.13.282.003.73-.036.98.243.247.28.273.507.097.743-.154-.152-.377-.3-.56-.367-.04-.084-.105-.156-.315-.186-.21-.032-.583-.073-.814-.233-.23-.16-.407-.328-.407-.648 0-.257.24-.52.52-.518zM9.203 16.77c-.127-.02-.346-.015-.436.01-.088.02-.236.14-.262.187-.023.047-.066.19.025.285.025-.078.067-.18.12-.223.05-.043.223-.107.392-.1.06.086.113.152.164.174.038-.11.06-.193-.003-.334zm.063.35c.033-.124.068-.26-.013-.403.088-.045.218-.037.32.014.103.053.177.1.274.063.097-.04.248-.115.31-.12.058-.003.092.022.21-.017.117-.04.21-.102.268-.14.06-.038.184-.087.275-.09.093-.007.16-.024.188-.036.024-.015.03-.042-.023-.03-.055.014-.104.03-.182.03-.074 0-.198.003-.243 0-.047-.003-.118-.054-.253-.052-.137.004-.273.037-.354.06-.082.02-.27.09-.31.056-.038-.035-.05-.105-.076-.156-.025-.05-.097-.158-.13-.21-.033-.056-.014-.093.004-.163.02-.066.06-.158.137-.27.076-.114.195-.267.24-.34.047-.07.23-.257.295-.317.07-.06.224-.19.288-.252.094.06.16.148.174.3.012.15-.018.245-.047.304.12-.043.338-.094.438-.088.104.002.22.04.28.088-.063.14-.118.216-.333.35-.068.042-.174.085-.24.093-.068.01-.2.023-.28.04-.08.017-.143.042-.167.05-.025.01-.053.04.003.025.054-.014.114-.03.202-.04.09-.015.22-.02.313-.02s.193 0 .283.046c.088.05.16.127.277.13.12.007.274-.015.304.022.03.04.026.1-.01.16.036.064.04.12.027.19s-.037.136-.092.19c.088-.017.172-.038.268-.147.09-.11.112-.213.13-.303.015-.088.032-.145.058-.172.025-.023.072-.045.098-.006.025.044.105.23.105.34 0 .116-.02.21-.152.325-.13.113-.252.14-.438.18-.184.037-.336.063-.437.152-.104.09-.176.19-.242.254-.06.058-.167.065-.212.103-.046.04-.08.137-.12.176-.043.036-.15.034-.187.07-.034.04.007.09-.06.19-.043.07-.096.11-.12.12-.024.015-.05.01-.063-.024-.018-.033-.092-.102-.19-.096.056.08.093.142.103.23-.064.076-.094.143-.09.205.006.063.064.14.098.188-.105 0-.143-.02-.194-.096-.05-.074-.076-.145-.078-.22-.004-.077.016-.142.063-.2-.04-.127-.073-.205-.06-.25.012-.047.102-.127.135-.152s.095-.06.114-.08c.02-.02.05-.078.097-.123.047-.04.084-.05.164-.082.08-.035.224-.086.267-.102.042-.018.12-.102.152-.133.03-.03.097-.078.13-.092.08-.033.033-.045-.018-.033s-.113.055-.164.094c-.052.04-.094.088-.206.145-.114.05-.18.07-.237.084s-.12.018-.164.084c-.04.067-.076.126-.16.185-.085.06-.2.115-.185.28-.068 0-.12.01-.17.024-.058-.097-.088-.165-.113-.18-.025-.01-.064-.005-.076-.003-.01.004-.007.018.013.037.022.024.04.075.03.105-.008.027-.02.04-.046.066-.077.075-.183.23-.207.323-.055-.06-.096-.17-.066-.29.03-.126.128-.226.173-.286-.006-.1 0-.142.044-.19.04-.044.13-.12.178-.134.046-.012.172-.037.23-.05.06-.013.094.003.18-.1.084-.108.168-.132.277-.128s.21-.004.32-.057c.108-.05.182-.108.223-.147.032-.03.004-.034-.03-.015-.03.02-.146.076-.235.11-.09.034-.146.042-.26.038-.115-.004-.145-.025-.23.03-.083.058-.15.145-.188.175-.04.027-.127.063-.208.074-.08.012-.218.057-.39.037z" fill="#fff"/><path d="M3.63 2.035c-.08-.088-.18-.145-.32-.145-.134 0-.26.084-.26.195 0 .293.847.172.847.754 0 .346-.268.592-.702.592-.296 0-.512-.137-.657-.34l.268-.21c.055.133.206.252.384.252.17 0 .274-.117.274-.252 0-.178-.203-.23-.37-.28-.274-.093-.477-.207-.477-.476 0-.29.265-.52.623-.52.19 0 .453.075.586.192l-.197.235zM4.732 3.39h-.416V1.946h-.43V1.65h1.277v.296h-.43V3.39zm.658-.163c0 .113-.112.207-.25.207-.14 0-.253-.094-.253-.207 0-.11.112-.203.252-.203.136 0 .25.09.25.203zm1.915-.762v.045c0 .488-.308.924-.97.924-.624 0-1.017-.426-1.017-.906 0-.494.404-.922 1.04-.922.364 0 .682.15.845.416l-.367.16c-.084-.16-.266-.276-.488-.276-.4 0-.6.332-.6.62s.2.608.604.608c.26 0 .48-.184.486-.393h-.45v-.274h.917zm.507-.518v.383h.662v.293h-.662v.47H8.5v.296H7.396V1.65H8.5v.295h-.69zm.76.57c0-.483.434-.91 1.056-.91.624 0 1.058.427 1.058.91 0 .5-.434.917-1.058.917-.622 0-1.056-.418-1.056-.916zm.43-.013c0 .264.272.598.626.598s.628-.334.628-.598c0-.28-.262-.564-.628-.564-.364 0-.625.285-.625.564zm3.225.886h-.504l-.518-.702H11.2v.7h-.418V1.653h.563c.422 0 .713.15.713.52 0 .224-.148.444-.435.483l.604.734zM11.2 2.45h.053c.23 0 .392-.054.392-.267s-.168-.256-.39-.256H11.2v.524zm2.9.015v.045c0 .488-.31.924-.972.924-.622 0-1.017-.426-1.017-.906 0-.494.408-.922 1.044-.922.364 0 .68.15.845.416l-.37.16c-.084-.158-.266-.275-.486-.275-.402 0-.6.332-.6.62s.2.608.604.608c.26 0 .478-.184.484-.393h-.45v-.277h.92zm.502-.518v.383h.662v.293h-.662v.47h.688v.296h-1.104V1.65h1.104v.295h-.688zm-1.98 20.6l-.432.205-.733-.385-.004.002.287.6-.355.172-.717-1.49.482-.23c.36-.174.676-.164.827.154.092.19.054.44-.175.592l.82.377zm-1.267-.38l.044-.022c.196-.096.31-.21.226-.39-.09-.185-.25-.15-.44-.06l-.048.023.215.45zm2.605-.44l-.41.248-.77-.313-.003.002.346.57-.338.203-.857-1.41.457-.277c.344-.21.656-.23.84.072.11.18.095.434-.117.605l.85.3zm-1.3-.254l.045-.025c.186-.113.29-.24.186-.412-.105-.174-.262-.125-.44-.018l-.046.03.257.425zm-8.207-1.586l.322.236-.748 1.02.435.318-.228.315-.76-.56.98-1.327zm.92.66l.33.227-.715 1.04.445.308-.22.316-.774-.533.933-1.358zm1.203.713l.493.23-.12 1.73-.47-.186.05-.3-.56-.263-.21.248-.384-.195 1.2-1.262zm.01 1.144l.082-.56c.004-.028.02-.103.043-.226-.074.098-.125.158-.14.176l-.378.426.396.184zm1.738.166c-.045.12-.018.063-.082.213l-.295.71-.47-.122-.173-1.79.494.2.04.795c.01.082.014.166.017.25.025-.084.06-.162.088-.238l.256-.695.432.08.06.71c.017.15.017.236.02.248.032-.1.093-.266.144-.426l.195-.55.51-.048-.647 1.723-.47-.056-.062-.498M9.785 21.844l.534-.11.872 1.503-.418.102-.145-.29-.608.126-.02.323-.49.087.272-1.744zm.692.912l-.27-.5c-.014-.023-.045-.092-.098-.207-.008.123-.01.2-.014.227l-.047.566.426-.088zm2.963-2.72l.423-.347 1.47.93-.336.27-.25-.177-.48.393.122.28-.338.274-.614-1.625zm1.034.49l-.472-.32-.182-.14c.057.117.086.186.096.21l.22.522.338-.273zm-10.576-1.08l.313.24L3.21 20.99l-.313-.24L3.9 19.447z" fill="#E82C2A"/></svg>