<svg xmlns="http://www.w3.org/2000/svg" width="24.657" height="24.661" viewBox="0 0 24.657 24.661"><path d="M12.328 24.66c-6.8 0-12.33-5.53-12.33-12.33S5.528 0 12.328 0s12.33 5.53 12.33 12.33-5.53 12.33-12.33 12.33z" fill="#fff"/><circle cx="12.328" cy="12.331" r="11.912" fill="#0058A4"/><path d="M6.375 7.313l.027-.033c.067-.08.202-.235.39-.424.057-.058.114-.112.17-.166.577-.536 1.508-1.217 2.556-1.263 1.744-.076 1.566 1.506-.6 1.452-2.165-.054-2.562.456-2.562.456l.02-.024zm.205 7.584s.025.356.775.48c.748.122 1.69.407 1.998.573-.252.006-.752.04-.752.04l-.273-.19-.25.304-.203-.25-.264.312-.284-.338-.252.405-.184-.25c-.32.158-.31.41-.31.41.036 1.15 3.032.91 3.032.91 1.29 0 1.518.37 2.852.277 1.574-.108 1.668-1.16 3.277-1.946 1.61-.786 2.366.342 2.387.382.84 1.545-1.896 3.056-2.766 3.486-.93.396-1.957.614-3.032.614-3.84 0-7.03-2.78-7.67-6.438-.1-2.632 2.032-3.205 3.78-3.303.777-.042 1.478.008 1.876.015 1.45.024 4.053-.344 4.64-2.972.272-1.212-.106-2.052-.597-2.605 3.113.838 5.456 3.56 5.73 6.866-2.034-1.33-4.62-.58-5.29-.284-.97.43-2.285.503-3.574.602s-1.77.626-2.12.9c-.35.277-.44.628-1.51.886s-1.012 1.11-1.012 1.11zM1.947 8.74l.372-.86c.2-.462.553-.688 1.05-.475.51.22.61.592.4 1.082l-.138.32.716.31-.244.56-2.16-.936zm1.235-.13l.04-.096c.09-.204.176-.403-.09-.52-.27-.115-.355.07-.448.287l-.04.097.538.233zM4.8 7.37l.232.373-.382.526-1.37-2.12.396-.54 2.422.67-.383.526-.42-.117-.496.68zm-.735-1.06l-.002.004.457.645.3-.413-.755-.24zM7.8 4.94l-.595.48-1.017-.346-.004.005.566.702-.477.385L4.8 4.333l.71-.573c.363-.29.777-.34 1.094.052.2.254.237.586.014.842l1.18.286zm-1.864-.17l.047-.036c.156-.125.306-.295.146-.494s-.36-.09-.516.038l-.047.036.368.457zm3.804-.713l-.69.317-.903-.58-.006.002.38.822-.56.256-.977-2.14.83-.38c.423-.195.836-.142 1.046.314.134.295.087.627-.193.82l1.074.57zm-1.763-.62l.055-.023c.18-.084.368-.21.263-.444-.107-.233-.328-.174-.51-.09l-.054.024.248.534zm2.59.05l-.1.428-.64.097.546-2.462.66-.1 1.225 2.197-.645.097-.21-.382-.835.125zm.244-1.267h-.004l-.14.78.504-.076-.36-.704zm2.47-.852l.593.11.24 1.324.725-1.146.6.112-.08 2.38-.602-.113.078-1.363h-.006L14.025 3.9l-.24-.043-.283-1.432h-.006l-.44 1.295-.6-.11.823-2.242zm3.097 2.906l-.342.276-.566-.32 1.94-1.605.585.328-.383 2.486-.57-.32.068-.434-.733-.413zm.97-.85l-.005-.004-.588.528.443.25.15-.775zm.933 2.698l-.454-.407 1.223-1.37-.38-.336.345-.388 1.213 1.082-.348.386-.378-.336-1.223 1.368zm1.085 1.26l-.37-.486 1.464-1.11-.31-.4.414-.314.98 1.292-.41.313-.308-.403-1.462 1.11zm.97.803l-.44.023-.27-.59 2.515-.163.28.606-1.766 1.79-.275-.59.31-.31-.355-.764zm1.28-.122v-.006l-.785.084.213.465.574-.54z" fill="#fff"/><path d="M1.507 11.156v-.34h.62v1.54H1.73v-1.2h-.223zm1.203 1.2l.438-.52-.004-.003c-.068.03-.135.046-.217.046-.3 0-.492-.26-.492-.544 0-.38.31-.58.66-.58.148 0 .32.034.44.13.122.1.204.265.204.426 0 .222-.115.437-.248.61l-.33.432H2.71zm.142-1.03c0 .14.105.253.246.253s.256-.115.256-.255c0-.142-.115-.255-.256-.255s-.246.115-.246.256zm8.838 4.882c-.714-.467-3.85-.965-3.85-.965-.18-.03-.335-.054-.452-.072-.507-.08-.59-.266-.6-.296-.003-.104.026-.685.854-.885 0 0 .493-.13.623.404s.6.295 1.03.11c0 0 .122.608.886.608s.96-.8.84-1.114c0 0 1.207.406 2.9-.616 0 0-1.27.304-1.904-.092 0 0 1.777-.083 2.826-.563 1.052-.48 5.187-1.446 6.504 2.644.53 2.436-.565 5.466-5.062 7.166l-.367-2.91c.62-.23 2.124-.86 2.61-2.05.222-.546.153-1.12-.17-1.69l-.008-.01-.008-.008c-.02-.03-.528-.72-1.52-.72-.375 0-.77.102-1.172.298-.702.343-1.123.73-1.494 1.073-.502.46-.862.794-1.705.853-.137.008-.27.013-.393.013-.455 0-.762-.063-1.084-.133-.367-.077-.744-.157-1.36-.157h-.015c-.004 0-.258.02-.61.02-1.347 0-2.167-.267-2.198-.716.003-.014.007-.09.05-.134l.25.267.262-.35.097.115.16.19.16-.19.1-.118.042.054.148.184.165-.17.11-.112.093.08.142.18s1.703.088 3.12-.188z" fill="#FFD600"/><path d="M8.374 13.94c.44-.432.482-.507.657-.687.068-.066.13-.13.205-.188l.13-.107c.122-.103.26-.218.44-.33 0 0-.192.394-.175.65 0 0 1.022-.68 1.923-.7.904-.018 1.66.038 3.17-.46 1.51-.497 6.54-1.62 7.258 3.842 0 0-.883-3.953-4.437-4.016-2.063-.037-2.875.606-4.163.828-1.29.222-1.854.176-2.147.268 0 0 .138 0 .525.533 0 0-.83-.294-1.503.11-.672.406-.59.628-1.37.645 0 0 .082-.313.155-.57l-.666.18z" fill="#82C341"/><circle cx="17.915" cy="20.03" r=".442" fill="#0058A4"/><circle cx="18.578" cy="19.135" r=".442" fill="#0058A4"/><circle cx="18.971" cy="18.004" r=".441" fill="#0058A4"/><circle cx="19.241" cy="16.69" r=".415" fill="#0058A4"/><circle cx="19.159" cy="15.705" r=".415" fill="#0058A4"/><circle cx="18.726" cy="14.692" r=".415" fill="#0058A4"/><circle cx="17.805" cy="14.148" r=".414" fill="#0058A4"/><circle cx="16.7" cy="13.983" r=".415" fill="#0058A4"/><circle cx="15.594" cy="14.185" r=".332" fill="#0058A4"/><circle cx="14.416" cy="14.449" r=".295" fill="#0058A4"/><circle cx="15.133" cy="14.903" r=".295" fill="#0058A4"/><circle cx="13.814" cy="13.933" r=".295" fill="#0058A4"/><circle cx="13.175" cy="14.216" r=".179" fill="#0058A4"/><circle cx="13.746" cy="14.652" r=".258" fill="#0058A4"/><circle cx="14.434" cy="15.235" r=".258" fill="#0058A4"/><circle cx="13.961" cy="15.764" r=".258" fill="#0058A4"/><circle cx="13.476" cy="15.284" r=".259" fill="#0058A4"/><circle cx="13.041" cy="14.806" r=".258" fill="#0058A4"/><circle cx="12.764" cy="15.364" r=".258" fill="#0058A4"/><circle cx="13.31" cy="15.917" r=".259" fill="#0058A4"/><circle cx="13.617" cy="16.616" r=".258" fill="#0058A4"/><circle cx="14.287" cy="16.304" r=".258" fill="#0058A4"/><circle cx="14.822" cy="15.831" r=".258" fill="#0058A4"/><circle cx="15.459" cy="15.438" r=".258" fill="#0058A4"/><circle cx="12.794" cy="16.444" r=".233" fill="#0058A4"/><circle cx="15.982" cy="14.907" r=".332" fill="#0058A4"/><circle cx="16.857" cy="14.857" r=".332" fill="#0058A4"/><circle cx="17.823" cy="15.041" r=".331" fill="#0058A4"/><circle cx="18.312" cy="15.678" r=".267" fill="#0058A4"/><circle cx="18.578" cy="17.237" r=".322" fill="#0058A4"/><circle cx="18.013" cy="18.45" r=".323" fill="#0058A4"/><circle cx="17.28" cy="19.288" r=".396" fill="#0058A4"/><circle cx="16.166" cy="19.893" r=".443" fill="#0058A4"/><circle cx="16.382" cy="19.797" r=".442" fill="#0058A4"/><circle cx="17.265" cy="21.821" r=".516" fill="#0058A4"/><circle cx="18.536" cy="20.894" r=".479" fill="#0058A4"/><circle cx="15.873" cy="21.434" r=".525" fill="#0058A4"/><circle cx="16.032" cy="20.559" r=".513" fill="#0058A4"/><circle cx="16.07" cy="22.36" r=".433" fill="#0058A4"/><circle cx="19.364" cy="19.92" r=".528" fill="#0058A4"/><circle cx="20.027" cy="18.631" r=".615" fill="#0058A4"/><circle cx="20.334" cy="17.169" r=".613" fill="#0058A4"/><circle cx="20.298" cy="15.634" r=".614" fill="#0058A4"/><circle cx="19.844" cy="14.222" r=".613" fill="#0058A4"/><circle cx="18.799" cy="13.375" r=".516" fill="#0058A4"/><circle cx="17.4" cy="12.981" r=".455" fill="#0058A4"/><circle cx="15.927" cy="13.165" r=".454" fill="#0058A4"/><path d="M15.08 13.547c0 .23-.188.417-.42.417-.23 0-.418-.187-.418-.417 0-.23.19-.417.418-.417.233 0 .42.185.42.417z" fill="#0058A4"/><circle cx="17.105" cy="20.657" r=".42" fill="#0058A4"/><path d="M10.602 14.222c0 .258-.21.467-.467.467-.174 0-.326-.1-.406-.24-.06.032-.115.06-.178.086.11.208.33.35.582.35.367 0 .664-.298.664-.664 0-.143-.046-.273-.124-.382-.064.022-.13.046-.19.075.073.08.116.19.116.307z" fill="#fff"/><path d="M22.014 11.736v.306h-.188v.32h-.37v-.32h-.747v-.255l.592-.965h.523v.914h.188zm-.56-.59h-.005l-.36.59h.364v-.59zm.766.014v-.338h1.265l-.885 1.54h-.44l.703-1.2h-.643z" fill="#FFD600"/><path d="M9.81 21.037l-.106.376.656.186-.14.493-.656-.187-.11.387.693.196-.14.492-1.278-.36.635-2.245 1.277.362-.14.492-.694-.196zm1.59.308l-.04.39.683.063-.05.512-.68-.065-.04.4.72.07-.05.51-1.322-.127.225-2.322 1.324.127-.05.512-.72-.07zm1.733 1.322l.727-.053.035.512-1.328.098-.172-2.327.605-.045.133 1.815zm2.01-1.613c-.132-.063-.285-.086-.428-.05-.108.028-.234.13-.203.255.035.13.207.14.316.145l.162.007c.34.012.623.106.717.472.06.225.064.47-.076.67-.135.194-.355.32-.582.378-.286.074-.588.05-.86-.05l.13-.54c.178.09.378.15.58.1.137-.037.268-.145.225-.304-.04-.165-.29-.162-.424-.165-.396-.01-.663-.04-.776-.48-.12-.458.13-.84.58-.96.23-.06.525-.06.755.003l-.116.516z" fill="#fff"/><path d="M7.695 14.576s-.137-.18-.417-.04-.116.547.183.294c.11-.114.043-.202.236-.254z" fill="#0058A4"/></svg>