<svg xmlns="http://www.w3.org/2000/svg" width="21.896" height="26.398" viewBox="0 0 21.896 26.398"><path d="M10.96 23.273c.162-.43.384-.768.66-1.004l.002-.003c.13-.11.245-.17.358-.185-.092-.076-.19-.164-.28-.258l-.078.058c-.372.274-.52.422-.765.726l-.127.157-.17-.104c-.164-.096-.29-.264-.37-.5-.032-.097-.06-.21-.08-.334l-.032.025c-.372.276-.518.424-.766.728l-.125.154-.17-.102c-.207-.123-.35-.356-.422-.695l-.018-.096-.074.044c-.757.447-1.357 1.06-1.943 1.985l-.08.13-.152-.024c-.482-.083-.824-.454-1.014-1.104-.13-.445-.17-.95-.182-1.353-.152.193-.264.393-.34.604-.07.202-.113.422-.135.712l-.027.338-.307-.15c-.066-.033-.317-.123-.646-.21-.375-.1-.7-.153-.914-.153-.072 0-.132.007-.178.02l-.076.02-.17-.4.07-.04c.143-.088.29-.324.4-.65.115-.344.186-.755.193-1.158.01-.387.018-.72.094-1.034.04-.17.1-.322.178-.467.06-.107.13-.212.213-.314-.32-.026-.668-.073-.782-.095l-.125-.026c-.074-.02-.14-.034-.292-.034-.11 0-.257.01-.446.025-.162.015-.3.06-.412.138-.1.07-.184.165-.248.285-.105.2-.16.47-.16.8 0 .33.13.618.383.858.225.213.507.348.7.422l.317.12-.23.25c-.14.152-.317.544-.4.755l-.083.224-.22-.094c-.022-.01-.116-.053-.243-.135-.13-.08-.32-.22-.512-.425-.215-.23-.387-.49-.51-.776-.15-.357-.228-.754-.228-1.18 0-.687.2-1.233.598-1.62.244-.237.555-.408.926-.51.31-.083.6-.1.786-.1h.068c.195.006.387.01.586.01.6 0 1.29-.072 2.323-.116l.914-.095-.754.5c-.268.188-.482.435-.587.63-.052.097-.08.192-.1.284l.024-.024.28-.24h.003l.115-.095h.002c.046-.038.096-.077.152-.124h.002l.166-.13.038-.03.036-.03h.002c.402-.31.83-.607 1.268-.888-.077-.472-.174-.898-.303-1.338-.12-.424-.262-.824-.414-1.248l-.188-.53-.64.276-.092.04-.077-.246c-.44-1.42-1.226-2.727-2.72-4.508l-.34-.4.21.01 2.418.1c.984-1.47 2.05-2.57 3.254-3.356.474-.31.976-.576 1.536-.816.41-.176.81-.32 1.174-.445-.08.007-.174.02-.28.042-.25.05-.61.15-1.028.27-.034.006-.102.025-.102.025-1.147.325-2.72.77-3.96.77-.415 0-.77-.052-1.054-.15-.808-.29-1.386-1.018-1.508-1.9-.11-.797.17-1.543.737-1.945.703-.5 1.4-.723 2.265-.723.26 0 .537.02.842.06l.074.012c.747.1 2.302.31 3.803.31 1.203 0 2.14-.134 2.775-.4L13.5.97c.68-.282 1.267-.527 1.83-.696.3-.09.58-.154.855-.198.3-.05.598-.074.91-.074.286 0 .578.02.895.06.48.06.92.185 1.31.372.36.174.675.4.937.672.244.254.438.542.574.857.13.3.205.613.223.93.018.354-.017.674-.104.98-.09.31-.233.6-.437.886-.202.282-.46.552-.79.824-.32.266-.7.53-1.163.807-.49.292-.868.61-1.093.92-.096.135-.16.263-.193.38-.03.106-.03.2-.004.278.027.083.088.15.182.196.1.054.236.08.393.08.05 0 .1-.003.152-.01.172-.015.334-.065.48-.147.13-.073.25-.175.357-.3.176-.21.318-.483.424-.82l.006-.02.006-.017c0-.003 0-.005.002-.007v-.003c.063-.215.082-.39.084-.406l.066-.69.36.59c.16.27.284.566.362.88.076.307.11.626.1.948s-.064.643-.162.95c-.098.315-.238.612-.418.884-.146.224-.318.423-.508.597-.188.17-.396.315-.62.434-.223.116-.462.206-.714.266-.25.06-.515.09-.787.09-.182 0-.37-.013-.555-.04-.225-.03-.457-.078-.708-.15.003.07.003.146.003.223 0 .644-.053 1.327-.166 2.15.035.55.165 1.036.385 1.444.102.188.252.4.45.633l.138.15c.037.03.172.14.232.187l.063.05-.23.372-.073-.033c-1.494-.69-3.04-.592-3.04-.592-.595.016-1.214.1-1.845.25s-1.287.37-1.95.655c-.667.286-1.356.643-2.048 1.06-.654.397-1.326.855-2 1.366.135.064.29.166.436.324.195.216.324.487.383.807.12.655.23 1.154.325 1.485.063.215.102.3.12.33.017.008.03.014.042.018v-2.237c0-.168-.04-.273-.073-.333-.04-.066-.08-.092-.09-.097l-.504-.073 1.25-1.064.133.064c.244.113.355.305.428.432l.003.002c.02.035.04.075.057.094l.06-.063.012-.015c.132-.145.353-.386.614-.6l.118-.102.14.076c.246.138.425.278.548.428.068.082.12.167.154.257l.613-.523v-.002l.003-.002.104-.088.038-.03c-.076-.063-.143-.113-.205-.152-.102-.065-.158-.08-.18-.083h-.678l.996-1.073.165-.178.824.85c.065.064.142.177.13.33-.006.105-.055.207-.133.286l-.338.327c.062.083.12.18.163.29.104.19.1.353.1.485l-.003.016.005.333c.11-.208.29-.435.545-.69l.775-.748.123-.12.15.084c.09.05.41.238.715.47.182.142.328.274.432.397l.057.073v-.713c0-.168-.04-.273-.077-.332-.037-.065-.078-.092-.09-.097l-.502-.07 1.138-.97.114-.094.134.063c.235.11.423.32.538.605l.028.065v.007c.05.105.073.213.073.34l-.002.043v.04l-.002.072.005.57c.182-.176.335-.314.457-.416l.12-.1.14.076c.186.105.33.21.445.318.043.043.083.085.116.128l.113-.383h.345v-.442l.12-.067c.012-.008.143-.086.307-.227.15-.13.353-.334.49-.59l.032-.063.4.1v1.288h.786c.044-.068.095-.12.15-.158.067-.045.142-.067.224-.067.098 0 .18.033.236.054h.002l.045.02c.063.02.338.078.648.14.364.072.65.122.77.135l.36.035-.187.31c-.012.022-.277.476-.418.896l-.083.25c.117.054.23.12.314.21.124.13.16.295.105.485l-.046.173c-.018.056-.035.118-.053.185-.083.29-.185.646-.235.79-.077.213-.187.376-.325.485-.14.11-.314.168-.513.168h-.04c-.36-.013-1.238-.1-1.527-.127l-.092-.01h-.002l-.388-.04c-.102.1-.195.21-.31.35l-.123.157-.174-.104c-.206-.122-.347-.356-.42-.695-.01-.053-.02-.105-.024-.156l-.1.07c-.37.275-.517.424-.765.727l-.124.16-.17-.106c-.145-.084-.258-.224-.336-.415-.043-.104-.074-.223-.1-.356-.363.27-.508.416-.753.717l-.125.16-.17-.105c-.143-.085-.255-.224-.334-.414l-.107.063c-.38.225-.58.367-.762.547-.197.196-.38.446-.666.84-.023.036-.06.09-.107.14-.072.07-.154.11-.242.112h-.014c-.08 0-.154-.028-.22-.085-.05-.042-.087-.09-.116-.13l-.02-.027c-.04-.052-.158-.144-.283-.207-.036-.018-.134-.06-.25-.06-.1 0-.19.033-.27.096l-.652.514.3-.782zm1.912-.877c.048.027.08.036.095.04.002-.01.004-.024.004-.042v-.412c-.12.122-.24.24-.3.303.044.022.083.043.114.063l.09.048zm4.216-1.304c0 .084 0 .133.02.19.026.065.082.146.187.266l.04.046c-.01-.117-.01-.215-.01-.28V19.56h-.255l.018 1.533zm1.586 0c0 .14 0 .19.21.438.165-.307.304-.633.312-.65l.068-.164c-.117-.037-.22-.088-.3-.15-.08-.06-.138-.13-.177-.207-.04-.078-.06-.158-.06-.244 0-.07.015-.145.044-.22l.14-.335h-.235v1.53zm-10.13.427c-.004-.1-.004-.18-.004-.238v-1.45c-.022.013-.048.03-.075.052h-.002l-.048.033v1.387c0 .063 0 .123.103.195l.027.02zm1.366-.46c0 .084 0 .134.02.19.022.058.067.125.15.224-.003-.055-.005-.11-.005-.168l.006-1.533c0-.166-.04-.27-.074-.33-.037-.066-.078-.094-.09-.098l-.025-.004v.004l.02 1.717zm5.686-1.112l.008 1.142c0 .084 0 .133.02.19.02.044.048.093.097.155v-1.572c-.023.014-.05.03-.076.052h-.002c-.007.007-.028.022-.036.028l-.002.002-.006.004zm3.968.845c.19.175.566.396.724.396.028 0 .048-.048.05-.05.006-.016.01-.033.01-.05 0-.028-.01-.05-.025-.07-.03-.027-.1-.07-.27-.122-.13-.038-.28-.07-.414-.1h-.01l-.08-.02.013.015zm-14.826.244c.127 0 .242.015.343.044l.048.015v-.076c0-.19-.012-.344-.035-.476-.023-.125-.057-.227-.102-.31-.042-.078-.095-.14-.16-.192-.036-.027-.075-.052-.118-.074-.017.187-.056.384-.112.58-.053.182-.12.358-.2.52.116-.02.23-.03.34-.03zm7.844-1.33c-.01.08-.014.145-.014.203 0 .217.043.39.133.532.065.104.154.188.27.26v-.572c0-.082-.05-.176-.15-.266-.065-.06-.15-.116-.237-.158zm7.594-.253c.002.012.008.045.027.053h.003l.626.264c.05.02.11.05.162.07l-.162-.12c-.154-.114-.264-.197-.584-.352-.027-.013-.042-.014-.047-.014-.01.01-.03.052-.023.1zM11.97 4.824c.185.11.358.22.52.33.562-.364 1.274-.564 2.013-.564.107 0 .215.005.32.014.047.003.093.005.137.005.174 0 .33-.03.45-.087.054-.025.15-.08.197-.162.038-.064.02-.105 0-.134-.028-.04-.087-.078-.16-.105-.098-.034-.22-.053-.362-.053-.128 0-.27.015-.426.044l-.418.08h-.004c-.51.1-.876.173-1.417.173-.212 0-.45-.012-.72-.035v.04c0 .156-.043.308-.133.453zm-6.032 21.55h-.235l-1.28-1.47v1.47H4.17v-1.91h.217l1.295 1.48v-1.48h.258v1.91zm1.458-1.664h-.808v.575h.78v.247h-.78v.595h.834v.246h-1.11v-1.91h1.085v.247zm2.34 1.68h-.052l-.627-1.563-.633 1.563H8.37l-.772-1.927h.274l.526 1.316.53-1.318h.26l.532 1.316.52-1.317h.27l-.774 1.928zm2.48-1.5c-.233-.138-.437-.2-.657-.2-.44 0-.766.312-.766.73 0 .43.316.726.774.726.215 0 .45-.075.666-.215v.3c-.188.1-.39.17-.692.17-.716 0-1.032-.553-1.032-.953 0-.582.44-1.008 1.05-1.008.194 0 .395.046.655.155v.295zm1.084-.02l.31.693h-.594l.285-.692zm.102-.42h-.193l-.82 1.923h.277l.24-.563h.813l.257.563h.28l-.855-1.923zm1.926.433c-.162-.154-.318-.2-.45-.2-.172 0-.3.095-.3.23 0 .365.826.358.826.968 0 .3-.227.52-.535.52-.208 0-.377-.056-.537-.177v-.346c.14.18.316.277.506.277.21 0 .31-.135.31-.242 0-.393-.826-.44-.826-.962 0-.31.23-.51.58-.51.145 0 .29.045.424.135v.31zm1.766-.173h-.662v1.663h-.273V24.71h-.66v-.247h1.594v.247zm.484 1.417h.863v.246h-1.137v-1.91h.275v1.664zm2.142-1.417h-.812v.575h.78v.247h-.78v.595h.836v.246h-1.11v-1.91h1.085v.247z" fill="#fff"/><path d="M19.473 6.982l-.016.05v.003c-.17.54-.57 1.34-1.46 1.426-1.294.127-1.5-1.124.423-2.27 1.92-1.145 2.44-2.1 2.38-3.286-.062-1.188-1.024-2.39-2.84-2.614-1.812-.227-2.786.232-4.645 1.006-1.86.773-5.43.275-6.77.094-1.34-.18-2.167.066-2.946.62-1.084.77-.84 2.886.715 3.44 1.555.553 4.842-.688 6.02-.925.75-.15.81.07.687.303l.3-.104c.105.055.202.11.302.164.292-.276.3-.576.168-.83l.27.037c1.194.11 1.575-.027 2.556-.21 1.688-.313 1.56 1.056.188.95-.97-.077-1.787.213-2.32.6 2.23 1.57 2.93 3.55 3.03 5.517.34.12.665.198.972.237 2.953.426 4.25-2.725 3.076-4.66-.005.04-.028.228-.093.45z" fill="#E82C2A"/><path d="M16.838 19.375c0-.263 0-.546-.646-.908-.258.21-.622.576-.832.79-.004-.54-.006-1.017-.006-1.123 0-.156.027-.298-.082-.463l.004-.015c-.043-.104-.162-.363-.426-.483l-.746.636c.143.02.36.233.36.657v2.2-.003.654c0 .304.02.95.364 1.15.264-.322.424-.484.81-.767-.245-.283-.263-.385-.263-.607l-.012-1.25.1-.08c.123-.083.486-.405.486.14v1.414s.02.95.36 1.15c.263-.322.425-.484.81-.767-.243-.282-.264-.384-.264-.606s-.02-1.45-.02-1.715zm-3.922-.938l-.773.747c-.595.596-.625.9-.625 1.1v.77c0 .434.717.938.943 1.115l.744-.743v.968c0 .223-.163.363-.445.2l-.09-.05c-.13-.08-.374-.18-.496-.21-.12-.03-.202-.062-.403.11s-.423.453-.595.907c.293-.23.625-.13.768-.06.14.072.293.182.363.273s.17.293.344 0c.595-.82.747-1.01 1.503-1.455v-2.56c0-.262-.592-.75-1.237-1.113zm.287 1.756v.855l-.04-.007c-.68-.22-.95-.726-.767-1.635.322.052.807.354.807.728v.06zm-1.98.9c0-.224-.02-1.454-.02-1.718.003-.127.003-.26-.078-.402l-.002-.006c-.042-.105-.162-.364-.426-.485l-.746.637c.145.02.363.23.363.653v.014c0 .547-.006 1.217-.006 1.52s.027.957.37 1.16c.263-.324.425-.486.81-.77-.244-.282-.263-.384-.263-.606zm-1.17-3.283h.16c.244.02.598.343.83.575 0 0 .258-.246.303-.292.044-.045.127-.165 0-.293-.125-.125-.656-.677-.656-.677l-.637.688zm8.39 1.52h.465c0-.23.137-.59.242-.773h-.707V17.11c-.303.576-.887.908-.887.908v.538h-.404l-.23.773h.634v1.982c0 .304.018.95.36 1.15.263-.322.425-.484.81-.767-.244-.282-.283-.384-.283-.606v-1.76zm-4.26-5.117c-1.27.382-5.817 1.678-9.25 4.668 0 0-.202.223-.444.326.02-.465-.02-.95.787-1.516-1.436.06-2.143.08-2.908.06-.77-.02-2.144.262-2.144 2s1.354 2.3 1.354 2.3.223-.585.443-.825c-.523-.203-1.23-.648-1.23-1.496s.343-1.395 1.03-1.455c.687-.06.706 0 .93.04.22.04 1.05.142 1.272.1-.75.648-.77 1.173-.79 2.04-.02.87-.302 1.758-.706 2 .483-.12 1.695.263 1.896.364.04-.508.14-.99.586-1.516-.342-.102-.928.02-1.252.262.466-.404.77-1.313.728-1.918.545.142.87.403.87 1.372 0 .97.06 2.564 1.01 2.727.524-.83 1.13-1.536 2.02-2.062-.202-.14-.202-.303-.202-.383V20.05c0-.183-.02-.242.1-.324.123-.08.484-.403.484.14v1.414s.02.95.365 1.152c.262-.324.422-.484.807-.768-.242-.283-.262-.385-.262-.606s-.02-1.454-.02-1.716c0-.264 0-.546-.646-.91-.345.283-.605.607-.707.708s-.172.07-.283-.042c-.11-.11-.162-.36-.424-.484l-.748.637c.14.02.36.233.36.658v2.2c0 .223-.14.364-.42.2-.164-.12-.384-1.188-.526-1.956-.14-.768-.726-1.07-1.11-1.07.505-.344 6.335-5.373 11.495-3.053l-.24-.2L15 14.49c-.483-.4-.817-.28-.817-.28z" fill="#0054A6"/><path d="M14.997 14.492l1.41 1.54-.15-.165c-.154-.178-.345-.42-.483-.676-.276-.52-.385-1.082-.416-1.557.424-3.018.387-6.587-4.035-8.91-1.792.63-4.15 1.258-6.508 4.842l-2.23-.093c1.32 1.57 2.26 2.954 2.765 4.59l.724-.315c.44 1.29.802 2.074 1.02 3.52l.005.016c2.957-1.87 6.065-2.76 7.082-3.065 0-.002.333-.123.814.277z"/><path d="M21.045 20.117c-.318-.137-.605-.27-.924-.393-.316-.122-.18-.758.23-.562.41.198.5.288.726.456.152-.456.44-.94.44-.94-.288-.03-1.333-.242-1.47-.288-.137-.045-.288-.15-.424.12-.136.274-.544 1.243-.636 1.47-.092.23.045.44.408.53.364.092.896.15 1.092.35.197.196.06.56-.196.56-.26 0-.696-.287-.88-.453 0 0-.316.756-.59 1.105 0 0 1.18.12 1.604.136.425.017.575-.288.65-.5.077-.212.274-.925.335-1.136.06-.213-.045-.318-.363-.455z" fill="#0054A6"/><path d="M9.113 9.646s-2.988.065-3.115.07c-.02 0 .11-.18.11-.18l3.376-.266-.37.376zM7.32 13.938s.54-.305 1.217-.63c.444-.212 1.336-.556 1.336-.556s-.885.134-1.848.377c-.787.196-.985.295-.985.295l.28.512z" fill="#878A8F"/><path d="M17.15 6.2c-1.803 1.056-1.357 2.224-.27 2.26-.914-.15-.884-1.23.817-2.228 1.92-1.123 2.437-2.062 2.374-3.23-.06-1.167-1.025-2.35-2.84-2.572-.125-.02-.246-.03-.36-.04.06.007.12.012.184.02 1.813.228 2.55 1.423 2.613 2.592.064 1.166-.595 2.074-2.517 3.197zM3.747 3.947c-.18.45-.32 1.816 3.003.994-1.113.03-2.94.223-3.016-.87l.013-.122zM7.58 14.373c.945-.69 2.045-1.478 4.15-1.79.064-.335.178-.778.305-1.232-.25-.046-.462-.202-.588-.415-.116.383-.234.8-.322 1.16-1.666.205-4.434.817-5.25 1.102-.18-.422-.35-.8-.512-1.14h3.043l.377-.356H5.19l-.088-.172h3.823l.36-.355h-4.37L4.817 11h4.656l.377-.357H4.61c-.087-.14-.173-.273-.26-.404l-.046-.048c1.293.1 5.87-.07 7.17-.185.156-.237.424-.393.73-.393.128 0 .253.03.364.082.067-.176.125-.312.168-.385-.88.19-2.86.317-3.236.317 0 0 .66-.787.94-.944-1.004.157-3.926.47-4.43.47l-.377.535h-.41l.442-.755.5-.158c1.04-1.318 1.54-2.138 5.03-3.646 2.697 1.456 4.607 4.196 3.146 9.063-.102-.004-.16.018-.16.018l-.46.14c1.09-3.76.195-6.674-2.903-8.973l.137.156c3.98 4.664 1.96 7.96.158 9.727-.725.29-1.52.64-2.337 1.062l-1.192-1.95z" fill="#fff"/><circle cx="12.193" cy="10.491" r=".7"/><path d="M13.395 14.45c.623-1.976 1.072-4.718-1.154-7.435l.31.482c1.642 3.027 1.312 5.232-.02 7.237.32-.11.61-.204.864-.284h.002z" fill="#878A8F"/></svg>