<?xml version="1.0" encoding="utf-8"?>
<!-- Generator: Adobe Illustrator 15.0.0, SVG Export Plug-In . SVG Version: 6.00 Build 0)  -->
<!DOCTYPE svg PUBLIC "-//W3C//DTD SVG 1.1//EN" "http://www.w3.org/Graphics/SVG/1.1/DTD/svg11.dtd">
<svg version="1.1" id="Layer_1" xmlns="http://www.w3.org/2000/svg" xmlns:xlink="http://www.w3.org/1999/xlink" x="0px" y="0px"
	 width="32.494px" height="21.286px" viewBox="0 0 32.494 21.286" enable-background="new 0 0 32.494 21.286" xml:space="preserve">
<path fill="#FFFFFF" d="M22.628,15.066c-0.061-0.01-0.188-0.038-0.322-0.073c-0.281-0.076-0.5-0.203-0.66-0.377
	c-0.043-0.048-0.086-0.098-0.125-0.15l-0.006-0.01l-0.011-0.002c-0.2-0.065-0.353-0.23-0.414-0.365l-0.014-0.037l-0.013-0.024
	v-0.005l-0.004-0.005c-0.033-0.038-0.086-0.086-0.113-0.11l-0.006-0.002l-0.002-0.006c-0.168-0.154-0.645-0.587-0.813-0.725
	l-0.004-0.002l-0.003-0.002c-0.03-0.012-0.13-0.043-0.368-0.063c-0.176-0.016-0.344-0.016-0.408-0.016h-0.023
	c-0.41,0.01-1.527,0.047-1.769,0.072c-0.081,0.008-0.143,0.012-0.196,0.012h-0.129l-0.146,0.002c-0.127,0-0.29-0.004-0.443-0.03
	c-0.16-0.026-0.28-0.075-0.375-0.147c-0.13-0.1-0.24-0.242-0.465-0.533c-0.17-0.219-0.403-0.52-0.752-0.942
	c-0.144-0.177-0.282-0.31-0.43-0.447c-0.087-0.085-0.18-0.17-0.27-0.268l-0.046-0.047l-0.01,0.063
	c-0.005,0.023-0.01,0.046-0.013,0.07c-0.042,0.207-0.097,0.39-0.163,0.537c-0.103,0.226-0.24,0.384-0.407,0.474
	c-0.042,0.022-0.082,0.038-0.118,0.051l-0.012,0.004c-0.012,0.006-0.023,0.01-0.033,0.01c-0.053,0.016-0.11,0.023-0.168,0.023
	c-0.36,0-0.757-0.275-1.216-0.591c-0.225-0.155-0.46-0.316-0.682-0.436c-0.213-0.115-0.383-0.173-0.506-0.173h-0.04
	c-0.144,0.02-0.267,0.065-0.362,0.138c-0.078,0.058-0.14,0.135-0.19,0.229c-0.088,0.17-0.1,0.342-0.103,0.36v0.021
	c-0.01,0.109-0.048,0.211-0.116,0.291c-0.066,0.08-0.152,0.135-0.25,0.153H9.9c-0.104,0.048-0.21,0.07-0.313,0.07
	c-0.12,0-0.235-0.028-0.348-0.086H9.227c-0.04-0.003-0.074-0.011-0.11-0.021H9.1c-0.106,0.03-0.27,0.07-0.442,0.07
	c-0.063,0-0.12-0.005-0.176-0.016L8.4,11.991l-0.058,0.055c-0.17,0.16-0.303,0.289-0.377,0.355c-0.207,0.186-0.445,0.28-0.707,0.28
	c-0.116,0-0.213-0.021-0.275-0.03c-0.015-0.003-0.027-0.007-0.04-0.008c-0.08-0.014-0.155-0.04-0.236-0.072
	c-0.12-0.044-0.242-0.092-0.396-0.092c-0.185,0-0.34-0.029-0.464-0.09l-0.01-0.006l-0.014,0.004c-0.1,0.027-0.24,0.09-0.346,0.22
	c-0.163,0.2-0.42,0.353-0.767,0.454c-0.173,0.052-0.323,0.077-0.397,0.087H4.306c-0.094,0.032-0.188,0.048-0.28,0.048
	c-0.228,0-0.438-0.104-0.59-0.287c-0.1-0.121-0.144-0.238-0.153-0.271l-0.03-0.087L3.24,12.545c-0.123-0.053-0.22-0.123-0.29-0.209
	c-0.013-0.018-0.027-0.035-0.038-0.055l-0.007-0.007l-0.01-0.004c-0.182-0.08-0.31-0.233-0.406-0.427
	c-0.075-0.148-0.103-0.594-0.09-0.765c0.13,0.035,0.48,0.097,0.777,0.136l0.016,0.004l0.012-0.014c0.064-0.063,0.13-0.115,0.2-0.153
	c0.112-0.063,0.235-0.092,0.37-0.092c0.06,0,0.115,0.006,0.162,0.01l0.308,0.04H4.26c0.185-0.076,0.27-0.13,0.3-0.15
	c0.22-0.146,0.426-0.46,0.56-0.668c0.077-0.115,0.138-0.21,0.198-0.275C5.412,9.82,5.508,9.74,5.611,9.68
	c0.147-0.088,0.3-0.13,0.46-0.13c0.09,0,0.183,0.015,0.272,0.044c0.058,0.021,0.11,0.044,0.16,0.072l0.028,0.016l0.018-0.027
	c0.152-0.252,0.264-0.486,0.33-0.696c0.066-0.213,0.088-0.4,0.063-0.56c-0.035-0.223-0.015-0.46,0.06-0.706
	C7.06,7.505,7.135,7.363,7.167,7.3c0.06-0.114,0.192-0.307,0.385-0.5l0.027-0.024l-0.03-0.024c-0.158-0.114-0.3-0.24-0.42-0.374
	c-0.197-0.22-0.34-0.457-0.424-0.703C6.6,5.357,6.592,5.027,6.682,4.693c0.06-0.214,0.16-0.412,0.297-0.58
	c0.118-0.148,0.263-0.28,0.435-0.387c0.252-0.163,0.555-0.278,0.9-0.345c0.213-0.042,0.434-0.055,0.65-0.07
	c0.37-0.022,0.753-0.047,1.112-0.22c0.236-0.113,0.406-0.31,0.463-0.536c0.025-0.1,0.028-0.2,0.01-0.298
	c-0.02-0.105-0.064-0.206-0.132-0.304c-0.34-0.476-0.976-0.544-1.534-0.604c-0.14-0.016-0.275-0.03-0.4-0.05
	c-0.354-0.06-0.583-0.18-0.7-0.368c-0.08-0.134-0.1-0.292-0.05-0.45c0.035-0.114,0.105-0.215,0.2-0.293
	c0.153-0.124,0.37-0.19,0.628-0.19c0.162,0,0.334,0.014,0.545,0.044c0.413,0.06,0.788,0.156,1.117,0.295
	c0.382,0.162,0.7,0.377,0.944,0.64c0.332,0.353,0.522,0.78,0.555,1.235c0.014,0.212-0.006,0.427-0.06,0.638
	c-0.066,0.257-0.175,0.492-0.325,0.703c-0.154,0.22-0.343,0.396-0.563,0.53C10.57,4.208,10.34,4.3,10.084,4.357
	C9.829,4.417,9.566,4.44,9.312,4.465c-0.466,0.046-0.908,0.087-1.17,0.32c-0.1,0.087-0.167,0.18-0.204,0.272
	c-0.05,0.12-0.04,0.233,0.02,0.34C8.08,5.614,8.31,5.815,8.61,5.964c0.277,0.14,0.582,0.22,0.837,0.22H9.45
	c0.332,0,0.81-0.055,1.193-0.32c0.404-0.271,1.064-0.92,1.645-1.49c0.275-0.27,0.536-0.527,0.773-0.75l0.094-0.094
	c0.31-0.306,0.67-0.56,1.14-0.8c0.426-0.218,0.964-0.438,1.747-0.714c0.43-0.15,0.837-0.23,1.215-0.23
	c0.68,0,1.137,0.242,1.473,0.417l0.084,0.042c0.287,0.148,0.631,0.222,1.045,0.222c0.342,0,0.677,0.047,0.994,0.144
	c0.269,0.077,0.467,0.172,0.586,0.23l0.072,0.033c0.168,0.073,0.928,0.394,1.08,0.457h0.002c0.206,0.064,0.385,0.138,0.526,0.22
	l0.008,0.006l0.013-0.002c0.155-0.017,0.305-0.024,0.441-0.024c0.29,0,0.518,0.038,0.693,0.117c0.061,0.028,0.11,0.063,0.154,0.104
	c0.061,0.06,0.102,0.13,0.118,0.21c0.017,0.067,0.021,0.176-0.045,0.295c-0.028,0.047-0.058,0.083-0.073,0.103h-0.002l-0.01,0.016
	l-0.23,0.27l0.006,0.02c0.091,0.203,0.858,1.18,1.097,1.444c0.274,0.3,0.538,0.533,0.858,0.76c0.322,0.228,0.541,0.34,0.72,0.43
	c0.194,0.1,0.36,0.186,0.518,0.356c0.097,0.108,0.171,0.143,0.196,0.153l0.005,0.002h0.004c0.322,0.026,0.595,0.155,0.813,0.386
	c0.182,0.194,0.295,0.43,0.384,0.636c0.058,0.135,0.22,0.413,0.444,0.698c0.228,0.292,0.451,0.512,0.615,0.607
	c0.283,0.16,0.488,0.31,0.629,0.46c0.096,0.103,0.159,0.204,0.199,0.31c0.04,0.117,0.047,0.24,0.02,0.355l-0.002,0.005v0.006
	c0.02,0.189,0.002,0.378-0.061,0.557c-0.063,0.199-0.15,0.35-0.262,0.467c-0.122,0.125-0.34,0.308-0.691,0.457
	c-0.145,0.06-0.265,0.097-0.328,0.115c0,0,0.203-0.643,0.137-0.843c0,0-0.17,0.233-0.28,0.332c-0.254,0.22-0.59,0.347-0.733,0.388
	c0-0.27,0-0.549-0.01-0.82c-0.004-0.077-0.01-0.156-0.09-0.204c-0.078-0.05-0.18-0.075-0.27-0.097
	c-0.201-0.053-0.363-0.125-0.48-0.215c-0.05-0.035-0.09-0.076-0.125-0.115l-0.005-0.006v-0.002
	c-0.112-0.084-0.252-0.147-0.417-0.193c-0.276-0.074-0.57-0.08-0.854-0.04c0,0-0.031,0.002-0.027,0.033
	c0.003,0.032-0.012,0.348-0.029,0.517c0,0.004-0.189-0.035-0.202-0.04c-0.21-0.057-0.452-0.156-0.618-0.296
	c-0.127-0.11-0.214-0.234-0.252-0.366c-0.051-0.174-0.058-0.364-0.021-0.54c0.057-0.28,0.239-0.458,0.456-0.628l-0.039-0.02
	c-0.083-0.04-0.197-0.077-0.344-0.11c-0.235-0.055-0.494-0.087-0.682-0.11h-0.002c-0.063-0.012-0.113-0.018-0.156-0.025
	c-0.25-0.035-0.442-0.104-0.588-0.21c-0.1-0.07-0.279-0.25-0.334-0.302c-0.058-0.058-0.13-0.13-0.212-0.217l-0.036-0.036
	l-0.017,0.05c-0.005,0.01-0.011,0.022-0.015,0.035c-0.015,0.048-0.027,0.095-0.039,0.14c-0.064,0.214-0.123,0.416-0.26,0.587
	c-0.031,0.038-0.063,0.077-0.104,0.12c-0.136,0.15-0.294,0.27-0.47,0.356c-0.209,0.103-0.436,0.155-0.67,0.155
	c-0.291,0-0.594-0.077-0.897-0.23c-0.048-0.027-0.099-0.054-0.146-0.082l-0.015-0.01l-0.019,0.01
	c-0.284,0.166-0.609,0.3-0.963,0.395l-0.063,0.02l0.05,0.04c0.07,0.054,0.143,0.105,0.217,0.155l0.014,0.01l0.006,0.005
	c0.023,0.015,0.217,0.148,0.492,0.148c0.048,0,0.096-0.005,0.146-0.014c0.197-0.032,0.36-0.05,0.507-0.05
	c0.203,0,0.383,0.03,0.553,0.094c0.177,0.064,0.344,0.164,0.51,0.305c0.105,0.09,0.343,0.24,0.855,0.456
	c0.265,0.106,0.563,0.22,0.91,0.334c0.066,0.022,0.133,0.045,0.205,0.065c0.186,0.061,0.376,0.123,0.536,0.188
	c0.11,0.046,0.243,0.104,0.34,0.19l0.007,0.003l0.006,0.003c0.071,0.025,0.142,0.061,0.205,0.1c0.229,0.146,0.366,0.37,0.387,0.631
	v0.002c0.01,0.056,0.016,0.109,0.016,0.164v0.008l0.002,0.006c0.11,0.23,0.166,0.48,0.164,0.732
	c-0.004,0.353-0.064,0.551-0.115,0.664c-0.035,0.08-0.07,0.141-0.09,0.162c-0.23-0.17-0.527-0.425-0.574-0.47l-0.097-0.085
	c0,0,0.007,0.063,0.011,0.138c0,0.08-0.019,0.37-0.066,0.628c-0.239-0.082-0.762-0.457-0.822-0.518l-0.055-0.053v0.076
	c0,0.381-0.047,0.586-0.067,0.66c-0.146-0.063-0.733-0.326-0.96-0.604l-0.05-0.061l-0.07,0.705L22.628,15.066z"/>
<path d="M5.68,10.63c-0.02,0.034-0.094,0.174-0.133,0.23c-0.295,0.412-0.957,0.801-1.174,0.926c-0.057,0.031,0.11,0.004,0.137-0.006
	c0.697-0.21,1.006-0.518,1.006-0.518v0.266c-0.408,0.381-1.19,0.563-1.19,0.563C4.671,12.316,5.37,12,5.511,11.915
	c0.127-0.076,0.227-0.014,0.236,0.004c0.002,0.002,0.002,0,0-0.002c-0.242-0.551,0.01-1.307,0.01-1.307
	c0.034-0.14-0.03-0.05-0.075,0.02H5.68z M23.19,4.076h-0.006c0.03,0.023,0.063,0.05,0.094,0.078c0.141,0.14,0.236,0.218,0.308,0.284
	c0.011-0.008,0.033-0.025,0.088-0.075c0.093-0.087,0.21-0.234,0.21-0.234s0.008-0.01,0.004-0.024c-0.014-0.09-0.488-0.05-0.705-0.03
	h0.004L23.19,4.076z M19.813,4.12c-0.34-0.152-0.709-0.062-0.709-0.062c0.043,0.188,0.34,0.518,0.34,0.518
	C19.644,4.258,19.813,4.121,19.813,4.12L19.813,4.12z M12.464,10.993l-0.04-0.367c0,0,0.547,0.908,0.994,0.81
	c0.006-0.003,0.023-0.008,0.043-0.02c0.018-0.01,0.037-0.024,0.06-0.047c0.15-0.334,0.126-1.047,0.08-1.139h-2.11
	c0.306,0.16,0.814,0.57,0.974,0.76L12.464,10.993z M29.508,10.565c-0.56-0.317-1.241-1.616-1.347-1.825
	c-0.104-0.212-0.202-0.283-0.506-0.36c-0.305-0.077-0.529-0.17-0.529-0.17c-2.055-0.787-2.193-1.15-2.193-1.15
	c0.303,0.246,1.104,0.455,1.359,0.49c0.045,0.005-0.003-0.012-0.047-0.03c-0.439-0.178-1.141-0.693-1.504-1.19l-0.006-0.003h0.002
	c-0.032,0.07-0.149,0.363-0.076,0.703c0.078,0.362-0.168,0.71-0.283,0.835c-0.043,0.046-0.189,0.162-0.318,0.227
	c-0.115,0.056-0.404,0.187-0.393,0.292c0.016,0.13,0.529,0.6,1.279,0.562c0.258-0.015,0.398-0.07,0.635-0.016
	c0.186,0.043-0.042,0.283,0.668,0.172c0,0,0.547-0.108,0.52,0.01c-0.109,0.53,0.601,0.945,0.75,1.107c0,0-0.735-0.3-0.836-0.66
	c-0.106-0.392-0.496-0.4-0.551-0.123c-0.043,0.236,0.004,0.373,0.004,0.373s-0.105,0.295-0.256,0.373
	c-0.033,0.017-0.084,0.03-0.092,0.036c-0.012,0.01,0.002,0.02,0.002,0.02s0.27,0.18,0.266,0.277c0,0,0.414,0.004,0.428-0.354
	c0.002-0.005,0.004-0.002,0.007,0.01c0.018,0.074,0.102,0.336,0.384,0.342c0.327,0.006,0.456,0.003,0.59,0.125
	c0.135,0.123,0.393-0.03,0.393-0.03s-0.183,0.398,1.141,0.809c0,0,0.355-0.503-0.133-0.824c-0.348-0.115-0.588-0.803-0.787-1.426
	c0,0,0.477,1.002,0.996,1.3c0.279,0.157,0.394,0.29,0.34,0.57v-0.003c-0.002,0.01-0.004,0.02-0.01,0.033
	c-0.021,0.105-0.063,0.219-0.105,0.307c0,0,0.311-0.01,0.475,0.211c0.475-0.517,0.299-0.706-0.262-1.022L29.508,10.565z"/>
<path fill="#00667D" d="M30.338,11.226c-0.116,0.218-0.567,0.362-0.567,0.362c-0.164-0.223-0.476-0.211-0.476-0.211
	c0.043-0.09,0.084-0.203,0.106-0.307l0.011-0.03H29.41c0,0-0.091-0.388-0.479-0.43c-0.021-0.003-0.045-0.007-0.068-0.015
	c0.49,0.32,0.134,0.822,0.134,0.822c-1.322-0.41-1.14-0.81-1.14-0.81s-0.26,0.155-0.395,0.033c-0.133-0.12-0.262-0.12-0.59-0.124
	c-0.28-0.006-0.365-0.268-0.383-0.342c-0.004-0.012-0.006-0.015-0.008-0.01c-0.016,0.357-0.428,0.354-0.428,0.354
	c0.006-0.1-0.267-0.277-0.267-0.277s-0.015-0.01-0.003-0.02c0.008-0.008,0.061-0.02,0.092-0.037c0.15-0.078,0.255-0.372,0.255-0.372
	s-0.047-0.136-0.002-0.372c0.052-0.275,0.44-0.27,0.55,0.124c0.1,0.36,0.836,0.658,0.836,0.658c-0.15-0.162-0.861-0.577-0.748-1.108
	c0.024-0.117-0.522-0.01-0.522-0.01c-0.71,0.112-0.483-0.128-0.667-0.17c-0.235-0.056-0.376,0-0.633,0.015
	c-0.75,0.04-1.266-0.43-1.279-0.562c-0.014-0.105,0.275-0.236,0.391-0.292c0.129-0.063,0.274-0.18,0.317-0.226
	c0.114-0.126,0.36-0.473,0.282-0.835c-0.073-0.34,0.044-0.633,0.076-0.703c-0.387-0.528-0.625-1.153-0.625-1.153
	s0.193,0.51,0.064,1.388c-0.043,0.276-0.322,0.892-0.615,1.176c-0.246,0.24-0.361,0.53-0.361,0.53s0.252,0.265,0.432,0.444
	c0.076,0.075,0.223,0.22,0.285,0.265c0.078,0.056,0.203,0.114,0.438,0.147c0.396,0.057,1.797,0.166,1.51,0.722
	c-0.022,0.04-0.144,0.207-0.338,0.31c-0.039,0.02-0.084,0.044-0.096,0.14c-0.02,0.136-0.208,0.732,0.506,0.98
	c0,0-0.096-0.43,0.069-0.52c0.165-0.09,1.163-0.2,1.747,0.287c0,0,0.063,0.142,0.438,0.237c0.377,0.098,0.582,0.236,0.58,0.496
	c-0.004,0.264-0.041,0.576-0.041,0.576s0.549-0.365,0.557-0.895c0,0,0.81,0.035,0.479,0.904c0,0,0.718-0.4,0.575-1.141
	L30.338,11.226z"/>
<path fill="#A2DCEB" d="M13.488,11.43c-0.14,0.227-0.06,0.218-0.015,0.203c0.024-0.008,0.05-0.021,0.065-0.028
	c0.438-0.229,0.46-1.37,0.46-1.37h-0.4C13.648,10.33,13.672,11.135,13.488,11.43L13.488,11.43z M29.676,10.432
	c-0.465-0.266-1.047-1.102-1.204-1.47c-0.16-0.37-0.381-0.782-0.931-0.814c0,0-0.181-0.01-0.41-0.264
	c-0.229-0.254-0.498-0.254-1.18-0.74c-0.69-0.484-1.14-1.01-1.839-1.968c0,0,0.24,0.627,0.629,1.155
	c0.363,0.497,1.063,1.013,1.504,1.19c0.044,0.02,0.092,0.036,0.048,0.03c-0.257-0.034-1.06-0.243-1.36-0.49
	c0,0,0.141,0.364,2.194,1.15c0,0,0.226,0.094,0.53,0.17c0.303,0.078,0.4,0.15,0.507,0.36c0.104,0.21,0.79,1.51,1.349,1.826
	s0.736,0.506,0.262,1.021c0,0,0.486-0.153,0.582-0.387c0.094-0.233-0.209-0.506-0.676-0.769L29.676,10.432z M29.071,10.47
	c-0.52-0.297-0.995-1.3-0.995-1.3c0.21,0.66,0.47,1.397,0.854,1.438c0.391,0.043,0.48,0.43,0.48,0.43
	c0.056-0.276-0.057-0.41-0.337-0.568H29.071z M23.91,12.993c-0.263-0.186-0.532-0.127-0.532-0.127l-1.384-0.91
	c0,0-0.007-0.002,0,0.004c0.104,0.092,1.086,0.949,1.151,1.06c0.068,0.118-0.16,0.44,0.295,0.176
	c0.457-0.265,0.826,0.287,0.826,0.287c-0.076-0.226-0.222-0.399-0.354-0.491L23.91,12.993z M24.146,4.157
	c0.027-0.04,0.141-0.126-0.018-0.197c-0.334-0.15-0.963-0.065-1.086-0.047c-0.105-0.077-0.279-0.17-0.572-0.26l-1.1-0.465
	c-0.186-0.08-0.73-0.4-1.588-0.38H19.71c-0.41-0.02-0.7-0.095-1.05-0.256c-0.49-0.25-1.177-0.688-2.51-0.217
	c-1.435,0.507-2.192,0.872-2.76,1.435l-0.097,0.096c0,0,1.227-0.91,2.85-0.77c0.436,0.04,0.902,0.153,1.383,0.382
	c0,0-0.584-0.61-2-0.542c0,0,1.73-1.22,4.672,0.726l-0.342-0.45c0,0,0.879-0.15,1.97,0.617c-0.038,0.01-0.087,0.03-0.112,0.057
	c-0.047,0.05,0,0.117,0.406,0.183c0.762,0.122,0.924,0.435,0.924,0.435c-0.432,0.322-0.473,0.472-0.473,0.472
	c1.518-1.093,0.988,0.795,0.988,0.795c0.629,0.096,0.043,1.144-0.371,1.79c-0.41,0.646,0.084-0.853,0.084-0.853
	c-0.266,0.2-0.442,0.896-0.57,1.505c-0.04,0.18-0.072,0.34-0.096,0.452L22.58,8.819c-0.026,0.133-0.05,0.24-0.074,0.313
	c-0.137,0.352-0.422,0.55-0.422,0.55c0.16-0.08,0.278-0.183,0.366-0.28l0.09-0.104c0.12-0.15,0.164-0.36,0.244-0.62
	c0.404-1.157,0.797-1.043,1.055-1.78c0.282-0.8,0.174-1.06,0.03-1.705c-0.075-0.33-0.093-0.486-0.146-0.59h0.004l0.422-0.45
	L24.146,4.157z M23.676,4.363c-0.055,0.05-0.077,0.067-0.088,0.075c-0.069-0.066-0.166-0.145-0.31-0.284
	c-0.03-0.03-0.063-0.055-0.094-0.078c0.217-0.02,0.69-0.06,0.705,0.03c0,0.016-0.008,0.022-0.008,0.022s-0.115,0.148-0.208,0.235
	H23.676z"/>
<path fill="#00667D" d="M13.52,11.37c-0.023,0.021-0.043,0.037-0.06,0.047c-0.02,0.012-0.036,0.017-0.042,0.02
	c-0.447,0.098-0.996-0.81-0.996-0.81l0.04,0.367c-0.16-0.19-0.667-0.6-0.974-0.76h-1.324L8.537,11.67
	c0.257,0.045,0.574-0.09,0.59-0.078c0.162,0.095,0.35-0.008,0.434-0.094l0.018,0.021l0.004,0.01c0.005,0.056-0.2,0.132-0.2,0.132
	c0.236,0.131,0.407-0.008,0.437-0.007c0.05,0.003,0.103-0.05,0.113-0.14c0,0,0.023-0.942,0.956-1.058
	c0.796-0.1,2.03,1.324,2.565,1.183l0.018-0.004c-0.047,0.012-0.117,0.012,0.02-0.207l0.03-0.061L13.52,11.37z M10.16,10.558
	c-0.44,0.292-0.38,0.63-0.377,0.667c0,0.002,0,0.002-0.002,0c-0.043-0.04-0.117-0.003-0.14,0.027
	c-0.003,0.002-0.004,0.006-0.005-0.004c-0.02-0.156-0.162-0.06-0.19-0.037c0,0.002,0,0,0,0c0.267-0.48,0.58-0.63,0.692-0.67
	c0.018-0.007,0.025-0.01,0.037-0.012C10.233,10.514,10.185,10.542,10.16,10.558L10.16,10.558z"/>
<path d="M10.174,10.53l-0.037,0.013c-0.113,0.04-0.426,0.19-0.693,0.668c0,0,0,0.006,0.002,0.004
	c0.027-0.023,0.168-0.118,0.19,0.035c0,0.008,0,0.004,0.004,0.002c0.022-0.029,0.097-0.067,0.142-0.025h0.002
	c-0.002-0.038-0.064-0.376,0.376-0.668c0.022-0.015,0.07-0.043,0.014-0.027V10.53z"/>
<path fill="#00667D" d="M25.067,13.161c0,0,0.019-0.091-0.008-0.209c-0.004-0.01-0.137-0.336-0.52-0.272
	c-0.382,0.06-0.758,0.296-2.164-0.63c-0.148-0.1-0.1-0.07-0.064-0.053c0.013,0.004,0.1,0.039,0.109,0.047
	c0.305,0.152,1.29,0.627,1.698,0.578h-0.005c-0.637-0.16-1.67-0.598-1.873-0.717c-0.26-0.154-0.75-0.498-0.43-0.395
	c-0.299-0.133-0.264-0.42-1.074-0.437c-0.848-0.023-2.045,0.49-2.813-0.14v-0.002c0.528,0.008,0.115-0.686,0.115-0.686
	c-1.428-2.307-0.097-3.81-0.097-3.81c0.054-0.184,0.111-0.375,0.185-0.572l-0.229,0.138c-1.117,0.673-1.273,1.702-1.275,1.714
	c0.05,1.29,0.746,3.207,1.113,3.515c0.453,0.377,1.199,0.132,2.31,0.206c0.396,0.025,1.062,0.336,1.42,0.445
	c0.479,0.15,1.14,0.8,1.166,0.836c0.282,0.377,0.24,0.404-0.021,0.777c-0.074,0.104-0.449-0.721-0.85-0.703
	c-0.109,0.006,0.131,0.24,0.143,0.262c0.054,0.095,0.138,0.105,0.138,0.105c0.646,0.344,0.31,0.838,0.31,0.838
	c-0.07,0.041-0.217-0.184-0.217-0.184c-0.55-0.443-0.474,0.273-0.474,0.273c-0.245-0.02-0.255-0.506-0.255-0.506
	s-0.646-0.635-0.973-0.951c-0.328-0.317-2.311,0-3.011-0.233c-0.69-0.226-1.25-1.638-1.42-2.293
	c-0.016-0.063-0.018-0.056-0.01,0.003c0.15,1.087,0.842,2.293,0.916,2.42c0,0-0.054,0.002-0.112-0.002
	c-0.125-0.012-0.297-0.066-0.738-0.645c-0.582-0.76-1.236-1.521-1.236-1.521c-1.676-1.625-1.057-4.596-1.057-4.596
	c-0.88,2.145,0.088,3.9,0.088,3.9S12.51,9.542,10.6,9.5C9.262,9.477,8.685,8.688,8.685,8.688C8.967,9.308,9.713,9.66,9.713,9.66
	c-0.21,0.027-0.815,0.864-1.176,1.316c-0.095,0.12-0.37,0.409-0.472,0.517c-0.254,0.272-0.632,0.608-1.21,0.549
	c-0.8-0.082-0.753-1.083-0.753-1.083c0.46,0.057,1.205-0.79,1.5-1.888C7.9,7.97,8.71,7.736,8.71,7.736
	C8.433,7.773,8.32,7.829,7.884,8.012C7.448,8.194,7.667,7.546,8.237,7.068c0.57-0.48,1.334-0.27,1.334-0.27
	c-0.135,0.233-0.58,0.498-0.58,0.498s0.974,0.064,2.073-0.82c1.078-0.866,2.957-2.853,2.957-2.853
	c-0.25,0.78-0.357,1.437-0.357,1.437c0.855-2.125,2.404-2.052,3.256-1.814c-1.98-0.59-3.604,0.604-3.628,0.62
	c-0.766,0.718-1.848,1.86-2.46,2.28c-0.28,0.192-0.638,0.286-0.898,0.337c-0.23,0.04-0.457,0.046-0.703,0.036
	c-0.465-0.022-0.824,0.106-1.055,0.23c-0.352,0.19-0.634,0.56-0.71,0.71c-0.057,0.108-0.25,0.485-0.19,0.888
	c0.063,0.4-0.062,1.002-0.73,1.923c0,0-0.03-0.254-0.316-0.35c-0.286-0.096-0.52,0.075-0.665,0.23
	c-0.137,0.148-0.424,0.735-0.818,0.996c-0.06,0.04-0.223,0.12-0.36,0.183c-0.075,0.033-0.1,0.037-0.138,0.031
	c-0.034-0.006-0.3-0.037-0.356-0.045c-0.193-0.021-0.348-0.02-0.537,0.242c0,0-0.434,0.042-0.666-0.105c0,0,0.048,0.483,0.478,0.547
	c0,0-0.063,0.316,0.814,0.328c0,0-0.23,0.199-0.38,0.199c0,0,0.158,0.467,0.622,0.287c0,0,0.7-0.075,0.984-0.424
	c0.285-0.348,0.707-0.367,0.707-0.367s0.064,0.115,0.39,0.115c0.33,0,0.55,0.146,0.69,0.168c0.136,0.02,0.43,0.117,0.737-0.158
	c0.307-0.273,1.71-1.67,2.36-2.103h4.066c0.42,0.62,0.757,0.788,1.147,1.26c1.28,1.555,1.03,1.502,1.584,1.502
	c0.444,0,0.315,0.05,0.625,0.019c0.307-0.033,1.795-0.074,1.795-0.074s0.813-0.01,1.015,0.149c0.2,0.157,0.845,0.75,0.845,0.75
	s0.114,0.097,0.18,0.181c0.022,0.029,0.049,0.104,0.055,0.117c0.039,0.09,0.186,0.215,0.307,0.188c0,0,0.275,0.476,0.688,0.57
	l-0.053-0.678c0,0,0.264,0.01,0.334-0.061c0,0,0.627,0.685,0.803,0.677c0,0-0.07-0.757-0.063-0.787
	c0.003-0.013,0.068,0.069,0.154,0.065c0.043-0.002,0.08-0.006,0.13-0.01c0.06-0.006,0.692,0.666,0.694,0.609
	c0.023-0.5-0.197-0.77-0.16-0.777c0.05-0.016,0.052-0.078,0.06-0.104c0.003-0.02,0-0.061-0.015-0.113l0.046-0.033
	c0.075,0.127,0.192,0.223,0.327,0.145c0,0,0.217,0.027,0.576,0.576c0,0.002,0.082-0.652-0.162-1.055H25.067z M3.182,11.885
	c0,0-0.25,0.02-0.32-0.27c0,0,0.248,0.086,0.425,0.053c0,0-0.092,0.143-0.105,0.215V11.885z M3.73,12.581
	c0.11-0.025,0.254-0.119,0.254-0.119c-0.064,0.121,0.118,0.287,0.118,0.287c-0.274,0.058-0.37-0.154-0.372-0.17V12.581z
	 M5.753,10.61c0,0-0.25,0.756-0.01,1.305c0.003,0.002,0.003,0.004,0,0.002c-0.01-0.017-0.108-0.08-0.233-0.004
	c-0.14,0.086-0.84,0.4-1.186,0.176c0,0,0.783-0.184,1.19-0.563v-0.267c0,0-0.308,0.311-1.005,0.521
	c-0.027,0.009-0.195,0.036-0.14,0.005c0.218-0.127,0.88-0.514,1.175-0.927c0.04-0.055,0.112-0.194,0.133-0.23
	c0.044-0.07,0.11-0.157,0.073-0.02L5.753,10.61z M21.8,14.075c-0.005-0.011-0.014-0.033-0.017-0.051
	c-0.013-0.038-0.04-0.177,0.043-0.232l0.516,0.814C22.342,14.606,21.962,14.436,21.8,14.075L21.8,14.075z M22.63,13.898
	c-0.031,0.06-0.015-0.415,0.294-0.479c0.244-0.056,0.435,0.313,0.414,0.41C23.338,13.829,23.021,13.211,22.63,13.898L22.63,13.898z
	 M23.317,14.465c-0.129-0.104-0.485-0.411-0.549-0.59c0,0,0.069-0.156,0.228-0.189c0,0,0.092,0.428,0.415,0.848
	c0,0-0.03-0.019-0.09-0.068H23.317z M23.683,13.813c0,0-0.246-0.455,0.088-0.548c0.299-0.083,0.392,0.351,0.392,0.351
	s-0.146-0.181-0.327-0.15C23.649,13.493,23.683,13.813,23.683,13.813z M24.338,14.357c0,0-0.373-0.397-0.552-0.515
	c0,0,0.01-0.256,0.09-0.268c0,0,0.423,0.633,0.462,0.78V14.357z M24.267,13.481c0,0-0.371-0.55-0.824-0.286
	c-0.455,0.265-0.228-0.058-0.295-0.175c-0.066-0.109-1.047-0.971-1.153-1.064c-0.005-0.006,0-0.004,0-0.004l0.317,0.211l1.066,0.699
	c0,0,0.27-0.061,0.533,0.126c0.134,0.093,0.279,0.267,0.357,0.492L24.267,13.481z M24.616,13.477
	c-0.032-0.01-0.172-0.26-0.131-0.415c0.021-0.077,0.095-0.21,0.238-0.2c0.133,0.01,0.26,0.221,0.26,0.221
	c-0.412-0.308-0.369,0.395-0.369,0.395H24.616z M24.726,13.571c0,0-0.015-0.167,0.024-0.334c0,0,0.321,0.428,0.377,0.715
	c0,0-0.183-0.295-0.399-0.379L24.726,13.571z"/>
<path d="M23.338,13.831c0.021-0.098-0.17-0.465-0.414-0.41c-0.31,0.064-0.325,0.539-0.293,0.479c0.39-0.687,0.71-0.069,0.71-0.069
	H23.338z M24.16,13.618c0,0-0.093-0.434-0.39-0.35c-0.336,0.092-0.09,0.547-0.09,0.547s-0.031-0.32,0.152-0.35
	C24.017,13.438,24.161,13.618,24.16,13.618L24.16,13.618z M24.983,13.084c0,0-0.127-0.211-0.26-0.221
	c-0.145-0.01-0.22,0.123-0.238,0.2c-0.041,0.157,0.099,0.407,0.131,0.415c0,0-0.045-0.704,0.367-0.396V13.084z"/>
<path fill="#00667D" d="M21.717,9.467c-0.014,0.002-0.03,0.002-0.043,0.002h-0.038c-0.039,0-0.07-0.005-0.095-0.007
	c-0.287-0.022-0.569-0.064-0.761-0.14c-0.313-0.12-0.289-0.66-0.289-0.66c0.088-1.13-0.52-2.033-0.52-2.033s0.463,1.355,0.119,1.126
	c-1.529-1.026-0.626-2.18-0.626-2.18l0.238,0.153c-0.42-1.89,0.927-0.744,0.927-0.744c-0.434-0.55-0.73-0.47-0.73-0.47l0.033-0.048
	c0.094-0.124,0.205-0.234,0.334-0.314c0.063-0.04,0.129-0.07,0.199-0.092c0.006,0,0.01-0.002,0.014-0.004
	c0.008,0,0.011-0.003,0.018-0.005c-0.006,0-0.01,0.003-0.018,0.004c-0.629,0.112-0.582-0.036-0.515-0.11
	c0.013-0.012,0.027-0.023,0.045-0.037c-1.319-0.275-1.231,0.1-1.071,0.354c0.237,0.39,0.387,0.58,0.387,0.58l-0.04,0.078
	c-0.466,0.97-0.601,2.004,0.437,2.954c0.381,0.348,0.454,0.832,0.483,0.886c0.174,0.314,0.233,0.512,0.233,0.512
	c-1.078,0.63-1.69,0.555-2.043,0.217c0.101,0.18,0.215,0.355,0.354,0.526c0.097-0.007,1.013-0.09,1.763-0.607
	c0,0,0.811,0.652,1.572,0.267c0.008-0.006,0.197-0.14,0.34-0.38l-0.007,0.007c-0.104,0.12-0.46,0.156-0.698,0.16L21.717,9.467z
	 M19.104,4.057c0,0,0.369-0.09,0.711,0.064c0,0-0.17,0.14-0.373,0.456c0,0-0.295-0.33-0.338-0.517V4.057z"/>
<path d="M22.24,11.907c0.202,0.12,1.235,0.555,1.872,0.717c0.031-0.004,0.056-0.011,0.078-0.019c0,0-2.004-0.95-2.344-1.077
	l-0.035-0.016c-0.319-0.104,0.17,0.24,0.431,0.395H22.24z M18.04,10.247c0,0,0.412,0.693-0.116,0.687c0,0,0.31,0.142,0.66,0.16
	c0.349,0.023,0.896-0.073,0.399-0.442c-0.449-0.337-1.821-1.408-1.039-4.214C17.944,6.438,16.611,7.94,18.04,10.247L18.04,10.247z
	 M22.628,12.719c-0.025-0.035-0.686-0.686-1.167-0.836c-0.354-0.109-1.022-0.42-1.416-0.444c-1.11-0.076-1.856,0.17-2.31-0.21
	c-0.368-0.308-1.065-2.225-1.112-3.515c-0.017-0.35,0.015-0.483,0.073-0.64c0.098-0.263,0.245-0.556,0.907-1.088
	c0.143-0.114,0.297-0.214,0.439-0.33c0.173-0.143,0.314-0.323,0.438-0.515c0.402-0.7-0.125-1.148-0.23-1.23
	c-0.01-0.01-0.007-0.01,0-0.004c0.006,0,0.014,0.002,0.016,0.005c0.42,0.198,0.904,0.763,0.662,1.236
	c-0.074,0.145-0.232,0.375-0.318,0.52c-0.486,0.825-0.949,2.446-0.209,3.824c0.35,0.338,0.963,0.412,2.039-0.217
	c0,0-0.06-0.197-0.231-0.512c-0.03-0.054-0.104-0.538-0.483-0.887c-1.037-0.95-0.902-1.984-0.44-2.955l0.043-0.077
	c0,0-0.147-0.19-0.388-0.58c-0.16-0.257-0.25-0.63,1.072-0.355c0.104-0.064,0.303-0.13,0.465-0.15
	c0.332-0.044,0.637,0.047,0.824,0.13c0.318,0.02,0.443-0.056,0.53-0.063c-1.09-0.77-1.97-0.617-1.97-0.617l0.342,0.45
	c-2.943-1.947-4.673-0.727-4.673-0.727c1.416-0.07,2,0.542,2,0.542c-0.204-0.098-0.407-0.175-0.606-0.234
	c-0.855-0.235-2.4-0.31-3.255,1.817c0,0,0.107-0.655,0.357-1.437c0,0-1.88,1.986-2.957,2.853c-1.1,0.885-2.073,0.82-2.073,0.82
	S9.44,7.029,9.576,6.797c0,0-0.764-0.21-1.334,0.27c-0.57,0.476-0.79,1.124-0.353,0.942c0.438-0.184,0.55-0.24,0.826-0.276
	c0,0-0.81,0.233-1.107,1.33c-0.295,1.1-1.04,1.945-1.5,1.89c0,0-0.047,1,0.754,1.084c0.577,0.062,0.955-0.274,1.21-0.547
	c0.1-0.105,0.376-0.397,0.47-0.517c0.36-0.452,0.964-1.29,1.175-1.317c0,0-0.746-0.354-1.028-0.973c0,0,0.577,0.79,1.916,0.816
	c1.91,0.04,3.253,0.162,3.253,0.162s-0.97-1.756-0.088-3.9c0,0-0.62,2.97,1.057,4.596c0,0,0.654,0.76,1.236,1.52
	c0.443,0.58,0.615,0.635,0.741,0.646c0.059,0.004,0.109,0.003,0.109,0.003c-0.073-0.13-0.765-1.335-0.915-2.422
	c-0.008-0.06-0.006-0.065,0.01-0.003c0.17,0.655,0.73,2.066,1.421,2.293c0.699,0.232,2.682-0.084,3.01,0.232l0.973,0.953
	c0,0,0.01,0.486,0.253,0.508c0,0-0.074-0.721,0.476-0.275c0,0,0.146,0.225,0.215,0.184c0,0,0.338-0.494-0.31-0.838
	c0,0-0.083-0.011-0.136-0.105c-0.014-0.021-0.252-0.256-0.145-0.26c0.399-0.018,0.774,0.808,0.85,0.701
	c0.26-0.373,0.302-0.4,0.02-0.777L22.628,12.719z M23.563,5.772H23.56L23.558,5.77c0,0,0.53-1.888-0.986-0.795h-0.002l0.005-0.005
	c0.016-0.033,0.09-0.184,0.47-0.466c0,0-0.139-0.268-0.764-0.404h-0.002l-0.014-0.002h-0.006l-0.012-0.003h-0.008
	c-0.004-0.002-0.008-0.002-0.01-0.002l-0.017-0.002c-0.173-0.02-0.378-0.02-0.61,0.01c0,0.003,0.019,0.02,0.037,0.044
	c0.141,0.164,0.188,0.335,0.188,0.335c-0.575-0.447-1.018-0.476-1.333-0.42c-0.007,0-0.011,0.002-0.017,0.003l-0.014,0.004
	c-0.07,0.022-0.138,0.053-0.199,0.092c-0.131,0.08-0.24,0.19-0.334,0.312l-0.033,0.05c0,0,0.297-0.082,0.73,0.47
	c0,0-1.35-1.146-0.927,0.74l-0.24-0.153c0,0-0.899,1.153,0.628,2.18c0.342,0.23-0.119-1.125-0.119-1.125s0.606,0.904,0.52,2.032
	c0,0-0.023,0.542,0.289,0.662c0.188,0.073,0.473,0.115,0.761,0.14c0.024,0,0.056,0.003,0.095,0.003h0.08
	c0.24-0.005,0.596-0.042,0.7-0.16l0.006-0.006c0.03-0.052,0.06-0.107,0.08-0.17c0.024-0.07,0.048-0.18,0.075-0.31l0.027-0.155
	c0.021-0.113,0.053-0.272,0.096-0.453c0.126-0.61,0.304-1.306,0.57-1.508c0,0-0.496,1.498-0.084,0.854
	c0.416-0.648,0.998-1.69,0.377-1.792L23.563,5.772z M21.534,6.374c0.05,0.022,0.104,0.037,0.186,0.037
	c0.084,0,0.189-0.015,0.319-0.047c0.03-0.008,0.063-0.015,0.095-0.021c0.045-0.005,0.086-0.007,0.129,0.003
	c0.014,0.003,0.029,0.007,0.043,0.016c0.008,0.006,0.02,0.015,0.024,0.024c0.01,0.01,0.015,0.02,0.019,0.03
	c0.006,0.036,0.002,0.076-0.009,0.112c-0.012,0.03-0.022,0.05-0.077,0.067c-0.008,0.002-0.033,0.01-0.185,0.02
	c-0.242,0.01-0.396,0.137-0.402,0.21c0,0-0.077-0.208-0.354-0.238l-0.077-0.01c-0.03-0.004-0.06-0.005-0.082-0.024
	c-0.021-0.017-0.03-0.04-0.035-0.065c-0.007-0.034-0.006-0.063,0.005-0.085c0.018-0.033,0.033-0.055,0.07-0.066
	c0.02-0.007,0.04-0.01,0.061-0.01c0.09-0.007,0.184,0.014,0.268,0.05L21.534,6.374z M20.457,5.821
	c-0.168-0.143-0.026-0.31-0.026-0.31c0.09-0.08,0.199-0.08,0.301-0.053c-0.029,0.08-0.244,0.166,0.014,0.44
	c0,0,0.266-0.224,0.029-0.426c0.131,0.048,0.236,0.13,0.236,0.13c0.25,0.196,0.237,0.255,0.237,0.255
	c-0.035-0.064-0.151-0.044-0.151-0.044c-0.361,0.155-0.535,0.1-0.638,0.01L20.457,5.821z M22.228,9.208
	c-0.004,0.013-0.008,0.02-0.021,0.028c-0.017,0.015-0.09,0.056-0.17-0.036c-0.075-0.093-0.81-0.147-0.978-0.04
	c-0.123,0.073-0.164,0.062-0.188,0.043c-0.021-0.018-0.021-0.024-0.033-0.048c-0.021-0.057-0.09-0.35,0.13-0.552
	c0,0-0.033,0.407,0.172,0.354c0.01-0.003,0.043-0.016,0.072-0.022c0.092-0.025,0.33-0.07,0.65,0.02
	c0.008,0.004,0.029,0.01,0.039,0.014c0.061,0.017,0.219,0.055,0.197-0.328c0.002,0,0.254,0.236,0.127,0.566L22.228,9.208z
	 M21.26,8.17c-0.028-0.13-0.106-0.22-0.176-0.28c0.136,0.013,0.287,0.017,0.362,0.02c0.017,0.026,0.031,0.112,0.041,0.17
	c0.022,0.143,0.039,0.23,0.097,0.23c0.063,0,0.08-0.093,0.106-0.232c0.015-0.055,0.031-0.138,0.045-0.162
	c0.146,0,0.291-0.006,0.386-0.008c-0.16,0.14-0.243,0.295-0.255,0.46c-0.01,0.17,0.063,0.31,0.123,0.395
	c-0.17-0.034-0.348-0.053-0.527-0.053c-0.17,0-0.307,0.017-0.395,0.03c0.166-0.208,0.232-0.4,0.195-0.57H21.26z M22.416,7.612
	c-0.067,0.43-0.2,0.56-0.2,0.56c0.051-0.394-0.033-0.596-0.033-0.596c-0.015,0.053-0.117,0.213-0.117,0.213
	c-0.017-0.07-0.021-0.15-0.066-0.218c-0.01-0.012-0.757-0.03-0.773-0.014c-0.06,0.066-0.084,0.25-0.084,0.25
	c-0.029,0.01-0.094-0.28-0.094-0.28c-0.109,0.008-0.136,0.61-0.136,0.61c-0.177-0.243-0.158-0.585-0.158-0.585
	c0.019-0.115,0.306-0.104,0.306-0.104c0.119,0,0.282,0.004,0.461,0.004c0.055,0,0.09-0.133,0.09-0.133s0.016,0.134,0.074,0.14
	c0.25,0.02,0.489,0.014,0.489,0.014c0.313,0,0.24,0.137,0.24,0.137L22.416,7.612z M22.631,5.948
	c-0.235-0.008-0.307-0.105-0.399-0.123c-0.035-0.006-0.08,0.018-0.08,0.018s0.094-0.088,0.31-0.224c0,0,0.073-0.048,0.17-0.08
	c-0.028,0.093-0.214,0.19,0.026,0.39c0,0,0.289-0.2,0.035-0.406c0.121-0.024,0.248-0.01,0.314,0.137c0,0,0.102,0.306-0.373,0.287
	L22.631,5.948z"/>
<path fill="#FFFFFF" d="M22.176,7.475c0,0-0.239,0.01-0.489-0.014c-0.061-0.004-0.074-0.137-0.074-0.137s-0.035,0.133-0.09,0.133
	c-0.178,0-0.342-0.006-0.461-0.004c0,0-0.287-0.01-0.306,0.105c0,0-0.019,0.342,0.158,0.586c0,0,0.024-0.603,0.135-0.61
	c0,0,0.06,0.29,0.093,0.28c0,0,0.024-0.184,0.084-0.25c0.017-0.02,0.764,0,0.77,0.013c0.047,0.067,0.052,0.146,0.066,0.216
	c0,0,0.104-0.16,0.117-0.214c0,0,0.084,0.202,0.034,0.597c0,0,0.134-0.13,0.2-0.56c0.002,0,0.076-0.138-0.238-0.138L22.176,7.475z
	 M22.103,8.64c0.02,0.384-0.138,0.346-0.195,0.328l-0.04-0.013c-0.32-0.09-0.56-0.046-0.65-0.02c-0.03,0.006-0.063,0.02-0.073,0.02
	C20.938,9.01,20.97,8.603,20.97,8.603c-0.218,0.203-0.15,0.495-0.13,0.552c0.013,0.022,0.015,0.03,0.033,0.048
	c0.022,0.02,0.063,0.03,0.187-0.044c0.166-0.107,0.899-0.054,0.976,0.04c0.08,0.09,0.153,0.05,0.17,0.034
	c0.013-0.01,0.017-0.016,0.021-0.028c0.127-0.33-0.125-0.566-0.125-0.566L22.103,8.64z M25.603,10.39
	c-0.125,0.51,0.194,0.633,0.194,0.633s-0.069-0.255,0.076-0.378C25.871,10.511,25.603,10.389,25.603,10.39L25.603,10.39z
	 M30.222,11.52c-0.06,0.072-0.35,0.15-0.35,0.15c0.16,0.152,0.046,0.439,0.046,0.439c0.328-0.266,0.306-0.59,0.306-0.59H30.222z
	 M28.834,11.62c0.11,0.129,0.021,0.498,0.021,0.498c0.313-0.308,0.291-0.527,0.291-0.527C29.063,11.65,28.834,11.62,28.834,11.62z
	 M8.704,11.604c0.178-0.004,0.35-0.084,0.35-0.084c-0.048-0.047-0.083-0.132-0.083-0.132c-0.04,0.05-0.264,0.216-0.264,0.216H8.704z
	 M9.636,11.564c0,0-0.062,0.071-0.137,0.09c0,0,0.07,0.05,0.233-0.03c0,0-0.072-0.026-0.098-0.06H9.636z M2.86,11.618
	c0.07,0.286,0.32,0.27,0.32,0.27c0.015-0.074,0.105-0.217,0.105-0.217C3.109,11.704,2.861,11.618,2.86,11.618L2.86,11.618z
	 M3.984,12.461c0,0-0.145,0.094-0.254,0.121c0,0.014,0.098,0.226,0.372,0.166c0,0-0.182-0.17-0.118-0.289V12.461z M21.784,14.026
	c0.002,0.016,0.01,0.04,0.015,0.051c0.16,0.359,0.54,0.529,0.54,0.529l-0.515-0.813c-0.082,0.056-0.056,0.193-0.044,0.232H21.784z
	 M23.786,13.846c0.18,0.117,0.552,0.514,0.552,0.514c-0.04-0.15-0.46-0.779-0.46-0.779C23.795,13.59,23.786,13.847,23.786,13.846
	L23.786,13.846z M24.726,13.575c0.221,0.084,0.4,0.379,0.4,0.379c-0.055-0.285-0.376-0.713-0.376-0.713
	c-0.04,0.166-0.022,0.334-0.022,0.334H24.726z M22.769,13.877c0.063,0.179,0.422,0.486,0.549,0.59
	c0.061,0.051,0.095,0.066,0.095,0.066c-0.323-0.42-0.415-0.847-0.415-0.847c-0.157,0.034-0.23,0.19-0.23,0.19H22.769z"/>
<path fill="#A2DCEB" d="M24.615,12.48c-0.076-0.142-0.593-0.286-1.005-0.423c-0.409-0.139-1.452-0.498-1.879-0.855
	c-0.396-0.333-0.754-0.361-1.291-0.271c-0.532,0.093-0.904-0.203-0.904-0.203c-0.5-0.338-0.854-0.73-1.094-1.145
	c-0.803-1.395-0.33-3.065,0.166-3.907c0.084-0.145,0.242-0.375,0.317-0.52c0.242-0.474-0.243-1.038-0.661-1.236
	c0-0.004-0.009-0.005-0.014-0.007c-0.008-0.004-0.012-0.004,0,0.006c0.105,0.08,0.633,0.53,0.23,1.23
	c-0.123,0.19-0.267,0.37-0.44,0.513c-0.142,0.116-0.296,0.216-0.438,0.33c-0.662,0.532-0.81,0.825-0.907,1.09
	c-0.06,0.154-0.09,0.29-0.072,0.638h0.003V7.7l0.002-0.004V7.692h0.002v-0.01c0.002,0,0.002-0.002,0.002-0.003V7.666l0.005-0.013
	v-0.01l0.004-0.006V7.623c0,0,0.004-0.003,0.004-0.005V7.613l0.002-0.004l0.002-0.004V7.6c0.002,0,0.002,0,0.002-0.002
	c0.073-0.29,0.353-1.057,1.248-1.596l0.229-0.138c-1.146,3.236,0.376,4.428,0.856,4.786c0.496,0.37-0.053,0.466-0.399,0.443
	c-0.351-0.02-0.66-0.16-0.66-0.16c0.769,0.63,1.968,0.117,2.814,0.14c0.844,0.02,0.77,0.327,1.106,0.454
	c0.34,0.127,2.346,1.077,2.346,1.077c-0.34,0.135-1.442-0.396-1.77-0.561c-0.012-0.006-0.1-0.043-0.109-0.047
	c-0.033-0.019-0.08-0.047,0.066,0.049c1.406,0.931,1.782,0.695,2.164,0.631c0.391-0.063,0.52,0.275,0.52,0.275
	c-0.01-0.39-0.443-0.473-0.443-0.473L24.615,12.48z"/>
<path d="M8.37,4.023C8.033,4.067,7.424,4.297,7.246,4.906c-0.174,0.59,0.28,1.06,0.594,1.217C8.147,6.276,8,6.161,7.81,6.003
	c-0.037-0.03-0.608-0.45-0.36-1.12c0.192-0.53,0.663-0.697,0.905-0.777C8.5,4.056,9.02,3.94,8.37,4.023L8.37,4.023z"/>
<path fill="#00667D" d="M10.965,1.64c0.045,0.076,0.08,0.152,0.11,0.23c0.145,0.388,0.054,0.706-0.128,1.084
	c-0.025,0.054-0.004-0.028,0.006-0.056c0.44-1.346-0.873-1.856-1.768-2.026c-0.09-0.017-0.18-0.03-0.26-0.042
	c-0.304-0.04-0.39-0.118-0.41-0.165c-0.03-0.063,0.042-0.107,0.106-0.126c0.057-0.017,0.133-0.017,0.207-0.01L8.81,0.527
	C8.537,0.49,8.283,0.443,8.283,0.398c-0.004-0.002,0-0.008,0.01-0.015V0.38c-0.114,0.037-0.206,0.1-0.237,0.206
	C7.98,0.82,8.278,0.918,8.534,0.96c0.172,0.027,0.543,0.053,0.645,0.067c1.583,0.24,1.797,1.05,1.692,1.61
	c-0.14,0.747-1.055,0.955-1.63,1.014c-0.266,0.028-0.63,0.024-0.866,0.07C7.917,3.811,7.207,4.066,7.01,4.789
	C6.69,5.953,7.99,6.635,7.99,6.635c0.364-0.274,0.73-0.284,0.73-0.284s-0.785-0.29-1.066-0.786C7.472,5.24,7.538,4.859,7.91,4.529
	c0.516-0.46,1.38-0.344,2.098-0.507c0.455-0.102,0.776-0.32,0.99-0.587c0.01-0.014,0.566-0.948-0.033-1.792V1.64z M8.355,4.105
	c-0.242,0.08-0.713,0.248-0.906,0.778c-0.25,0.67,0.322,1.09,0.357,1.118c0.19,0.16,0.338,0.276,0.03,0.123
	C7.523,5.968,7.07,5.499,7.244,4.908c0.178-0.61,0.787-0.84,1.125-0.883c0.65-0.083,0.13,0.034-0.015,0.082L8.355,4.105z"/>
<path d="M8.62,0.54C8.557,0.558,8.486,0.602,8.514,0.665c0.02,0.047,0.107,0.125,0.41,0.165c0.082,0.01,0.17,0.025,0.262,0.042
	c0.895,0.17,2.207,0.68,1.768,2.026c-0.01,0.027-0.03,0.11-0.006,0.056c0.182-0.378,0.273-0.696,0.127-1.084
	c-0.03-0.078-0.064-0.154-0.11-0.23c-0.02-0.036-0.04-0.07-0.065-0.108c-0.02-0.028-0.04-0.057-0.063-0.085V1.445
	C10.52,1.04,9.91,0.682,8.827,0.53C8.75,0.524,8.677,0.524,8.62,0.54z"/>
<path fill="#A2DCEB" d="M10.914,1.212C10.17,0.416,8.634,0.292,8.36,0.36C8.327,0.367,8.307,0.374,8.294,0.382v0.002
	c-0.008,0.005-0.01,0.01-0.01,0.015c0,0.043,0.253,0.09,0.524,0.13h0.018c1.083,0.15,1.693,0.51,2.008,0.914
	c0,0,0.002,0,0.002,0.002l0.063,0.085c0.073,0.11,0.13,0.227,0.174,0.34c0.31,0.788-0.068,1.55-0.075,1.563
	c0.03-0.035,0.057-0.073,0.084-0.115c0.41-0.632,0.43-1.466-0.17-2.108L10.914,1.212z"/>
<path fill="#A30C33" d="M21.69,8.076c-0.026,0.14-0.045,0.23-0.106,0.23c-0.058,0-0.073-0.085-0.099-0.227
	c-0.01-0.06-0.022-0.147-0.039-0.174c-0.075-0.002-0.229-0.006-0.362-0.018c0.067,0.06,0.147,0.15,0.176,0.278
	c0.037,0.17-0.03,0.362-0.194,0.567c0.088-0.013,0.226-0.03,0.396-0.03c0.181,0,0.36,0.02,0.53,0.054
	c-0.061-0.085-0.135-0.225-0.124-0.397c0.012-0.164,0.096-0.318,0.254-0.46c-0.095,0.003-0.24,0.008-0.386,0.01
	c-0.016,0.025-0.03,0.108-0.043,0.163L21.69,8.076z"/>
<path fill="#FAA41A" d="M21.246,5.854c0,0,0.014-0.06-0.235-0.254c0,0-0.102-0.083-0.232-0.128c0.234,0.202-0.03,0.425-0.03,0.425
	c-0.261-0.273-0.044-0.358-0.015-0.44c-0.103-0.027-0.211-0.027-0.301,0.052c0,0-0.141,0.166,0.027,0.31
	c0.102,0.09,0.277,0.144,0.637-0.01c0,0,0.117-0.02,0.152,0.043L21.246,5.854z M22.69,5.524c0.254,0.207-0.037,0.407-0.037,0.407
	c-0.239-0.2-0.055-0.296-0.026-0.39c-0.097,0.033-0.168,0.08-0.168,0.08c-0.22,0.135-0.31,0.223-0.31,0.223s0.043-0.023,0.076-0.018
	c0.094,0.018,0.164,0.115,0.402,0.123C23.103,5.969,23,5.662,23,5.662c-0.065-0.143-0.194-0.16-0.313-0.135L22.69,5.524z"/>
<path fill="#A2DCEB" d="M22.332,6.385c-0.006-0.01-0.019-0.02-0.024-0.023c-0.014-0.01-0.031-0.013-0.043-0.016
	c-0.043-0.01-0.084-0.008-0.129-0.002c-0.029,0.004-0.063,0.01-0.096,0.021c-0.13,0.03-0.234,0.048-0.32,0.048
	c-0.082,0-0.136-0.015-0.187-0.037c-0.084-0.036-0.179-0.057-0.271-0.05c-0.02,0-0.039,0.003-0.06,0.01
	c-0.036,0.012-0.052,0.033-0.07,0.066c-0.01,0.024-0.01,0.053-0.005,0.087c0.006,0.026,0.016,0.05,0.035,0.066
	c0.02,0.02,0.053,0.02,0.082,0.024l0.078,0.01c0.275,0.03,0.354,0.238,0.354,0.238c0.008-0.073,0.16-0.2,0.402-0.21
	c0.15-0.01,0.175-0.018,0.184-0.02c0.053-0.017,0.064-0.038,0.076-0.067c0.01-0.036,0.016-0.076,0.008-0.113
	C22.345,6.406,22.339,6.396,22.332,6.385L22.332,6.385z M21.45,3.975c-0.137-0.087-0.528-0.27-0.979-0.212
	c-0.193,0.026-0.437,0.112-0.51,0.188c-0.068,0.076-0.115,0.225,0.516,0.11c0.314-0.057,0.765-0.037,1.35,0.418
	c0,0-0.09-0.317-0.378-0.5L21.45,3.975z"/>
<path fill="#00667D" d="M22.21,4.09h0.003c0.007,0,0.011,0.003,0.015,0.003h0.01l0.011,0.002l0.01,0.002h0.007L22.278,4.1h0.005
	l-0.162-0.03c-0.623-0.1-0.397-0.205-0.295-0.24c-0.086,0.008-0.21,0.084-0.53,0.065c0.066,0.03,0.118,0.058,0.153,0.08
	c0.075,0.05,0.151,0.125,0.151,0.125c0.232-0.033,0.438-0.032,0.607-0.01H22.21z"/>
<path fill="#231F20" d="M4.648,19.713c-0.07,0.07-0.143,0.136-0.217,0.197c-0.073,0.059-0.18,0.139-0.32,0.235
	c-0.01,0.005-0.02,0.013-0.035,0.024l-0.055,0.035h1.22l0.742-0.877h1.354l-0.02,0.109l-0.032,0.221v0.004
	c-0.04,0.162-0.163,0.321-0.364,0.482l-0.082,0.061h1.83L8.534,16.34H7.187l0.005,0.07c0.008,0.07,0.006,0.131-0.005,0.187
	c-0.028,0.14-0.138,0.313-0.325,0.519L4.887,19.44C4.797,19.551,4.719,19.643,4.648,19.713L4.648,19.713z M7.388,17.575
	l-0.015,1.043H6.537L7.388,17.575L7.388,17.575z M17.115,19.44c-0.017,0.1-0.04,0.188-0.07,0.266
	c-0.03,0.074-0.071,0.147-0.127,0.217c-0.056,0.07-0.125,0.145-0.213,0.224c-0.016,0.015-0.06,0.054-0.07,0.06h1.56
	c0,0,0.134-0.717,0.139-0.766l0.145-0.906h1.263c0,0-0.125,0.805-0.128,0.834c-0.008,0.047-0.033,0.159-0.039,0.186
	c-0.027,0.117-0.07,0.22-0.122,0.307c-0.05,0.088-0.134,0.184-0.242,0.287c-0.017,0.016-0.026,0.025-0.04,0.036
	c-0.014,0.008-0.021,0.019-0.031,0.022h1.586c-0.008-0.01,0.086-0.699,0.1-0.766l0.361-2.327c0.025-0.159,0.11-0.764,0.117-0.771
	H19.81l0.023,0.033c0.01,0.013,0.018,0.022,0.02,0.031c0.101,0.157,0.15,0.316,0.15,0.473c0,0.08-0.007,0.154-0.02,0.231
	l-0.108,0.69h-1.296l0.109-0.69c0.028-0.163,0.146-0.771,0.146-0.771h-1.505c0.002,0.006,0.014,0.021,0.02,0.037
	c0.01,0.01,0.034,0.055,0.041,0.07c0.08,0.135,0.119,0.271,0.119,0.407c0,0.069-0.01,0.153-0.029,0.255l-0.36,2.327L17.115,19.44z
	 M13.93,16.45c0.092,0.158,0.14,0.313,0.14,0.467c0,0.06-0.01,0.146-0.026,0.26l-0.004,0.007h0.762l-0.348,2.257
	c-0.025,0.16-0.067,0.286-0.123,0.383c-0.055,0.1-0.15,0.205-0.28,0.323c-0.01,0.011-0.036,0.03-0.073,0.06h1.59l0.46-3.021h0.823
	l0.23-0.842h-3.22c0.006,0.01,0.014,0.017,0.018,0.02C13.894,16.39,13.921,16.434,13.93,16.45L13.93,16.45z M10.2,19.438l0.26-1.67
	c0,0,1.414,2.05,1.526,2.16c0.113,0.109,0.236,0.188,0.37,0.23c0.137,0.043,0.31,0.063,0.522,0.063c0.04,0,0.07-0.003,0.09-0.007
	l0.52-3.109c0.023-0.17,0.114-0.77,0.114-0.77h-1.09c0.006,0.006,0.002,0.004,0.01,0.012c0.006,0.008,0.037,0.063,0.04,0.066
	c0.098,0.151,0.144,0.303,0.144,0.449c0,0.055-0.008,0.137-0.025,0.242l-0.22,1.41l-1.345-2.18h-1.51l0.007,0.01
	c0.008,0.008,0.052,0.08,0.06,0.093c0.047,0.065,0.078,0.13,0.098,0.19c0.022,0.065,0.033,0.146,0.033,0.236
	c0,0.08-0.007,0.16-0.02,0.237l-0.367,2.33c-0.023,0.149-0.06,0.276-0.117,0.376c-0.056,0.098-0.147,0.208-0.28,0.33L8.95,20.2
	h1.137c-0.002,0.002,0.105-0.693,0.115-0.763L10.2,19.438z M24.8,19.44c-0.023,0.152-0.068,0.277-0.128,0.378
	s-0.157,0.21-0.297,0.327c-0.01,0.01-0.035,0.029-0.071,0.061h1.607l0.506-3.201c0.064-0.01,0.145-0.01,0.21-0.012
	c0.24-0.004,0.354,0.025,0.46,0.09c0.105,0.063,0.212,0.234,0.117,0.475c-0.12,0.313-0.4,0.449-0.663,0.492
	c-0.125,0.021-0.213,0.021-0.213,0.021c0.054,0.374,0.173,0.734,0.327,1.08c0.119,0.271,0.25,0.545,0.414,0.788
	c0.07,0.109,0.143,0.182,0.207,0.216c0.063,0.035,0.147,0.052,0.254,0.052h1.18c-0.05-0.052-0.105-0.109-0.163-0.177
	c-0.239-0.278-0.438-0.567-0.595-0.87c-0.09-0.176-0.17-0.354-0.25-0.533l-0.2-0.467c0,0,0.113-0.031,0.287-0.117
	c0.319-0.16,0.59-0.502,0.596-0.867c0.011-0.403-0.239-0.697-0.63-0.786c-0.242-0.054-0.51-0.05-0.758-0.05h-1.982
	c0.014,0.015,0.025,0.035,0.041,0.063c0.09,0.158,0.133,0.31,0.133,0.457c0,0.086-0.008,0.168-0.021,0.25l-0.37,2.33L24.8,19.44z
	 M21.11,20.146l-0.034,0.03l-0.037,0.029h2.974l0.129-0.789c-0.636,0-1.414,0.004-1.414,0.004l0.107-0.877l1.198-0.006l0.112-0.729
	h-1.166l0.11-0.72h1.511l0.116-0.748h-3.021l0.019,0.027c0.013,0.016,0.06,0.1,0.074,0.131c0.06,0.129,0.095,0.254,0.095,0.371
	c0,0.066-0.012,0.15-0.029,0.243l-0.36,2.327c-0.024,0.152-0.063,0.277-0.117,0.378s-0.146,0.208-0.271,0.328H21.11z M29.151,21.282
	h-0.016H29.151z M28.276,20.967c-0.194-0.084-0.396-0.176-0.598-0.277c-0.039-0.018-0.109-0.055-0.166-0.086h-0.767
	c0.114,0.063,0.25,0.135,0.36,0.189c0.384,0.19,0.76,0.36,1.113,0.488c0.266,0,0.605,0.004,0.896,0
	c-0.213-0.07-0.484-0.166-0.69-0.253c-0.016-0.008-0.134-0.055-0.149-0.063V20.967z M30.427,21.209
	c-0.162-0.045-0.332-0.1-0.505-0.162c-0.315-0.113-0.72-0.287-1.067-0.455c-0.215,0.011-0.426,0.011-0.65,0.011
	c0.553,0.269,1.045,0.493,1.583,0.672c0.26-0.012,0.42-0.028,0.515-0.042c0.053-0.007,0.061-0.01,0.127-0.023H30.427z M30.11,17.01
	c0.105-0.17,0.31-0.285,0.5-0.328c0.117-0.025,0.263-0.042,0.392-0.042c0.365,0,0.763,0.096,1.075,0.284
	c0.085,0.05,0.166,0.111,0.238,0.18l0.18-1.143c-0.032-0.01-0.188-0.055-0.247-0.07c-0.333-0.072-0.688-0.124-0.96-0.135
	c-0.4-0.014-0.76,0.009-1.153,0.105c-0.53,0.131-1.053,0.504-1.237,1.035c-0.215,0.604-0.082,1.107,0.285,1.457
	c0.276,0.266,0.709,0.497,1.024,0.7c0.235,0.149,0.526,0.317,0.526,0.638c0,0,0.043,0.45-0.719,0.723
	c-0.16,0.055-0.351,0.104-0.58,0.14c0.051,0.024,0.379,0.163,0.521,0.22c0.393,0.16,0.645,0.245,0.898,0.314
	c0.449-0.193,0.722-0.49,0.869-0.74c0.205-0.34,0.227-0.654,0.227-0.805c0-0.67-0.415-0.969-0.61-1.121
	c-0.29-0.215-0.603-0.414-0.915-0.592c-0.195-0.129-0.392-0.295-0.392-0.558c0-0.097,0.03-0.183,0.077-0.26V17.01z M26.104,20.608
	H0.595l-0.597,0.678l27.479-0.004c0,0-0.379-0.15-0.766-0.346C26.455,20.808,26.31,20.726,26.104,20.608z M3.553,16.45
	c0,0,0.172-0.01,0.313-0.007c0.29,0.005,0.46,0.045,0.574,0.14c0.225,0.187,0.215,0.494,0.166,0.754
	c-0.086,0.449-0.367,0.689-0.903,0.824c-0.02,0.008-0.134,0.023-0.194,0.016c0.082,0.076,0.416,0.141,0.777,0.125
	c0.676-0.02,1.352-0.329,1.662-0.951c0.173-0.346,0.192-0.816-0.04-1.137c-0.36-0.492-1.066-0.469-1.643-0.493H1.97
	c0.01,0.01,0.024,0.036,0.045,0.073c0.097,0.188,0.146,0.365,0.146,0.526c0,0.099-0.005,0.192-0.024,0.29l-0.422,2.686
	c-0.027,0.17-0.074,0.314-0.146,0.438c-0.072,0.12-0.182,0.248-0.334,0.378l-0.082,0.07h1.835c-0.012-0.019,0.568-3.724,0.568-3.724
	L3.553,16.45z"/>
</svg>
