<svg xmlns="http://www.w3.org/2000/svg" width="100" height="100" viewBox="0 0 100 100"><ellipse fill="#006838" cx="50" cy="50" rx="50" ry="37.271"/><ellipse fill="#ED1C24" cx="50" cy="50" rx="42.744" ry="29.25"/><path fill="#FFF" stroke="#000" stroke-width=".2" stroke-miterlimit="10" d="M26.266 61.396c-.863.086 3.43-.945 3.453-.952 3.003-.736.866-.74-.39-1.027-1.236-.28-1.682-.448-2.436-.71-.258-.087-1.285-.313-1.69-.04-.47.317-2.232.356-3.81.986-1.365.553-3.488 1.704-3.117 2.823.352 1.08 2.62.67 4.33-.412.364-.225 2.455-.55 3.654-.672v.006l.006-.002zm48.223 3.01c-1.134-.34-3.066-.756-4.806-1.38-1.72-.636-2.933-1.747-3.718-2.38-.786-.63-2.172-.826-3.105-1.14-.942-.316-.776-.477-1.407 0-.63.465-.945.664-1.73 1.14 2 .558 2.644.3 4.043.517 1.023.16 3.02 2.886 5.69 4.024 2.735 1.182 2.247 1.152 5.307 1.152 2.47-.005 1.366-1.456-.277-1.937l.003.003zm10.83 0c-1.097-.8-2.59-4.94-3.34-5.926-.796-1.06-1.916-.355-3.767-2.49-1.455-1.68-2.06-4.194-2.86-5.682-1.105-2.064-2.836-2.38-2.276-2.924 2.317 1.37 3.218 1.02 4.678-.202.595-.51 1.18-3.772-.827-4.702-2.997-1.382-4.562 1.846-4.632 1.857-3.854-3.277-12.285-2.573-16.18-1.263-.946.315-.073.426.702.515.52.048 1.327.88-1.568.46-1.13-.16-6.36-1.222-9.34-1.222-2.568 0-4.48.2-5.73.836-1.204.597-4.024 1.528-5.11 1.893-.654.218-.863-.355-.157-.592C45.97 41.228 46.17 38.41 50.896 35.88c-1.564 0-7.496.395-8.758.395-4.246.533-7.07 2.807-8.322 4.42-.34.437-.86.06-.466-.468 2.02-2.8 5.944-4.556 9.81-4.786.466-.16 3.924-3.35 5.89-4.54-6.602.195-8.178.195-11.634 1.626-3.447 1.415-5.613 4.853-7.338 6.59-1.723 1.738-3.882 1.184-6.744 4.027-1.28 1.265-2.258 3.926-3.23 5.06-.982 1.152-3.215 3.722-2.79 5.02.314.945.314.592 1.104.75-.243.31.01 1.166.155 1.574.405 1.196 2.052 1.383 1.993 1.3.986 1.354 3.695.827 5.537 1.07 1.49.194 3.22 1.106 6.6 1.106 2.506 0 3.873-1.94 4.28-2.917.39-.945.548-.875-.12.91-.723 1.915-2.877 2.882-4.44 2.563-.346.923-2.612 1.163-4.75 1.974-1.566.594-4.438 2.492-5.222 3.436-.757.924-1.654 1.418-1.14 2.412.346.664 3.7-.576 4.793-1.262 1.256-.79 1.65-.28 2.752-.752 1.1-.48 1.723-.986 3.605-1.78 3.615 0 5.424-.317 8.724-.317 2.708 0 3.93-.985 5.063-2.93 1.227-2.084 1.13-.484.704.52 4.252 1.202 12.593-.975 13.08-1.3.895-.596 1.858-.475.152-1.617-.945-.638-1.047-1.785 0-.91 1.19.992 1.886 1.3 3.146 1.937.624.32 3.058.873 3.445 1.3 1.82 2.006 5.974 3.168 8.33 3.482 2.366.314 2.977.15 4.086 1.416 1.126 1.3 4.847 3.246 6.283 3.64 1.73.478 5.415.478 5.26-1.263-.11-1.11-3.437-1.738-5.424-3.158H85.318zm-57.25-18.51c.043.096.064.124.096.216.32.68.066 1.538-.485 1.93-.844.607-1.818.105-1.978-.47-.393.137-.606.46-.91.933-.136.213-.252.186-.332.13-.19-.132-.14-.29.024-.687.155-.398 1.237-2.19 3.436-2.668.194-.047.427-.047.503.093.174.413-.364.436-.35.52h-.003zm-.857.336c-.252 0-.45.195-.45.448 0 .252.198.456.45.456.248 0 .45-.204.45-.456 0-.25-.204-.448-.45-.448z"/><g fill="#FFF"><path d="M31.344 31.072c.326.83-.106 1.478-1.3 1.946-.404.16-.8.258-1.186.298l-.123-.77c.39-.017.738-.085 1.044-.205.338-.133.568-.26.69-.385s.154-.264.094-.418c-.063-.16-.187-.27-.37-.325-.16-.05-.454-.08-.885-.093-.393-.014-.704-.073-.934-.178-.29-.133-.497-.357-.62-.67-.144-.365-.12-.703.07-1.015s.537-.568 1.044-.767c.415-.163.778-.266 1.088-.306l.16.752c-.328.008-.658.078-.99.21-.5.196-.7.428-.594.695.056.143.16.236.312.28.132.035.396.055.79.06.42.003.756.058 1.005.163.334.14.568.384.704.73zM35.65 28.52c.21.666.183 1.283-.087 1.852s-.705.947-1.307 1.138c-.574.182-1.118.132-1.632-.148-.515-.28-.87-.73-1.066-1.353-.212-.668-.183-1.285.087-1.854.27-.568.705-.947 1.307-1.138.573-.182 1.117-.133 1.63.146.515.28.87.732 1.068 1.355zm-.87.378c-.144-.454-.376-.786-.698-.994-.32-.21-.653-.26-.994-.15-.317.1-.54.327-.673.682-.13.354-.128.75.01 1.184.143.452.376.783.7.992s.653.26.992.153c.317-.1.54-.33.673-.685.13-.355.128-.75-.01-1.182zM39.58 25.39c.15.75.313 1.5.486 2.246.34 1.474-.094 2.35-1.302 2.63-.597.137-1.084.078-1.46-.18-.38-.256-.665-.807-.86-1.653-.173-.746-.352-1.478-.538-2.194l.942-.22c.145.758.297 1.485.458 2.182.14.61.315 1.01.523 1.202.206.19.472.25.796.174.34-.08.56-.248.658-.508s.077-.7-.065-1.316c-.157-.677-.338-1.396-.544-2.155l.903-.21zM43.786 24.72l.088.73c-.456.035-.883.083-1.28.145.06.426.13.9.21 1.423.126.81.257 1.576.393 2.295l-.945.146c-.08-.722-.185-1.49-.31-2.31-.08-.512-.158-.986-.234-1.42-.317.05-.75.135-1.3.256l-.084-.734 3.462-.533zM48.528 28.79l-.964.073c-.034-.754-.07-1.407-.112-1.96l-1.72.13c.038.495.1 1.146.182 1.953l-.964.072c-.027-.752-.07-1.527-.13-2.325-.06-.807-.128-1.51-.203-2.113l.965-.072c.02.64.052 1.232.092 1.775l1.73-.13c-.035-.478-.093-1.068-.173-1.77l.966-.07c.012.58.05 1.285.11 2.12.066.87.14 1.643.222 2.318zM53.85 27.664c-.032.89-.688 1.312-1.97 1.265-.434-.017-.836-.084-1.205-.203l.195-.755c.364.14.71.218 1.038.23.364.013.627-.012.79-.077.16-.065.245-.18.252-.347.006-.173-.063-.32-.21-.445-.126-.11-.384-.256-.773-.44-.354-.167-.615-.345-.784-.534-.212-.24-.313-.526-.3-.864.015-.392.17-.692.47-.902.3-.21.72-.305 1.265-.285.446.016.82.067 1.12.153l-.155.754c-.304-.123-.634-.19-.99-.205-.538-.02-.813.114-.823.4-.006.153.053.28.174.38.106.085.34.21.7.37.385.172.67.356.856.552.247.263.364.58.35.95zM58.27 24.887c-.01.093-.167.33-.472.707-.467.577-.753.937-.855 1.08-.31.43-.48.755-.504.977-.06.5-.102.997-.13 1.493l-.965-.11c.08-.493.15-.99.208-1.493.026-.23-.053-.594-.236-1.09-.086-.23-.264-.644-.533-1.24-.19-.43-.283-.68-.275-.75l1.065.12c-.01.083.094.442.31 1.08.214.638.312 1.045.29 1.222l.056.006c.02-.163.2-.52.544-1.066s.523-.896.54-1.042l.957.107zM62.353 27.8c-.13.633-.444 1.145-.947 1.537-.503.39-1.12.512-1.853.363-.33-.067-.783-.173-1.358-.317.166-.668.335-1.426.507-2.272.165-.812.29-1.508.38-2.088l.585.12c.096.02.24.044.43.076.192.032.317.054.375.066.806.164 1.35.483 1.63.96s.365.992.25 1.555zm-.945-.043c.088-.43.036-.815-.154-1.16-.19-.344-.543-.57-1.057-.673-.096-.02-.23-.036-.4-.05-.07.45-.153.92-.252 1.407-.108.535-.204 1.066-.29 1.596.14.06.283.103.428.132.48.098.866.02 1.158-.23.292-.252.48-.592.568-1.02zM66.023 31.364l-.808-.245c.027-.09-.13-.654-.47-1.69-.355-1.09-.525-1.815-.513-2.173l-.052-.016c-.09.495-.194.935-.312 1.32-.163.54-.348 1.2-.552 1.984l-.805-.244c.24-.666.48-1.404.727-2.212.24-.796.43-1.478.566-2.046l.972.295c-.035.116.095.66.39 1.628.312 1.03.465 1.712.457 2.043l.05.015c.095-.502.2-.946.318-1.332.18-.59.348-1.2.506-1.832l.817.248c-.194.532-.415 1.204-.662 2.017-.246.82-.456 1.567-.627 2.24zM69.845 32.054l-.303.688-2.703-1.072c.28-.63.58-1.345.897-2.147.307-.77.553-1.434.74-1.99l2.58 1.023-.31.682c-.622-.286-1.19-.53-1.708-.736-.097.303-.224.654-.383 1.055.442.175.92.352 1.434.528l-.262.664c-.487-.218-.957-.417-1.408-.596-.17.43-.32.836-.453 1.217.58.232 1.207.46 1.878.684zM75.136 30.48c-.04.085-.268.255-.68.512-.632.39-1.02.635-1.164.735-.436.303-.702.555-.8.756-.218.45-.423.907-.614 1.366l-.874-.424c.24-.438.47-.885.69-1.34.102-.21.146-.58.137-1.107-.005-.246-.035-.695-.092-1.348-.04-.467-.044-.734-.012-.8l.966.468c-.036.074-.058.447-.065 1.12-.008.674-.05 1.09-.128 1.25l.048.025c.07-.147.36-.423.865-.827.505-.403.79-.672.854-.805l.87.418z"/></g><path fill="none" d="M20.167 80.012s29.833 16.333 59.666 0"/><g fill="#FFF" stroke="#FFF" stroke-width=".1" stroke-miterlimit="10"><path d="M38.3 70.43c.02-.1.073-.142.163-.125l2.09.402c.045.01.075.03.092.064s.02.075.012.12l-.105.55c-.007.037-.026.068-.06.093-.032.024-.07.032-.11.025L39 71.292l-.2 1.038 1.207.232c.09.018.125.074.106.17l-.108.563c-.007.037-.023.068-.05.095-.025.025-.063.033-.112.024l-1.206-.232-.2 1.045 1.38.266c.04.008.072.027.095.058.02.03.028.07.02.122l-.11.57c-.018.087-.07.122-.16.104l-2.09-.4c-.036-.008-.065-.024-.088-.05-.023-.026-.03-.063-.02-.108l.835-4.357zM40.834 74.455c.008-.05.026-.086.057-.104.03-.02.06-.026.088-.022l.577.083c.04.007.072.026.096.062.023.034.03.082.022.143-.01.08.014.146.076.198.062.052.14.085.235.1.095.012.18 0 .255-.04s.118-.097.13-.17c.013-.1-.01-.177-.072-.233-.06-.057-.14-.092-.234-.105-.177-.025-.333-.078-.47-.16-.136-.08-.25-.178-.342-.292-.093-.114-.157-.242-.195-.382s-.047-.28-.026-.423c.02-.153.072-.293.153-.42.08-.128.183-.233.306-.317s.26-.146.413-.185c.154-.04.313-.047.476-.023.37.053.646.198.827.437s.247.522.2.855c-.006.036-.026.066-.063.09-.035.023-.07.032-.107.026l-.55-.077c-.077-.012-.117-.04-.12-.085l-.01-.153c-.003-.057-.02-.11-.053-.16s-.114-.083-.245-.102c-.128-.02-.223 0-.283.06-.062.057-.098.124-.11.203-.007.055 0 .1.02.133.022.033.048.062.082.085.032.024.07.04.11.052.04.01.075.018.106.022.21.028.383.09.522.18.14.09.248.198.328.322.08.125.132.258.157.397.026.14.03.272.013.397-.022.157-.074.298-.154.423-.08.126-.18.23-.3.31s-.258.14-.41.176c-.153.034-.314.04-.48.016-.164-.023-.314-.068-.453-.135-.14-.067-.257-.15-.354-.252-.096-.102-.166-.22-.208-.36-.043-.137-.052-.29-.028-.455l.014-.115zM44.713 71.43c.004-.037.02-.068.048-.094.028-.025.065-.035.11-.03l.56.055c.037.005.068.02.096.046s.04.063.034.108l-.107 1.08.403.04c.09.01.132.06.123.153l-.05.494c-.01.104-.062.15-.152.14l-.403-.04-.16 1.617c-.01.098.017.173.08.226.064.054.144.085.24.095l.054.005c.035.004.065.022.09.055.024.033.034.073.03.12l-.057.563c-.008.085-.06.127-.15.127l-.055-.006c-.164-.015-.316-.052-.458-.107-.142-.057-.263-.136-.362-.236-.1-.102-.174-.23-.22-.38-.05-.153-.062-.334-.04-.543l.16-1.616-.287-.028c-.09-.01-.13-.065-.12-.167l.05-.495c.01-.093.06-.135.15-.125l.286.028.107-1.08zM46.538 75.467c.006-.094.055-.137.146-.13l.575.037c.036.002.067.016.093.04.026.026.037.062.034.108l-.038.572c-.003.033-.018.065-.045.1-.027.033-.062.048-.103.046l-.575-.038c-.092-.006-.134-.06-.127-.163l.038-.573zM50.485 72.118c0-.08.045-.145.137-.196l.508-.26c.018-.02.05-.028.096-.03h.563c.1 0 .15.047.15.14l.01 4.445c0 .042-.014.076-.04.102s-.063.037-.104.038h-.57c-.05 0-.085-.013-.105-.04s-.03-.06-.03-.092l-.01-3.682-.424.218c-.014.005-.027.007-.04.007-.006 0-.01.002-.015.006-.036 0-.065-.015-.088-.045-.023-.03-.035-.063-.035-.1l-.002-.512zM52.615 72.78c-.01-.167.015-.327.07-.48s.134-.285.237-.402c.104-.117.23-.21.372-.28.144-.07.297-.11.462-.117.164-.007.32.018.47.073.15.057.282.138.397.244.115.106.207.233.276.38.067.146.105.303.114.47l.114 2.413c.008.168-.016.328-.07.48-.055.15-.134.286-.238.403s-.23.21-.372.28c-.143.07-.297.108-.46.116-.166.007-.323-.017-.472-.073-.15-.056-.28-.137-.396-.244-.115-.106-.207-.232-.275-.38-.07-.145-.107-.303-.115-.47-.002-.042.008-.078.03-.106.02-.03.052-.045.093-.047l.57-.027c.054-.002.094.022.12.075s.05.11.075.172c.026.062.063.117.108.166.046.05.118.07.22.067.096-.005.176-.044.24-.117s.097-.158.092-.257l-.02-.413c-.13.044-.246.067-.347.072-.164.007-.32-.017-.47-.073-.15-.056-.28-.137-.396-.244-.115-.106-.207-.232-.275-.38-.07-.145-.108-.303-.116-.47l-.04-.833zm1.55-.073c-.006-.098-.044-.18-.115-.247-.072-.066-.156-.098-.252-.093-.097.005-.177.043-.242.116s-.096.16-.09.257l.038.832c.005.098.043.18.115.247s.154.097.25.092c.092-.004.17-.04.232-.105.063-.065.098-.146.103-.24l-.04-.86zM55.726 72.614c-.018-.167-.003-.328.043-.482.045-.155.117-.294.215-.417.098-.122.216-.223.355-.3.14-.078.29-.125.454-.143.164-.017.322 0 .475.046.15.048.287.122.408.222.12.1.22.222.296.363.077.143.124.297.142.465l.248 2.4c.017.17.003.33-.043.484-.046.155-.117.294-.215.416-.098.123-.217.224-.355.3-.14.08-.29.126-.455.144-.163.017-.32 0-.474-.047-.15-.047-.287-.12-.408-.22-.12-.102-.22-.223-.296-.365-.077-.142-.124-.297-.142-.464l-.248-2.402zm1.543-.16c-.012-.097-.054-.177-.13-.24-.075-.062-.16-.088-.256-.078-.096.01-.174.054-.235.13-.063.077-.088.164-.077.262l.248 2.402c.01.097.054.177.13.24.075.063.16.09.256.078.096-.01.174-.053.235-.13.062-.076.087-.163.077-.26l-.248-2.403zM58.81 72.276c-.025-.166-.02-.327.017-.484.038-.157.102-.3.192-.43.09-.127.202-.233.337-.32.134-.084.282-.14.445-.166.162-.026.32-.02.476.02.154.038.295.104.42.197.128.093.233.21.317.347.085.137.14.29.168.455l.043.27c.024.147.02.292-.007.434-.028.14-.077.27-.146.39.103.094.19.202.26.328.072.125.12.262.144.41l.09.552c.026.166.02.327-.017.484s-.1.3-.19.43-.203.233-.338.32c-.135.084-.283.14-.445.166-.163.026-.32.02-.477-.02-.154-.038-.295-.104-.42-.197s-.232-.208-.317-.346-.14-.29-.167-.456l-.09-.552c-.05-.304.002-.58.152-.825-.22-.187-.354-.433-.403-.736l-.044-.27zm.884.134c.016.097.063.175.142.232.08.06.166.08.26.064.096-.015.172-.063.23-.143s.076-.17.06-.266l-.043-.27c-.016-.097-.063-.174-.142-.232-.078-.058-.165-.08-.26-.064-.095.017-.17.064-.227.145s-.077.168-.062.265l.044.27zm.54 1.154c-.095.015-.17.063-.227.143s-.077.17-.062.266l.09.553c.015.097.062.174.14.232.08.058.167.08.262.064s.17-.063.228-.144.077-.168.062-.265l-.09-.553c-.015-.093-.06-.17-.134-.23-.075-.06-.164-.082-.268-.066z"/></g></svg>