<svg xmlns="http://www.w3.org/2000/svg" width="24.964" height="24.661" viewBox="0 0 24.964 24.661"><path d="M13.262 24.66c-.828 0-2.016-.8-2.887-1.492-.498.064-.98.097-1.428.097-.996 0-1.84-.162-2.442-.47-.194-.097-.36-.227-.5-.387-.44.03-2.347.25-5.425.628l-.582.07.332-.305c.396-.36 2.043-1.872 2.246-2.086.107-.203 1.517-3.44 1.946-4.444l-2.84-1.46.47-.055c.055-.006 1.27-.136 1.752-.186C3.2 12.8 2.85 11.023 2.85 9.284c0-1.08.072-2.148.22-3.182l.056-.407.334-.225c.477-.336.992-.652 1.535-.943-.297-.707-.585-1.41-.803-1.95l-.1-.24.23-.12C6.964.807 10.122 0 12.984 0l.233.002c5.696.088 8.77 2.04 8.804 2.06l.106.068s-.764 1.74-.967 2.206c.68.34 1.32.723 1.91 1.137l.33.222.032.238.026.172c.146 1.04.22 2.11.22 3.182 0 1.44-.238 2.91-.712 4.37l-.252.705.026.006c.1-.056.267-.092.438-.114 0 0 .193-.017.207-.017.202 0 .44.014.643.08l.782.227.154.05-.896 2.132c.024.01.03.098.03.19 0 .22-.038.45-.115.688-.126.4-.358.82-.667 1.222-.35.463-.746.804-1.176 1.016.163.234.3.537.38.85l.134.518-.226-.047c-.035-.01-1.084-.27-1.084-.27-.174-.048-.602-.105-.65-.11-.21-.032-.422-.05-.652-.05-.39 0-.852.047-1.45.148-.173.236-.427.504-.68.756-1.394 1.395-3.45 3.026-4.646 3.026z" fill="#fff"/><path d="M24.592 14.77l-.63-.18c-.452-.147-1.077.01-1.233.065-.09-.03-.238-.068-.398-.074.076-.186.148-.38.22-.572l.022-.065c.504-1.424.828-2.99.828-4.655 0-1.055-.076-2.112-.22-3.14l-.038-.278-.232-.162c-.66-.466-1.37-.878-2.115-1.236.296-.7.604-1.436.936-2.205 0 0-3.048-1.904-8.508-1.978C10.25.25 7.032 1.1 4.468 2.47c.292.73.59 1.46.903 2.19-.606.312-1.19.66-1.74 1.047l-.23.16-.04.278c-.144 1.03-.216 2.087-.216 3.14 0 2.008.48 3.873 1.178 5.527-.912.096-1.62.168-1.62.168l2.205 1.152c-.11.272-1.998 4.63-2.096 4.764-.675.725-1.89 1.798-1.89 1.798s5.074-.635 5.235-.583c.077.114.235.295.49.426.87.442 2.23.57 3.825.337 1.072.86 2.137 1.504 2.8 1.504 1.032 0 2.978-1.48 4.442-2.947.227-.227.495-.505.785-.828.996-.17 1.64-.198 2.244-.11.623.09 1.5.306 1.5.306-.005-.003-.185-.85-.603-1.07.54-.15 1.03-.512 1.46-1.08.29-.372.507-.766.624-1.136.105-.32.13-.615.077-.858l.792-1.884z" fill="#002D5B"/><path d="M13.273 23.73c-.348 0-1.06-.36-1.943-1.014l-.308.06c.958.734 1.792 1.19 2.25 1.19.77 0 2.52-1.19 4.153-2.828.113-.11.233-.234.365-.372-.148.04-.3.08-.453.13-1.76 1.78-3.43 2.833-4.064 2.833zm2.482-20.11c2.57.365 4.9 1.29 6.788 2.615.14.983.213 2.003.213 3.05 0 1.824-.414 3.57-1.07 5.175l.33-.192c.584-1.508.975-3.186.975-4.98 0-1.038-.07-2.075-.213-3.085-.01-.065-.043-.123-.098-.158-1.933-1.357-4.27-2.26-6.765-2.638-.057.07-.11.142-.16.212zM4.992 14.742c-.732-1.684-1.2-3.527-1.2-5.456 0-1.048.072-2.067.212-3.05 2.48-1.74 5.72-2.795 9.27-2.795.234 0 .466.008.697.017.14-.074.277-.146.416-.21-.367-.026-.738-.04-1.11-.04-3.458 0-6.798 1.01-9.403 2.838-.056.035-.092.093-.1.158-.142 1.012-.213 2.05-.213 3.084 0 1.993.486 3.845 1.192 5.48.08-.006.16-.014.24-.024zm13.628.33c.274-.112.702-.243 1.204-.19 0 0 .484.077.756.053.805-1.702 1.336-3.61 1.336-5.648 0-.842-.05-1.682-.15-2.506-2.802.73-3.773 3.056-3.773 3.056.895 1.924.913 3.58.88 3.986-.04.47-.13.885-.254 1.253zm2.378-8.817c-.72-.41-1.484-.76-2.285-1.046-.72.28-1.2.73-1.2.73 1.344-.318 2.634-.004 3.485.314zM15.31 4.407c-.155.364-.202.613-.202.613.64-.226 1.32-.3 1.947-.3-.57-.134-1.154-.238-1.746-.313zm.053 17.156c-.645.222-1.703.562-2.942.888.39.256.69.404.858.44.325-.055 1.112-.52 2.086-1.326zM12.753 4.29c-1.353.044-2.68.25-3.937.605 1.873.11 2.97.61 2.97.61.224-.46.564-.862.966-1.214zM4.786 6.72c-.105.843-.157 1.705-.157 2.566 0 1.914.492 3.726 1.238 5.365l1.12-.114c1.107-1.085 2.055-1.577 2.055-1.577.182-.216.378-.573.378-.573-.063-.17-.13-.45-.13-.45 1.775-.262 2.19-1.162 2.19-1.162-.22-.234-.49-.392-.79-.43-.297-.04-.727.044-1.07.038-.336-.008-.807-.24-1.067-.184-.26.06-.625.26-.905.52-.217-2.797 2.484-2.79 2.484-2.79-.634-1.26-1.875-2.108-2.71-2.565-.936.367-1.82.818-2.633 1.355zm3.238 7.706c2.088-1.582 4.002-2.224 4.002-2.224-.068-.248-.105-.462-.12-.617-.542.27-2.878 1.46-4.415 2.753 0 0 .215-.075.354-.062 0 0-.102.065-.273.196.182-.018.335-.033.452-.046zm10.285-1.812c.015-1.02-.49-2.26-.65-2.758-.015-.045-.032-.098-.048-.154-.31-.798-.646-1.5-.947-1.846-.127-.146-.325-.32-.443-.4-.927-.626-1.633-.626-1.633-.626.12-.32.347-.42.347-.42-.463.073-.8.43-.8.43.074-.33.388-.652.388-.652-.59.227-.95.702-.95.702.032-.37.222-.63.222-.63-.48.268-.81.8-.81.8-.017-.34.163-.618.163-.618-.815.563-1.01 1.43-1.01 1.43 2.093-1.058 3.522.26 3.522.26-1.3.25-1.642.978-1.642.978.926.65 1.52 2 1.474 2.93-.087 1.608-1.288 2.133-1.32 2.564-.018.225.21.375.425.455-2.014.543-2.67.095-2.67.095-.723-.032-1.428.027-2.08.133.014.114.014.237.004.365 1.488-.24 3.258-.326 5.268-.123.125-.038.256-.065.395-.084 0 0 .3-.04.646.034.143-.11.27-.23.385-.366.08-.093.157-.185.222-.273.34-.7.336-1.686-.102-2.52 0 0 .578.345.707 1.236 0 0 .27-.794-.49-1.89 0 0 .705.324 1.008 1.516 0 0 .215-.948-.764-2.177 0 0 .865.533 1.18 1.608zM9.692 14.82c.792-.222 1.358-.298 1.358-.298-.215-.18-.363-.388-.363-.388-.466.078-.918.207-1.35.362.15.075.268.184.355.324zM6.828 3.08c.34-.06.56-.12.605.02.03.09-.024.165-.135.205-.152.055-.198.004-.237-.11l-.026-.09-.853.31.147.434c.27.02.656-.05 1.11-.214.704-.255.987-.54.872-.88-.116-.345-.368-.333-.93-.227-.36.067-.512.105-.55-.01-.027-.073.023-.13.142-.174.114-.04.194-.01.23.09l.023.07.826-.297-.13-.39c-.353-.008-.72.06-1.117.206-.7.254-.955.525-.843.866.096.294.358.276.868.187zm1.49-1.145l.694.505.04.202c.016.082 0 .127-.103.178l.055.29 1.18-.254-.06-.29c-.118-.003-.145-.04-.162-.12l-.042-.203.45-.756c.03-.04.06-.072.1-.1l-.055-.287-.908.198.04.204c.02.08.01.152-.02.218l-.088.18-.148-.125c-.068-.06-.084-.13-.1-.213l-.038-.19-1.026.225.056.284c.056.016.1.03.13.056zm2.446-.428l.06.77c.005.082-.007.128-.097.164l.02.297 1.137-.09c.908-.076 1.17-.22 1.137-.68l-.035-.5c-.035-.46-.314-.56-1.223-.486l-1.137.093.022.29c.093.02.113.063.12.145z" fill="#fff"/><path d="M11.793 1.342c.21-.017.252.018.262.137l.043.607c.012.128-.03.176-.234.193l-.108.01-.07-.94.107-.008z" fill="#002D5B"/><path d="M14.217 2.304c-.1-.025-.11-.07-.103-.158l.02-.346.53.83.906.056.068-1.223c.004-.08.018-.125.116-.148l.018-.29-.97-.06-.016.29c.114.035.124.077.12.162l-.023.4-.516-.878-1.025-.065-.016.29c.09.034.107.08.1.16l-.04.774c-.005.08-.028.125-.122.146l-.016.295.95.06.02-.297zm3.78.858l.114-.6-.836-.17c0 .023-.004.044-.008.062-.023.135-.098.174-.295.135-.022-.008-.05-.013-.077-.02l.014-.077.024-.132.025-.122.578.118.06-.318-.577-.117.053-.292.08.017c.204.04.247.087.227.203l-.01.045.838.172.104-.544-2.19-.442-.055.284c.086.048.098.094.082.173l-.143.762c-.015.078-.042.118-.14.128l-.043.24-.01.05.643.13L18 3.16zm.893-.39l-.063.196c-.024.078-.06.11-.176.1l-.09.282 1.14.396.093-.28c-.102-.063-.107-.11-.082-.19l.064-.195.756-.415c.04-.02.08-.03.134-.033l.09-.276-.88-.307-.063.2c-.023.074-.063.134-.123.175l-.164.107-.07-.186c-.028-.083-.007-.155.02-.234l.06-.182-.994-.347-.09.278c.044.04.07.076.085.113l.357.802zm3.856 13.348c.008-.012.053-.04.107-.048 0 0 .197-.05.332.142.098.14.246.417.246.417l.65-1.55-.312-.09c-.455-.156-1.028.04-1.213.137l.02-.053s-.222-.092-.415-.08c-.02 0-.04.006-.056.008-.127.024-.25.057-.375.12l.144-.36-.084.05-.345.2-.046.026c-.3.173-.587.27-.853.31-.055.004-.112.007-.174.007-.295.002-.663-.058-.663-.058l.15.237c-.142-.132-.33-.184-.516-.196-.084-.007-.166-.005-.252.006-.227.03-.45.106-.674.227-.1.054-.197.113-.297.18l.06-.14-.59.07.66-1.594-.704.085s-.135.426-.753 1.176c-.187.23-.407.414-.65.577 0 0-.23-.07-.7-.063-.322.006-.71.187-1.03.474-.09.084-.188.188-.27.277-.07.08-.128.15-.155.19-.012-.07-.026-.134-.048-.193-.025-.08-.06-.15-.102-.213-.176-.254-.48-.364-.885-.318-.066.012-.133.025-.197.04-.408.1-.755.318-1.02.542-.372.307-.59.622-.595.63-.01-.223-.06-.41-.16-.558-.004-.005-.01-.01-.01-.013-.176-.245-.477-.35-.873-.305-.363.04-.752.23-1.01.414.117-.207.21-.414.274-.615.058-.17.09-.335.104-.484.008-.133 0-.253-.02-.36-.038-.17-.112-.304-.224-.4-.052-.044-.108-.08-.173-.106-.133-.05-.238-.066-.436-.064-.105 0-.24.008-.424.02-.02 0-4.082.42-4.082.42l1.125.558c.04.02.063.03.065.033 0 0 .055.034.033.158-.006.033-.02.077-.04.13l-.157.37c-.337.8-1.15 2.715-1.702 4.004-.113.252-.21.427-.357.63C2.77 21.53 2 22.175 2 22.175l3.3-.367-.14-.34c-.012-.033-.13-.32-.01-.696.038-.117.235-.58.35-.84l.023.502c.02.522.17.894.46 1.084.22.146.182.13.47.222 0 0 .126.253.442.412.73.372 1.838.49 3.146.358.185-.02.37-.04.56-.07.104-.014.206-.03.315-.048.244-.043.496-.093.754-.15.112-.027.224-.057.333-.082 1.598-.4 2.785-.806 3.753-1.136.124-.043.247-.086.37-.127.588-.2 1.174-.4 1.734-.55.134-.037.267-.067.4-.1l.207-.043c.155-.027.3-.052.44-.073.91-.135 1.488-.132 2-.052l.588.094s-.54-.447-1.54-.594c-.173-.025-.366-.047-.55-.052h-.22l.24-.026 1.106-.13-.08-.1s.428.108.645.12c.088.008.188.002.28-.01.548-.063 1.024-.37 1.454-.937.247-.32.43-.654.53-.96.145-.453.064-.803-.158-1.003-.188-.17-.534-.23-.454-.363zm-3.53 3.647c.215-.007.43-.003.64.01.513.037.898.155.818.148-.486-.045-.887-.078-1.592.004-.18.017-.383.05-.614.084-.04.01-.077.014-.118.022-.086.016-.17.033-.254.053-.533.115-1.047.272-1.596.454-1.21.4-2.596.923-4.73 1.443-.028.008-.06.016-.087.02-.352.08-.69.144-1.01.19-.107.017-.21.03-.314.043-.195.025-.38.045-.563.06-1.22.088-2.158-.063-2.764-.368-.033-.017-.07-.038-.102-.06.235.04.48.07.735.08.54.025 1.08-.025 1.6-.14.158-.035.316-.076.47-.123.085-.03.172-.055.256-.085.303-.104.59-.227.865-.372.527-.276 1.002-.622 1.383-1.02.18.05.42.118.56.148.203.046.41.08.626.094.778.04 1.67-.11 2.482-.234.362-.054.728-.117 1.09-.182.163-.03.323-.056.483-.083.28-.046.557-.085.834-.12.11-.013.225-.026.336-.037.192-.015.38-.026.567-.03zm-4.13-2.32c.06.036.13.075.24.16.137.1.193.282.166.52l.53-1.285.046-.106-.244.028-.015.033-.095.23c-.016-.035-.037-.06-.06-.085-.106-.127-.247-.188-.41-.19 0 0-.245.022-.36.148-.048.053-.084.114-.104.18-.02.064-.022.12.01.157.105.124.295.21.295.21zm1.344 1.343c.022.004.1-.01.1-.01.018-.196.064-.417.143-.67.11-.34.283-.7.516-1.056.09-.136.184-.272.29-.407-.026-.03-.062-.046-.14-.048l-.365.026-.19.466-.554 1.344c-.09.275-.036.353.2.353z" fill="#fff"/><path d="M5.868 14.65C5.122 13.013 4.63 11.2 4.63 9.287c0-.86.052-1.724.157-2.567.813-.538 1.697-.99 2.633-1.356-.498-.27-.85-.402-.85-.402.835-.097 1.588-.104 2.246-.067 1.258-.355 2.584-.56 3.936-.604.366-.317.785-.597 1.22-.833-.232-.01-.464-.015-.698-.015-3.55 0-6.79 1.057-9.27 2.795-.14.983-.213 2.003-.213 3.05 0 1.93.47 3.773 1.203 5.457.29-.03.586-.062.876-.09zm9.495 6.913c-.975.805-1.762 1.27-2.086 1.324-.168-.034-.47-.183-.856-.437-.253.067-.515.132-.78.195-.104.026-.205.048-.31.07.885.653 1.597 1.014 1.944 1.014.635 0 2.303-1.057 4.064-2.837-.43.13-.87.28-1.3.43 0 0-.246.092-.674.24zM17.055 4.72c1.268 0 2.313.307 2.313.307-.232.038-.45.105-.654.183.8.286 1.564.636 2.285 1.046.617.23 1.004.47 1.004.47-.08.016-.16.035-.238.056.1.824.15 1.664.15 2.506 0 2.04-.53 3.946-1.336 5.648.015 0 .028 0 .038-.002.21-.025.44-.107.682-.247l.386-.226c.657-1.603 1.07-3.35 1.07-5.172 0-1.048-.073-2.067-.212-3.05-1.888-1.325-4.22-2.25-6.788-2.617-.204.29-.347.56-.446.79.59.073 1.174.177 1.745.312zM11.97 6.104s-1.6-.75-3.86-.712c0 0 1.777.93 2.53 2.738.028.07.06.143.085.217.508-.096 1.063.153 1.49.582.436.44.732 1.076.682 1.726 0 0-.234.438-.58.263-.074-.038-.152-.104-.234-.205 0 0-.06.032-.12.146 0 0-.013-.077-.058-.167l-.002.002c-.637 1.227-2.23 1.346-2.283 1.423 0 0 .047.157.073.22 0 0-.173.284-.485.762l.37-.23s.255-.365.345-.564c0 0 .715.032 1.97-.983 0 0 0 .097.015.263.016.155.053.37.12.617 0 0-1.913.642-4 2.224l.263-.026s.72-.034.985.067l.064.03c.432-.155.884-.284 1.35-.362 0 0 .15.208.363.388 0 0-.566.076-1.358.298.083.135.136.29.157.47.653-.105 1.358-.165 2.08-.133 0 0 .657.448 2.67-.097-.216-.08-.443-.23-.427-.455.033-.432 1.234-.956 1.32-2.563.05-.93-.547-2.28-1.473-2.93 0 0 .344-.73 1.643-.98 0 0-1.43-1.317-3.523-.26 0 0 .195-.867 1.012-1.43 0 0-.18.277-.162.617 0 0 .33-.53.81-.8 0 0-.19.26-.224.63 0 0 .36-.476.95-.702 0 0-.312.323-.388.652 0 0 .338-.355.8-.43 0 0-.228.1-.348.42 0 0 .706 0 1.632.628.118.078.316.253.443.4.3.346.64 1.047.947 1.846V9.7s.004-.083.04-.15c.358-.732 1.467-2.39 3.31-2.827 0 0-1.372-.902-4.215-.275 0 0 .323-.85 1.265-1.278 0 0-1.198-.32-3.47.43 0 0-.005-.554.272-1.245.102-.255.244-.53.438-.803.05-.07.11-.143.166-.215.018-.022.035-.046.057-.066 0 0-.06.017-.16.055-.105.038-.263.102-.45.188-.353.162-.82.414-1.3.774-.577.43-1.17 1.023-1.595 1.814zM8.43 21.54c.16-.018.32-.044.48-.074.058-.013.112-.02.17-.032.093-.02.197-.047.3-.08.066-.022.133-.05.195-.08-.088.01-.174.015-.26.015-.127 0-.25-.005-.37-.015-.063-.004-.157-.018-.26-.034-.214-.037-.47-.095-.587-.147-.313-.14-.492-.22-.623-.533-.095-.232-.12-.506-.11-.794.01-.192.03-.394.052-.592l.04-.326c.013-.12.026-.24.036-.358.01-.15.025-.303.047-.454l.205-.11c.02-.008.035-.02.057-.03.37-.208.638-.452.863-.77L8.753 17c.187-.28.318-.547.402-.802.05-.15.076-.297.086-.427.014-.13 0-.25-.03-.353-.05-.156-.145-.27-.287-.33-.01-.003-.017-.005-.024-.01-.147-.05-.265-.053-.76-.022l-3.124.316.432.24c.146.066.166.177.125.335-.02.068-1.938 4.586-1.938 4.586-.227.514-.43.8-.887 1.237l-.12.108 2.323-.258c-.014-.032-.022-.057-.03-.092-.076-.273-.08-.472.023-.763.166-.49.748-1.777.748-1.777.003.427.04.888.06 1.38.014.372.107.75.39.95.59.408 1.507.31 2.292.227zm10.38-3.647l.612-.07c.05-.097.246-.607.292-.75.103-.316.15-.576.155-.79.004-.445-.197-.68-.6-.707-.07-.007-.14-.005-.217.004-.275.037-.55.152-.818.34-.145.1-.29.223-.436.362-.075.078-.147.158-.213.24l.265-.642-.59.068.657-1.59-.25.03c-.154.335-.385.694-.73 1.09-.233.272-.505.513-.85.727l-.047.03.028-.07s-.243-.107-.665-.067c-.357.032-.607.16-.878.4-.044.04-.088.08-.132.126-.03.028-.057.058-.088.088-.297.34-.488.67-.584.966-.105.33-.078.61.07.77.215.224.446.262.512.386.012.038.012.066-.012.145-.09.28-.416.59-.916.175-.113-.09-.184-.216-.22-.3.057-.1.114-.203.17-.313.136-.258.243-.515.317-.744.168-.522.174-.94.016-1.2-.13-.222-.38-.33-.742-.286-.062.008-.116.02-.18.036-.222.053-.435.148-.642.285-.266.172-.518.412-.764.727-.262.327-.402.54-.6.94.03-.082.027-.09.053-.168.216-.666.164-1.17-.152-1.383-.14-.094-.332-.13-.578-.103-.2.027-.44.117-.684.257-.326.185-.66.46-.9.79-.146.208-.275.405-.38.587-.235.403-.368.72-.417.85-.005.017-.012.033-.014.043-.026.078-.046.15-.066.227-.048.202-.074.393-.07.56.01.47.23.775.687.78.046 0 .095 0 .147-.01.07-.005.15-.02.23-.045.03-.012.065-.023.098-.033.08-.028.158-.058.234-.095l.03-.013c.242-.123.465-.285.674-.484.314-.303.594-.692.846-1.18.048-.094.06-.104.1-.194-.032.08-.027.078-.052.154-.305.944-.105 1.65.7 1.556.07-.008.147-.025.23-.047.12-.037.243-.088.36-.144.492-.25.91-.655 1.275-1.234l-.183.997s.344.093.547.1c.083.005.17 0 .254-.01.49-.06.89-.333 1.256-.812.064-.087.123-.17.175-.25 0 0-.083.21-.1.26-.127.396-.047.666.33.62.088-.008.287-.063.393-.115l.773-.938c-.04.578.217.874.813.855.052 0 .11-.004.167-.012.352-.062.816-.263.816-.263l.898-1.19c-.197.15-.333.23-.657.364-.152.062-.28.104-.39.133-.063.02-.12.03-.173.036-.22.024-.33-.045-.388-.21-.064-.19-.062-.35-.014-.508l1.212-.14zm4.856-2.67c-.584-.165-1.148.122-1.42.362-.057.05-.11.104-.168.16l.205-.498c-.065-.012-.16-.015-.22-.01l-.01.002c-.202.026-.413.143-.608.324-.074.073-.148.153-.22.244l.236-.57c-.052.03-.104.06-.16.085-.272.14-.54.226-.79.254-.086.01-.17.014-.256.01H20.2l.03.048c.058.12.058.244-.022.492-.037.115-.996 2.428-1.012 2.466-.143.322-.23.457-.455.68-.03.03-.06.062-.096.087l.08-.01.328-.038.577-.067.422-.05c-.015-.02-.022-.047-.036-.074-.035-.12-.03-.24.018-.417.006-.027.016-.056.025-.086l.562-1.363c.17-.408.246-.536.416-.737.146-.156.283-.25.412-.264.037-.004.07-.002.104.007.035.008.068.022.1.045-.096.16-.164.313-.21.458-.108.332-.085.62.07.768 0 0 .128.136.3.23.084.045.168.093.195.116.03.03.03.106.005.186-.02.066-.134.308-.387.357-.045.01-.17 0-.25-.027-.082-.023-.193-.07-.28-.154-.175-.16-.257-.388-.257-.388l-.225 1.2s.54.125.8.095c.49-.058.89-.333 1.256-.812.24-.314.397-.61.478-.863.118-.36.075-.646-.104-.78-.112-.082-.45-.248-.535-.366-.078-.11.017-.267.093-.338.082-.08.23-.134.362-.147.214-.02.423.154.466.273l.36-.862-.123-.03zm-3.81 4.554c-.21-.014-.426-.018-.64-.01-.188.005-.375.016-.564.032-.11.01-.225.022-.336.036-.277.034-.553.073-.834.12-.16.026-.32.053-.482.082-.363.063-.73.127-1.09.182-.814.125-1.705.275-2.483.234-.216-.012-.423-.048-.626-.093-.137-.03-.38-.1-.56-.147-.38.397-.854.743-1.382 1.02-.275.146-.563.27-.864.372-.084.03-.17.056-.257.083-.152.047-.31.088-.47.123-.52.115-1.06.166-1.6.14-.253-.01-.5-.04-.733-.08.03.02.068.044.102.06.605.306 1.543.457 2.764.37.18-.015.366-.034.56-.06.104-.012.207-.025.314-.04.32-.05.658-.11 1.01-.19l.088-.02c2.133-.523 3.52-1.046 4.73-1.445.548-.182 1.062-.34 1.595-.455.084-.02.168-.036.254-.052.043-.01.08-.014.12-.022.23-.036.434-.067.614-.086.705-.082 1.105-.05 1.592-.004.08.006-.307-.113-.82-.15z" fill="#E82C2A"/><path d="M10.88 13.71c.317-.227.665-.494.68-.555-.067-.057-.1-.1-.1-.1 1.157-.447 1.24-1.73 1.24-1.73.012 1.326-1.024 1.83-1.024 1.83.033.05.11.073.11.073-.286.21-.532.476-.532.476 1.102 1.467 2.05 1.353 2.05 1.353-1.314.228-2.424-1.346-2.424-1.346zm3.438-3.834c.617 1.156.25 2.482.25 2.482.178-1.193-.272-2.113-.584-2.585-.146-.225-.264-.35-.264-.35.066.16.11.32.14.464.062.31.052.54.052.54-.043-.172-.1-.322-.156-.448-.145-.318-.3-.48-.3-.48.08.19.145.382.19.574.48 1.94-.65 3.936-.65 3.936.656-1.353.633-2.838.51-3.69l-.02-.1c-.14-.782-.49-1.08-.49-1.08-.348.092-.805-.306-.805-.306s.133.055.367-.04.37-.364.59-.553c.338-.29 1.288-.235 1.288-.235-.794.148-1.11.928-1.11.928.092-.003.188.025.285.08.23.13.468.416.708.864z" fill="#002D5B"/><path d="M11.96 10.86c.062-.113.122-.145.122-.145.082.102.16.167.234.204.207-.08.432-.253.39-.623-.067-.614-.26-1.054-.492-1.37-.427-.428-.98-.677-1.49-.58-.024-.075-.056-.147-.083-.218-2.77.035-2.675 1.99-2.675 1.99s.423-.333 1.186-.515l.343-.415.416.184s-.08-.077.29-.15c.335-.066.812.018.98 0 .163-.015.23-.057.305-.05.075.01.094.04.175.142.19.24.207.466.207.466s-.473-.373-.59-.373c-.115 0-1.12.142-2.252.61 0 0 .537.064.63.05.417-.05.93-.194 1.446.01.586.23.754.45.803.615l.002-.002c.045.09.057.167.057.167z" fill="#FFDD4F"/><path d="M11.1 8.727c-.12.23-.652.1-.652.1.602.024.54-.25.33-.274 0 0 .396.036.322.174z" fill="#002D5B"/><path d="M13.11 8.475s-.278.46-.667.445c0 0 .137.096.313.132.165.03.592-.14.355-.577zm2.382 9.653c.027-.238-.03-.422-.166-.52-.11-.085-.18-.124-.24-.16 0 0-.19-.086-.295-.21-.03-.037-.027-.092-.006-.156.02-.065.056-.127.104-.18.115-.127.36-.147.36-.147.163.002.304.063.41.19.022.023.044.05.06.083l.093-.23.016-.032.244-.028-.047.106-.53 1.284z" fill="#fff"/><path d="M19.046 18.098c-.132.092-.255.156-.51.266-.04.015-.08.028-.114.042-.162.062-.29.097-.383.108-.145.017-.18-.02-.213-.108-.02-.06-.03-.112-.035-.16l.826-.098.426-.05zm-2.266 1.75c-.22.038-.44.077-.666.11l.31-.41.027.048c.08.115.194.196.33.252zm-1.678.264c-.37.05-.737.093-1.088.106.264-.088.512-.24.746-.46.012.07.036.133.07.188.05.068.13.14.272.166zm-5.334 1.285l.51-.3c-.135.017-.535-.006-.854-.03-.15-.01-.283-.02-.357-.027l-.045-.002c-.197-.015-.357-.052-.495-.11l.063-.016c.084-.023.17-.056.26-.093l.143-.064.08-.045c.248-.134.48-.305.69-.513.142-.136.274-.286.4-.453.01.227.065.42.167.57.174.25.466.36.85.314.086-.01.176-.028.268-.057.045-.012.094-.027.142-.046-.276.21-.577.396-.9.556-.28.14-.575.257-.88.354-.082.026-.162.05-.245.07.02-.008.04-.015.06-.025l.143-.084zm10.604-2.22s-.228-.225-.104-.532l.287-.694.125-.307-.032.16-.276 1.376zm.858-2.43c-.02.065-.034.13-.05.19-.068.34-.014.626.16.79l.128.12c.09.074.325.2.333.2v.005c-.006.02-.04.117-.133.13-.025.007-.05.003-.08-.003 0 0-.137-.006-.318-.14-.157-.117-.305-.388-.397-.59-.02-.05-.043-.095-.06-.13l.013-.03c.158-.377.217-.472.355-.636.038-.04.087-.085.13-.12-.03.073-.057.143-.08.213zm-6.197.28c.013-.01.246-.15.438.1.086.115.123.233.123.233l-.04.094c-.16-.184-.52-.27-.55-.375-.004-.018.012-.037.03-.054z" fill="#002D5B"/><path d="M7.416 17.232c.162-.24.225-.443.242-.495.086-.264.043-.442-.158-.515-.096-.033-.23-.042-.4-.02-.16.017-.232.06-.232.06l-.066.146-.033.086-.376.856-.05.11-.058.143-.193.445s.22 0 .402-.078l.025-.013c.075-.032.146-.07.208-.104.297-.17.502-.373.643-.56l.047-.06z" fill="#fff"/><path d="M6.61 17.678c-.1.056-.17.082-.173.082l.566-1.312c.006 0 .578-.116.44.275-.028.085-.077.186-.124.28l-.07.11c-.043.066-.09.124-.14.18-.17.185-.363.31-.5.385z" fill="#002D5B"/><path d="M8.646 18.967c-.184.654-.078.962.14.935.104-.018.25-.11.398-.27.01-.006.015-.017.022-.022.157-.183.41-.618.598-1.196.246-.75.182-1.054-.168-1.012-.258.077-.607.508-.906 1.3-.035.094-.062.182-.084.265z" fill="#fff"/><path d="M8.938 18.723c.224-.634.546-1.024.68-1.087.062-.002.074.015.08.022.026.037.065.184-.106.746-.046.143-.09.258-.133.363-.143.337-.26.553-.385.694-.01.01-.017.02-.024.03-.11.112-.195.164-.234.177-.035 0-.04-.008-.045-.013-.052-.03-.057-.177.03-.504.035-.117.08-.257.137-.427z" fill="#002D5B"/><path d="M11.645 19.567c.105-.02.258-.106.4-.27.402-.46.574-1.08.62-1.22.235-.757.18-1.055-.17-1.015-.257.08-.604.51-.906 1.302-.3.902-.193 1.232.054 1.203z" fill="#fff"/><path d="M11.797 18.39c.267-.697.545-1.026.684-1.09.06-.002.07.015.078.022.027.04.06.386-.24 1.11-.146.358-.27.582-.406.723-.106.113-.195.166-.233.176-.186.033.12-.94.12-.94z" fill="#002D5B"/><path d="M18.908 17.013c.16-.505.084-.735-.143-.706-.21.027-.48.278-.673.566-.08.127-.15.254-.204.385l.97-.113c.017-.044.037-.09.05-.132z" fill="#fff"/><path d="M18.717 16.928l-.457.052.012-.02c.164-.25.354-.415.45-.416.08 0 .062.146-.005.384z" fill="#002D5B"/><path d="M16.672 18.11c-.078.253-.125.474-.142.67 0 0-.08.014-.1.01-.235 0-.288-.078-.2-.353l.553-1.344.19-.466.365-.028c.08 0 .114.016.142.046-.107.135-.203.27-.293.407-.232.356-.406.717-.515 1.055z" fill="#fff"/></svg>