<svg xmlns="http://www.w3.org/2000/svg" width="31.867" height="28.347" viewBox="0 0 31.867 28.347"><path d="M31.742 7.21s-.43 1.41-1.51 2.48c.3-.486.563-.997.717-1.54.264-.938.355-2.014.33-3.188-.01-.262-.026-1.832-.988-3.046.016.998-.098 1.438-.268 2.153-.012.05-.27-2.826-2.58-4.07 1.092 2.682.33 4.416-.12 5.31-.468-2.524-2.548-3.703-2.548-3.703.677 1.124.908 3.777-.41 5.938-2.27-2.202-5.258-3.417-8.428-3.417-3.237 0-6.278 1.26-8.564 3.547-1.105 1.104-1.967 2.377-2.57 3.79-.814-1.012-2.102-3.08-2.653-4.852l-.13 2.51c0-.043-1.207-2.79-1.307-3 0 0-.45 1.968-.193 3.62L.036 8.82c-.003 0-.098 1.915.157 2.856.093.337.01.1.106.372l-.304-.255C0 13.138 1.19 14.778 1.806 15.48c.707.806 1.6 1.388 2.06 1.656.212 2.893 1.45 5.603 3.51 7.664 2.288 2.286 5.327 3.546 8.564 3.546 3.23 0 6.27-1.26 8.56-3.55s3.55-5.328 3.55-8.56c0-.46-.027-.927-.082-1.393.38-.126.684-.262.893-.365.27-.137 2.47-1.655 2.27-3.21 0 .003 1.1-1.888.613-4.058z" fill="#fff"/><path d="M31.67 8.11s-1.023 2.024-2.254 2.343c.14-.176.28-.364.428-.568.406-.567.738-1.182.895-1.847.79-3.355-.29-5.313-.29-5.313-.024.863-.366 2.27-.653 2.896.12-3.28-1.63-4.642-1.63-4.642.017.084.654 2.5-.944 4.785-.56-2.5-1.877-3.335-1.877-3.335.2 1.063.578 3.035-.945 5.354l-.03-.03C22.12 5.5 19.127 4.26 15.94 4.26S9.76 5.498 7.508 7.75c-1.162 1.162-2.05 2.51-2.646 4.013-1.333-1.37-2.586-4.276-2.586-4.276-.002.045-.08 1.87.02 2.586C1.67 9.105.806 6.65.806 6.65c.023.054-.39 2.06.034 3.784l-.646-1.04s-.132 1.726.495 3.2l-.533-.496c.176.99 1.186 2.518 1.788 3.204.74.842 1.69 1.434 2.1 1.667.187 2.882 1.408 5.59 3.462 7.642 2.254 2.253 5.246 3.492 8.432 3.492 3.18 0 6.172-1.24 8.427-3.495 2.254-2.257 3.495-5.25 3.495-8.43 0-.504-.034-1.014-.1-1.522 2.036-.747 3-2.024 3.202-3.083-.344.337-.577.502-.797.58 1.406-1.588 1.64-3.503 1.502-4.048z" fill="#D7D8D6"/><path d="M5.217 12.742C5.76 11.066 6.69 9.53 7.972 8.248c2.128-2.128 4.956-3.3 7.966-3.3s5.84 1.172 7.967 3.3c.12.12.238.247.355.372.057-.064.113-.13.17-.196-.113-.122-.227-.24-.344-.358-2.176-2.178-5.07-3.375-8.148-3.375s-5.973 1.2-8.15 3.376c-1.28 1.28-2.22 2.812-2.78 4.48.07.068.14.134.21.197zm21.85 1.718c.09.575.138 1.16.138 1.755 0 3.005-1.174 5.832-3.305 7.963-2.13 2.13-4.956 3.304-7.963 3.304-3.01 0-5.838-1.172-7.966-3.3-1.97-1.97-3.116-4.54-3.28-7.298-.084-.04-.174-.08-.264-.125.133 2.872 1.314 5.556 3.362 7.604 2.177 2.175 5.07 3.374 8.15 3.374 3.073 0 5.966-1.2 8.144-3.38 2.182-2.18 3.382-5.07 3.382-8.145 0-.613-.05-1.22-.142-1.813-.08.02-.166.04-.252.058zm-19.844-.603c.227.048.51.064.773.034.383-1.316 1.094-2.526 2.092-3.523 1.563-1.563 3.64-2.424 5.85-2.424 2.09 0 4.06.77 5.59 2.176 1.3-.085 1.994-.668 2.563-1.3-.117-.132-.24-.26-.367-.39-2.08-2.077-4.842-3.223-7.783-3.223-2.94 0-5.706 1.146-7.784 3.225-1.277 1.278-2.2 2.815-2.725 4.49.546.455 1.147.8 1.794.937zm17.632.667c-.186.095-.447.174-.72.21 0 .16.343.425.343.425s-.132.06-.322.123c.035.308.053.617.053.93 0 1.78-.563 3.477-1.6 4.888v.004h-.004c-.12.165-.254.325-.39.482.18.405.216.813.216.813s-.502-.004-.877-.123c-.02.02-.044.044-.066.063.093.407.054 1.166.054 1.166s-.64-.113-1.007-.39c.09.412-.19 1.093-.19 1.093s-.566-.247-.848-.53l-.146.067c-.137.57-.605 1.106-.605 1.106s-.288-.29-.517-.693c-.738.214-1.508.326-2.297.326-2.21 0-4.287-.86-5.85-2.423-1.076-1.076-1.82-2.397-2.176-3.84-.628-.105-.9-.395-.9-.395l.208-.185c-.365-.033-.547-.258-.547-.258 0-.002-.725-.015-1.71-.396.185 2.645 1.3 5.11 3.194 7.007 2.078 2.078 4.844 3.223 7.783 3.223 6.07 0 11.008-4.937 11.008-11.006 0-.577-.045-1.145-.13-1.704-.572.095-1.235.13-1.96.014zM8.88 12.38c-.255.467-.46.954-.618 1.46.088-.022.168-.05.24-.09.02-.01.037-.022.057-.032.115-.35.26-.692.427-1.02-.02-.106-.058-.213-.11-.318zm9.15 11.336c-.025.007-.052.016-.077.02-.1.127-.215.238-.32.328.164-.034.326-.076.486-.12" fill="#650038"/><path d="M23.684 15.392c.027.27.043.546.043.823 0 1.62-.498 3.124-1.347 4.373.054.088.097.168.13.238.945-1.343 1.457-2.938 1.457-4.61 0-.292-.016-.58-.046-.866-.075.017-.155.033-.235.042zM9.174 12.35c.342-.593.76-1.146 1.258-1.643 1.47-1.47 3.426-2.28 5.506-2.28 1.31 0 2.57.32 3.695.928.135-.042.254-.066.354-.075-1.216-.714-2.604-1.096-4.05-1.096-2.145 0-4.162.836-5.68 2.353-.55.55-1.01 1.168-1.373 1.832.034-.007.14-.02.29-.02z" fill="#650038"/><path fill="#fff" d="M6.906 12.595l.002-.005.92.19.1-.227-.757-.556.005-.004.838.37.156-.35-1.41-.623-.214.482.598.463-.002.004-.745-.128-.21.48 1.403.625.156-.35zm1.512-.96l-.14-.134.144-.227.182.072.23-.358-1.475-.553-.29.453 1.116 1.107.23-.358zm-.38-.316l-.478-.434.004-.004.594.246-.12.19zm1.077-.666l-.607-.516.004-.004.802.287.27-.315-1.172-1-.25.295.52.44-.002.004-.705-.222-.28.326 1.172.998zm1.348-1.344l-.22-.248-.425.38-.806-.9-.334.298 1.026 1.147zm.15-.1l.36-.26-.37-.515-.23-.95-.35.252.166.5-.005.003-.424-.313-.345.25.824.52zm1.8-1.056l-.138-.833h.006l.494.687.354-.146-.277-1.55-.382.158.19.82h-.007l-.48-.697-.355.147.174.826h-.005l-.466-.704-.384.16.926 1.28zm1.4-.474l-.007-.196.268-.06.08.18.412-.095-.66-1.43-.525.12.02 1.572.415-.093zm-.076-1.134l.247.59-.218.05-.036-.64h.007zm1.308.924l-.053-.62.064-.008c.047-.004.086 0 .11.014.027.014.044.04.054.08.014.04.023.106.03.198.005.037.01.07.017.103.006.03.014.065.027.103l.037.104.434-.037c-.045-.056-.072-.16-.084-.313-.01-.07-.02-.137-.04-.197-.018-.06-.045-.11-.078-.152-.034-.04-.076-.062-.127-.066V6.67c.055-.022.1-.062.14-.116.036-.056.05-.138.04-.248-.008-.11-.035-.195-.08-.256-.04-.06-.104-.1-.186-.118s-.19-.023-.318-.013l-.55.05.136 1.534.425-.036zm-.03-1.266c.062-.005.106.007.132.033.028.028.045.074.05.137.005.064-.002.113-.025.146-.022.03-.063.05-.122.055l-.08.008-.03-.37.076-.01zm1.34.606l.062.005c.05.003.086.012.107.027.025.018.04.047.046.09.005.04.005.106 0 .197-.003.036-.003.07 0 .102.002.032.005.067.013.105.008.037.014.073.02.107l.435.025c-.035-.064-.05-.17-.04-.324.005-.07 0-.138-.01-.2-.007-.062-.026-.116-.056-.16-.027-.047-.068-.074-.117-.085.058-.015.11-.047.155-.096.043-.05.07-.13.076-.238.006-.112-.008-.2-.043-.265-.03-.063-.09-.11-.166-.142-.08-.03-.184-.05-.31-.057l-.55-.03-.088 1.538.426.023.037-.62zm.032-.638l.082.004c.06.004.1.02.123.054.02.03.03.077.027.142 0 .064-.017.11-.044.14-.025.028-.07.04-.13.037l-.08-.007.02-.372zm1.07-.18l.44.075-.254 1.518-.442-.075zm.768 1.73l.22-.766h.006l.07.852.4.115.427-1.48-.37-.106-.19.655-.005-.002-.085-.735-.412-.118-.428 1.478zm.96.15c.007.07.04.134.09.186s.126.1.23.147c.06.026.117.043.17.05.056.006.11 0 .17-.014l.025.1.21.096.353-.78-.507-.23-.118.264.098.043-.063.14c-.018.04-.04.065-.068.075-.025.013-.057.01-.09-.005-.068-.032-.088-.087-.05-.165l.29-.64c.035-.08.088-.103.158-.07.03.014.053.035.063.062.01.028.006.062-.012.102l-.036.08.407.186c.05-.11.076-.194.078-.25.002-.068-.01-.132-.04-.19-.032-.06-.073-.11-.13-.156-.058-.047-.124-.09-.2-.123-.132-.06-.247-.084-.345-.07s-.188.06-.27.15c-.083.09-.163.223-.245.402-.068.147-.114.27-.14.364-.03.093-.038.176-.03.246zm1.3.812l.134-.143.226.146-.07.184.358.227.543-1.478-.453-.29-1.1 1.127.36.226zm.742-.862l.004.003-.24.594-.19-.12.428-.48zm.293 1.593l.376-.45.16.135-.378.45.343.287.99-1.18-.343-.288-.352.422-.16-.135.355-.42-.344-.29-.99 1.18zM9.487 23.278c-.06-.136-.114-.267-.163-.393-.053-.125-.066-.202-.04-.23.022-.02.052-.026.09-.017.038.01.08.037.122.078.037.035.063.068.08.103.014.03.018.066.012.102-.01.037-.03.075-.066.115l.438.424.045-.047c.043-.045.07-.1.078-.167s0-.14-.03-.22c-.023-.08-.07-.165-.13-.253s-.135-.175-.222-.26c-.106-.104-.22-.19-.33-.254-.112-.065-.214-.1-.31-.107-.094-.008-.172.018-.23.077-.064.068-.09.16-.07.278.02.117.068.276.154.48.082.204.137.338.16.4.025.065.02.114-.012.147-.026.028-.063.036-.106.02-.047-.012-.094-.043-.145-.092-.057-.054-.09-.11-.1-.168-.012-.06.004-.104.04-.144l.05-.05-.45-.433c-.075.076-.123.158-.144.245-.02.088-.006.192.05.314.056.12.163.257.32.41.1.098.198.18.288.244.09.065.178.112.258.142.08.03.155.038.226.026.068-.012.13-.044.183-.1.065-.068.09-.164.073-.285-.018-.117-.057-.245-.115-.382zm1.623 1.468l.175-.276-.543-.35.143-.226.66.423.168-.264-1.22-.785-.833 1.294 1.254.806.18-.277-.69-.443.16-.25zm.064.77l.59.24.123-.16.377.152-.018.2.59.237.118-1.612-.747-.3-1.033 1.242zm1.252-.707l-.08.646-.312-.125.384-.525.008.003zm1.722 1.672l1.485.15.033-.327-.82-.083.03-.296.644.066.035-.33-.647-.064.028-.266.777.08.033-.315-1.445-.145zm2.132-1.412l-.363 1.576.636-.054.04-.197.403-.033.073.188.633-.054-.62-1.493-.803.068zm.324 1.025l.107-.644h.008l.22.617-.333.03zm3.992-.955l-.565-1.07-.59.31.717 1.363 1.357-.713-.154-.292zm3.674-2.99c-.015-.066-.052-.125-.108-.174-.076-.063-.172-.08-.29-.055-.122.027-.247.074-.378.14-.133.07-.262.134-.382.193-.12.06-.198.078-.228.054-.022-.02-.03-.05-.022-.088.007-.04.03-.08.07-.13.032-.04.065-.065.096-.083.032-.02.065-.025.104-.02.035.005.074.023.117.058l.39-.466-.05-.04c-.05-.044-.104-.065-.172-.068-.07-.004-.14.01-.218.043s-.16.082-.244.148c-.082.067-.164.147-.244.242-.098.113-.174.23-.23.347-.057.115-.084.22-.086.315 0 .096.03.17.094.225.072.06.166.076.28.05.118-.025.274-.087.472-.184.197-.098.327-.16.39-.19.062-.026.11-.026.145.002.03.027.04.063.03.11-.012.044-.04.093-.086.146-.05.06-.103.097-.16.11-.056.015-.104.006-.145-.027l-.05-.046-.405.477c.08.067.166.11.254.126.09.016.19-.01.31-.07s.245-.18.386-.348c.092-.107.166-.21.225-.305.06-.096.102-.185.125-.267.02-.08.025-.156.008-.224z"/><path d="M26.908 13.156c.887-.302 2.172-.894 2.94-1.584 0 0-.02-.086-.038-.15.045.02.077.037.113.05.504-.52.943-1.097 1.184-1.744-.367.543-.813 1.047-1.408 1.357-.818.396-1.695.72-2.648.668.453-.332.93-.73 1.234-1.163-.06-.063-.086-.1-.102-.202l.275-.002C29.814 9 30.526 7.24 30.543 5.268c0 0-.453 2.293-2.924 3.854l.416-.676-.082-.146c.053-.007.105.01.18.01 1.694-3.51.71-5.423.695-5.486.096 2.507-1.465 4.19-2.666 5.007.127-.414.25-.855.322-1.31-.045-.04-.082-.06-.143-.116l.167-.055c.053-.686-.037-1.44-.418-2.107.066 1.507-.406 2.962-1.293 4.12-.878 1-1.62 2.02-3.44 2.015-.42 0-.896-.052-1.447-.174 0 0-.492-.23.03-.772 0 0-.68.2-1.265.88-.435.503-.67 1.03-.884 2.002-1.068-.578-2.393-.945-3.324-1.223 0 0 .158-.03.256-.04l-.004-.002c-.053-.022-.62-.19-.826-.148-.334.067-.742.277-.867.3-.127.02-.5-.03-.49-.033-.506.016-1.06.464-1.24.607-.95.748-.635 1.51-.4 1.482-.068.08-.117.16-.15.24-.094-.164-.19-.35-.348-.515-.217-.214-.574-.392-1.28-.455H9.12c.03.063.16.402.066.68-.036.114-.357 1.125-1.91.896-2.024-.3-3.536-2.33-4.31-4.073.075.503.184 1.002.38 1.465l.093.03-.045.098c.207.535.545 1 .883 1.48 0 0-2.252-1.134-2.96-3.8.232 1.264.904 3.12 1.713 4.007 0 0 .05.03.237.07.008.048-.046.13-.062.16.23.294.333.408.627.672-1.217-.485-2.18-1.838-2.904-2.93.136.63.72 1.688 1.21 2.504h.102c.008.054-.02.09-.035.124.178.255.31.438.59.71-.592-.3-1.38-.93-1.38-.93.163.442 1.575 1.903 2.067 2.19.03.02.22.037.262.03l-.088.128c.954.67 2.148 1 3.342 1.14l-.09.078c.236.157.52.26.814.303-.08.08-.14.16-.246.252.283.24.72.25 1.102.252-.006.217-.068.366-.098.472.238.1.578.045.803.01.057.122.05.294.043.413.32.063.645-.047.938-.17.072.146.105.297.114.47.286-.017.532-.13.77-.285.08.116.106.2.145.31.125-.02 1.04-.597 1.23-.047.582-.788 1.227-.498 1.193-.452-.168.23-.004.55.078.684l.023.043c.15.302.075.702-.09.806-.024.014-.185.066-.24-.06-.077-.178-.15-.382-.24-.567-.057-.125-.214-.27-.368-.264-.15.01-.22.064-.323.168-.5-.84-1.176-.23-1.23-.083-.474.15-.956.59-.972 1.163-.002.057.02.167.035.224.336-.665.72-.55.72-.55-.536.77-.132 1.512-.132 1.512.114-.368.31-.905.538-.99.068-.027.164-.038.307.013-.018.148.04.336.156.52.145.23.383.45.693.59 0-.007-.547-.98-.004-1.293.23-.16.415.233.53.325.207.158-.406.823.168 1.29-.062.22-.418.58-1.003.73.234.13.727.09 1.055.008.828-.208.918-1.197.922-1.23.027.08.038.147.037.256.174-.127.27-.28.314-.454.02.088.004.263-.006.342.112-.154.237-.53.232-.74.038.044.052.065.104.145.125-.264.094-.687.035-1.183-.03-.27.14-.42.173-.427.048-.01.46.382 1.02.503l-.042.05c-.11.14-.22.284-.313.44-.1.164-.18.34-.247.52-.07.19-.13.384-.182.58-.046.185-.086.373-.11.562-.026.174-.044.353-.05.527.252-.042.49-.137.672-.243-.023.325.027.598.14.907.3-.12.593-.38.792-.63.068.433.207.743.455 1.062 0 0 .397-.188.69-.82.104.723.68 1.393.68 1.393.394-.635.507-.992.573-1.378.244.322.533.55.945.742.166-.346.107-.81.08-1.183.34.285 1.006.482 1.006.482.018-.4-.06-.887-.117-1.28.24.1.643.16.91.183-.014-.203-.258-.816-.494-1.17.012.017.437.02.626-.028-.527-.886-1.1-1.287-1.758-1.64.162-.146.437-.255.428.208.8-.5.34-.94-.325-1.087-.424-.41-.97-.15-1.326.07-.088-.02.102-.115.034-.204 0 0 .32-.167.312-.52.12-.068.465.355.465.355.147-.557-.07-1.12-.618-1.512.23-.082.746.048 1.11.238.007-.123.04-.272.146-.355.273.126.572.25.89.256 0 0-.178-.356-.065-.518.283.118.638.15.953.134 0 0-.193-.46-.123-.613.113.072.688.152.838.112-.053-.217-.098-.453-.082-.68 0 0 .68.062.914-.093-.18-.144-.303-.322-.31-.54.284-.022.57-.077.804-.196l-.09-.19c.317.036.806.16 1.665.148.008-.018.03-.062.12-.177l.105.156c2.452-.477 3.364-1.398 3.364-1.398-.948.37-1.874.485-2.806.222zm-15.775-.853c.053-.11.12-.212.197-.29-.008.03-.014.103-.01.144v.02c.03-.034.393-.55 1.147-.772.02-.008.037-.007.045-.004.256.074.498.05.71 0 .28-.067.585-.273.692-.222.03.01.063.02.104.035.313.11 1.068.4 1.725.755.287.146.584.336.803.527.012.01.026.023.037.036.053.05.102.098.146.15l.014.02c.016.02.033.043.045.064l-.02-.008c-.134-.058-.26-.088-.31-.097-.078-.014-.154-.02-.23 0l-.018.003c-.04.01-.074.024-.1.046.262.03.758.18.945.442-.23-.145-.463-.23-.678-.28-.13-.024-.444-.052-.733.028.158.023.443.113.515.326 0 0-.647.004-.978.39l-.006.004c.005-.02.005-.076.034-.137-.416.278-.736.9-.432 1.37.045.066.102.123.163.174.052.042.16.12.157.12.002 0-.072.032-.12.043-.263.056-.616-.077-.616-.077v.002c-.018.116 0 .377.16.478h.002-.004c-.388.04-.642-.117-.663-.11h-.005c-.037.068-.17.44.043.615-.003 0 .003.003.002.002-.427-.09-.493-.264-.505-.252h-.004c-.144.145-.233.29-.284.426-.002.002-.002.004-.002.006-.01.023-.018.045-.023.07 0 .004-.004.01-.004.016-.007.02-.013.04-.015.06l-.005.02-.008.06c0 .004 0 .007-.003.013-.02.19.027.34.072.402-.003 0-.003-.002-.005-.003l-.007-.01c-.693-.33-.418-1.033.424-1.55.37-.227.716-.53.74-.86.032-.49.983-1.133.665-1.674-.023-.005-.064 0-.102.006.01-.003.02-.004.033-.005-.053.006-.09.02-.127.043-.13.078-.187.222-.503.216-.076-.002-.184-.01-.29-.033l-.01-.002-.07-.015c-.02-.006-.038-.01-.06-.01-.068-.006-.143 0-.22.016-.12.02-.243.06-.354.088-.05.013-.097.023-.14.03-.07.01-.14.008-.173-.02h-.003.002c.095-.027.185-.057.26-.102.007-.004.013-.008.02-.01l.013-.01c.026-.02.052-.04.07-.062l.02-.02c.024-.03.042-.064.06-.104.004-.013.01-.024.012-.036l.002-.004c.002-.01.006-.018.01-.026.02-.107.016-.224.03-.333.025-.192.192-.275.353-.312.126-.028.247-.03.294-.032h.003-.008c-.19-.09-.5-.027-.498-.03.24-.2.752-.212 1.37.15-.075-.117-.49-.488-1.22-.43h.002c.075-.046.153-.08.226-.1-.013-.003-.1-.004-.214.023-.188.046-.445.17-.53.49-.065-.11-.038-.254.028-.35l-.004.004h.002c-.197.09-.426.336-.38.864.007.083-.06.266-.192.306-.018.005-.035.007-.053.007h-.008c-.155 0-.317-.053-.415-.097-.03-.01-.05-.023-.063-.03-.002-.002-.003-.004-.006-.005l-.01-.007c-.027-.027-.044-.062-.05-.102-.023-.093-.004-.38.154-.51-.354.218-.342.527-.34.56v.005c-.015-.01-.03-.02-.045-.028L11.8 12.8l-.028-.02-.01-.01c-.054-.05-.085-.11-.085-.185 0-.092.077-.425.37-.663l.012-.01c.002-.004.006-.006.01-.01l.002-.002c-.45.235-.61.763-.542.93-.007-.003-.013-.005-.02-.01-.005 0-.01-.003-.015-.005-.15-.073-.053-.368-.047-.398v.002-.007c-.09.135-.246.444-.066.506l.018.012s-.076.047-.15.2h.002c.002.003-.002 0-.004 0-.115-.055-.17-.177-.168-.175-.09-.18-.057-.434.045-.652zm1.517 3.565c-.293.056-.47.247-.473.242-.045-.2.078-.363.156-.43.256.007.547-.037.547-.037-.08.058-.138.117-.23.225zm.223-2.88c.03-.02.03-.022.053-.04-.002 0 .016-.016.016-.016.016.002.035 0 .046 0 .073-.02.136-.082.13-.166-.008 0-.018-.003-.023-.01-.008-.013-.008-.03.006-.04 0 0 .004 0 .006-.002-.004-.01-.01-.02-.016-.027.007-.04.01-.082.02-.123-.013-.01-.024-.016-.04-.022-.012-.008-.035-.018-.04-.017.005-.062.017-.128.063-.172.014-.014.03-.025.045-.036.005-.002.02-.007.02-.01-.022.042.01.065.015.07.01.013.018.02.027.03l.008.01h-.003c.09.113.134.357.02.502-.08.1-.312.183-.47.14-.004 0-.035-.013-.04-.014.015-.008.026-.016.038-.024.02-.01.035-.022.05-.033l.026-.02h.002c.01.007.03.014.04.02zm-1.736.844c.064-.055.18-.108.355-.095l.043-.01c-.004-.005-.025-.04-.15-.07-.133-.008-.246.048-.248.047-.07-.153.133-.52.31-.69.01-.013.02-.023.032-.032l.01-.01c.027-.022.055-.037.08-.047.016-.005.033-.008.047-.01h.006c.014-.002.025-.002.04 0h.007c.015.002.027.004.036.007.004 0 .006.002.01.003l.025.008c.01.004.02.008.03.014.04.016.075.033.103.03.296-.037.328.176.736.15-.187.106-.335.39-.34.595.122-.233.29-.442.53-.52-.096.06-.2.207-.22.363.255-.356 1.003-.397 1.138-.402.322-.014.038.02.322.088.126.03.647.034.788-.296 0 0 .06.32-.145.572-.068.08-.262.304-.354.45-.107.167-.186.343-.266.523-.08.173-.146.36-.295.483-.706.567-.927.537-1.34.516-.054-.004.235-.166.345-.68.06-.283-.234-.523.21-.916.02.104.013.24.003.35-.01.115-.062.697-.395 1.163.33-.05.53-.102.712-.282.2-.2.232-.48.375-.712.095-.15.3-.23.43-.35.086-.077.16-.165.22-.264.034-.057.108-.235.103-.374-.348-.214-.88-.118-1.21.083-.093.056-.15.112-.218.24-.207.074-.252.23-.26.23-.09 0-.172.01-.246.03h.004c-.055.016-.104.038-.152.065-.08.045-.148.105-.21.173-.13.148-.212.34-.216.548-.004.12.006.257.04.37.034.116.08.26.16.35-.04.006-.126.003-.126.003-.257-.014-.61-.14-.75-.288-.428-.45-.306-1.25-.113-1.408zm2.933-.308c.05.002.13.025.13.025.33.15-.733.4-1.013 1.32-.203-.77.142-1.06.22-1.15.022-.026.153-.147.435-.186-.418.207-.547.68-.547.68.266-.39.592-.66.775-.69zm-10.23-1.59c1.148 1.56 1.998 2.053 3.473 2.44-.818-.098-1.156-.16-1.908-.53-.14-.067-1.094-.777-1.565-1.91zm8.606 7.86c0 .008-.217.156-.342.332-.06-.055-.16-.08-.17-.082.52-.31-.323-.606-.323-.606.485-.226.598.133.837.356zm-1.985.825l.023-.046c-.008.015-.016.03-.02.046v-.01c.003-.036.005-.073.01-.11.01-.068.03-.135.054-.2.037-.1.094-.192.162-.27.09-.11.224-.23.347-.302.074-.042.265-.15.447-.188-.268.1-.402.257-.406.258.385-.226.55-.196.633-.193.18.082.454.263.15.396h-.005s-.003 0-.004 0c-.472-.01-.583.187-.587.186-.443-.06-.8.434-.8.434zm1.07.124c-.432.042-.542.852-.542.852 0-.028-.005-.082-.005-.15-.018-.268-.05-.792.408-1.19l.02-.02c.01-.006.018-.012.025-.02.21.075.416.4.095.528zm.205-.068c.135-.14.025-.485-.172-.523-.014-.002.213-.1.486.073-.104.15-.16.294-.203.52-.062-.07-.112-.07-.112-.07zm1.21-.28c-.005.016-.01.03-.017.044h-.002v.002s-.267.043-.45.188c-.013.01-.026.02-.036.03-.23.212-.212.78.028 1.125 0-.003-.002-.005-.004-.006.002 0 .002.002.004.005-.05-.042-.092-.085-.133-.128l-.004-.007c-.75-.8-.167-1.595.31-1.82.01-.002.02 0 .028 0 .016 0 .033 0 .023.008-.272.17-.315.28-.302.267.127-.126.242-.176.32-.197.06-.018.092-.01.092-.01.01.007.02.018.034.03.01.01.037.034.043.042.016.02.027.035.04.055.054.078.08.173.048.3-.004.025-.01.048-.02.073zm.34 2.574c-.136.037-.306.057-.52.053h-.013c.054-.012.11-.034.17-.063.14-.065.253-.155.342-.247h.003c0-.004.006-.008.01-.01.088-.092.166-.196.217-.306l.004-.013c.04-.075.033-.075.033-.075.063-.01.14-.07.22-.09 0 0 .003 0 .006-.003.004 0 .008 0 .012-.002l.017-.002h.004c.062-.003.122.034.162.17-.118.214-.243.476-.665.587zm.905-1.875c-.087-.103-.317-.21-.462-.23.082.063.37.19.443.512.094.377-.01.687-.12.874-.042-.193-.175-.3-.513-.04-.463-.303.018-.7.12-.844-.052.016-.056-.006-.165.03.037-.19.056-.3-.118-.41-.045-.315-.307-.508-.307-.502.205-.826-.47-.745-.47-.745-.003 0 .114-.2.35-.11.298.125.464 1.17.892 1.013.1-.013.01.167.323.058.098.06.14.14.17.27-.13.007-.14.064-.14.126zm6.382-2.36c.002 0 .004-.002.004-.004.004-.006.008-.014.014-.02v-.002c.014-.048-.004-.1-.014-.123h.002c.357.085.918.26.455.8v-.005s0 .002-.002.003c-.02-.497-.45-.364-.596-.2 0 0-.342-.197.082-.404.03-.013.046-.028.057-.045zm-1.556-.252c.088 0 .115-.033.166-.063.008.087-.153.216-.137.343.418-.215.924-.447 1.334-.25.297.262-.52.32-.078.69-.19-.02-.463-.11-.6-.26-.023.042-.006.088.014.115-.186.034-.432-.213-.572-.075-.297.287.23.74.23.74-.034-.003-.17.047-.19.072.19-.052.587.02.685.358.083.256-.108.52-.426.434-.552-.253-.69-1.224-.65-1.33-.116.005-.23.168-.28.277-.012-.05-.084-.092-.084-.092.076.23.064.68-.394.727.25-.294.22-.61.068-.69-.146-.077-.48.03-.616.13.198-.374.583-.5.99-.557-.11-.064-.327-.055-.43-.063-.122-.064-.043-.414.18-.392.1.084.216.19.462.242.01-.018.012-.048.008-.082-.01-.03-.02-.055-.02-.063-.036-.136-.073-.27-.105-.406-.07-.287-.235-.565-.24-.86 0-.15.02-.282.07-.426.09-.275.296-.307.353-.274 0 0-.354.553-.025 1.25.04-.09.1-.178.174-.254.172-.262.48-.414.53-.063 0 .314-.183.613-.417.82zm1.195 2.922c-.176-.08-.582-.392-.722-.714.026.015.052.02.077.027.007 0 .014 0 .025.002.16.014.253-.118.253-.11.005.297.06.437.368.796zm-2.36-.645l-.046-.018c-.467-.182-.48-.45-.428-.702.017-.09.064-.287.064-.29.193-.12.447-.228.575-.203.04.007.068.034.082.07-.002 0-.002.003-.004.003.063.15-.102.498-.117.48-.097-.095-.335-.156-.387.11.007.178-.003.3.26.55zm2.17-2.856s0-.003-.002-.006c.002.006.006.01.008.017-.223-.332-.49-.665-.813-.57-.217.064-.36.19-.46.422-.058-.448-.02-.86.134-.988.255-.22 1.024.336 1.135 1.123zm8.134-4.458c-.05.023-2.18.984-5.407-.33 0 0 .295.458 1.053.602l.146.328c-.118.063-.286.074-.493.05-.45-.052-1.04-.507-1.04-.507.175.32.51.542.84.662.03.174.066.346.187.492-.31.03-.443.025-.658-.058-.293-.207-.57-.47-.79-.745 0 0 .1.535.665.918l.023.576c-.22-.037-.438-.068-.63-.154-.26-.284-.515-.612-.565-.99-.12.333.225.943.428 1.147-.068.142-.1.337-.02.505-.364-.042-.45-.08-.575-.166-.254-.34-.363-.904-.336-1.262-.158.456-.053 1.04.178 1.435-.04.144-.033.185-.01.353-.193-.024-.49-.093-.584-.175 0 0-.44-.195-.197-1.385-.348.52-.34 1.233-.206 1.646-.382-.233-.765-.285-1.122-.06-.002 0-.002.004-.002.007v-.006l-.003.004h-.004c-.06-.005-.154.004-.262.02-.217.047-1.18.358-.32 2.215-.05-.01-.15-.08-.19-.15-.437.114-.472.498-.38.605-.436.188-.52.354-.627.77-.04.187-.35 1.148.943 1.136 0 0-.705-.57-.31-.747.26.257.544.08.657-.163.06-.127.037-.28.145-.383.055.5.223.782.637 1.094.045.17.25.41.53.597l.068.045c.18.106.378.193.585.23 0 0-.646-.67-.414-1.365.11-.356-.25-.547-.52-.597-.324-.282-.355-.366-.3-.442.126-.11.374-.025.57.026.118.037.227.08.327.127.74.277 1.378.95 1.618 1.414-.256-.016-.533-.098-.815-.266.348.327.573.768.616 1.138-.538-.1-.735-.33-.895-.472.17.373.323 1.145.282 1.536-.662-.218-.873-.594-1.126-.87.21.498.347 1.08.196 1.532-.852-.3-1-1.154-1-1.154.09.98-.315 1.693-.315 1.693-.4-.515-.534-1.13-.65-1.61-.04.377-.35.85-.616 1.08 0 0-.32-.45-.344-1.28-.133.357-.655.834-.77.85-.075-.265-.048-.87.056-1.204-.19.127-.378.268-.585.34-.007-.49.15-1.465.808-1.89l.002-.002c-.694-.114-1.334-.66-1.35-.654-.638.22-.336.678-.32 1.272-.09-.287-.2-.4-.292-.482.084.244.186.546.123 1.018-.066-.468-.197-.554-.197-.554.068.33.055.62-.09.894.055-.604-.043-1.018-.463-1.167.03.013.35-.29.136-1.11-.152-.592.457-.922.74-1 .082-.02.14-.023.143-.005-.19-.545-.27-.523-1.625-1.03-.56-.21-1.258-.43-1.61-.743l-.044-.037c.073.08.166.166.294.258.495.362 2.03.887 1.9 1.22 0 0 .46.188-.283.132-.003 0-.01.002-.02 0-.084-.007-.174-.004-.236-.007-.023 0-.117.006-.12.006-.163.022-.278.07-.32.084-.03.014-.062.028-.09.044-.192.12-.33.312-.334.55v.002c-.318-.328-1 .064-1 .064l-.012-.04c-.002-.003-.002-.006-.002-.01-.002-.003-.002-.005-.002-.007-.02-.042-.05-.092-.094-.14l-.038-.037c.108-.358.17-.78.06-1.16-.012.033-.022.89-.316 1.137-.04.035-.324.22-.477.206-.03-.14-.04-.248-.088-.39.36-.55.256-.99.256-.99-.064.323-.35.763-.437.83-.18.144-.68.293-.68.293l-.115-.35c.01-.008.605-.453.672-.9-.03.04-.434.64-1.086.763-.066.01-.14.018-.21.02.022-.12.05-.37.056-.373.543-.21.73-.515.748-.537-.457.27-1.067.498-1.584.445l.308-.418c.268-.05.47-.127.715-.292 0 0-1.066.276-1.617.146l.283-.26c.646-.066.752-.24.752-.24-1.297.264-2.93-.068-4.086-.625-.6-.29-.717-.436-.78-.487H3.8c-.19-.124-.372-.258-.546-.402.643.343 1.383.51 2.088.725l.006-.003c-.268-.127-1.35-.443-2.715-1.878-.244-.23-.354-.384-.352-.382 1.075.974 2.503 1.297 3.44 1.394-.02-.003-.04-.01-.06-.013-.855-.478-1.7-1.097-2.373-1.858-.007-.004-.01-.01-.015-.014-.316-.32-.555-.684-.754-1.06 1.755 1.8 3.66 2.706 5.647 2.455.035-.006.074-.012.11-.02.01 0 .02-.003.03-.005.018-.003.035-.006.054-.012.882-.206 1.354-.99 1.417-1.07l.006-.01c.523-.1.164.805.854.623-.13.45.025 1.103.463 1.434.146.108.515.272.978.264.026 0 .053 0 .08-.003-.086.08-.273.434.014.72.054-.117.162-.206.24-.257.055-.037.094-.05.094-.05-.006.02-.2.472.188.745.134.096.372.21.704.31 0 0-.34-.708 0-1.045.086.183.71.224.95.218.02 0-.45-.324-.33-.627.462.175.91.056.9.047-.16-.148-.24-.284-.228-.363-.004.02.462.134.87-.205 0 0-.082-.046-.185-.127l-.02-.016c-.3-.242-.742-.77.05-1.323.333-.232.712-.26 1.127-.236.017-.152-.106-.35-.116-.364.444.034.776.425.78.42.24-.208.003-.652-.013-.688.01.003.014.008.02.012.744.257.994 1.08.82 1.43 0 0 .526-.437.01-1.448.367-1.87 1.43-2.27 1.43-2.27 4.812.955 8.985-3.428 9.458-5.8-.135 2.276-1.797 3.942-2.937 4.828-.61.483-1.068.722-1.068.722 1.51-.36 3.805-.906 5.252-3.604-.19.588-.373.92-.623 1.322-.54 1.23-2.887 3.545-5.19 4.26 1.114-.145 1.966-.278 2.44-.393.416.086 1.89-.05 2.567-.367-2.002 1.853-5.52 1.093-5.52 1.093l.008.006c.96.338 1.617.494 2.43.554.39.186 1.105.245 1.89.264-.004-.002-.01 0-.014 0z" fill="#001641"/><path d="M29.694 12.07c1.552-1.235 1.76-3.084 1.76-3.084-.364.61-1.163 1.998-3.412 2.342.554-.436 1.07-1.07 1.478-1.64.375-.525.658-1.105.834-1.726.275-.96.363-2.012.34-3.01-.008-.272-.027-.554-.094-.815-.205 1.313-.445 2.084-1.777 3.754.67-1.555 1.06-4.35-.246-5.906 0 0 .514 2.575-1.752 4.925.178-.863-.15-2.484-1.09-3.62 0 0 .682 2.33-1.12 4.923-.118.134-.235.272-.354.412V8.62c-.115-.125-.232-.25-.353-.372-2.126-2.128-4.957-3.3-7.967-3.3s-5.84 1.172-7.97 3.3c-1.28 1.28-2.213 2.816-2.753 4.49-1.35-1.226-2.304-3.083-2.614-3.936 0 0-.063 2.136.852 3.455-.896-.81-1.55-1.82-1.992-3.053l-.42-1.184c-.203 1.366.313 3.387.926 4.447 0 0-.658-.688-1.37-2.005-.01-.018.003 1.625 1.25 3.382-.415-.278-.585-.44-1.01-.9.27.79.886 1.54 1.405 2.13.81.92 1.89 1.585 2.45 1.81H4.69c.163 2.757 1.312 5.328 3.28 7.3 2.13 2.126 4.957 3.298 7.967 3.298 3.007 0 5.834-1.173 7.963-3.304 2.13-2.13 3.305-4.958 3.305-7.963 0-.592-.05-1.178-.137-1.753.707-.148 1.242-.386 1.523-.527.59-.297 1.504-.913 1.76-1.513 0 0-.674.46-2.334.628.89-.306 1.68-.98 1.68-.98zM8.154 8.432c2.078-2.08 4.844-3.225 7.783-3.225 2.94 0 5.704 1.146 7.783 3.225.125.126.248.253.367.385h.002c-.57.63-1.266 1.217-2.566 1.3-1.53-1.398-3.502-2.174-5.588-2.174-2.21 0-4.287.86-5.85 2.424-.996.996-1.71 2.21-2.092 3.525-.267.03-.55.014-.777-.035-.645-.137-1.246-.48-1.79-.933.525-1.677 1.45-3.215 2.726-4.492zm13.016 1.695c-.125 0-.258-.006-.395-.016-.22-.175-.512-.385-.723-.5.033-.065.086-.13.154-.196.335.21.66.453.964.714zm-5.232-1.7c-2.08 0-4.037.81-5.506 2.28-.498.497-.916 1.05-1.256 1.64-.15 0-.258.017-.29.022.364-.666.823-1.283 1.373-1.834 1.515-1.517 3.532-2.353 5.677-2.353 1.445 0 2.834.38 4.05 1.095-.17.017-.362.076-.356.074-1.122-.606-2.383-.927-3.693-.927zM8.502 13.75c-.07.038-.152.067-.24.09.158-.506.363-.995.617-1.46.1.205.103.32.103.32-.165.328-.307.666-.426 1.016 0 0 .006 0-.056.035zm7.436 13.472c-2.94 0-5.705-1.145-7.783-3.223-1.895-1.897-3.01-4.36-3.193-7.01.98.38 1.705.393 1.707.395 0 0 .184.226.55.26l-.208.184s.27.29.897.395c.357 1.44 1.102 2.763 2.18 3.84 1.56 1.562 3.64 2.422 5.85 2.422.785 0 1.557-.11 2.293-.323v-.002c.23.404.518.693.518.693s.47-.54.61-1.107c.045-.023.09-.044.14-.065.28.28.848.526.848.526s.28-.685.19-1.095c.364.275 1.007.392 1.007.392s.037-.758-.055-1.164l.066-.064c.375.117.877.12.877.12s-.037-.407-.213-.812c.05-.06.186-.217.383-.485h.002V21.1c1.04-1.41 1.604-3.104 1.604-4.886 0-.313-.018-.624-.055-.933.192-.052.32-.124.32-.124s-.338-.264-.338-.424c.27-.035.533-.114.72-.21.726.115 1.386.082 1.958-.014.086.56.13 1.128.13 1.705 0 6.07-4.938 11.007-11.008 11.007zm-5.506-5.5c1.47 1.473 3.426 2.282 5.506 2.282.38 0 .75-.03 1.113-.082 0 0 .006.015.143.225-.41.064-.83.1-1.254.1-2.146 0-4.163-.835-5.68-2.353-.9-.9-1.56-1.98-1.948-3.157.103.028.327.044.27.04.38 1.095 1.006 2.1 1.852 2.946zm7.2 2.344c.105-.09.22-.202.32-.328l.08-.022c.024.077.056.154.087.228-.16.045-.324.087-.487.12l-.003.002zm6.095-7.85c0-.278-.016-.553-.043-.824h-.01c.086-.01.168-.024.247-.043.03.284.048.573.048.864 0 1.673-.51 3.268-1.458 4.61.002 0-.072-.148-.13-.238.85-1.248 1.347-2.752 1.347-4.372zm5.988-3.284s-.912.922-3.365 1.398l-.104-.155c-.09.115-.113.16-.12.177-.86.014-1.35-.112-1.667-.147l.09.19c-.234.12-.52.174-.803.196.006.22.13.398.31.54-.236.156-.915.094-.915.094-.016.228.03.464.082.68-.15.04-.725-.04-.838-.112-.07.153.125.614.125.614-.314.017-.67-.016-.952-.134-.113.16.063.52.063.52-.315-.006-.614-.13-.89-.257-.103.083-.137.232-.143.356-.366-.19-.882-.32-1.112-.24.547.393.766.957.618 1.514 0 0-.345-.424-.466-.355.008.353-.312.52-.312.52.067.09-.122.184-.034.203.356-.22.903-.48 1.328-.07.666.147 1.126.587.326 1.088.01-.462-.266-.353-.428-.207.658.353 1.23.754 1.758 1.64-.188.047-.614.045-.627.027.235.353.48.967.492 1.17-.268-.022-.67-.083-.91-.183.06.393.135.88.12 1.278 0 0-.667-.197-1.007-.482.027.372.086.837-.08 1.182-.412-.19-.7-.42-.945-.742-.065.386-.18.743-.573 1.378 0 0-.574-.67-.68-1.39-.292.63-.69.82-.69.82-.247-.32-.386-.63-.454-1.063-.2.25-.49.508-.79.63-.113-.31-.164-.583-.14-.91-.183.107-.42.202-.67.244.004-.174.02-.353.047-.526.025-.19.065-.378.11-.563.052-.194.112-.39.184-.577.068-.18.147-.357.248-.522.093-.154.202-.3.313-.44.015-.015.028-.03.04-.05-.56-.12-.97-.51-1.017-.5-.032.006-.204.157-.173.426.06.496.09.92-.035 1.183-.053-.08-.066-.1-.104-.146.006.21-.12.586-.232.74.01-.08.027-.254.006-.342-.043.173-.14.328-.314.454 0-.11-.01-.176-.037-.255-.004.03-.094 1.02-.922 1.23-.327.082-.82.122-1.054-.01.585-.148.94-.51 1.002-.728-.574-.467.04-1.132-.167-1.29-.115-.092-.3-.485-.53-.325-.543.313.004 1.286.004 1.293-.31-.14-.55-.36-.693-.59-.116-.183-.173-.368-.155-.52-.143-.05-.238-.04-.307-.015-.23.087-.425.624-.538.99 0 0-.404-.74.133-1.51 0 0-.385-.116-.72.55-.017-.058-.038-.168-.036-.226.015-.573.497-1.01.972-1.163.052-.146.73-.756 1.23.084.1-.104.172-.16.32-.17.154-.007.312.14.37.265.087.186.16.39.24.568.054.125.214.072.237.06.166-.105.242-.505.09-.807-.01-.016-.016-.028-.023-.043-.082-.134-.246-.452-.078-.683.032-.047-.612-.337-1.194.45-.19-.55-1.105.03-1.23.05-.04-.11-.066-.195-.146-.312-.236.156-.482.27-.77.286-.008-.174-.04-.325-.113-.47-.293.122-.617.23-.938.17.005-.12.013-.292-.044-.413-.224.036-.563.09-.802-.01.03-.104.092-.254.098-.47-.382-.002-.817-.01-1.1-.253.106-.093.165-.17.245-.252-.294-.042-.58-.144-.814-.3l.09-.08c-1.193-.14-2.388-.47-3.342-1.14l.088-.128c-.04.008-.232-.01-.262-.028-.492-.29-1.904-1.75-2.066-2.19 0 0 .787.63 1.378.93-.278-.274-.41-.457-.59-.71.015-.037.044-.07.036-.125H2.14C1.65 12.97 1.066 11.91.93 11.28c.726 1.09 1.69 2.442 2.905 2.927-.294-.264-.398-.378-.627-.67.016-.03.07-.114.06-.16-.187-.042-.235-.072-.235-.072-.81-.888-1.48-2.743-1.713-4.007.708 2.666 2.96 3.8 2.96 3.8-.34-.48-.677-.944-.884-1.48l.043-.097-.094-.03c-.197-.46-.306-.96-.38-1.463C3.74 11.77 5.25 13.8 7.274 14.1c1.554.23 1.875-.78 1.912-.895.094-.278-.037-.617-.066-.68h.005c.705.062 1.063.24 1.28.456.16.168.25.343.347.517.033-.08.082-.16.148-.24-.232.026-.55-.734.402-1.482.182-.144.734-.592 1.24-.607-.01.004.363.054.49.032.125-.022.533-.232.867-.3.205-.042.77.125.824.147.004.002.006.002.004.004-.1.01-.257.04-.257.04.933.277 2.257.645 3.325 1.223.213-.97.45-1.5.883-2 .584-.683 1.266-.88 1.266-.88-.523.542-.03.77-.03.77.55.123 1.027.175 1.446.175 1.824 0 2.566-1.018 3.438-2.014.887-1.16 1.36-2.614 1.293-4.12.38.664.47 1.42.42 2.105l-.167.054c.06.06.098.078.143.116-.072.453-.195.895-.322 1.31 1.2-.815 2.762-2.5 2.664-5.006.016.063 1 1.977-.695 5.485-.074 0-.127-.018-.18-.01l.082.145-.416.676c2.47-1.56 2.924-3.853 2.924-3.853-.017 1.97-.73 3.73-2.084 5.118l-.274.002c.016.102.043.14.102.202-.305.432-.78.83-1.234 1.162.953.052 1.83-.27 2.646-.668.596-.31 1.04-.814 1.408-1.357-.24.647-.68 1.223-1.184 1.744-.036-.012-.068-.03-.113-.05.02.065.04.15.04.15-.77.69-2.054 1.283-2.94 1.585.93.263 1.857.148 2.806-.224z" fill="#A9ABAC"/><path d="M12.98 18.274h-.002c-.555-.622-.99-.28-.996-.3-.047-.244-.152-.452-.286-.628-.206-.27-.48-.466-.724-.6-.193-.107-.367-.174-.46-.206-.52-.175-2.42.185-3.782-.31h.033c-1.092-.09-1.965-.34-2.475-.52-.16-.058-.32-.12-.488-.192h-.004c.063.05.18.197.78.485 1.155.557 2.788.89 4.085.624 0 0-.103.175-.752.24l-.283.262c.55.13 1.617-.148 1.617-.148-.243.165-.446.242-.714.292l-.307.418c.517.053 1.127-.177 1.584-.445-.018.022-.205.326-.748.537-.004.004-.032.255-.055.374.073-.002.146-.01.21-.022.654-.122 1.057-.722 1.088-.764-.066.448-.663.894-.672.9l.115.35s.5-.15.683-.292c.086-.068.373-.508.436-.832 0 0 .104.44-.257.99.047.143.057.25.086.39.15.014.437-.17.476-.205.295-.246.305-1.104.315-1.136.113.377.05.8-.06 1.157.017.012.03.024.04.037.045.05.074.1.094.14.008.023.014.043.017.06 0 0 .68-.393 1-.064v-.005c.004-.236.143-.427.334-.55.03-.014.06-.03.092-.042-.007.002-.013.003-.015.002z" fill="#fff"/><path d="M24.332 12.29h-.002c.004.003.008.003.016.003l.16.008c.168.007.39.01.473.015.78.012 2.092-.022 3.227-.316.002 0 .004 0 .006-.003.363-.096.72-.223 1.024-.392l.125-.075c-.677.315-2.15.452-2.567.366-.475.114-1.326.248-2.44.392-.004 0-.008.003-.013.004h-.01zm-.482.336c1.213.695 2.844 1.05 4.305.818v.002l.016-.003c-.783-.02-1.5-.078-1.89-.264-.812-.06-1.47-.217-2.43-.555z" fill="#650038"/><path d="M6.432 15.018l-.008-.003c-.412-.087-2.03-.806-3.136-1.913.673.762 1.52 1.38 2.372 1.86.02.003.04.01.06.012l.1.01c.08.006.494.03.612.034z" fill="#A9ABAC"/><path d="M23.85 12.626c-.002 0-.004-.003-.008-.005 0 0 3.518.76 5.52-1.092-.04.026-.082.05-.124.076-.304.17-.66.296-1.024.392 0 0-.004 0-.006.002-1.113.29-2.447.328-3.227.316-.195-.002-.357-.008-.473-.013l-.16-.007-.03-.002h.004c-2.682-.144-3.86 1.13-3.92 1.2-.65.735-1.19 1.97-1.357 2.845.357-.225.74-.173 1.122.06-.134-.413-.142-1.126.204-1.646-.245 1.19.196 1.384.196 1.384.094.082.39.15.584.175-.024-.17-.03-.21.01-.355-.23-.395-.337-.98-.18-1.435-.026.356.083.92.337 1.26.125.086.21.124.574.166-.076-.168-.045-.363.023-.506-.203-.204-.55-.814-.428-1.147.05.378.305.706.566.99.19.086.41.117.63.154l-.023-.577c-.564-.383-.666-.917-.666-.917.22.276.5.538.79.745.217.083.35.088.66.058-.12-.146-.156-.318-.19-.492-.33-.12-.662-.344-.84-.664 0 0 .594.455 1.043.507.207.024.375.014.493-.05l-.147-.328c-.76-.146-1.054-.605-1.054-.605 3.227 1.315 5.357.354 5.407.33-1.46.23-3.09-.125-4.302-.82z" fill="#fff"/><path d="M20.987 12.43c.942-.715 2.235-.653 3.784-.69 1.867-.748 3.416-2.068 4.2-2.98-1.4 1.466-4.494 3.266-9.312 2.497-.072.024.334.94-.924 2.295-.03.035-.02.35.297.568-.444.94-.22 2.233-.22 2.232 0 0-.016.002-.04.01.106-.02.2-.027.26-.022h.005l.002-.002v-.006c-.065-.566.003-2.425 1.95-3.9z" fill="#A9ABAC"/><path d="M24.32 12.29h.022c.005 0 .01-.002.012-.003 2.305-.714 4.65-3.03 5.19-4.26-.034.057-.067.113-.106.172-.125.174-.28.36-.467.557-.783.913-2.332 2.233-4.197 2.98-1.55.038-2.842-.023-3.784.692-1.95 1.476-2.018 3.334-1.95 3.9v.011c0-.002 0-.005.003-.007.166-.873.707-2.11 1.357-2.845.06-.068 1.237-1.344 3.92-1.2z" fill="#D7D8D6"/><path d="M11.653 15.92c0-.005-1.07.168-2.35-1.245 0 0 .106.73 1.124 1.233-1.746-.058-2.757-.66-2.757-.66.298.332.595.465 1.104.676-.598.045-1.246-.005-1.834-.095-2.418-.376-3.736-1.33-4.307-1.87 1.367 1.436 2.45 1.75 2.715 1.877l-.006.003c-.705-.212-1.445-.38-2.088-.723.174.145.355.278.547.402.17.07.33.133.49.19.51.18 1.383.43 2.475.52 3.205.076 2.8-.15 3.75-.032.824.103.436.267 1.445.873.57.344 1.86 1.08 1.73 1.118.745.057.284-.132.284-.132.13-.333-1.405-.857-1.9-1.22-.128-.09-.22-.178-.293-.257-.172-.177-.244-.388-.126-.66z" fill="#A9ABAC"/><path d="M11.96 17.073c-1.01-.606-.622-.77-1.446-.874-.95-.12-.545.106-3.75.03H6.73c1.362.494 3.265.135 3.782.31.094.032.268.1.46.206.243.134.52.328.725.6.134.176.24.384.286.63.005.018.44-.324.996.298.002 0 .01 0 .014-.002.04-.013.156-.062.32-.083.002 0 .096-.008.12-.007.062.003.15 0 .235.008h.02c.13-.037-1.16-.775-1.73-1.12z" fill="#D7D8D6"/><path d="M19.03 14.12c-.315-.22-.325-.534-.296-.57 1.258-1.353.852-2.27.924-2.294 4.817.77 7.91-1.03 9.313-2.498.188-.195.344-.383.47-.56.04-.058.07-.114.106-.17.25-.4.432-.734.623-1.322-1.448 2.698-3.743 3.244-5.253 3.604 0 0 .46-.25 1.068-.722 1.14-.886 2.803-2.552 2.94-4.828-.474 2.372-4.647 6.755-9.46 5.8 0 0-1.062.4-1.43 2.27.518 1.01-.01 1.45-.01 1.45.175-.353-.075-1.175-.818-1.432-.01-.002-.013-.01-.02-.012.015.036.25.48.01.69-.002.004-.334-.388-.778-.422.01.016.132.212.115.365-.415-.024-.794.002-1.126.234-.794.553-.35 1.08-.05 1.323l.02.016c.1.08.184.127.184.127-.41.34-.875.224-.87.205-.013.08.067.215.228.364.01.007-.438.126-.9-.05-.12.303.35.63.33.63-.24.004-.864-.037-.95-.22-.34.337 0 1.045 0 1.045-.332-.1-.57-.214-.704-.31-.388-.273-.194-.726-.188-.744 0 0-.04.013-.093.05-.08.05-.188.14-.24.256-.288-.285-.1-.64-.015-.718l-.08.002c-.463.01-.832-.155-.977-.263-.438-.332-.594-.983-.463-1.434-.69.182-.33-.723-.854-.622l-.006.01c-.063.08-.535.864-1.417 1.07-.02.006-.036.01-.054.012l-.03.006c-.036.008-.075.014-.11.02-1.99.25-3.893-.654-5.65-2.454.2.375.44.74.756 1.06.005.004.008.01.015.014 1.105 1.107 2.725 1.826 3.137 1.913.006 0 .01.004.014.004h-.005c-.12-.002-.534-.026-.614-.034l-.1-.01c-.935-.096-2.362-.42-3.437-1.393-.002-.003.107.15.352.38.57.538 1.89 1.494 4.307 1.868.59.09 1.237.14 1.835.095-.51-.21-.807-.344-1.104-.676 0 0 1.012.603 2.758.66-1.017-.502-1.124-1.233-1.124-1.233 1.28 1.414 2.352 1.24 2.35 1.247-.117.272-.045.483.13.66l.044.04c.352.312 1.05.532 1.61.74 1.353.51 1.433.487 1.622 1.032-.007-.02-.064-.017-.144.005-.283.077-.893.407-.74 1 .213.82-.105 1.122-.137 1.11.42.15.518.564.463 1.168.145-.274.158-.563.09-.894 0 0 .13.085.2.553.062-.472-.04-.773-.124-1.018.09.082.2.195.292.482-.016-.595-.317-1.053.32-1.27.016-.007.655.54 1.35.653l-.003.003.01-.008c-.572.49-.63 1.405-.613 1.4.055-.005.384-.13.592-.26-.054.31-.06.757-.018.853.158-.034.553-.387.676-.583-.033.126-.07.744.26 1.093.28-.145.453-.595.512-1.003.096.33.197.885.617 1.162.244-.4.23-1.274.23-1.274.18.404.25.536.74.854.07-.45.085-.757.01-1.104 0 0 .306.492.985.74.027-.5-.115-.91-.262-1.276 0 0 .27.215.64.286-.026-.386-.41-.814-.41-.814.103.063.394.11.6.122-.116-.3-.417-.74-1.026-1.025-.1-.048-.21-.09-.328-.127-.195-.052-.443-.136-.568-.025-.057.076-.025.16.298.442.27.05.632.24.52.597-.23.695.415 1.366.415 1.366-.207-.038-.406-.125-.585-.23l-.067-.046c-.28-.188-.486-.426-.53-.596-.415-.31-.583-.593-.638-1.093-.108.104-.085.256-.146.383-.113.244-.398.42-.658.163-.395.18.31.75.31.75-1.292.013-.98-.95-.942-1.135.107-.417.19-.583.627-.77-.09-.107-.055-.49.383-.605.037.07.14.142.188.15-.857-1.857.105-2.17.324-2.215.025-.007.043-.01.043-.01-.005.008-.23-1.284.215-2.226z" fill="#650038"/><path d="M18.887 16.778c-.152.13-.19.54-.133.988-.01-.074.03-.675.15-.72.28-.104.87.234 1.113.852l.004.005c-.11-.786-.88-1.344-1.132-1.125z" fill="#fff"/><path d="M20.434 19.184c.145-.165.574-.298.598.2l.003-.005c.022-.054.25-.558-.463-.64v-.005c-.01.017-.026.03-.056.042-.424.207-.082.406-.082.406z" fill="#D7D8D6"/><path d="M11.563 20.153c.197.038.307.385.172.523 0 0 .05 0 .112.068.042-.225.1-.37.202-.52-.276-.17-.5-.073-.488-.07zm.37-.11c.01.003.11.028.17.083.127-.176.345-.324.344-.332-.24-.223-.353-.582-.835-.356 0 0 .843.295.322.606zm2.23.655c-.314.11-.226-.07-.325-.058-.428.16-.594-.888-.89-1.012-.237-.092-.355.11-.353.108 0 0 .676-.08.47.745 0-.004.263.19.308.505.174.11.155.22.12.41.108-.037.112-.016.165-.03-.104.14-.584.54-.12.842.337-.26.47-.152.513.043.11-.19.215-.498.123-.875-.074-.32-.36-.45-.443-.51.144.02.374.126.46.228 0-.062.012-.12.14-.127-.03-.13-.07-.207-.168-.268z" fill="#A9ABAC"/><path d="M17.977 20.102c.016.017.18-.33.117-.48-.135.02-.32.103-.47.2-.387.68.218.93.226.938-.262-.25-.252-.372-.26-.548.056-.274.29-.206.387-.11z" fill="#D7D8D6"/><path d="M12.31 20.538c.185-.17.49-.22.49-.22.07-.168.1-.252.036-.39l-.035-.03s-.035-.005-.09.01c-.08.02-.193.07-.32.197-.014.015.03-.097.303-.267.01-.007-.008-.008-.023-.008h-.028c-.478.226-1.06 1.02-.31 1.82-.232-.342-.25-.9-.023-1.112z" fill="#fff"/><path d="M11.436 20.217c.05.017.094.047.136.086-.05.015-.093.035-.134.06-.392.244-.43.963-.447 1.17 0-.022-.002-.053-.006-.085 0 .067.005.12.005.15 0 0 .11-.81.54-.853.32-.13.116-.453-.093-.528z" fill="#D7D8D6"/><path d="M13.787 22.215c.018 0 .038.002.057.01-.158.28-.33.613-.877.76-.063.014-.13.028-.2.038.212.004.382-.016.52-.052.42-.11.546-.37.664-.584-.04-.136-.1-.173-.162-.17z" fill="#fff"/><path d="M12.918 20.025c-.012-.02-.023-.036-.04-.055-.005-.008-.032-.033-.042-.042.063.138.035.222-.037.39 0 0-.307.05-.49.22-.23.21-.21.77.02 1.114l.005.007c.04.04.084.084.133.126l-.005-.007c-.24-.344-.256-.908-.027-1.12l.037-.03c.185-.146.45-.188.45-.188.01-.016.015-.03.02-.044.01-.026.017-.05.022-.074.03-.13.004-.22-.05-.3z" fill="#D7D8D6"/><path d="M11.348 19.928c.21-.012.404.026.507.068h-.005s.004 0 .005.002h.003c.305-.132.03-.312-.148-.395-.082-.003-.248-.032-.633.193.004 0 .14-.16.406-.258-.183.037-.373.146-.447.188-.123.07-.256.192-.348.3-.068.08-.125.173-.162.272-.023.065-.043.132-.053.2-.006.037-.008.074-.012.11v.01l.023-.045c.13-.24.448-.63.866-.645z" fill="#fff"/><path d="M11.262 20.183c.004 0 .115-.195.588-.187h.004c-.102-.042-.295-.08-.506-.068-.418.015-.734.405-.865.647-.008.015-.016.03-.02.044-.002 0 .356-.497.8-.438z" fill="#D7D8D6"/><path d="M11.438 20.36c.04-.024.084-.044.134-.058-.042-.04-.087-.07-.136-.086l-.023.02c-.008.006-.014.012-.02.02-.458.398-.427.923-.41 1.19.005.033.006.064.01.087.015-.208.053-.927.445-1.172z" fill="#fff"/><path d="M18.9 17.728c-.072.076-.135.165-.172.255-.328-.698.025-1.25.025-1.25-.057-.032-.262 0-.354.274-.053.144-.07.276-.07.427.004.295.17.572.24.857.03.14.07.273.103.408 0 .008.012.033.02.063.005.035.003.065-.007.083-.246-.052-.363-.158-.46-.242-.225-.02-.304.328-.18.394.1.01.317 0 .427.063-.406.06-.79.183-.99.558.14-.103.47-.208.617-.13.15.076.183.395-.067.687.457-.046.47-.496.395-.726 0 0 .072.043.084.092.05-.11.164-.272.28-.276-.04.105.1 1.076.65 1.33.317.087.51-.18.425-.435-.098-.337-.496-.41-.684-.358.018-.026.154-.076.188-.074 0 0-.523-.452-.227-.74.14-.137.387.11.572.076-.02-.027-.037-.073-.014-.115.138.15.41.24.6.26-.44-.37.376-.43.077-.69-.41-.197-.916.035-1.334.25-.017-.127.145-.256.137-.343-.052.03-.08.063-.167.063.234-.207.416-.507.414-.82-.048-.352-.355-.2-.527.063z" fill="#A9ABAC"/><path d="M18.904 17.048c-.12.044-.16.645-.15.72.098-.23.242-.358.46-.423.32-.095.59.238.812.57-.002-.006-.006-.01-.008-.017-.243-.617-.832-.956-1.114-.85zm.686 3.672c.125.267.44.54.62.686-.307-.36-.362-.5-.366-.795 0-.007-.092.124-.254.11z" fill="#D7D8D6"/><path d="M21.034 19.38v.003c.462-.54-.1-.714-.456-.8.012.024.027.076.012.124v.002c-.006.005-.01.013-.014.02 0 .002-.002.003-.004.005v.005c.71.083.485.587.462.64zm-3.41.44c.15-.096.335-.178.47-.2l.004-.002c-.014-.037-.04-.064-.082-.07-.128-.025-.382.08-.576.203l-.006.037c-.016.08-.042.165-.06.254-.05.25-.034.52.43.703.017.006.03.01.046.018-.008-.007-.613-.257-.227-.94zm1.966.9c-.012-.003-.02-.003-.025-.003-.02-.002-.027-.002-.077-.025.14.322.546.635.724.714-.18-.146-.497-.42-.622-.686z" fill="#fff"/><path d="M5.404 13.845c.752.368 1.09.432 1.908.53-1.475-.39-2.324-.88-3.473-2.44.47 1.132 1.425 1.842 1.563 1.91z" fill="#650038"/><path d="M11.976 13.946c.245-.02.763-.15.772.043.008 0 .053-.157.26-.23.066-.13.125-.186.22-.24.327-.203.86-.3 1.208-.085.006.14-.068.317-.102.373-.06.098-.135.186-.22.263-.132.12-.336.2-.43.35-.144.233-.176.514-.376.713-.182.18-.383.232-.712.282.333-.466.384-1.048.394-1.164.01-.106.018-.244-.002-.35-.445.395-.152.635-.21.92-.11.513-.4.675-.345.68.412.02.633.05 1.338-.518.15-.122.218-.31.297-.484.08-.182.158-.357.264-.525.093-.146.286-.37.355-.45.205-.25.145-.57.145-.57-.142.33-.663.326-.79.297-.284-.066 0-.102-.322-.088-.135.005-.883.046-1.137.402.02-.156.125-.305.22-.364-.24.08-.407.288-.53.52.006-.203.154-.487.34-.595-.408.026-.44-.187-.736-.15-.027.004-.06-.014-.102-.03-.02.01-.04.022-.062.038-.143.115-.282.372-.336.55l-.01.036c.068.004.2.04.177.157h-.003l-.043.01h.008c.412.027.074.248.476.208zm-.322-.63s0-.002.002-.002c.006 0 .007 0 .01-.002.11-.024.22.03.26.094.094.143-.076.22-.076.22-.03.015-.03.006-.03 0 .065-.17.002-.238-.202-.293.007-.01.02-.016.036-.018z" fill="#A9ABAC"/><path d="M11.82 13.627c.042-.023.083-.056.093-.104v-.044l-.01-.026c0-.002 0-.005-.003-.007-.006-.012-.012-.025-.02-.038-.042-.056-.134-.1-.226-.096-.016.002-.03.007-.037.018.204.055.268.122.202.294z" fill="#001641"/><path d="M13.842 13.536c-.28.038-.412.16-.436.187-.077.088-.422.38-.22 1.148.28-.92 1.343-1.167 1.015-1.32 0 0-.08-.022-.13-.024-.183.03-.51.3-.774.69 0 0 .13-.472.547-.68z" fill="#650038"/><path d="M11.976 13.946c-.4.04-.063-.182-.476-.21-.518.71-.19 1.442.205 1.504.03.004-.193-.76.283-1.04.27-.16.483-.178.514-.18.074-.02.156-.032.246-.03-.01-.193-.527-.065-.772-.044zm-.614-.376l.01-.036c.053-.18.192-.436.335-.55.022-.018.043-.03.063-.038-.01-.006-.06-.023-.064-.024-.01-.003-.04-.007-.042-.007-.015-.002-.026-.002-.04 0-.002 0-.037.005-.052.01-.026.01-.054.025-.08.048-.005.002-.01.007-.013.01-.014.008-.023.02-.034.03-.177.17-.38.538-.31.69.002.002.115-.054.248-.047.125.03.146.066.15.07h.003c.023-.118-.108-.153-.176-.157zm.098-1.15v-.002c-.005.03-.103.325.048.398l.016.006.02.01c-.09-.122-.097-.21-.083-.412zm-.31.576c-.168-.267.154-.785.693-1.172.037-.026.076-.05.11-.076.226-.124.397-.19.5-.22-.144.07-.25.186-.232.282 0 0 .1-.195.616-.255.56.015 1.1-.325 1.242-.202-1.143.34-1.53.576-1.507.78 0 .023.008.045.02.064.06.114.1.263.1.398v.007c.008.207-.082.293-.19.34l-.01.006-.056.017c-.018.005.22.03.342-.158-.008.083-.098.208-.176.212.017 0 .034-.004.052-.01.133-.04.2-.222.193-.305-.047-.528.182-.775.38-.865-.003 0-.003.002-.003.002h.004c-.066.092-.094.234-.027.347.082-.323.34-.447.527-.494.113-.027.2-.026.213-.023-.07.02-.15.054-.226.1h-.002c.73-.06 1.145.313 1.22.43-.618-.362-1.13-.352-1.37-.15-.002.003.307-.06.498.03h.008-.004.002c-.047.003-.168.004-.293.032-.16.036-.327.12-.354.313-.016.108-.01.225-.03.332.222-.712 1.05-.468 1.056-.467-.426.012-.747.104-.835.49.19-.282.566-.314.725-.258-.006-.004-.416.105-.346.312.013.035.017.058.323.082.092.01.186 0 .27-.023l.087-.022c.01-.003.017-.006.022-.01.02-.008.04-.015.064-.022l.02-.006.03-.006.028-.004c.037-.008.078-.012.102-.007.318.54-.633 1.182-.666 1.672-.023.332-.368.635-.738.86-.842.518-1.117 1.22-.424 1.55-.28-.213-.348-.644.014-1.075.002-.002-.07.14-.008.23 0 0 .143-.15.28-.212h.003c.012-.012.078.162.505.252-.534-.227-.31-.567-.313-.546-.006.02-.04.145.096.27.01.006.05-.255.17-.34h.005c.02-.007.276.15.664.11h-.01c-.48-.05-.47-.284-.463-.276.116.134.22.113.216.102-.02-.082-.002-.24.1-.307 0 0 .354.133.615.077.05-.01.124-.042.12-.043-.56.02-.6-.315-.59-.506.02-.554.29-.974.71-1.25.103-.07.376-.183.63-.202.113-.01.225 0 .31.04-.07-.213-.355-.303-.514-.326-.13.036-.254.095-.354.186.14-.334.488-.473.68-.482-.05-.512-1.68-1.26-2.053-1.422.023.01.056.02.095.032-.04-.015-.074-.026-.104-.035-.106-.05-.41.154-.69.223-.213.05-.455.073-.71 0-.01-.002-.024-.003-.046.005-.754.222-1.115.736-1.146.77-.003-.004-.003-.012-.003-.02-.003-.04.003-.112.01-.143-.077.077-.144.18-.196.29-.1.217-.135.473-.045.654.02.02.04.03.064.035zm.932-1.093c-.004.004-.008.006-.01.01-.003.002-.008.005-.012.01-.293.237-.37.57-.37.662 0 .075.03.135.085.185l.01.01.027.02c.002 0 .004.003.007.005l.044.03-.002-.005v.002c-.232-.453.186-.895.22-.93zm.12.365c-.157.13-.177.418-.153.51.004.04.02.075.05.104.044.003.085.004.124.005-.143-.154-.13-.442-.022-.62z" fill="#fff"/><path d="M12.002 15.528c-.063-.09-.102-.21-.13-.31-.034-.113-.046-.253-.042-.37.008-.34.208-.657.525-.764h-.002c.05-.026.098-.05.152-.063H12.5c-.03.003-.243.02-.513.18-.477.28-.254 1.045-.283 1.04-.395-.06-.723-.794-.205-1.502h-.01c-.176-.014-.29.04-.355.095-.192.16-.314.958.113 1.41.14.15.494.275.752.286zm1.365-2.696v.003l-.002.03c.006.167.24.038.52.096.48.098.626-.01.786-.083-.025.008-.055.015-.084.022-.086.02-.18.03-.27.02-.308-.023-.312-.046-.325-.082-.07-.206.34-.315.347-.312-.158-.057-.533-.024-.724.257.088-.386.41-.478.835-.49-.006 0-.834-.244-1.057.468l-.01.027v.003l-.003.007c-.002.01-.006.02-.01.03v.005zm-.252 3.225c-.063-.088.01-.23.008-.228-.36.43-.295.86-.014 1.074l.006.01.004.002c-.044-.063-.09-.213-.07-.403V16.5l.01-.06c0-.006.003-.012.005-.02.002-.02.008-.04.015-.06 0-.005.003-.01.005-.016.006-.024.014-.046.023-.07 0 0 0-.003.002-.004.05-.137.14-.28.285-.426-.137.064-.28.213-.28.213zm1.153-.64c.004.01-.1.03-.215-.103-.008-.008-.018.225.463.275h.014c-.162-.1-.18-.36-.162-.478v-.003c-.102.066-.12.224-.1.305zm1.582-2.23c-.252.02-.527.13-.63.2-.417.277-.688.697-.708 1.25-.008.19.03.526.592.508.002 0-.105-.077-.157-.12-.063-.05-.122-.103-.165-.17-.307-.475.016-1.1.436-1.374 0 0 0 .004-.002.004-.03.06-.03.117-.035.137.004 0 .006 0 .008-.004.33-.385.978-.39.978-.39-.09-.04-.2-.05-.315-.04zm-2.162 2.633c-.135-.125-.102-.25-.098-.27.004-.02-.22.32.313.547 0 0-.005-.002-.003-.002-.213-.175-.08-.547-.043-.615-.12.085-.16.346-.17.34z" fill="#D7D8D6"/><path d="M12.934 13.004h.014c.014.002.027.002.043 0 .135-.015.234-.135.22-.27v-.01c-.005.007-.01.013-.02.02-.013.01-.03.012-.047.006l-.01.012c-.005.003-.01.005-.015.005.006.084-.057.146-.13.165-.01.002-.03.003-.046 0 0 0-.017.016-.015.016-.02.02-.023.02-.053.042.016.007.035.012.053.014h.01zm.186-.35c.02-.014.044-.015.062-.004-.018-.035-.045-.064-.074-.087-.008.042-.012.084-.02.124.006.01.012.018.016.027h.002c-.008-.02-.002-.045.015-.06z" fill="#650038"/><path d="M13.204 12.42l.003-.002-.008-.008-.03-.03c-.003-.006-.036-.03-.013-.07 0 .002-.017.007-.02.01-.017.01-.032.02-.046.035-.046.044-.06.11-.063.172.006 0 .03.01.042.017.014.006.025.013.037.02.01-.052.034-.103.096-.145zm-.404.57c-.013.012-.028.023-.048.034-.012.01-.023.017-.037.024.004 0 .035.012.04.014.03-.013.1-.058.118-.073l-.04-.02h-.005l-.027.02z" fill="#A9ABAC"/><path d="M13.223 12.92c.115-.144.072-.388-.02-.5-.062.04-.084.092-.096.144.03.022.057.052.074.087-.016-.01-.04-.01-.06.006-.017.015-.022.04-.015.06h-.002l-.004.002c-.015.012-.015.028-.007.04.006.008.016.01.023.01.004 0 .01 0 .016-.004l.01-.012c.017.007.034.004.048-.006.007-.006.014-.012.018-.02l.002.012c.014.134-.086.256-.22.27h-.056l-.008-.002c-.035-.005-.053-.014-.053-.014-.02.016-.087.06-.118.073.16.042.393-.042.47-.142zm-1.343.49c.01.013.015.026.02.038.003.002.003.005.003.007.003.01.006.017.01.024v.042c-.01.05-.05.08-.094.104 0 .005 0 .014.03 0 0 0 .17-.078.074-.22-.04-.064-.15-.12-.26-.095-.003 0-.004.003-.01.003h-.002c.093-.004.185.04.226.096z" fill="#fff"/><path d="M15.976 12.603c-.192.01-.542.148-.68.482.1-.09.224-.15.353-.186.287-.08.602-.055.73-.03.215.05.447.136.68.28-.19-.262-.686-.41-.948-.442.026-.022.062-.037.1-.047.192-.264-.187-.49-.554-.734l.083.04c-.655-.354-1.41-.646-1.724-.755l-.096-.03c.373.162 2.002.91 2.054 1.422z" fill="#D7D8D6"/><path d="M11.83 14.85c-.004.116.008.256.04.37.03.1.07.22.132.31 0 0 .086.003.127-.003-.08-.09-.13-.233-.164-.35-.033-.113-.043-.25-.04-.37.005-.21.087-.4.218-.548.06-.07.13-.13.21-.175-.317.105-.517.422-.525.763zm.945-2.042c-.123.188-.36.163-.342.158.018-.004.037-.01.057-.017.002-.004.006-.005.01-.007.107-.048.196-.137.19-.343-.003.003 0-.002 0-.004-.097.224-.224.29-.466.29l-.124-.006.01.007c.002 0 .003.003.005.004.016.01.038.02.063.03.098.046.26.1.414.1h.008c.078-.003.168-.13.175-.21zm-1.593.194c-.01 0-.02-.003-.03-.006-.024-.007-.046-.017-.064-.038-.002-.002.053.12.168.175.002 0 .006.003.004 0h.002c.074-.153.15-.2.15-.2l-.018-.015c-.105.064-.162.086-.21.084h-.002z" fill="#A9ABAC"/><path d="M12.225 12.886c.242 0 .37-.065.465-.29 0-.135-.04-.283-.1-.397-.012-.023-.018-.043-.02-.066-.02-.204.365-.44 1.508-.78-.143-.123-.682.217-1.242.202-.517.06-.614.255-.614.255-.02-.096.09-.21.233-.28-.104.027-.275.095-.5.22l-.11.075c-.54.387-.862.905-.694 1.172.01.003.023.005.033.006h.002c.05.002.105-.02.21-.083-.18-.06-.022-.37.067-.504v.006c-.013.202-.007.29.082.41-.07-.166.093-.693.542-.93l-.002.003c-.033.033-.45.476-.22.93v-.004c0-.03-.012-.34.34-.56-.108.176-.12.464.023.617z" fill="#D7D8D6"/><path d="M14.785 12.836c-.002 0-.006 0-.007.002-.005 0-.013.003-.02.006l-.065.023-.02.01c-.16.072-.308.18-.786.084-.28-.056-.516.073-.52-.094v-.038c-.017.04-.034.072-.06.104-.006.008-.012.016-.02.022-.02.02-.043.043-.07.063l-.013.008-.02.01c-.075.046-.165.075-.26.102.036.028.103.03.175.02.04-.006.086-.017.136-.03.108-.026.23-.065.353-.086.077-.015.15-.02.22-.016.02 0 .04.004.06.01.024.006.05.01.07.016h.01c.106.022.214.03.29.033.316.006.372-.138.502-.216.036-.02.074-.037.127-.043-.013 0-.024.002-.034.005-.01 0-.017 0-.027.003-.008 0-.018 0-.026.002zm-2.45 2.846c-.08.065-.2.228-.157.43.002.004.18-.188.473-.243.094-.11.15-.17.23-.227 0 0-.29.044-.545.038zm3.878-3.02l.017-.004c.077-.02.153-.012.23 0 .052.01.177.04.31.098l.02.007c-.012-.02-.03-.042-.045-.062-.006-.004-.01-.012-.016-.02-.047-.052-.096-.1-.148-.15l-.037-.034c-.22-.19-.516-.382-.803-.527l-.084-.04c.365.243.744.47.553.734z" fill="#A9ABAC"/><path d="M13.844 22.226c-.02-.01-.04-.012-.057-.01h-.02l-.013.003h-.007c-.078.02-.156.08-.22.09 0 0 .007 0-.032.074l-.004.013c-.05.11-.127.214-.215.305-.004.003-.01.007-.01.01h-.003c-.088.093-.2.183-.342.248-.058.03-.115.052-.168.064h.014c.072-.01.14-.024.2-.04.55-.146.722-.478.88-.758z" fill="#D7D8D6"/><path d="M10.807 20.577c-.26.22-.385.526-.42.63.098.11.2.22.308.326l.034.033c-.065-.258-.073-.59.076-.99zm2.375 1.715c-.262-.233-.29-.39-.254-.602.043-.263.18-.402.068-.64-.11-.238-.25-.15-.25-.15-.416.393.178 1.276.178 1.276s-.948-.05-1.28-1.03c-.08-.242-.374.406-.526.776.433.372.904.69 1.404.95.3-.096.654-.276.66-.58zm-2.03-2.896s-.02-.086-.053-.185c-.246.215-.948.284-.948.284s.024-.286-.023-.413c-.35.18-.93.11-1.027.098.3.71.713 1.37 1.227 1.964-.117-.304-.363-1.237.823-1.744zm4.648 3.6c-.15.067-.735.19-.735.19s.023-1.085.36-2.008c.075-.208.284-.664.437-.837-.315-.11-.39-.217-.535-.317-.023.043-.06.16-.05.25.05.443.04 1.062-.192 1.56l-.088-.216c-.05.207-.223.606-.48.86l.04-.314c-.067.066-.106.124-.15.153 0 0-.17.666-.917.892-.035.01-.082.024-.135.037.805.298 1.664.456 2.547.46-.07-.2-.148-.5-.103-.708zM11.15 11.61c.076-.062.83-.642 1.428-.662 0 0 .39.024.45.014.028-.006.503-.308.946-.31.232-.002.953.228 1.033.344 0 0 1.346.21 2.582.765.174-.64.615-1.447 1.03-1.806.175-.153.345-.272.503-.366-.982-.47-2.066-.717-3.188-.717-1.98 0-3.842.77-5.243 2.175-.413.41-.77.864-1.07 1.348.28.052.593.163.88.395-.065-.284.128-.768.647-1.177zm11.46 4.403c-.06.194.23.57.23.57s-.57.127-1.052-.07c-.05.14.23.495.23.495s-.86-.022-1.23-.265c-.07.113-.03.527-.03.527s-.516-.327-.722-.355c.36.388.292.675.212 1.16 0 0 .342.1.453.2.428.038.793.243.874.532.032.117.046.4-.32.687.425.277.716.56.917.805.747-1.16 1.183-2.536 1.183-4.013 0-.063-.002-.124-.004-.187-.17.018-.454.02-.74-.087zm-3.997 9.36l.082.274.16-.047.043.148c.012.042.006.077-.016.106-.025.028-.062.052-.117.067-.11.033-.18.01-.203-.072l-.2-.676c-.022-.083.022-.142.136-.175.05-.015.096-.017.13-.006s.062.038.075.08l.023.086.643-.187c-.037-.117-.075-.196-.12-.236-.055-.05-.126-.084-.21-.102-.037-.006-.076-.01-.113-.01-.102.142-.178.232-.178.232s-.077-.076-.18-.2c-.05.01-.106.022-.163.04-.208.06-.365.133-.473.217-.107.085-.173.19-.195.317-.02.127-.007.283.05.472.045.154.092.275.14.363.05.087.11.15.18.194s.16.062.267.06c.104-.004.236-.028.396-.075.098-.027.18-.06.25-.1.068-.036.133-.083.19-.14l.114.05.328-.096-.24-.82-.803.24zm3.577-1.263l-.187-.232.51-.403-.207-.26-.506.404-.168-.21.613-.486-.195-.248-.5.396c.002.242-.006.434-.006.434s-.182-.033-.408-.105l-.22.18.954 1.205 1.168-.93-.203-.257-.644.51z" fill="#fff"/><path d="M20.78 10.114c.136.01.267.013.394.014-.307-.264-.63-.503-.967-.715-.064.06-.12.133-.154.195.248.157.492.32.726.506zm-3.727 13.808c-.365.053-.736.082-1.115.082-2.08 0-4.037-.81-5.506-2.28-.846-.847-1.47-1.852-1.854-2.947-.102-.01-.193-.024-.266-.038.387 1.174 1.045 2.252 1.946 3.153 1.517 1.518 3.534 2.352 5.68 2.352.424 0 .84-.033 1.25-.097l-.135-.228z" fill="#650038"/></svg>