<?xml version="1.0" encoding="utf-8"?>
<!-- Generator: Adobe Illustrator 15.0.0, SVG Export Plug-In . SVG Version: 6.00 Build 0)  -->
<!DOCTYPE svg PUBLIC "-//W3C//DTD SVG 1.1//EN" "http://www.w3.org/Graphics/SVG/1.1/DTD/svg11.dtd">
<svg version="1.1" id="Layer_1" xmlns="http://www.w3.org/2000/svg" xmlns:xlink="http://www.w3.org/1999/xlink" x="0px" y="0px"
	 width="30.658px" height="23.411px" viewBox="0 0 30.658 23.411" enable-background="new 0 0 30.658 23.411" xml:space="preserve">
<path fill="#FFFFFF" d="M29.271,13.924c-0.014-0.01-0.303-0.189-0.887-0.522l-0.006-0.004l0.006,0.002l-1.074-0.599
	c-0.459-0.25-0.949-0.512-1.457-0.774l-0.859-0.44l-0.01-0.006c0.443-1.23,0.675-2.514,0.675-3.814V7.52l-0.14-0.204
	c-0.101-0.146-2.16-3.05-6.934-3.99c0.41-0.06,1.12-0.076,1.758-0.034l0.244,0.016l0.21-0.124L25.287,0
	c-0.58,0.103-3.933,0.588-4.45,0.658c-0.47,0.064-0.91,0.112-1.316,0.147c-0.609,0.052-1.129,0.07-1.543,0.052l-0.11-0.007
	c-0.907,0-2.103-0.61-2.103-0.61l0.36,1.375c0,0,0.082,0.326,0.16,0.647c-0.16,0.035-0.32,0.07-0.476,0.107
	c-0.404,0.096-0.8,0.202-1.174,0.32c-0.365,0.11-0.72,0.234-1.057,0.362c-0.107,0.043-0.215,0.085-0.318,0.13
	c-0.115,0.015-0.23,0.03-0.342,0.05c-0.71-0.733-1.415-1.267-2.095-1.584L9.435,1.003l0.277,1.505c0,0.01,0.132,0.73,0.187,1.562
	C6.9,5.302,5.553,7.198,5.473,7.315l-0.14,0.203v0.246c0,0.48,0.032,0.958,0.093,1.432c-2.363,1.1-5.428,2.534-5.428,2.534v0.064
	l1.523-0.138c0.15,0,0.98-0.04,1.34-0.04c0.67,0,1.244-0.002,1.953,0.044c0.426,0.026,0.855,0.082,1.28,0.14
	c0.448,1.164,1.088,2.281,1.915,3.32c1.243,1.563,2.86,2.891,4.742,3.91H8.037v0.387h14.778v-0.385h-4.578
	c0.959-0.521,1.852-1.121,2.66-1.791c0.653-0.42,1.268-0.812,1.377-0.88c0.379-0.006,0.763-0.021,1.14-0.04
	c0.707-0.039,1.417-0.109,2.112-0.201c0.002-0.002,0.244-0.035,0.244-0.035c0.615-0.09,1.217-0.201,1.787-0.326
	c0.973-0.215,1.53-0.408,1.551-0.416l1.55-0.541l-1.388-0.873V13.924z"/>
<path fill="#008BC0" d="M15.89,5.308c-0.084,0.104-0.16,0.205-0.226,0.305c-0.092,0.142-0.164,0.28-0.213,0.41
	c-0.047,0.123-0.074,0.24-0.077,0.35c-0.002,0.015-0.002,0.03-0.002,0.045c0,0.025,0.006,0.05,0.008,0.074
	c0.193,0.316,0.336,0.568,0.414,0.708c0.105,0.095,0.219,0.188,0.355,0.28c0.258,0.172,0.576,0.337,0.947,0.49l1.286,0.544
	l1.246,0.54l1.195,0.536l1.14,0.524l0.297,0.14c0.166-0.7,0.258-1.383,0.258-1.994c0,0-2.262-2.795-6.625-2.952H15.89z
	 M16.233,17.124l0.386-1.096c-0.106,0.032-2.746,0.46-2.746,0.46l1.123-1.12c-0.16-0.053-0.324-0.103-0.48-0.158
	c-0.502-0.178-0.986-0.373-1.443-0.59c-0.47-0.22-0.92-0.461-1.338-0.72c-0.37-0.228-0.74-0.437-1.104-0.628
	c-0.327-0.17-0.66-0.33-0.986-0.475c0.308,0.631,0.662,1.215,1.05,1.703c1.194,1.5,2.85,2.625,4.8,3.431
	c1.061-0.438,2.029-0.97,2.887-1.604l-2.15,0.801L16.233,17.124z"/>
<path fill="#231F20" d="M7.68,19.405c0-0.449-0.568-0.646-1.412-0.646H3.02c-0.726,0-1.362,0.205-1.362,0.707v0.511
	c0,0.431,0.637,0.646,1.352,0.646H6.2v0.58H1.657c0,0.42,0.695,0.637,1.412,0.637h3.177c0.854,0,1.432-0.205,1.432-0.646v-0.606
	c0-0.422-0.706-0.607-1.423-0.607h-3.08v-0.57H7.68V19.405z M10.72,20.058h-0.073v0.71h-1.75v-0.71h-0.09
	c-0.42,0-0.77,0.151-0.77,0.362v1.045c0,0.222,0.35,0.369,0.765,0.369h0.096v-0.697h1.742v0.697h0.078
	c0.432,0,0.782-0.113,0.782-0.371v-1.029c0-0.244-0.31-0.374-0.78-0.374V20.058z M11.848,20.45v1.383h0.05
	c0.216,0,0.438-0.035,0.58-0.097c0.157-0.069,0.23-0.151,0.23-0.323v-0.277h1.74v1.863c0,0.176,0.07,0.275,0.222,0.34
	c0.147,0.056,0.363,0.072,0.568,0.072h0.084v-3.35h-2.7c-0.412,0-0.774,0.12-0.774,0.391V20.45z M12.708,20.432h1.74v0.33h-1.74
	V20.432z M19.133,20.767v-0.335c0-0.243-0.313-0.374-0.782-0.374h-2.683v3.354h0.084c0.207,0,0.41-0.019,0.558-0.074
	c0.149-0.063,0.219-0.164,0.219-0.34v-2.565h1.746v0.33h-1.34l1.23,1.075h1.046l-0.823-0.696c0.475-0.019,0.742-0.149,0.742-0.375
	H19.133z M22.429,20.057h-0.955l-1.123,0.783v-0.779h-0.859v1.773h0.08c0.414,0,0.779-0.086,0.779-0.34v-0.479l1.09,0.643
	c0.17,0.079,0.297,0.176,0.721,0.176h0.658l-1.565-0.94l1.177-0.834L22.429,20.057z M27.688,19.975h-3.08v-0.57h4.502
	c0-0.449-0.568-0.646-1.412-0.646h-3.246c-0.727,0-1.363,0.205-1.363,0.707v0.51c0,0.43,0.637,0.645,1.352,0.645h3.188v0.58h-4.54
	c0,0.42,0.697,0.637,1.413,0.637h3.181c0.85,0,1.43-0.205,1.43-0.646v-0.606c-0.004-0.424-0.711-0.61-1.426-0.61L27.688,19.975z"/>
<path d="M14.63,6.812c-0.042-0.16-0.058-0.322-0.048-0.482c0.01-0.197,0.057-0.395,0.13-0.59c0.073-0.19,0.17-0.376,0.29-0.56
	c0.12-0.18,0.256-0.356,0.406-0.526c0.148-0.168,0.31-0.33,0.479-0.486c0.166-0.153,0.34-0.3,0.518-0.44
	c0.175-0.137,0.35-0.27,0.525-0.392c0.342-0.24,0.676-0.45,0.969-0.626c0.567-0.336,2.496-0.21,2.496-0.21l2.233-1.324
	c-0.62,0.11-1.185,0.198-1.688,0.266c-0.512,0.07-0.959,0.118-1.356,0.152c-0.798,0.068-1.37,0.07-1.771,0.046
	c-0.804-0.05-0.926-0.215-0.926-0.215l0.357,1.45c-0.443,0.08-0.86,0.168-1.256,0.264c-0.398,0.094-0.773,0.197-1.125,0.305
	c-0.357,0.11-0.69,0.228-1.008,0.348c-0.32,0.123-0.616,0.252-0.897,0.384c-0.06,0.028-0.114,0.057-0.173,0.084
	c0.773,0.885,1.417,1.86,1.84,2.55L14.63,6.812z M10.656,5.675c-0.11,0.098-0.213,0.195-0.31,0.292
	c-0.323,0.32-0.585,0.64-0.796,0.937C9.334,7.21,9.174,7.494,9.053,7.739C8.816,8.222,8.747,8.541,8.74,8.571
	c1.207-0.515,1.727-1.684,1.916-2.898V5.675z M17.44,3.945l-0.055,0.037c-0.172,0.12-0.336,0.243-0.49,0.364
	c-0.018,0.014-0.033,0.028-0.049,0.04c4.5,0.5,6.829,3.377,6.829,3.377c0,0.892-0.17,1.915-0.464,2.944l0.84,0.41l0.217,0.108
	c0.393-1.117,0.597-2.277,0.597-3.463c0,0.002-2.181-3.16-7.427-3.818L17.44,3.945z M7.316,7.764c0,0,0.582-0.72,1.725-1.5
	c0.23-0.3,0.477-0.587,0.75-0.86l0.11-0.1c0.01-0.124,0.015-0.25,0.02-0.377c-2.64,1.165-3.796,2.836-3.796,2.836
	c0,0.362,0.02,0.725,0.06,1.08l1.153-0.53c-0.012-0.188-0.02-0.372-0.02-0.55L7.316,7.764z M15.496,19.029
	c-2.273-0.935-4.2-2.245-5.592-3.993c-0.605-0.76-1.14-1.713-1.566-2.731c-0.18-0.06-0.36-0.115-0.54-0.164
	c-0.263-0.07-0.526-0.134-0.792-0.19c0.407,0.935,0.948,1.83,1.62,2.677c1.6,2.014,3.856,3.619,6.524,4.646l0.172,0.064v0.078h0.346
	v-0.078l0.174-0.066c1.403-0.54,2.69-1.244,3.832-2.08c0.066-0.15,0.138-0.3,0.206-0.443l-0.82,0.268
	C18.01,17.82,16.81,18.486,15.496,19.029L15.496,19.029z"/>
<path fill="#008BC0" d="M9.085,11.232c0.06,0.016,0.122,0.03,0.183,0.044H9.27c0.01,0.003,0.016,0.003,0.016,0.003H9.283
	c0.043,0.007,0.087,0.02,0.13,0.026c0.052,0.01,0.104,0.02,0.16,0.033l0.73,0.147h0.01c-0.17-0.234-0.318-0.516-0.413-0.848
	c0,0,0.984,0.963,2.977,1.385c0.536,0.117,1.057,0.232,1.563,0.348l0.363,0.084l0.168,0.037c0.06,0.014,0.12,0.028,0.18,0.041
	c0.088,0.02,0.178,0.039,0.265,0.063l0.067,0.015l0.31,0.072l0.01,0.003c-0.045-0.238-0.07-0.492-0.07-0.757v-0.01l0.491,0.176
	c0.008,0.25,0.039,0.49,0.09,0.713c0.029,0.005,0.057,0.01,0.086,0.021l0.174,0.039c0.064,0.018,0.127,0.03,0.189,0.047
	c0.006,0,0.01,0,0.018,0.004c-0.055-0.205-0.094-0.429-0.11-0.662l0.504,0.18c0.027,0.216,0.068,0.422,0.127,0.609l0.048,0.013
	c0.086,0.021,0.17,0.042,0.254,0.063l0.176,0.043c-0.059-0.172-0.106-0.361-0.139-0.563l0.52,0.188
	c0.04,0.18,0.092,0.353,0.154,0.508h0.002l0.36,0.094c0.431,0.109,0.841,0.216,1.229,0.32c0.398,0.103,0.775,0.205,1.131,0.303
	l0.174,0.05c1.512,0.353,4.359,0.843,7.643,0.53c0,0-0.279-0.18-0.855-0.508c-0.283-0.164-0.637-0.362-1.061-0.594
	c-0.416-0.227-0.896-0.482-1.443-0.768c-0.27-0.141-0.555-0.285-0.852-0.436s-0.607-0.304-0.933-0.463l-1.006-0.49l-1.073-0.506
	c-0.365-0.17-0.742-0.344-1.134-0.52c-0.384-0.174-0.78-0.352-1.188-0.53c-0.399-0.178-0.813-0.358-1.236-0.54l-1.279-0.54
	c-0.434-0.177-0.79-0.365-1.086-0.56c-0.242-0.16-0.438-0.328-0.598-0.496c-0.342-0.63-2.365-4.23-4.62-5.275
	c0,0,0.356,1.94,0.17,3.307c-0.19,1.213-0.71,2.382-1.917,2.897L8.738,8.573L6.516,9.431L1.91,11.205v0.02l0.142-0.035
	c2.986-0.765,6.21-0.143,7.032,0.04L9.085,11.232z"/>
<path fill="#231F20" d="M17.34,22.87c0.002,0.067,0.011,0.073,0.117,0.075h0.086l0.104-0.002c0.096,0,0.109-0.007,0.109-0.06
	c0-0.037-0.015-0.045-0.094-0.051c-0.021,0-0.07,0-0.146-0.004c-0.06-0.006-0.113-0.008-0.16-0.008
	c-0.162-0.005-0.209-0.048-0.209-0.193c0-0.14,0.043-0.194,0.16-0.207c0.06-0.006,0.146-0.01,0.256-0.01
	c0.316,0,0.367,0.026,0.367,0.189v0.029h-0.193c-0.002-0.06-0.01-0.067-0.104-0.067l-0.09-0.002h-0.01
	c-0.171,0-0.185,0.006-0.185,0.05c0,0.032,0.012,0.047,0.039,0.051c0.03,0.004,0.073,0.006,0.203,0.01
	c0.245,0.008,0.283,0.016,0.325,0.056c0.03,0.026,0.043,0.067,0.043,0.14c0,0.084-0.015,0.139-0.04,0.168
	c-0.05,0.055-0.088,0.063-0.376,0.063c-0.351,0-0.397-0.027-0.397-0.2v-0.029h0.197L17.34,22.87z M18.33,22.424v0.369
	c0,0.127,0.017,0.138,0.231,0.138c0.138,0,0.179-0.007,0.201-0.03c0.018-0.02,0.024-0.07,0.024-0.167v-0.308h0.202v0.308
	l-0.004,0.08c-0.004,0.253-0.051,0.29-0.36,0.29c-0.255,0-0.298,0-0.368-0.021c-0.105-0.027-0.132-0.082-0.134-0.263l-0.002-0.085
	v-0.307h0.205L18.33,22.424z M19.922,22.424v0.17h-0.297v0.494h-0.21v-0.496h-0.298v-0.17h0.805V22.424z M20.271,22.424v0.238h0.463
	v-0.238h0.213v0.664h-0.213v-0.239h-0.463v0.237h-0.209V22.42h0.211L20.271,22.424z M21.88,22.424v0.156h-0.538v0.101h0.511v0.144
	h-0.511v0.105h0.543v0.16h-0.741v-0.666H21.88L21.88,22.424z M22.067,22.424h0.605c0.18,0,0.223,0.039,0.223,0.205
	c0,0.145-0.022,0.187-0.106,0.199l-0.021,0.004h0.021c0.069,0.01,0.101,0.049,0.101,0.142v0.116h-0.201v-0.036
	c0-0.115-0.013-0.13-0.086-0.134h-0.33v0.17h-0.205v-0.664V22.424z M22.556,22.75h0.047c0.082-0.002,0.092-0.01,0.092-0.076
	c0-0.032-0.004-0.055-0.014-0.063c-0.013-0.01-0.031-0.013-0.125-0.013h-0.281v0.154h0.281V22.75z M23.28,22.424v0.494h0.478v0.17
	h-0.687v-0.666h0.211L23.28,22.424z M24.538,22.977h-0.439l-0.058,0.111h-0.229l0.354-0.666h0.313l0.349,0.664h-0.229l-0.057-0.112
	L24.538,22.977z M24.338,22.581h-0.04l-0.128,0.252h0.297L24.338,22.581L24.338,22.581z M25.29,22.424l0.35,0.496h0.021
	l-0.007-0.496h0.207v0.664h-0.35l-0.35-0.496H25.14l0.006,0.494h-0.207V22.42h0.354L25.29,22.424z M26.058,22.424h0.479
	c0.18,0,0.19,0,0.25,0.013c0.034,0.011,0.065,0.022,0.086,0.042c0.047,0.046,0.063,0.113,0.063,0.254
	c0,0.178-0.016,0.25-0.063,0.297c-0.05,0.051-0.107,0.061-0.337,0.061h-0.479v-0.668V22.424z M26.539,22.92
	c0.187,0,0.196-0.01,0.196-0.176c0-0.072-0.01-0.109-0.032-0.134c-0.019-0.017-0.05-0.021-0.167-0.021h-0.282v0.33h0.283H26.539z
	 M6.915,22.833c0.002,0.029,0.002,0.041,0.002,0.065c0,0.17-0.057,0.197-0.39,0.197c-0.19,0-0.26-0.005-0.324-0.019
	c-0.104-0.02-0.134-0.066-0.136-0.217l-0.002-0.102v-0.026c0-0.218,0.02-0.271,0.13-0.294c0.065-0.016,0.155-0.02,0.345-0.02
	c0.318,0,0.365,0.027,0.365,0.209v0.035h-0.2v-0.014c-0.003-0.048-0.013-0.057-0.052-0.061c-0.037-0.006-0.105-0.008-0.168-0.008
	c-0.13,0-0.172,0.006-0.19,0.022c-0.02,0.021-0.026,0.058-0.026,0.14c0,0.105,0.003,0.143,0.024,0.157
	c0.02,0.017,0.074,0.024,0.19,0.024l0.096-0.002c0.107-0.002,0.127-0.01,0.13-0.061l0.003-0.021v-0.01h0.203V22.833z M7.093,22.424
	h0.488l0.117,0.002c0.18,0,0.22,0.039,0.22,0.205c0,0.145-0.022,0.189-0.106,0.199l-0.018,0.004l0.018,0.002
	c0.072,0.008,0.1,0.047,0.1,0.141v0.115h-0.2v-0.037c0-0.115-0.01-0.131-0.086-0.131h-0.33v0.168H7.09v-0.668H7.093z M7.579,22.752
	l0.047-0.002c0.082,0,0.094-0.01,0.094-0.076c0-0.032-0.004-0.053-0.014-0.063c-0.012-0.01-0.03-0.013-0.125-0.013H7.3v0.156h0.28
	L7.579,22.752z M8.235,22.428c0.06-0.01,0.12-0.014,0.264-0.014c0.166,0,0.297,0.008,0.36,0.021
	c0.114,0.021,0.138,0.069,0.138,0.292c0,0.229-0.01,0.277-0.053,0.316c-0.05,0.043-0.14,0.058-0.373,0.058
	c-0.166,0-0.273-0.005-0.352-0.021c-0.117-0.024-0.14-0.066-0.14-0.283v-0.035c0.004-0.26,0.03-0.311,0.156-0.33V22.428z
	 M8.282,22.773c0,0.144,0.012,0.151,0.223,0.151h0.032l0.114-0.002c0.13-0.002,0.143-0.016,0.143-0.194
	c0-0.069-0.007-0.101-0.025-0.115c-0.02-0.018-0.098-0.026-0.232-0.026c-0.08,0-0.143,0.002-0.178,0.008
	c-0.06,0.008-0.07,0.033-0.076,0.162L8.282,22.773L8.282,22.773z M9.529,22.422l0.35,0.498h0.02l-0.008-0.496h0.207v0.666h-0.35
	l-0.35-0.494H9.374l0.006,0.496H9.173v-0.666h0.355L9.529,22.422z M10.489,22.422v0.373c0.002,0.125,0.02,0.136,0.234,0.136
	c0.137,0,0.178-0.005,0.2-0.03c0.017-0.02,0.024-0.07,0.024-0.167v-0.308h0.203v0.388c-0.004,0.253-0.05,0.29-0.36,0.29
	c-0.255,0-0.298,0-0.37-0.02c-0.1-0.03-0.13-0.086-0.13-0.267v-0.394h0.2L10.489,22.422z M11.549,22.422v0.498h0.476v0.17h-0.688
	v-0.666h0.21L11.549,22.422z M12.369,22.422v0.498h0.478v0.17h-0.688v-0.666h0.21V22.422z M13.624,22.978h-0.438l-0.06,0.112h-0.23
	l0.353-0.664h0.316l0.347,0.666h-0.23l-0.058-0.111V22.978z M13.427,22.581h-0.04l-0.13,0.254h0.298l-0.128-0.25V22.581z"/>
<path fill="#008BC0" d="M18.38,14.086l0.553,0.045c-0.252-0.153-0.471-0.447-0.623-0.832l-0.537-0.133
	c0.142,0.41,0.353,0.734,0.604,0.92H18.38z M16.87,13.958c-0.253-0.254-0.452-0.66-0.563-1.147l-0.379-0.091
	c-0.043-0.01-0.086-0.021-0.131-0.029c0.1,0.514,0.29,0.945,0.543,1.225L16.87,13.958L16.87,13.958z M17.353,14l0.535,0.043
	c-0.253-0.207-0.461-0.56-0.591-0.994l-0.521-0.131c0.121,0.467,0.324,0.845,0.576,1.08V14z"/>
<path d="M21.205,14.064l-0.175-0.05c-0.354-0.096-0.73-0.198-1.129-0.303c-0.389-0.103-0.803-0.207-1.229-0.317l-0.362-0.093
	c0.151,0.383,0.369,0.677,0.619,0.83l-0.552-0.045c-0.253-0.186-0.464-0.51-0.606-0.92c-0.129-0.031-0.192-0.049-0.43-0.106
	c-0.015-0.006-0.029-0.011-0.047-0.013c0.13,0.436,0.338,0.787,0.59,0.994l-0.535-0.045c-0.252-0.233-0.455-0.611-0.576-1.078
	c-0.063-0.017-0.178-0.043-0.467-0.109c0.108,0.486,0.309,0.893,0.561,1.146l-0.527-0.045c-0.252-0.277-0.443-0.709-0.543-1.226
	c-0.123-0.03-0.848-0.198-1.36-0.313c-0.505-0.115-1.025-0.23-1.562-0.348c-1.993-0.42-2.978-1.384-2.978-1.384
	c0.095,0.333,0.244,0.614,0.412,0.85l-0.74-0.15l-0.16-0.032l-0.13-0.03H9.28l-0.016-0.002H9.262
	c-0.06-0.015-0.123-0.028-0.183-0.044c-0.834-0.186-4.146-0.825-7.174-0.005c0.148-0.036,0.383-0.09,0.688-0.142
	c0.543-0.094,1.313-0.183,2.227-0.168c0.46,0.008,0.956,0.04,1.485,0.11c0.53,0.073,1.1,0.184,1.696,0.348
	c0.304,0.084,0.615,0.18,0.934,0.293c0.322,0.114,0.653,0.245,0.995,0.393c0.344,0.15,0.7,0.32,1.064,0.51
	c0.372,0.195,0.754,0.414,1.15,0.656c0.402,0.248,0.824,0.475,1.26,0.68c0.443,0.209,0.9,0.393,1.37,0.559
	c0.474,0.166,0.956,0.313,1.442,0.439l0.287,0.068l-0.376,0.377l0.87-0.266c0.232,0.051,0.468,0.098,0.702,0.141
	c0.01,0,0.021,0.003,0.03,0.005l-0.201,0.565l1.144-0.422l0.5,0.063v0.811l1.874-0.683l0.297,0.007l-0.298,0.635l0.983-0.627
	c0.461-0.004,0.906-0.021,1.336-0.045c0.744-0.041,1.432-0.113,2.05-0.197c0.08-0.012,0.16-0.021,0.237-0.035
	c0.674-0.096,1.256-0.209,1.729-0.311c0.938-0.211,1.46-0.391,1.46-0.391c-3.283,0.311-6.13-0.18-7.642-0.533L21.205,14.064z
	 M20.397,14.25c-0.84-0.097-0.359-0.004-0.893-0.373l2.11,0.369c0.002,0-0.373,0.105-1.218,0.006V14.25z"/>
</svg>
