<svg xmlns="http://www.w3.org/2000/svg" width="30" height="32.102" viewBox="0 0 30 32.102"><path d="M21.563 32.022l-2.727-4.305-3.492.742.145-.263-2.548.017-.535-.547c-.528.11-3.825.807-3.825.807l.482-.837-8.967 1.817-.1-.243.104-.13 6.71-2.518-1.576-.87.994-1.653h.24c.134-.315.366-.57.69-.767.176-.104.342-.17.48-.21-.02-.09-.028-.17-.028-.245 0-.38.166-.72.465-.96.402-.32 1.043-.39 1.51-.39.084 0 .162.003.233.007.005-.52.302-.918.794-1.072.18-.06.4-.088.65-.088.566 0 1.15.146 1.49.248.19-.173.434-.337.71-.48-.132-.554-.3-1.354-.397-2.2-.093-.81-.11-1.56-.11-2.048 0-.152 0-.27.003-.355-1.02-.78-1.823-1.648-2.39-2.584l-6.704 5.64-.248-.316 6.445-6.343c-.343-.87-.353-1.46-.353-1.526.813-2.334 3.484-3.925 3.6-3.99l.026-.017.088-.023c.154-.015.304-.023.448-.023.673 0 1.224.156 1.59.3L22.14 0l.194.19-.03.154-6.13 7.187.05 1.08-.434.324-.444.374-.033-.013-.373.295-.043-.007-.465.352-.234-.068-.768.896c.688.37 1.21.955 1.414 1.208.086-.005.17-.01.252-.01.768 0 1.37.28 1.744.514.228-2.023 1.254-3.22 1.3-3.27l.157-.177 1.25.766 1.516 1.21-.213 1.745-.293.19-.024.645-.353.13-.13.35h-.01l-.005.203-.334.23.016.037-.02.05c.382.272.633.496.795.665l.118-.28c-.006 0 .1-.907.1-.907l.008-.08.538-.245.522.28.047.407.055-.126.55-.1.384.537-.115.504.237.218-.064.442.215.217-.358.97-.356.534c.11.177.33.52.356.56.54.213.938.628 1.125 1.182.08.238.123.502.125.785.172.057.34.128.5.213.758.4 1.27 1.07 1.39 1.806.25.035.433.092.615.186.322.164.986.796.988 1.698h1.775L26.827 25.5l-.475.87-.107.185h3.727l.028.25-.117.114-7.418 1.542.45-.747-1.815.383.803 3.89-.21.112-.13-.08z" fill="#fff"/><path d="M14.012 21.01c-.082-.212-.498-1.678-.667-3.157-.15-1.33-.103-2.504-.103-2.504-3.254-2.428-3.254-4.997-3.254-4.997C10.756 8.197 13.45 6.6 13.45 6.6c1.453-.144 2.428.52 2.428.52l.063 1.354-.27.2-.125-.062v.165l-.248.207-.146-.062v.145l-.29.23-.145-.022-.063.167-.27.186-.284-.078-.453-.793-1.064 1.99c1.18.205 2.137 1.51 2.137 1.51 1.408-.186 2.36.74 2.36.74.087-2.267 1.272-3.614 1.272-3.614l1.044.64 1.37 1.096-.177 1.46-.307.2-.022.6-.297.11-.123.332-.07.02-.01.27-.252.174-.146.4c1.07.72 1.2 1.118 1.2 1.118l.31-.747.105-.89.27-.125.27.145.084.726-.25.913.353-.438.37-.85.23-.04.207.288-.124.54.248.228-.064.432.188.188-.29.79-.436.64.476.748c2.28.952.56 3.938.56 3.938-.33-.063-.642-.29-.642-.29-1.713-.388-3.008-2.08-3.008-2.08-.636.5-.72.722-.865 1.09l-4.54-.004z" fill="#001641"/><path d="M22.055 21.896c-.822-1.005-1.105-2.493-1.105-2.493-1.408-.18-1.61-1.402-1.61-1.402-.728 1.163-1.163 1.246-1.163 1.246-.496.145-.994.125-.994.125.27.23.83.477.83.477-.152.347-.22.758-.242 1.164h.787c.12-.312.2-.52.613-.88-.132-.356-.227-.872-.118-1.537.022.618.2 1.054.367 1.33-.003 0 1.11 1.452 2.634 1.974zm-4.61-6.816l-.113.482s.135-.334.53-.584c.395-.25.77-.284.864-.295l.143-.014-.145-.043s-.502.04-.855.183c-.356.144-.426.27-.426.27zm2.272-4.157l-.03 1.004-.467-.396s.032-.23.128-.334c.146-.156.37-.272.37-.272zm-.322-.9l-1.045-.64-.002.004 1.45 1.468.12 1.25.14.16-.39.255-.557-.88s-.69.607-.36 1.59c0 0-.845-.457-.917.19l-.56-.865s.16.706.197 1.545l.287.085-.373-1.35.326.69 1.642 1.13.02-.005.12-.324-.234-.315.05-.157.452.225.008-.206-.53-.276-.323.1.08-.2.236-.146.477.344.125.136.01-.003.11-.3-.227-.337.342.054.195.133.02-.578.002-.248.126-.045.185.043.173-1.426-1.37-1.098z" fill="#FDB71A"/><path fill="#782B90" d="M20.572 15.774l-.01.032z"/><path d="M23.14 20.85s-1.6-.912-1.517-2.55l-.145-.165.145-.727.582-.497.352-.66-.188-.187-.33.642-.418.29-.125-.187.48-.29.372-.83-.19-.166-.35.666-.27.268h-.314l-.082-.124.29-.082.312-.312.56-1.14-.235-.256-.37.85-.354.436-.324.11.31-.89v-.705l-.358-.174-.104.89-.163.39-.146.358c0-.003-.09-.27-.71-.764-1.89.426-3.138 2.148-3.856 3.84.327-1.708.475-4.405.206-6.424-.393-.16-.898-.274-1.482-.197l-.04-.054c1.116 2.16 1.003 6.147.68 8.802h.17c.51-1.89 1.668-3.36 3.488-4.25.134.098.292.196.474.275 0 0 .354.27.56.58.208.31.333.538.663.663 0 0 .46 2.316 1.896 3.84.12.068.29.147.467.182 0 0 .05-.087.12-.233l-.06-1.22z" fill="#FDB71A"/><path d="M18.576 16.33l.25-.373.766.167.496.297c.066-.023.135-.046.2-.065l.272-.548c0-.003-.082-.247-.63-.696-2.985.61-4.194 4.63-4.194 4.63.778-3.27.45-6.466.338-7.33-.348-.124-.775-.206-1.257-.16 1.18 2.25.847 6.62.59 8.76h.058c.638-2.407 2.184-3.664 3.482-4.304-.24-.195-.37-.375-.37-.375z" fill="#782B90"/><path d="M20.05 16.517l-.52-.31-.642-.125-.146.23c.228.434 1.12.56 1.12.56s.103.27.372.578c.492.567.912.29.912.29l.145-.56-.495-.682-.56-.044-.185.063z" fill="#001641"/><path fill="#782B90" d="M15.523 6.933L20.62 1.88l-4.734 5.558-.01-.32z"/><path fill="#FDB71A" d="M19.188 3.425L15.672 6.91l.293.156v.143zM12.602 8.03s.164.355.95.375c0 0-.91-.603-.786-.81.125-.206.29-.29.29-.29s-.4.058-.887.226c-.79.66-1.727 1.625-2.15 2.745.023.146.12.387.485.328.52-.083.893-.478.893-.478S11.69 8.55 12.6 8.03zm2.494.315l-.18-.02.003.008.237.595.137.058.028-.023c-.09-.15-.116-.303-.136-.42-.017-.112-.03-.19-.09-.198zm-1.046.67c-.043-.136-.075-.235-.144-.24l-.262-.017c.05.087.42.73.453.793l.284.08.015-.01c-.205-.178-.284-.42-.343-.603zm1.623-.707c-.015-.123-.022-.214-.087-.224-.16-.02-.258-.09-.26-.092l-.012-.01.005.016.233.62.113.057.064-.047c-.036-.114-.048-.23-.057-.32zm-1.11.362h-.175l.347.61.125.016.038-.03c-.086-.126-.14-.262-.18-.37-.05-.13-.09-.227-.154-.227z"/><path d="M13.645 8.758c-.008 0-8.36 8.21-8.36 8.21l.005.006 6.16-5.18c-.008.002-.012.853-.012.853.008.003 2.66-3.096 2.66-3.096l-.002-.003c-.033-.063-.395-.69-.445-.777l-.004-.012zm-8.362 8.21l.006.006 6.157-5.18c-.007.002-.01.853-.01.853.007.003 2.66-3.096 2.66-3.096 0-.003-.454-.79-.454-.79-.007 0-8.36 8.21-8.36 8.21z" fill="#782B90"/><path d="M14.176 13.505c-1.423-.365-1.842-1.2-1.96-1.767-.124.147-.245.286-.35.408.34 2.015 1.957 2.642 1.957 2.642.167 1.266.933 3.008.933 3.008l.104-.106c-1.016-2.01-.684-4.185-.684-4.185zm-.56-4.605l-6.643 6.528c.007.007 4.563-3.823 4.563-3.824-.008 0-.01.802-.01.802.008.003 2.465-2.865 2.465-2.865 0-.003-.365-.64-.365-.64l-.002-.003-.005.004z" fill="#FDB71A"/><path d="M18.438 20.127c.377-.334.904-.585 1.412-.604.816-.03 1.645.446 2.178 1.037 1.342-.82 3.508.252 3.584 1.852.377.033.56.094.736.185.338.172 1.213 1.044.65 2.212-.33.682-1.174.274-1.174.274-.39.158-1.705.692-1.795.736-.13.067-.303-.38-.324-.433-.098-.223-.188-.46-.188-.46v-.06H6.624c-.037-.597.176-1.048.68-1.347.28-.165.56-.23.68-.25-.162-.42-.11-.884.268-1.187.446-.355 1.332-.36 1.885-.3-.107-.478.033-.943.562-1.108.59-.186 1.54.014 2.13.206.948-1.015 3.665-1.592 4.784-.562.133-.296.557-.378.823-.19" fill="#782B90"/><path d="M24.002 25.733c.19-.087 2.004-.823 2.004-.823s.584.534.91-.143c.53-1.102-.295-1.93-.61-2.09-.257-.132-.497-.158-.786-.182 0 0 .004-.125-.02-.256-.215-1.267-1.715-2.13-2.932-1.81-.195.053-.393.13-.56.248 0 0-.083-.1-.187-.2-.945-.914-2.163-1.217-3.244-.35-.068.053-.135.118-.135.118l-.056-.047c-.195-.14-.495-.11-.646.085-.06.075-.06.13-.074.22 0 0-.098-.113-.168-.17-1-.81-2.96-.45-3.967.128-.226.13-.5.322-.67.524 0 0-.364-.125-.798-.21-.75-.146-2.035-.238-1.85.91.015.08.052.2.052.2s-.4-.054-.803-.042c-.644.02-1.523.2-1.47 1.036.01.167.057.31.13.46 0 0-.154.017-.285.053-.656.18-1.152.623-1.123 1.38h16.9v.134c.057.154.27.698.382.815l.01.01z" fill="#fff"/><path d="M7.418 24.823c-.094-.183-.105-.395-.012-.584.326-.663.715-.683 1.053-.79 0 0-.39-.836.277-1.242.457-.28 1.465-.133 1.465-.133s-.177.132-.24.41c0 0 .123-.377 1.068-.36 0 0-.32-.132-.542-.115 0 0-.252-.555.22-.865.472-.312 1.57-.082 1.985.146 0 0-.443.246-.35.77 0 0 .184-.713 1.283-.654.916.05 1.14.49 1.14.49s.142-.147.435-.147c.293 0 .45.23.45.23s-.15-.36-.427-.36c-.273 0-.3.082-.3.082s-.405-.736-1.383-.72c-.137.003-.402.098-.402.098s.754-.718 1.895-.926c.75-.137 2.283-.173 2.643.65 0 0 .125-.667.756-.377 0 0 .19.052.098.002 0 0 .453-.668 1.54-.613.923.046 1.46.887 1.46.887s-.295-.032-.662.082c0 0 .802-.048 1.21.294.405.345.542.95.542.95s.072-.753-.51-1.16c0 0 .592-.437 1.373-.234 1.554.398 1.512 1.704 1.512 1.704s-.155-.34-.81-.753c0 0 1.018.9.845 2.118 0 0 .213-.487.168-.99 0 0 .8-.066 1.14.458.083.135.226.446.202.816-.02.326-.186.703-.516.994-.084.074-.178.137-.275.188l.082-.18s-.576.23-1.094.442c-.207.016-.35.007-.358.007 0 0-.023.067-.08.173-.19.077-.328.134-.355.146-.104.05-.438-.845-.438-.845v-.095H7.417z" fill="#001641"/><path d="M15.973 16.373c0 .033 1.582 6.062 1.582 6.063 0-.007-1.272-.007-1.272-.007-.005.005 4.616 7.534 4.616 7.534l.007-.003-1.478-6.686 1.063.006c.004-.004-4.52-6.907-4.52-6.907z" fill="#782B90"/><path d="M16.31 17.13c0 .036 1.403 5.422 1.403 5.422 0-.005-1.223-.006-1.223-.006h-.008l4.145 6.735c.008 0-1.348-6.12-1.348-6.12l.996.008c.004-.007-3.968-6.036-3.968-6.036z" fill="#FDB71A"/><path fill="#fff" d="M9.28 23.385h.003l-.215.584h.186l.46-.586h.005l-.34.584h.19l.396-.684H9.66l-.37.485h-.003l.193-.485h-.312l-.397.683h.17zm1.02.585l.06-.105h-.228l.128-.223h.22l.06-.104h-.218l.085-.148h.228l.06-.104h-.44l-.396.683zm.71 0l.06-.105h-.23l.338-.58h-.215l-.395.684z"/><path d="M11.67 23.66c.09 0 .11 0 .057.1-.043.07-.07.12-.18.11l.122-.21zm-.39.31h.214c.225 0 .325-.01.434-.196.053-.087.08-.163-.055-.163l.004-.005c.125-.008.195-.076.238-.15.096-.167-.045-.167-.226-.167h-.218l-.394.682zm.55-.588c.107-.003.1.024.06.092-.058.104-.096.086-.163.09l.103-.182zm.8.053c.017-.027.042-.054.087-.054.044 0 .04.028.025.056l-.225.385c-.016.027-.04.054-.086.054-.044 0-.04-.026-.023-.053l.223-.384zm.304.036c.09-.154-.014-.197-.154-.197s-.294.043-.385.2l-.18.312c-.092.156.012.198.154.198.137 0 .29-.042.382-.198l.18-.313z" fill-rule="evenodd" clip-rule="evenodd" fill="#fff"/><path d="M13.87 23.286h-.213l-.286.49c-.03.056-.052.096-.11.096-.054 0-.032-.04 0-.095l.285-.49h-.212l-.275.473c-.05.085-.123.222.138.222.2 0 .304-.063.392-.208l.284-.488z" fill="#fff"/><path d="M13.975 23.97l.182-.314h.033c.038 0 .063.023.037.072l-.084.146c-.018.027-.035.067-.027.095h.215c-.01-.03.01-.07.024-.097l.083-.144c.057-.1.014-.128-.088-.13.124-.016.204-.07.253-.157.084-.144-.027-.158-.23-.158h-.214l-.397.683h.213zm.34-.588c.095 0 .095.025.06.09-.04.063-.066.087-.164.087l.105-.18z" fill-rule="evenodd" clip-rule="evenodd" fill="#fff"/><path fill="#fff" d="M14.586 23.97h.166l.332-.574h.002l-.176.573h.276l.396-.685h-.167l-.29.497h-.002l.154-.497h-.295zm1.318 0l.063-.105h-.23l.13-.223h.22l.06-.104h-.22l.087-.148h.228l.06-.104h-.44l-.395.683z"/><path d="M22.64 26.852h1.118l.396-.67-.622.39-.347-.675-.546.955zm-2.007 0l.65-1.128-.873.642.115.486h.108zm-5.662-.24l.73-1.29h-.32l-.887 1.55.48-.26zm-2.462.233l.872-1.52h-.655l-.872 1.52h.654zm-11.19 2.078l6.16-2.31-1.854-1.024.764-1.27h17.37l.37.71 1.188-.71h2.92l-1.584.955-.886 1.555h3.166l-5.895 1.23.45-.75-2.716.572.72 3.498-2.52-3.977-3.084.655.286-.518-.735.396H13.06l-.56-.574-3.364.71 1.584-2.743h-.09l-.865.45.35.197L9.32 27.3l-8.002 1.62z" fill-rule="evenodd" clip-rule="evenodd" fill="#782B90"/><path d="M19.113 27.108l-.503-.817c-.075.135-.47.82-.47.82h.973zm.01.018l-2.716.568 1.537-2.65-.415-.46h3.842l.416.46-1.68 1.21.868 3.912-1.855-3.04zm-5.258-2.106l.73-.437h2.567l.408.452-1.23 2.12-.974.524H13.18l-.544-.54 1.23-2.12zm9.38 2.088l-2.8.584 1.54-2.65-.413-.46h2.018l.434.83 1.37-.83h1.9l-.798.478-1.186 2.05h1.05l-2.784.583 1.36-2.303-1.297.81-.44-.837-1.02 1.745h1.063zM9.608 25.564l.575-.98h4.11l-.81.483h-.917l-1.18 2.04h1.08l-2.815.587 1.526-2.627h-.607l-.96.497zm.413-.98l-.567.97-.28-.486h-1.22l1.82 1.007-.583.995-5.67 1.196 4.61-1.61-2.125-1.15.544-.923h3.475zm8.67 1.562l1.306-.92-.154-.16h-.524l-.626 1.08zm-4.28 1.068l.74-.41 1.005-1.736h-.93l-1.017 1.757.202.39z" fill-rule="evenodd" clip-rule="evenodd" fill="#fff"/><path d="M14.373 27.344l.848-.47 1.1-1.9h-1.144l-1.07 1.85.268.52zm-.437-2.258l.686-.41h2.5l.334.372-1.182 2.038-.93.5H13.22l-.466-.46 1.182-2.04zm4.04 2.114h.327l-1.71.36 1.466-2.53-.32-.353h3.59l.32.352-1.644 1.184.757 3.408-2.07-3.36 1.446-1.022-.258-.266h-.618L17.977 27.2zm4.362 0l-1.71.357 1.474-2.526-.32-.352h1.75l.454.867 1.437-.867h1.53l-.526.313-1.277 2.213.31-.002-1.693.358 1.448-2.452-1.54.962-.466-.9-1.19 2.035.317-.002zM9.855 25.333l.385-.656h3.717l-.498.297h-.945l-1.29 2.226.33.002-1.714.358 1.5-2.586h-.793l-.693.36zm.005-.656l-.405.688-.223-.392H7.586L9.64 26.11l-.512.877-4.217.893 3.45-1.205-2.227-1.204.468-.792h3.26z" fill-rule="evenodd" clip-rule="evenodd" fill="#FDB71A"/></svg>