<svg xmlns="http://www.w3.org/2000/svg" width="27.372" height="24.749" viewBox="0 0 27.372 24.749"><path d="M12.663 0l-.213.212c-.476.477-.66 1.12-.73 1.495-1.04.973-1.423 2.477-1.44 2.542l-.11.44s.18.155.275.23L7.93 6.02l-.988-1.155C6.908 4.83-.002 1.74-.002 1.74L2.62 8.943l1.212 1.188H2.607l-.017 8.6 1.385-1.27c.205 1.856.62 3.184.62 3.17.012.06.405 1.308.405 1.308s1.14-.65 1.883-.96c-.07.086-.438.988-.457 1.05-.305.36-.627.936-.623 1.503.004.59.38.91.38.91.34.3.804.384 1.385.245.403-.1 1.108-.515 1.146-.545.21-.06.902-.265.902-.265l1.754-1.67 2.373.72 2.384-.66c.603.526 1.952 1.653 1.952 1.653l.854.23c.036.028.083.068.083.068.292.212.656.386 1.054.475.955.215 1.404-.25 1.404-.25.24-.23.37-.543.37-.904 0-.582-.794-1.53-.82-1.56-.267-.528-.446-.83-.575-1.072 1.005.42 2.09 1.038 2.1 1.044l.446.27.557-.977c.75-1.467 1.184-3.67 1.29-6.544.022-.582.033-1.242.033-1.96 0-.272-.063-2.544-.063-2.544H23.69l1.065-1.032c.033-.035 2.618-7.23 2.618-7.23l-6.76 2.93-.862 1.163C19.35 5.85 18 5.273 17.228 4.95c.13-.15.346-.404.346-.404l-.154-.402c-.024-.06-.58-1.508-1.614-2.45-.073-.375-.258-1.01-.732-1.483L14.87.008 12.662 0z" fill="#CAAA77"/><path d="M20.932 5.287l-1.336 1.738c-.154-.07-.4-.177-.586-.26l.24-.362s-2.212-.95-2.8-1.18c.036-.092.063-.19.084-.32.18-.195.408-.468.408-.468l-.038-.1c-.024-.063-.595-1.534-1.612-2.368-.03-.23-.15-.917-.608-1.374l-.043-.04-1.746-.006L12.84.6c-.46.46-.58 1.15-.61 1.384-1.02.84-1.4 2.333-1.415 2.396l-.03.112s.28.23.432.377c.02.076.048.163.09.28-.44.184-2.892 1.254-2.892 1.254l.196.31-.68.33-1.384-1.8-.007-.008C6.503 5.2.937 2.753.937 2.753S2.97 8.513 3.004 8.55l.004.003s1.68 1.65 2.166 2.125h-2.03v6.798L4.4 16.33c.033.34.068.686.117 1.03.2 1.827.588 3.077.605 3.13l.2.633s1.6-.918 3.166-1.23l-1.28 1.557c0 .025-.144.547-.21.78-.047.04-.092.08-.135.13-.264.302-.51.77-.51 1.17 0 .192.058.37.198.502.198.176.497.215.894.12.333-.08.63-.214.86-.38.054-.042.1-.084.145-.128.37-.092.88-.234.88-.234.037-.026 1.49-1.45 1.9-1.82l2.52.767 2.52-.698c.643.57 1.886 1.703 1.968 1.76l.883.236c.043.044.09.085.144.126.232.17.528.3.857.382.4.095.7.057.894-.115.14-.137.197-.314.197-.51 0-.4-.243-.865-.503-1.166-.045-.05-.092-.092-.137-.132l-.207-.775c-.003-.002-.845-1.025-1.23-1.496 1.483.195 3.698 1.506 3.698 1.506l.23-.477c.72-1.4 1.135-3.53 1.24-6.326.07-1.893.004-3.938.004-3.938l-2.062.004c.016-.018 2.233-2.145 2.233-2.145.034-.037 2.067-5.797 2.067-5.797l-5.605 2.49z"/><path d="M21.08 10.99c-.717 0-1.07-.007-1.07-.007 1.46-1.74 1.45-1.78 3.987-5.153.004-.008.01-.015.016-.02-2.787 2.532-3.704 3.434-5.048 4.707.002-.462.002-.7-.01-.743-.017-.047-.033-.092-.055-.134l2.053-2.402-.228 1.11.717-1.683.386-.45 2.996-1.666-.948 3.693-.18.18-2.616 2.565z" fill="#84868C"/><path d="M21.828 6.215l-.386.45-.717 1.682.228-1.11L18.9 9.64c-.035-.067-.076-.13-.13-.18-.005-.006-.01-.008-.016-.012-.05-.05-.112-.09-.184-.12-.02-.01-.042-.02-.066-.027l2.846-3.466 4.202-2.02-1.677 4.43.948-3.694-2.995 1.665zm-2.658 4.768c.393-.4 2.28-2.385 4.842-5.172l-.015.02c-2.536 3.374-2.526 3.415-3.987 5.154h-.84z" fill="#fff"/><path d="M22.44 20.142c1.17-2.63 1.182-6.266 1.182-6.266.02-.678.03-2.39.03-2.39l-4.406-.026-.002.75c-.348.076-.697.15-1.082.226v-.27H8.47c-.003-.18-.005-.748-.005-.748l-4.673-.002-.015 4.16s1.094-.955 1.197-1.05c.014.285.03.564.05.86v.01c.08 2.214.54 3.932.657 4.332 1.807-1.092 4.81-1.77 8.14-1.77 3.814 0 6.988 1 8.62 2.184zM13.167 1.635c0-.248-.188-.472-.188-.472-.106.108-.237.402-.318.813.187-.198.5-.338.504-.34z" fill="#FCB53B"/><path d="M3.34 8.302c0-.002.002.002 0 0zm20.673.238c.003 0 0 .002 0 0zm-3-2.832c-.003.004.003-.003 0 0z"/><path d="M23.203 11.685l-3.713-.022-.002.682s-1.163.25-1.775.368l.002-.345h-1.81s-.007 2.334-.026 3.163c-.086-.437-.643-3.16-.643-3.16H8.022l-.005-.75H4.122l.003 1.194v1.78s.923-.843 1.065-.978c.014.522.034 1.017.076 1.602v.01c.063.876.135 1.868.498 3.425l.1.53.396-.177c.25-.108.555-.238.912-.364l.275-.098-.053-.288c-.234-1.314-.297-2.19-.348-3.117-.03-.56-.045-1.04-.057-1.577.123.11.602.55.602.55.01 1.115.05 2.038.284 3.905l.05.384.377-.093c.34-.084.662-.154 1.015-.224l.307-.06-.027-.31c-.168-1.826-.19-2.735-.197-3.946l.67-.007c.01 1.234.02 2.117.12 3.796l.02.372.37-.05c.36-.05.685-.084 1.054-.117l.29-.025.286-.018c.357-.02 1.34-.046 1.34-.046l.138-.782c.21-.046.395-.084.604-.124.048.288.146.913.146.913l.28.02c.368.017.708.04 1.07.073l.333.033c.36.037.693.08 1.05.135l.373.058s.146-2.842.157-3.903c.103-.02.12-.02.238-.04-.015 1.118-.21 3.978-.21 3.978s2.045.28 4.135 1.368l.373.202.125-.404c.42-1.365.66-2.79.767-4.56.003 0 .012.01.012.01l.023-.62.014-.313h-.004c.02-.634.027-1.23.028-1.685l.004-.345zm-11.275 5.09c-.04-1.2-.048-2.003-.053-3.03.158 0 .424 0 .648-.002-.045.218-.092.426-.137.632-.16.74-.315 1.447-.458 2.4zm9.338-2.707c.008-.265.015-.54.02-.832l.326.007c.172.138.448.38.717.628l-1.065.2z" fill="#fff"/><path d="M7.676 13.71c-.47-.435-.66-.584-1.04-.904.01.838.022 1.508.067 2.35.047.842.105 1.774.354 3.16-.332.117-.62.237-.932.373-.008-.038-.014-.07-.02-.108-.362-1.542-.43-2.525-.49-3.39-.062-.864-.08-1.52-.093-2.38 0 0-.417.422-1.05.997v-.998c-.003-.286 0-.515 0-.85h3.202c.002.3.012 1.078.002 1.747zm1.58 4.035c-.36.07-.68.14-1.03.227-.32-2.55-.276-3.343-.29-5.26H9.05c.014 1.864-.01 2.707.206 5.033zm3.314-4.348l-1.043.005c.007 1.39.01 2.29.076 4.017-.367.03-.703.067-1.066.115-.11-1.826-.113-2.72-.124-4.126l-1.042.01c0-.24-.002-.47-.004-.71h3.202c0 .233.003.455.003.686zm3.247 4.03c-.37-.032-.71-.056-1.083-.073-.034-.236-.154-.99-.154-.99-.455.082-.738.138-1.192.24 0 0-.108.6-.13.73-.367.004-.7.018-1.066.04.264-1.977.563-2.89.89-4.66h1.87c.323 1.776.623 2.676.865 4.714zM14.43 15.59c-.18-.903-.24-1.146-.425-2.043-.192.964-.258 1.136-.446 2.13l-.02.085c.283-.052.553-.103.89-.172zm4.703 2.39c-.35-.086-.674-.157-1.032-.228.173-1.904.173-2.792.19-4.107-.32.055-.61.104-.932.156-.014 1.22-.02 2.1-.136 3.8-.36-.056-.695-.1-1.062-.14.088-2.043.086-2.947.092-4.747h1.117l-.003.42c.702-.136 1.346-.264 2.05-.42-.013 1.918.03 2.71-.282 5.268zm2.897 1.118c-.775-.424-1.59-.748-2.52-1.037.105-.755.173-1.48.222-2.24l1.105-.167c-.037.515-.084 1.007-.15 1.52.25.06.475.113.72.177.112-.702.183-1.374.233-2.077l-1.894.304c.07-1.205.083-2.357.087-3.564 1.038.006 1.983.01 3.02.017 0 .62-.008 1.215-.032 1.835-.382-.372-.874-.806-1.09-.96-.27-.008-.515-.015-.784-.02-.007.542-.018 1.06-.04 1.603.653-.12 1.25-.23 1.904-.353-.078 1.683-.265 3.29-.78 4.963z" fill="#00AAE7"/><path d="M4.82 12.22h2.855l-.002-.256H4.47c0 .334-.002.563 0 .85v.996c.13-.114.244-.22.35-.322v-.45c-.003-.275 0-.495 0-.817zm1.012.818s-.11.11-.302.296c.012.625.033 1.178.083 1.858.06.864.13 1.848.49 3.39.008.036.014.07.02.106l.264-.113c-.346-1.475-.412-2.42-.47-3.248-.058-.83-.075-1.46-.085-2.29zm3.22-.098v-.228H7.936c.014 1.916-.03 2.708.29 5.26.065-.018.132-.033.196-.05-.3-2.392-.255-3.157-.27-4.98h.9zm3.515 0v-.228H9.365l.006.71c.057 0 .11-.002.164-.003-.003-.16-.004-.317-.004-.48h3.037zm-2.154.674c.013 1.292.02 2.186.124 3.922l.115-.015c-.102-1.714-.105-2.57-.115-3.907l-.124.002zm4.537-.9h-1.87c-.325 1.77-.625 2.684-.89 4.66.022 0 .042 0 .064-.003.25-1.862.538-2.74.85-4.43H14.9c.312 1.694.598 2.56.83 4.48l.088.008c-.243-2.037-.543-2.937-.868-4.714zm-.57 2.886c-.305.063-.552.11-.81.157-.004.012-.007.023-.008.035-.006.028-.01.055-.018.083.272-.05.53-.098.855-.165l-.02-.11zm5.036-2.887c-.705.156-1.35.284-2.05.42v-.42H16.25v.23h.976v.402c.675-.13 1.294-.253 1.97-.403-.012 1.826.03 2.59-.26 4.992l.197.047c.313-2.56.27-3.35.283-5.266zM17.09 17.58c.045.008.088.013.132.02.108-1.622.12-2.5.133-3.633l-.138.022c-.014 1.155-.022 1.995-.127 3.59zm3.577-4.476c-.005.522-.017 1.02-.038 1.543.627-.114 1.2-.22 1.832-.338-.072 1.573-.248 3.08-.712 4.64.096.047.188.096.28.146.515-1.672.702-3.28.78-4.964-.655.124-1.252.233-1.906.353.02-.466.03-.915.037-1.376l-.272-.007zm1.82.446c.113.103.23.21.334.312.026-.62.034-1.214.035-1.835-1.037-.007-1.982-.01-3.02-.017v.257c.907.004 1.75.01 2.67.016 0 .43-.004.844-.016 1.266zm-2.067 3.68c.24.057.46.11.693.17.008-.04.013-.08.02-.122-.146-.036-.293-.07-.445-.106.066-.514.113-1.006.15-1.52l-1.105.168-.007.077.84-.13c-.037.498-.082.97-.146 1.464z"/><path fill="#E7A614" d="M13.992 14.535l-.123.884.242-.06zm7.378 1.05l-.27.035-.155 1.324.305.072z"/><path d="M6.75 8.304L6.034 6.62l-.386-.45-2.996-1.665L3.6 8.2l.183.18 2.615 2.566c.717 0 1.068-.006 1.068-.006-1.46-1.74-1.45-1.78-3.987-5.153-.006-.008-.01-.015-.018-.02C6.25 8.297 7.17 9.2 8.512 10.474c-.003-.463-.003-.702.01-.745.014-.05.033-.094.052-.135l-2.05-2.4.226 1.11z" fill="#84868C"/><path d="M6.126 5.79l-4.2-2.02L3.6 8.2l-.948-3.695L5.648 6.17l.386.45.716 1.684-.227-1.11 2.052 2.402c.036-.068.08-.13.132-.182l.014-.01c.055-.05.117-.09.186-.12.02-.01.045-.02.066-.028L6.127 5.79zm2.187 5.158c-.39-.4-2.286-2.394-4.847-5.18.004.006.008.01.013.02C6.013 9.158 6.002 9.2 7.464 10.94l.847.008z" fill="#fff"/><path d="M10.097 10.37h-.394v-.166c0-.105-.004-.172-.012-.198s-.023-.04-.053-.04c-.025 0-.04.012-.05.035-.01.024-.013.083-.013.177v.883c0 .082.004.136.012.162.01.026.027.04.052.04.03 0 .05-.015.062-.045.01-.03.015-.087.015-.173v-.22h-.08v-.277h.462v.987H9.85l-.037-.133c-.028.06-.062.103-.102.13-.04.028-.09.043-.145.043-.065 0-.128-.02-.188-.06-.056-.038-.1-.087-.132-.144-.03-.06-.05-.12-.057-.183-.006-.063-.01-.158-.01-.284v-.547c0-.175.008-.304.022-.383.016-.08.06-.152.135-.22.073-.065.17-.098.29-.098.114 0 .212.028.287.086.077.058.128.127.15.206s.033.193.033.344v.08zm1.063.4c0 .185-.005.316-.012.393-.006.077-.03.147-.066.21-.04.065-.09.113-.154.148-.066.035-.14.053-.228.053-.08 0-.155-.017-.22-.05-.064-.03-.117-.08-.16-.144-.037-.064-.06-.136-.07-.21-.006-.077-.01-.21-.01-.398v-.313c0-.187.004-.316.01-.394.01-.078.03-.147.07-.21.037-.064.09-.113.154-.147.063-.035.14-.05.226-.05.083 0 .154.014.22.046s.118.08.158.145c.04.064.063.134.07.21.007.076.01.21.01.398v.314zm-.397-.603c0-.087-.003-.14-.012-.165-.005-.023-.023-.036-.046-.036-.02 0-.037.01-.05.03-.01.02-.017.076-.017.17v.86c0 .107.004.173.012.197.006.025.024.037.05.037.026 0 .045-.014.052-.043.01-.028.013-.098.013-.205v-.845zm.94-.473v1.47h.242v.37h-.637v-1.84h.395zm.337 0h.3c.19 0 .32.01.39.032.065.02.117.056.153.104.034.05.056.103.063.162.01.06.015.176.015.35v.646c0 .165-.004.275-.02.332-.01.055-.034.1-.066.13-.03.03-.07.054-.118.066-.046.012-.118.02-.213.02h-.5V9.693zm.398.313v1.214c.06 0 .093-.012.107-.04.014-.027.02-.104.02-.226v-.717c0-.083-.002-.138-.006-.16-.008-.024-.02-.04-.033-.052-.016-.01-.046-.017-.09-.017zm1.937.487h-.396v-.32c0-.092-.006-.15-.014-.172-.01-.024-.028-.036-.058-.036-.034 0-.056.016-.064.043-.008.026-.014.087-.014.18v.855c0 .09.006.147.014.175.01.028.03.04.06.04s.05-.012.06-.04c.01-.026.014-.09.014-.193v-.23h.396v.07c0 .192-.012.327-.033.406-.023.08-.07.15-.15.21-.073.06-.167.09-.28.09-.115 0-.21-.025-.29-.076-.07-.052-.123-.12-.15-.21-.02-.09-.032-.226-.032-.405v-.538c0-.132.004-.23.012-.298.006-.065.03-.13.066-.19s.09-.11.156-.146c.066-.035.142-.053.23-.053.114 0 .212.026.287.08.077.056.13.123.15.204.024.084.036.21.036.38v.175zm1.05.276c0 .185-.003.316-.012.393-.008.077-.03.147-.067.21-.037.065-.09.113-.154.148-.065.035-.14.053-.227.053-.082 0-.155-.017-.22-.05-.065-.03-.12-.08-.157-.144-.04-.064-.064-.136-.07-.21-.008-.077-.013-.21-.013-.398v-.313c0-.187.003-.316.01-.394.01-.078.032-.147.07-.21.037-.064.09-.113.153-.147s.14-.05.227-.05c.082 0 .156.014.22.046.065.032.118.08.157.145.038.064.063.134.07.21.01.076.014.21.014.398v.314zm-.4-.603c0-.087-.002-.14-.01-.165-.006-.023-.023-.036-.05-.036-.02 0-.036.01-.05.03-.01.02-.014.076-.014.17v.86c0 .107.005.173.013.197.007.025.024.037.05.037.03 0 .047-.014.053-.043.008-.028.012-.098.012-.205v-.845zm1.23-.473l.228 1.84h-.403l-.02-.33h-.147l-.02.33h-.412l.206-1.84h.57zm-.208 1.184c-.02-.21-.042-.468-.063-.775-.04.354-.064.612-.075.775h.136zm1.346-.628h-.37v-.136c0-.063-.003-.104-.013-.122-.01-.016-.026-.026-.047-.026-.024 0-.043.013-.055.036s-.018.06-.018.106c0 .062.008.107.02.14.014.03.05.068.113.11.177.128.29.23.336.313.043.083.066.214.066.395 0 .13-.015.228-.04.29-.022.062-.074.113-.147.154-.074.043-.157.063-.255.063-.107 0-.198-.024-.27-.073-.078-.05-.128-.11-.15-.186-.024-.075-.035-.18-.035-.32v-.12h.37v.225c0 .066.005.11.017.13.01.02.03.03.055.03.026 0 .047-.012.06-.037.012-.024.02-.063.02-.11 0-.11-.012-.18-.037-.214-.024-.034-.087-.09-.185-.168-.103-.08-.166-.135-.2-.17-.03-.036-.057-.086-.077-.148-.02-.063-.033-.144-.033-.242 0-.14.016-.243.045-.308.03-.065.078-.116.146-.153.066-.036.148-.054.243-.054.103 0 .19.02.263.06.07.04.12.09.145.15.023.063.036.165.036.312v.07zm.954-.556v.37h-.235v1.47h-.396v-1.47h-.232v-.37h.863zM14.393 1.593c0-.247.188-.47.188-.47.106.107.238.4.318.81-.188-.196-.5-.336-.504-.34zm-.61 1.435c.088-1.06.313-1.866.593-2.072h-1.188c.28.206.507 1.013.595 2.072z" fill="#FCB53B"/><path d="M14.307 8.59c.297-.16.443-.49.615-.822-.184.04-.402.073-.63.097-.17.018-.343.028-.512.03-.603-.01-1.155-.13-1.455-.274l.53.977.023.046c.494.16 1.05.153 1.43-.05z" fill="#8E5E4B"/><path d="M15.045 7.74c-.037.01-.08.02-.123.027-.172.333-.318.663-.615.824-.38.206-.935.214-1.428.05l.304.553h1.31l.84-1.552c-.065.035-.165.07-.29.1zm1.488-1.447L15.04 8.958l1.702-.62 1.013-1.51-1.222-.535zM17.14 7.3c-.003.01-.01.02-.02.03-.003.007-.01.014-.016.02-.004.004-.008.008-.01.012l-.02.02c0-.002 0-.005.003-.006-.04.032-.092.052-.146.052-.133 0-.242-.11-.242-.25 0-.06.02-.113.057-.156-.002 0-.002.002-.002.002 0-.002.002-.002.004-.004.042-.055.11-.09.186-.09.135 0 .242.112.242.25 0 .04-.01.078-.027.112l-.006.008zm-.386 1.828h1.336s.295-.395.31-.412c-.02.004-.08.016-.103.016-.178 0-.322-.145-.322-.322 0-.18.145-.322.322-.322.18 0 .313.184.313.36 0 .003 0-.003 0 0 .244-.293.51-.63.517-.64l-1.147-.503-1.226 1.823z" fill="#FCB53B"/><path d="M18.104 7.11l-.125.194 1.145.503.15-.18-1.172-.517zM17 8.242l1.057-1.525-1.42-.622-.104.198 1.222.536-1.013 1.507z" fill="#fff"/><path d="M14.65 3.64l-.962-.192.98-.267H12.92s.234-.35.295-.832c-.57.365-.88.828-1.077 1.29l1.3.992-1.725-.698c-.102.124-.19.305-.225.527 0 0 .158.063.27.117.045.352.11 1.272.53 2.047 0 0-.2-.006-.908-.53.27.562.97 1.278 1.44 1.434-.386-.688.124-2.154.16-2.25l-.657-.24-.295-.856 1.766.896-.04-.156.896-1.285z" fill="#8E5E4B"/><path d="M14.347 2.314c.028.546.323.866.323.866l-.98.267.96.19-.895 1.284.04.158 1.6-.88-.23.83-.665.246s.426 1.142.195 2.15l-.03.11c.472-.155 1.31-.903 1.567-1.412-.096.078-.485.272-.845.323-.143.215-.287.332-.287.332.494-.837.566-1.723.613-2.073.108-.053.192-.094.192-.096-.13-.395-.335-.628-.45-.726l-1.33.733 1.115-1.06c-.187-.39-.48-.84-.893-1.24z" fill="#FCB53B"/><path d="M15.24 3.556l-1.115 1.06 1.33-.734c.115.098.32.33.45.726 0 .002-.084.043-.192.096-.047.35-.12 1.236-.613 2.073.082-.07.18-.172.288-.33.188-.276.363-.64.478-.953.055-.154.102-.31.14-.47.02-.082.073-.437.09-.444.11-.054.193-.094.193-.097-.194-.6-.42-.71-.54-.772-.22-.57-.633-1.272-1.387-1.853-.006.024-.017.46-.017.46.413.398.706.846.893 1.24z" fill="#fff"/><path d="M12.408 4.965l.705.264s-.538 1.515-.18 2.21c.152-.156.255-.28.255-.28-.218-1.02.01-1.95.01-1.95l-.644-.294-.068-.33-.275-.188.2.565zm2.655 0l-.703.264s.537 1.515.18 2.21c-.152-.156-.255-.28-.255-.28.217-1.02-.01-1.95-.01-1.95l.643-.294.07-.33.275-.188-.2.565z" fill="#84868C"/><path d="M20.648 23.52s.13-.443-.365-1.038c-.03-.036-.062-.063-.095-.09 0 .02-.117.276-.334.478l.12.15c.166-.057.324-.116.324-.116.22.223.296.4.35.617zm-3.172-4.784c-.077.56-.21.81-.59 1.296.077.08.5.568.58.647l.77-1.773c-.275-.063-.457-.106-.76-.172zM18.86 20.4l-.605-.692-.125 1.435c.225.215.448.433.67.65.007-.114.013-.242.018-.383.05-1.105.043-1.01.043-1.01zm.22.278l-.057 1.334c.2.2.402.4.602.603l.097-1.273-.642-.664z" fill="#fff"/><path d="M16.887 20.032s-1.065.525-2.38.696c.185-.452.33-.83.427-1.085l-.97 1.086-.005.99 3.504-1.04c-.077-.084-.578-.65-.578-.65zm-2.95-1.596l1.484 1.293 1.29-.004-1.113-1.19c-.518-.065-1.658-.1-1.658-.1z" fill="#84868C"/><path d="M15.597 18.535l1.112 1.19c0-.45 0-.757.006-1.065-.22-.03-1.074-.12-1.12-.125z" fill="#fff"/><path d="M9.893 6.84l1.013 1.508 1.702.62-1.492-2.663-1.223.535zm.608.46c-.015-.032-.024-.07-.024-.112 0-.138.11-.248.244-.248.072 0 .14.035.185.09v.002c.034.043.057.097.057.156 0 .138-.11.25-.242.25-.057 0-.107-.02-.148-.052 0 .002.004.004.004.006l-.02-.02-.013-.012c-.005-.006-.012-.012-.015-.02-.008-.01-.015-.02-.02-.03L10.5 7.3zm.395 1.838H9.56s-.297-.395-.312-.41c.022.003.08.012.103.012.18 0 .325-.145.325-.32s-.145-.322-.323-.322c-.176 0-.312.182-.312.36 0 .003 0-.003 0 0-.243-.295-.51-.628-.517-.64l1.15-.503 1.225 1.823z" fill="#FCB53B"/><path d="M9.557 7.12l.113.195-1.15.503c-.02-.028-.15-.18-.15-.18l1.187-.52zm1.09 1.132L9.59 6.727l1.42-.623.103.2-1.222.536 1.012 1.508zM6.88 23.52s-.132-.443.364-1.038c.03-.036.063-.063.094-.09.002.02.12.276.336.478l-.12.15c-.167-.057-.324-.116-.324-.116-.22.223-.296.4-.35.617zm3.17-4.784c.08.56.213.81.59 1.296-.073.08-.5.568-.577.647l-.77-1.773c.274-.063.455-.106.758-.172zM8.667 20.4l.604-.692.127 1.435c-.225.215-.447.433-.67.65l-.018-.383c-.05-1.105-.04-1.01-.04-1.01zm-.22.278l.057 1.334c-.2.2-.403.4-.602.603l-.096-1.273.64-.664z" fill="#fff"/><path d="M10.64 20.032s1.065.525 2.38.696c-.184-.452-.33-.83-.426-1.085l.97 1.086.004.99-3.505-1.04c.078-.084.578-.65.578-.65zm2.948-1.596l-1.48 1.293-1.287-.004 1.11-1.19c.52-.065 1.66-.1 1.66-.1z" fill="#84868C"/><path d="M11.93 18.535l-1.11 1.19c0-.45 0-.757-.01-1.065.22-.03 1.075-.12 1.12-.125z" fill="#fff"/></svg>