<?xml version="1.0" encoding="utf-8"?>
<!-- Generator: Adobe Illustrator 15.0.0, SVG Export Plug-In . SVG Version: 6.00 Build 0)  -->
<!DOCTYPE svg PUBLIC "-//W3C//DTD SVG 1.1//EN" "http://www.w3.org/Graphics/SVG/1.1/DTD/svg11.dtd">
<svg version="1.1" id="Layer_1" xmlns="http://www.w3.org/2000/svg" xmlns:xlink="http://www.w3.org/1999/xlink" x="0px" y="0px"
	 width="22.156px" height="24.053px" viewBox="0 0 22.156 24.053" enable-background="new 0 0 22.156 24.053" xml:space="preserve">
<path fill="#878A8F" d="M21.006,9.318c0.259-2.885,0.769-8.12,0.86-9.055H0.288c0.09,0.936,0.595,6.18,0.854,9.063l-0.073,0.07
	c-0.43,0.425-0.576,0.96-0.576,1.398c0,0.504,0.335,1.192,0.974,1.83c0.064,0.064,0.136,0.13,0.205,0.193
	c0.284,0.873,0.75,1.906,1.49,2.881c1.366,1.8,3.646,3.414,7.45,3.52l0.27,0.27l0.195,0.199l0.197-0.199l0.272-0.271
	c3.773-0.137,6.045-1.738,7.41-3.52c0.743-0.965,1.213-1.987,1.502-2.856c0.08-0.069,0.156-0.144,0.23-0.216
	c0.637-0.638,0.975-1.326,0.972-1.83c0-0.438-0.147-0.974-0.577-1.398c-0.023-0.027-0.053-0.052-0.08-0.078H21.006z"/>
<path d="M13.898,3.876c1.258-1.196,2.967-2.163,4.607-2.904H3.65C5.29,1.712,7,2.68,8.258,3.876c1.403,1.334,2.285,2.476,2.82,3.267
	C11.613,6.353,12.496,5.21,13.898,3.876z"/>
<path fill="#231F20" d="M10.49,21.742h0.334c0.117,0,0.3-0.017,0.407,0.054c0.093,0.057,0.156,0.174,0.156,0.28
	c0,0.123-0.057,0.253-0.158,0.315c-0.116,0.07-0.26,0.058-0.389,0.058h-0.35v-0.71L10.49,21.742z M10.49,22.926h0.465l0.414,1.093
	h0.705l-0.504-1.224c0.296-0.11,0.473-0.399,0.473-0.714c0-0.27-0.122-0.54-0.345-0.689c-0.212-0.141-0.456-0.143-0.698-0.143H9.855
	v2.77h0.635V22.926L10.49,22.926z M13.068,23.94l-0.635,0.111v-2.77l0.635-0.11v2.771V23.94z M14.426,21.256
	c0.185-0.057,0.29-0.005,0.365,0.157c0.076,0.164,0.097,0.396,0.097,0.598c0,0.184-0.021,0.42-0.078,0.606
	c-0.066,0.228-0.179,0.37-0.38,0.435c-0.421,0.131-0.469-0.404-0.469-0.754c0-0.172,0.021-0.418,0.08-0.602
	c0.07-0.225,0.181-0.373,0.386-0.438L14.426,21.256z M14.426,23.578c0.345-0.106,0.644-0.354,0.841-0.729
	c0.164-0.313,0.239-0.721,0.239-1.035c0-0.336-0.092-0.698-0.274-0.91c-0.2-0.24-0.47-0.28-0.803-0.176
	c-0.755,0.235-1.091,1.026-1.091,1.76c0,0.349,0.08,0.684,0.267,0.91c0.2,0.244,0.478,0.289,0.824,0.181H14.426z M16.244,20.479
	l0.275-0.18c0.096-0.066,0.246-0.18,0.332-0.17c0.078,0.01,0.13,0.09,0.13,0.2c0,0.12-0.047,0.28-0.132,0.399
	c-0.095,0.131-0.212,0.194-0.32,0.267l-0.286,0.188L16.244,20.479L16.244,20.479z M16.244,21.66l0.383-0.25l0.343,0.87l0.581-0.383
	l-0.416-0.95c0.24-0.271,0.391-0.655,0.391-0.97c0-0.271-0.104-0.476-0.286-0.506c-0.173-0.021-0.374,0.105-0.574,0.236l-0.941,0.62
	v2.771l0.52-0.346L16.244,21.66L16.244,21.66z M19.037,18.823c-0.063-0.186-0.186-0.188-0.385-0.04
	c-0.14,0.104-0.311,0.274-0.311,0.489c0,0.201,0.196,0.104,0.323,0.037c0.183-0.086,0.428-0.213,0.584-0.199
	c0.183,0.014,0.293,0.16,0.293,0.435c0,0.271-0.104,0.606-0.276,0.899c-0.181,0.311-0.427,0.543-0.65,0.711
	c-0.423,0.313-0.806,0.369-0.906-0.096l0.484-0.496c0.064,0.242,0.235,0.217,0.47,0.045c0.147-0.11,0.349-0.328,0.349-0.559
	s-0.256-0.086-0.394-0.02c-0.4,0.193-0.79,0.34-0.79-0.266c0-0.258,0.08-0.545,0.24-0.83c0.163-0.289,0.355-0.49,0.562-0.644
	c0.394-0.29,0.713-0.356,0.851,0.021l-0.446,0.514L19.037,18.823z M7.987,21.293l0.312,0.086c0.11,0.026,0.285,0.058,0.386,0.152
	c0.086,0.077,0.146,0.21,0.146,0.319c0,0.121-0.052,0.236-0.149,0.274c-0.106,0.04-0.24-0.006-0.365-0.04L7.985,22v-0.706
	L7.987,21.293z M7.987,22.478l0.437,0.116l0.394,1.198l0.668,0.174L9.01,22.618c0.276-0.036,0.443-0.282,0.443-0.598
	c0-0.27-0.115-0.569-0.326-0.773c-0.196-0.189-0.43-0.255-0.657-0.314l-1.086-0.285v2.771l0.601,0.157v-1.096L7.987,22.478z
	 M5.88,21.562l0.245-0.832l0.243,1.113l-0.49-0.279L5.88,21.562z M6.49,20.222l-0.62-0.355l-0.735,2.346l0.471,0.27l0.146-0.484
	l0.74,0.426l0.144,0.65l0.58,0.332l-0.723-3.182L6.49,20.222z M4.78,22.09l-0.53-0.435l-0.375-2.143l-0.006-0.006l-0.364,1.534
	l-0.521-0.427l-0.592-3.258l0.55,0.451l0.325,1.995l0.024,0.16l0.008,0.005l0.372-1.558l0.493,0.405l0.386,2.183l0.009,0.006
	l0.02-0.104l0.335-1.467l0.44,0.363L4.78,22.092V22.09z"/>
<path d="M10.957,0h-10.96l0.018,0.146l0.14,1.475c0.19,1.955,0.52,5.41,0.715,7.606c-0.476,0.48-0.64,1.08-0.64,1.57
	c0.003,0.614,0.38,1.343,1.05,2.017c0.05,0.053,0.104,0.104,0.162,0.156c0.293,0.881,0.768,1.91,1.51,2.891
	c1.39,1.837,3.73,3.49,7.546,3.625l0.578,0.576l0.583-0.582c3.786-0.164,6.12-1.801,7.51-3.621c0.743-0.973,1.223-1.989,1.521-2.869
	c0.063-0.057,0.126-0.116,0.187-0.18c0.667-0.67,1.047-1.4,1.05-2.016c0-0.492-0.166-1.097-0.646-1.58
	c0.105-1.188,0.254-2.744,0.396-4.23c0.12-1.26,0.235-2.47,0.322-3.363c0.085-0.894,0.143-1.472,0.143-1.474L22.156,0H10.957
	L10.957,0z M3.164,15.698c-0.604-0.799-1.03-1.635-1.319-2.393c0.505,0.391,1.116,0.737,1.819,0.995
	c0.54,0.825,1.521,1.993,3.082,2.79c0.764,0.393,1.51,0.643,2.164,0.803l1.313,1.313C6.653,19,4.48,17.435,3.163,15.7L3.164,15.698z
	 M5.19,15.226l0.191,0.024c0,0,0.21,0.026,0.554,0.053c0.342,0.027,0.819,0.054,1.354,0.054c0.403,0,0.771-0.016,1.07-0.032
	c0.002,0.071,0.004,0.144,0.008,0.213c0.035,0.7,0.098,1.19,0.154,1.521c-0.277-0.078-0.617-0.19-1.021-0.351
	c-1.303-0.522-2.168-1.345-2.172-1.347L5.19,15.226z M11.078,19.687L8.9,17.507c-0.04-0.109-0.198-0.648-0.271-1.984
	c-0.004-0.107-0.006-0.224-0.006-0.34c0-0.091,0-0.183,0.004-0.274c0.002-0.089,0.006-0.177,0.011-0.267
	c0.012-0.188,0.024-0.383,0.043-0.576c0.01-0.088,0.02-0.178,0.026-0.267c0.043-0.399,0.097-0.795,0.146-1.147
	c0.058-0.391,0.115-0.728,0.158-0.968l0.037-0.2c0.074,0.047,0.175,0.106,0.28,0.173c0.248,0.154,0.548,0.343,0.753,0.483
	l0.024,0.02c0.086,0.06,0.178,0.126,0.266,0.194c0.11,0.087,0.223,0.177,0.315,0.257l0.035,0.029l0.065,0.961l0.019,0.264
	l0.04,0.578l0.02,0.266l0.212,3.07v0.394l0.014-0.203l0.015,0.202v-0.418l0.2-3.044l0.017-0.265l0.04-0.58l0.017-0.264l0.063-0.966
	l0.027-0.022c0.096-0.08,0.207-0.17,0.317-0.256c0.09-0.07,0.181-0.138,0.267-0.197c0.01-0.006,0.018-0.01,0.024-0.017
	c0.203-0.14,0.504-0.328,0.75-0.482c0.11-0.065,0.205-0.125,0.28-0.172c0.013,0.057,0.023,0.122,0.038,0.2
	c0.082,0.46,0.217,1.277,0.305,2.113c0.008,0.091,0.019,0.181,0.024,0.267c0.02,0.195,0.032,0.391,0.045,0.578
	c0.004,0.09,0.008,0.18,0.01,0.267c0.004,0.094,0.006,0.185,0.006,0.274c0,0.117-0.003,0.232-0.01,0.34
	c-0.038,0.777-0.11,1.285-0.17,1.596c-0.03,0.154-0.057,0.26-0.075,0.326c-0.008,0.029-0.014,0.05-0.02,0.064l-2.178,2.18
	L11.078,19.687z M18.958,15.697c-1.316,1.72-3.476,3.27-7.018,3.5l1.306-1.306c0.654-0.16,1.4-0.41,2.165-0.8
	c1.564-0.8,2.543-1.968,3.083-2.792c0.69-0.253,1.293-0.592,1.792-0.973c-0.292,0.752-0.72,1.58-1.325,2.37H18.958z M13.632,17.056
	c0.059-0.328,0.12-0.818,0.155-1.521c0.004-0.068,0.007-0.14,0.008-0.212c0.301,0.018,0.668,0.033,1.07,0.033
	c0.535,0,1.013-0.026,1.357-0.055c0.342-0.027,0.55-0.053,0.55-0.053l0.193-0.027l-0.14,0.135c-0.005,0.002-0.87,0.824-2.175,1.348
	c-0.397,0.16-0.74,0.271-1.018,0.348L13.632,17.056z M20.689,12.625c-0.638,0.638-1.566,1.229-2.72,1.569
	c-1.194,0.354-2.523,0.463-3.69,0.463c-0.17,0-0.338-0.004-0.5-0.006c-0.01-0.19-0.021-0.381-0.04-0.576
	c0.2,0.006,0.415,0.01,0.637,0.01c0.268,0,0.544-0.006,0.837-0.016c1.313-0.045,2.496-0.416,3.36-0.979
	c0.86-0.564,1.413-1.33,1.415-2.167c0.003-0.448-0.198-0.795-0.528-1c-0.328-0.208-0.772-0.29-1.29-0.292
	c-0.5,0-1.069,0.08-1.677,0.225c-0.5,0.117-1.021,0.277-1.547,0.472c-0.616,0.226-1.655,0.737-1.655,0.737s-0.946,0.57-1.37,0.86
	c-0.316,0.22-0.682,0.53-0.847,0.674c-0.164-0.144-0.527-0.454-0.848-0.673c-0.422-0.29-1.37-0.86-1.37-0.86
	s-1.038-0.513-1.65-0.738c-0.525-0.194-1.05-0.354-1.55-0.472C5.051,9.713,4.48,9.634,3.98,9.633C3.463,9.635,3.02,9.718,2.69,9.926
	c-0.333,0.205-0.53,0.552-0.528,1c0.002,0.838,0.555,1.603,1.416,2.167c0.252,0.163,0.53,0.313,0.832,0.438
	c0.73,0.313,1.598,0.508,2.527,0.54c0.295,0.01,0.571,0.014,0.836,0.014c0.223,0,0.438-0.003,0.638-0.01
	c-0.017,0.195-0.03,0.39-0.04,0.58c-0.162,0.002-0.328,0.005-0.5,0.005c-1.168,0-2.497-0.11-3.688-0.46
	c-1.154-0.344-2.084-0.936-2.721-1.574c-0.64-0.638-0.976-1.326-0.974-1.83c0-0.438,0.146-0.974,0.575-1.398
	C1.493,8.974,2.21,8.645,3.387,8.644c0.472,0,1.013,0.053,1.638,0.175c1.7,0.326,3.09,0.972,4.094,1.58
	c0.092,0.054,0.18,0.11,0.264,0.162c0.011,0.006,0.021,0.012,0.027,0.018c0.512,0.327,0.905,0.632,1.17,0.854
	c0.135,0.11,0.36,0.318,0.375,0.335l0.025,0.023l0.094,0.098l0.096-0.096l0.023-0.023c0.115-0.113,0.662-0.625,1.572-1.205
	c0.084-0.053,0.172-0.107,0.265-0.162c1.005-0.606,2.394-1.253,4.095-1.58c0.623-0.122,1.165-0.175,1.635-0.175
	c1.178,0,1.896,0.33,2.322,0.754c0.431,0.425,0.576,0.96,0.576,1.398c0.006,0.503-0.332,1.19-0.97,1.83L20.689,12.625z
	 M18.869,11.165c-0.186-0.71-0.596-1.09-1.22-1.242c0.183-0.018,0.355-0.027,0.521-0.027c0.487-0.002,0.888,0.084,1.148,0.25
	c0.26,0.17,0.4,0.4,0.405,0.777c0,0.69-0.45,1.367-1.224,1.896c0.394-0.557,0.488-1.187,0.367-1.656L18.869,11.165z M3.65,12.817
	c-0.771-0.527-1.224-1.205-1.22-1.896c0-0.376,0.142-0.608,0.399-0.777c0.266-0.166,0.66-0.252,1.15-0.25
	c0.165,0,0.34,0.01,0.521,0.027c-0.625,0.152-1.036,0.532-1.22,1.242C3.164,11.634,3.26,12.264,3.65,12.817z M16.295,7.988
	L15.5,8.282l-0.223,0.08l0.688-0.835c-0.14-0.097-0.308-0.155-0.487-0.155c-0.471,0-0.853,0.382-0.853,0.85
	c0,0.398,0.275,0.733,0.646,0.825c-0.904,0.32-1.681,0.71-2.314,1.085c-0.074-0.146-0.206-0.39-0.399-0.65
	c0.296-0.31,1.369-1.38,2.951-2.324c1.87-1.12,3.896-1.635,3.896-1.635l-0.184,2.873c-0.147-0.013-0.301-0.02-0.461-0.018
	c-0.487,0-1.047,0.055-1.686,0.178c-0.332,0.063-0.65,0.14-0.957,0.226c0.13-0.15,0.21-0.345,0.21-0.56
	c0-0.08-0.012-0.16-0.033-0.234H16.295z M12.592,10.011c0.061,0.107,0.108,0.197,0.141,0.263c-0.156,0.096-0.302,0.19-0.436,0.282
	c-0.035-0.08-0.064-0.18-0.064-0.29c0-0.264-0.354-0.645-0.657-0.463c-0.235,0.142-0.29,0.59,0,0.75
	c0.175,0.098,0.271,0.204,0.327,0.284c-0.41,0.305-0.69,0.553-0.826,0.68c-0.136-0.127-0.415-0.375-0.827-0.68
	c0.055-0.08,0.153-0.187,0.327-0.284c0.29-0.16,0.235-0.608,0-0.75c-0.303-0.182-0.656,0.2-0.656,0.465
	c0,0.11-0.029,0.21-0.063,0.29c-0.137-0.093-0.28-0.188-0.437-0.283c0.096-0.196,0.33-0.63,0.694-0.992l0.96-0.962
	c0.18,0.178,0.582,0.58,0.962,0.962c0.244,0.242,0.43,0.518,0.554,0.73L12.592,10.011z M9.195,10.134
	C8.562,9.758,7.787,9.368,6.883,9.049c0.368-0.092,0.643-0.427,0.643-0.825c0-0.468-0.38-0.85-0.851-0.85
	c-0.184,0-0.35,0.06-0.487,0.156l0.536,0.653l0.149,0.18L5.86,7.99C5.84,8.065,5.828,8.144,5.828,8.224
	c0,0.215,0.078,0.41,0.21,0.56c-0.31-0.087-0.628-0.163-0.96-0.226C4.44,8.435,3.883,8.38,3.393,8.38
	c-0.16,0-0.313,0.005-0.46,0.018L2.75,5.522c0,0,2.023,0.516,3.896,1.635C8.226,8.1,9.3,9.17,9.596,9.48
	c-0.194,0.26-0.326,0.505-0.4,0.652L9.195,10.134z M21.035,9c-0.208-0.155-0.455-0.288-0.75-0.393l0.283-4.29
	c0,0-2.712,0.408-5.422,2.258c-1.875,1.28-2.69,2.202-2.935,2.504l-0.567-0.57c0.442-0.48,2.487-2.61,4.729-3.714
	c2.537-1.25,4.346-1.58,4.346-1.58l0.244-2.124c-2.047,0.75-4.68,1.936-6.354,3.532c-1.83,1.74-2.743,3.14-3.101,3.753l-0.34-0.342
	l-0.093-0.093l-0.092,0.093c-0.002,0-0.14,0.14-0.342,0.34c-0.355-0.612-1.269-2.012-3.099-3.75C5.87,3.027,3.238,1.842,1.19,1.092
	l0.245,2.123c0,0,1.81,0.33,4.344,1.58C8.02,5.9,10.066,8.03,10.51,8.51c-0.174,0.172-0.375,0.373-0.569,0.57
	C9.7,8.777,8.883,7.855,7.01,6.575C4.3,4.725,1.587,4.317,1.587,4.317l0.283,4.29C1.572,8.712,1.322,8.851,1.113,9.009
	C0.85,6.07,0.377,1.164,0.29,0.262h21.575c-0.088,0.902-0.564,5.8-0.83,8.736V9z"/>
</svg>
