<svg xmlns="http://www.w3.org/2000/svg" width="32.962" height="24.9" viewBox="0 0 32.962 24.9"><path d="M31.68 12.5c.878-.567.415-2.478-1.175-2.177.285-1.173-.063-2.177-1.69-1.925.337-2.2-2.202-1.61-3.202-1.163l-1.87-.952 3.632-.634-3.615-.316.27-.176-.608-.206L26.61 3.57l-3.063.405.752-.558-2.265-.986-1.353-1.17L17.867.01 16.504.5 15.108 0l-2.824 1.248-1.35 1.172-2.25 1.015.846.504-3.168-.38L9.52 4.94l-.61.166.296.23-3.586.355 3.672.67-1.86.896c-.917-.657-3.466-.93-3.175 1.096-1.63-.252-2.082.925-1.715 1.97-1.59-.297-1.938 1.662-1.23 2.152C.56 12.44.085 12.838 0 13.44v.408c.067.495.353 1.072.905 1.64l.705.223c1.238 1.24 2.953 1.368 4.035 1.1-.648-.19-1.982-1.518-1.726-1.41 1.424.586 2.04.78 3.102.522l9.578 8.98c2.81-2.652 6.557-6.208 9.39-8.953.784.155 1.806.117 3.01-.546.02-.01-.946 1.328-1.542 1.452 1.156.09 2.787.02 4.024-1.225l.653-.146c.494-.572.77-1.163.828-1.668v-.354c-.068-.57-.488-.965-1.28-.96zM8.815 8.54c-.036-.075-.098-.16-.18-.256-.166-.21-.408-.448-.62-.604l1.088-.115.157.705-.446.27zm14.974-.284l.09-.667 1.09.122c-.224.17-.442.408-.59.618-.053.073-.09.14-.124.2l-.467-.274z" fill="#fff"/><path d="M31.33 12.838c.804-1.286.493-2.41-1.15-2.148.3-1.31.163-2.2-1.733-1.905.11-.496.133-.833 0-1.1-.652-1.283-3.058-.145-4.158 1.132l-.755-.413.095-1.07 2.017.203-2.017-.825-.21-.557 2.944-.448-3.092-.086.21-.29-.66-.385L25.7 3.84l-3.314.676 1.205-.904-1.677-.887-1.262-1.128L18.068.425l-1.53.508h-.004L15.01.425l-2.593 1.172-1.262 1.128-1.682.886 1.21.906-3.32-.675 2.882 1.105-.662.386.213.29-3.09.088 2.943.448-.216.557-2.016.824 2.015-.204.1 1.07-.78.43C7.657 7.55 5.233 6.397 4.58 7.685c-.132.268-.108.604 0 1.1-1.895-.295-2.032.596-1.733 1.905-1.643-.263-1.953.86-1.146 2.147-2-.044-1.37 1.496-.6 2.496l.57.123c.883.777 1.745 1.187 3.146 1.192-.423-.43-.976-.854-1.21-1.396l.467-.123c1.23.485 2.025.69 3.113.39l1.322 1.26c.023.21.145.376.373.5.08.044.17.08.265.106l.684.652H7.982l-.152.428h1.084c-.03.086-.613 1.676-.613 1.676h.905l.613-1.676h.46l.724.69-.36 1.024h.94l.124-.355 1 .952h-3.95l-.27.94-.024.094h-.006l-.016.07-.153.5c.003-.004.007-.004.013-.004l-.035.12c1.747-.368 3.738-.496 5.645-.577l2.678 2.55 3.72-3.55c1.468-.053 2.983-.096 4.583-.146H20.46l1.084-1.037-.154.44h1.75c.19-.003.392-.034.604-.093.424-.11.688-.298.78-.558.02-.057.026-.107.026-.154 0-.19-.136-.333-.402-.418-.174-.056-.367-.084-.582-.084h-.372c-.094 0-.177-.01-.246-.03-.053-.015-.115-.04-.115-.082l.006-.02c.03-.084.146-.126.238-.147.085-.02.17-.03.258-.03h1.444l.182-.496h-1.664l.713-.68c.027-.008.055-.013.082-.02.423-.112.687-.3.78-.56.017-.055.025-.105.025-.153 0-.035-.006-.07-.018-.102l1.057-1.01c1.04.263 1.83.058 3.023-.415l.467.123c-.233.543-.785.968-1.21 1.396 1.4-.006 2.263-.415 3.144-1.192l.572-.123c.772-.996 1.4-2.536-.6-2.492zm-17.54 8.976h-2.404c.723-.1 1.438-.178 2.15-.24l.254.24zM24.12 9.03c-.074.1-.14.198-.195.297-.148-.02-.31-.03-.48-.032l.038-.396.637.13zm-3.133 2.235c.008.077.018.154.03.23h-.45l.42-.23zm-8.466.244h-.51c.014-.088.024-.177.033-.268l.48.266zM9.585 8.896l.035.396c-.18 0-.356.012-.518.032-.053-.096-.115-.193-.187-.29l.67-.138zM22.197 19.29c.172.057.367.085.578.085h.385c.09 0 .173.01.24.03.056.015.118.04.118.082l-.006.026c-.02.062-.103.11-.238.14-.084.02-.173.03-.26.03H21.6l.465-.446c.04.02.082.037.13.054z"/><path d="M8.218 21.615l-.02.07-.152.5c.004 0 .01 0 .014-.005l-.033.12c2.6-.55 5.746-.562 8.344-.686h-5.217c2.813-.388 5.476-.433 8.646-.578l-5.48-.005.323-.022c3.197-.242 6.385-.313 10.01-.43H8.517l-.27.95-.025.087h-.004zm3.024-3.685l-.75 2.116h.94l.753-2.117h-.943zm4.04-.004H13.86c-.238 0-.498.046-.773.135-.544.174-.895.474-1.044.896-.04.11-.06.216-.06.315 0 .26.13.465.387.605.21.113.467.17.77.17l1.503.004.46-1.31h-.94s-.253.717-.285.81h-.51c-.135 0-.238-.03-.31-.095-.07-.06-.103-.14-.103-.244 0-.062.012-.13.037-.202.083-.234.24-.397.475-.497.125-.05.236-.076.334-.076h1.418l.176-.506h-.11zm1.803 0c-.238 0-.498.047-.774.14-.542.174-.895.484-1.05.92-.037.105-.06.206-.06.3 0 .26.136.46.4.597.21.11.47.164.77.164h1.37l.175-.5h-1.32c-.13 0-.232-.034-.306-.1-.06-.05-.094-.12-.105-.207h1.844l.177-.5H16.37c.06-.072.133-.136.223-.188.135-.08.277-.12.434-.12h1.288l.178-.506h-1.408zm1.725.007l-.75 2.113H19s.18-.495.21-.582h.635l.3.582h.937s-.296-.58-.363-.708c.43-.142.7-.355.8-.64.022-.063.034-.125.034-.187 0-.213-.143-.374-.423-.474-.19-.067-.41-.104-.65-.104h-1.67zm1.39.5c.093 0 .172.017.234.052.084.042.096.09.096.126 0 .023-.008.046-.018.073-.04.112-.135.19-.29.24-.09.028-.173.042-.247.042h-.588c.048-.14.162-.457.188-.532h.626zm4.496-.5H23.06c-.193.005-.396.036-.607.092-.424.11-.686.3-.777.56-.02.058-.027.107-.027.152 0 .19.134.33.402.418.17.057.365.085.575.085h.386c.092 0 .172.01.242.03.055.015.115.04.115.082l-.003.026c-.023.062-.104.11-.238.14-.087.02-.174.03-.26.03h-1.455l-.176.498h1.75c.19-.004.39-.035.603-.092.424-.11.686-.3.78-.56.02-.056.026-.104.026-.153 0-.19-.138-.33-.405-.416-.17-.056-.365-.084-.578-.084h-.374c-.093 0-.176-.01-.245-.032-.054-.015-.116-.04-.116-.08l.006-.02c.027-.084.146-.126.24-.147.082-.017.17-.027.256-.027h1.443l.18-.5h-.114zm-16.86-.03l-.15.43h1.08l-.612 1.674h.904l.613-1.676h1.094l.15-.427H7.838z" fill="#F58220"/><path d="M7.554 8.975c-.02-.83-2.186-1.745-2.077.243.038.624 1.434 2.054 3.415 2.286 0 0-1.3-.833-1.338-2.53zM5.958 10.76c-.02-.828-2.19-1.743-2.078.245.034.623 1.43 2.052 3.416 2.285 0 0-1.3-.833-1.338-2.53z" fill="#fff"/><path d="M4.653 10.866c-.148.014-.258.176-.258.49.527.857 1.28 1.27 1.91 1.49-.595-.58-1.16-1.156-1.652-1.98zm-.353.29c.033-.162.105-.276.243-.387-.157-.09-.32-.32-.36-.534-.13.376-.182.615.117.92z"/><path d="M4.567 12.643c-.02-.828-2.19-1.748-2.076.243.033.623 1.43 2.053 3.416 2.286 0 0-1.3-.833-1.338-2.53z" fill="#fff"/><path d="M3.28 12.843c-.133.01-.232.157-.238.447.482.79 1.172 1.172 1.748 1.377-.543-.537-1.06-1.066-1.51-1.824zm-.347.295c.03-.176.105-.305.248-.43-.17-.09-.355-.333-.412-.57-.123.42-.173.68.166 1z"/><path d="M3.147 14.29c-.014-.72-1.896-1.51-1.8.21.032.542 1.243 1.782 2.962 1.982 0 0-1.13-.724-1.164-2.192z" fill="#fff"/><path d="M2.048 14.495c-.115.02-.196.148-.186.396.447.654 1.05.955 1.552 1.103-.49-.434-.952-.868-1.366-1.497zm-.348.252c.042-.146.123-.252.262-.347-.145-.095-.277-.328-.3-.543-.16.353-.225.577.038.89z"/><path d="M9.388 12.252c-.172-.814 1.738-2.195 2.078-.233.103.612-.936 2.32-2.813 2.995 0 0 1.077-1.102.735-2.764z" fill="#fff"/><path d="M10.49 12.104c.145-.03.293.1.374.408-.296.97-.925 1.563-1.48 1.936.433-.715.838-1.42 1.105-2.344zm.236-.686l-.157.5c.185.038.337.2.423.42.063-.105.15-.31.13-.48-.09-.182-.213-.33-.398-.44zM6.214 9.08c-.12.004-.213.128-.23.38.392.71.98 1.072 1.474 1.277-.453-.49-.887-.976-1.244-1.657zm-.332.228c.043-.152.123-.262.262-.356-.146-.1-.287-.334-.314-.553-.153.36-.22.593.052.907z"/><path d="M25.474 8.975c.02-.828 2.187-1.744 2.078.243-.04.624-1.434 2.054-3.417 2.286 0 0 1.3-.833 1.34-2.53zm1.596 1.785c.02-.828 2.19-1.743 2.075.245-.03.623-1.428 2.052-3.415 2.285 0 0 1.303-.833 1.34-2.53z" fill="#fff"/><path d="M28.374 10.866c.15.014.258.176.258.49-.527.857-1.28 1.27-1.91 1.49.595-.58 1.162-1.156 1.652-1.98zm.354.29c-.034-.162-.104-.276-.242-.387.156-.09.318-.32.36-.534.13.376.182.615-.118.92z"/><path d="M28.46 12.643c.02-.828 2.19-1.748 2.078.243-.033.623-1.43 2.053-3.416 2.286 0 0 1.3-.833 1.338-2.53z" fill="#fff"/><path d="M29.747 12.843c.133.01.232.157.238.447-.48.79-1.172 1.172-1.75 1.377.543-.537 1.065-1.066 1.512-1.824zm.347.295c-.028-.176-.103-.305-.247-.43.172-.09.357-.333.414-.57.125.42.174.68-.165 1z"/><path d="M29.88 14.29c.014-.72 1.896-1.51 1.8.21-.032.542-1.24 1.782-2.962 1.982 0 0 1.13-.724 1.162-2.192z" fill="#fff"/><path d="M30.98 14.495c.114.02.196.148.187.396-.45.654-1.053.955-1.553 1.103.49-.434.95-.868 1.366-1.497zm.35.252c-.045-.146-.126-.252-.263-.347.143-.095.275-.328.3-.543.157.353.223.577-.038.89z"/><path d="M23.64 12.252c.172-.814-1.738-2.195-2.076-.233-.105.612.934 2.32 2.81 2.995 0 0-1.078-1.102-.734-2.764z" fill="#fff"/><path d="M22.54 12.104c-.148-.03-.295.1-.377.408.297.97.924 1.563 1.48 1.936-.43-.715-.835-1.42-1.103-2.344zm-.238-.686l.158.5c-.186.038-.34.2-.425.42-.063-.105-.15-.31-.128-.48.086-.182.21-.33.395-.44zm4.51-2.338c.12.004.215.128.23.38-.39.71-.978 1.072-1.474 1.277.453-.49.886-.976 1.244-1.657zm.334.228c-.04-.152-.123-.262-.262-.356.15-.1.285-.334.314-.553.153.36.22.593-.052.907z"/><path d="M17.1 15.21c-.19.006-.394.037-.606.094-.422.11-.686.298-.777.558-.02.058-.027.107-.027.153 0 .19.137.33.404.42.17.055.365.083.575.083h.386c.09 0 .17.01.242.03.052.016.114.04.114.08l-.005.03c-.03.075-.147.117-.238.14-.087.017-.174.027-.263.027h-1.453l-.176.5h1.75c.192-.006.394-.037.605-.094.424-.11.688-.297.78-.557.02-.057.026-.105.026-.153 0-.193-.137-.334-.404-.42-.17-.055-.365-.082-.578-.082h-.374c-.094 0-.176-.01-.246-.032-.054-.014-.115-.04-.115-.08l.006-.02c.03-.085.146-.125.24-.147.082-.02.17-.03.257-.03h1.444l.18-.5H17.1zm4.964.004h-3.03l-.153.428h1.085c-.03.085-.613 1.676-.613 1.676h.903l.615-1.676h1.092l.152-.428h-.048zm-10.167.002l-.615 1.733h-.732l.625-1.735h-.838l-.615 1.733c-.354-.042-.535-.19-.535-.445 0-.073.018-.155.05-.246l.37-1.044h-.823l-.377 1.06c-.043.106-.06.206-.06.296 0 .245.124.434.38.573.213.115.477.173.787.173h2.466l.747-2.104h-.83zm13.14-.004H23.4c-.192.005-.397.036-.607.093-.423.11-.685.3-.78.558-.016.06-.025.108-.025.153 0 .19.136.332.404.418.172.057.363.085.576.085h.384c.092 0 .175.01.245.03.05.014.115.04.115.08l-.006.026c-.027.078-.146.12-.238.14-.086.02-.174.03-.26.03h-1.453l-.176.498h1.746c.19-.004.393-.035.604-.092.426-.112.69-.3.784-.56.017-.053.025-.104.025-.153 0-.19-.137-.333-.406-.42-.172-.054-.366-.082-.58-.082h-.37c-.095 0-.177-.012-.247-.033-.053-.015-.115-.04-.115-.08l.006-.02v-.008c.028-.078.146-.12.24-.14.08-.02.166-.03.255-.03h1.444l.18-.5h-.114zm-9.387 0h-1.3c-.235 0-.497.048-.773.138-.545.177-.9.486-1.052.923-.04.105-.057.206-.057.3 0 .26.134.46.397.598.21.11.47.164.77.164h1.37l.177-.498h-1.32c-.13-.002-.232-.035-.307-.1-.06-.05-.094-.12-.104-.21h1.845l.176-.497h-1.835c.06-.074.137-.14.225-.19.135-.08.28-.12.434-.12h1.29l.174-.505h-.11zm9.247-7.872l-1.476-.52-.475-.78 2.13-.248-2.24.034.18-.39-.675-.515 2.32-.775-2.625.64-.843-1.507-.293-.29-.343-.238-.905-.31-.728-.502-1.983-.147 1.007.646-.344 1.143.987.63.61-.184.844-.966.59 1.74.19 1.245-1.34-.968-.503-.156-1.436.646-.796.956v.327l2.473.77.658-.286-.585.77-1.145 5.85-1.604-.628-1.634.624-1.106-5.864-.586-.752.658.284L16.3 6.86v-.348l-.785-.95-1.43-.646-.506.16-1.34.97.19-1.245.59-1.745.843.967.612.187.99-.636-.344-1.137 1.006-.644-1.985.145-.73.504-.904.305-.314.22-.313.312-.846 1.505L8.52 4.18l2.21.743-.676.515.185.39-2.273-.037 2.17.243-.49.79-1.495.526 1.526-.235.208 1.305-1.215.55 1.255-.297.07.442.885.247-.24.64 2.656 1.666 1.7 2.854h3.073l1.7-2.854L22.43 10l-.243-.64.886-.248.07-.442 1.288.313-1.246-.566.21-1.305z" fill="#fff"/><path fill="#F58220" d="M21.683 2.86l-1.435-1.127-2.38-.947-1.332.33-1.332-.33-2.387.947-1.433 1.126-1.25.736.926.933.652-1.225.795-.56.904-.307.733-.505 1.985-.144-1.005.644.344 1.137-.99.636-.612-.186-.842-.966-.59 1.747-.19 1.246 1.337-.968.505-.16 1.43.644-1.017-1.235 1.306.877 1.414.01 1.353-.882-1.026 1.235 1.438-.644.505.157 1.34.968-.19-1.244-.59-1.74-.845.965-.61.18-.986-.63.344-1.14-1.006-.645 1.983.148.728.5.905.31.795.558.653 1.225.925-.933z"/><path d="M17.565 6.312l1.33-1.12.305.078.203.136-.99.382zm.11.495l1.273.205 1.143-.033.607-.627-.21-.175-1.553.593zm-.127-.127l1.252-.316 1.238-.5.316.23-1.502.437zm-.13-.14l1.077-.556 1.088-.453.318.24-1.28.37zm-1.972-.228l-1.33-1.12-.308.08-.205.14.99.376zm-.103.495l-1.287.205-1.14-.03-.604-.628.21-.175 1.553.597zm.123-.127l-1.258-.31-1.234-.507-.32.234 1.5.434zm.13-.14l-1.083-.552-1.086-.457-.315.24 1.282.37zm4.574-3.772l-2.315.81.712.447.6-.19zm-.15-.038l-2.177.752.35-1.438.125.89zm-.687-.287l-.59-.41-.367.826s.977-.408.957-.418zm-6.44.334l2.315.81-.715.448-.596-.19zm.815-.324l.59-.404.367.817s-.972-.4-.957-.415zm-.666.285l2.186.754-.352-1.44-.13.887z"/><path d="M18.385 3.47c-.01.203.15.37.353.384.21.01.393-.144.406-.348.006-.104-.033-.195-.102-.267l-.657.23zm-3.705.008c.02.21-.144.372-.356.386-.21.01-.39-.143-.402-.35-.008-.103.03-.193.098-.265l.66.227z" fill="#FFDF00"/><path d="M14.28 3.416c.057-.005.1.032.104.085.006.055-.037.098-.09.1-.053.008-.1-.036-.105-.084-.003-.05.037-.1.09-.1zm4.487-.038c.052 0 .1.038.105.09 0 .053-.04.095-.096.1-.053 0-.096-.038-.1-.09-.005-.053.038-.096.09-.1zM16.9 1.888l.758.67-.16.956-.522-.153.423-.702zm-.723 0l-.76.67.16.956.52-.153-.422-.702zm1.693-.768l1.573.734.343.523 1.315.486-.952-.587-.05-.36-2.227-.93-1.333.467-1.39-.467-2.258.93-.054.36-.95.592 1.313-.49.343-.524 1.61-.744 1.38.777zm-2.652 3.2c1.06.306 1.682.296 2.582-.014l-1.257.666-1.325-.65zm.285-.41c.834.24 1.315.23 2.025-.014l-.995.534-1.03-.52zm.007-.103c.827-.238 1.313-.23 2.02.01l-.993-.478-1.028.466zm4.977 1.01l.123.874-1.052-.826-.424-.194-.334-.287 1.115.147.172-.89zm-7.907.028l-.13.876 1.053-.832.424-.19.333-.29-1.114.153-.167-.895z"/><path fill="#fff" d="M10.397 3.6l.633.693.53-.978-.547.196.732-.72zm12.29.025l-.633.686-.533-.975.554.195-.734-.72z"/><path d="M21.017 4.69l.47 1.645-.643.85.59.446-1.95 1.57 1.193-1.515-.563-.23 1.102-1.162zm-8.977-.012l-.472 1.642.644.85-.594.446 1.895 1.54-1.135-1.487.562-.23-1.103-1.163zm.672-1.705L11.54 4.235l-1.05 2.543.116 1.424 1.368 1.868.957 1.095.513-.237.976 1.304-1.064-2.81-1.475-.818-.935-1.488.55-.505-.186-.67.333-1.62zm7.68-.043l1.17 1.258L22.61 6.73l-.118 1.43-1.368 1.868-.953 1.09-.512-.234-.976 1.302 1.068-2.812 1.472-.82.933-1.48-.548-.51.187-.67-.334-1.62z"/><path d="M16.533 11.662c-.024-.453-.17-1.597-.277-2.05-.367-.152-.647-.17-1.077-.014-.406.733-.533 1.662-.454 2.845.073-.74.02-1.325.438-2.148.145.76.248 1.796.47 2.414l.17-.3.26.312.24-.324.224.267.247-.264.23.316.23-.31.2.333c.2-.657.28-1.71.373-2.443.328.348.49 1.153.476 2.19.177-1.224-.005-1.505-.323-2.886-.466-.157-.923-.157-1.28.01-.11.454-.12 1.593-.15 2.05z" fill="#E82C2A"/><path d="M15.056 7.45l-.953.32c.115 1.075.252 2.105.643 2.943-.003-1.13-.016-2.072.31-3.263zm.637 5.86l-.75.237c-.067-1.314-.092-2.076.188-2.795.13.904.16 1.634.564 2.558zm1.654-.005l.758.238c.063-1.315.09-2.076-.194-2.796-.13.904-.157 1.634-.562 2.558zm-.81-.2l-.7.166-.148-.393.122-.243.24.28.25-.285.23.29.228-.295.22.31.253-.3.123.275-.128.342zM18.01 7.48l.948.318c-.115 1.082-.254 2.11-.64 2.943.005-1.122.015-2.064-.31-3.26zm-2.484-2.11l.254.318.358.128.395.696.41-.696.375-.128.206-.32zm.988 2.062h.022l.674-.225.67.23-.057.213-.332-.176-.19.167-.167-.155-.213.166-.177-.152-.215.153-.015-.01-.23-.113-.203.114-.188-.132-.186.128-.17-.204-.33.214-.037-.227.644-.208.7.222zm0 .347l-.237-.117-.196.106-.2-.107-.17.106-.2-.158-.295.17c-.03.083-.043.183-.043.282v.038c.005.22.053.443.095.543.12-.318.268-.58.467-.79l.157.433.216-.434.186.446.22-.44.005.004.015-.005.215.44.186-.445.216.433.15-.434c.2.21.35.467.47.79.063-.152.14-.595.05-.857l-.306-.114-.212.104-.202-.104-.165.108-.216-.103-.19.104-.01-.004" fill="#fff"/><path d="M10.076 10.166l.267-.443c-.426-.158-.904-.228-1.37-.2-.103-.134-.228-.274-.37-.414l-.543.11.42-.23C7.07 7.65 4.404 6.35 5.09 9.42c-2.667-1.2-2.092 1.215-1.644 1.824-2.01-.77-2.353.73-1.2 1.85-1.72-.13-1.9.466-.985 2.034.076.012.155.02.234.03-.158-.192-.262-.387-.3-.572-.18-.902.15-1.148.53-1.307.212-.083.457-.065.69.023-.038-.088-.07-.175-.087-.26-.21-1.047.172-1.338.62-1.522.296-.122.644-.07.966.09-.07-.12-.12-.244-.146-.366-.232-1.044.144-1.34.587-1.535.346-.153.773-.063 1.143.164-.1-.15-.167-.304-.2-.456-.23-1.043.142-1.343.586-1.533.58-.257 1.39.177 1.776.777.04.416.1.767.193 1.083.265.086.51.283.753.65l.14-.247c.132-.176.3-.248.47-.253-.257.4-.413.733-.39 1.225.022.052.076.198.137.4l.03.033h-.02c.216.754.476 2.235-.51 2.745-.79-.138-1.657-.357-2.62-.934.758.825 1.645 1.006 2.262 1.177-.568.468-1.242.61-2.21.454.087.103.18.21.278.32-1.043-.02-2.152-.475-2.914-1.055.044.296.113.56.214.804.213-.04.418-.09.607-.147 1.91.92 3.27.62 4.786-.38.37-.82.578-1.63.28-2.7.38-.602 1.146-1.26 1.727-1 .425.18.887.478.726 1.417.17-.44.196-.837.112-1.18l-1.634-.904zm20.704 2.93c1.152-1.12.81-2.62-1.2-1.85.448-.61 1.024-3.024-1.644-1.824.686-3.058-1.956-1.78-3.373-.45l.457.25-.587-.122c-.145.145-.272.287-.377.423-.45-.026-.914.038-1.333.186l.276.456-1.69.937c-.077.336-.05.72.12 1.148-.164-.94.3-1.235.723-1.417.582-.258 1.35.4 1.73 1-.303 1.07-.092 1.88.277 2.702 1.517.998 2.878 1.298 4.786.38.188.057.393.106.607.146.1-.244.172-.507.215-.804-.763.58-1.87 1.035-2.914 1.054.1-.11.19-.216.28-.318-.968.158-1.643.014-2.214-.453.62-.173 1.506-.354 2.264-1.178-.963.576-1.83.796-2.62.934-.985-.51-.724-1.99-.507-2.745h-.022l.03-.03c.06-.203.113-.35.137-.4.024-.49-.134-.824-.39-1.226.17.005.337.077.472.253l.137.247c.245-.367.49-.564.756-.65.094-.316.154-.667.193-1.082.386-.6 1.195-1.034 1.776-.777.443.19.814.49.588 1.533-.035.15-.105.304-.203.455.37-.227.8-.317 1.146-.165.443.195.818.49.586 1.534-.026.122-.075.246-.145.368.32-.16.67-.214.967-.09.447.184.83.475.62 1.522-.02.084-.05.17-.09.26.235-.09.48-.107.694-.022.38.158.708.404.527 1.307-.037.185-.143.38-.298.57.077-.01.157-.018.23-.028.918-1.57.736-2.166-.985-2.037z" fill="#F58220"/></svg>